<svg width="97" height="116" viewBox="0 0 97 116" fill="none" xmlns="http://www.w3.org/2000/svg">
<g opacity="0.03">
<path d="M83.465 26.5957L77.2269 16.3735L66.0923 20.7809L72.3302 31.0031L83.465 26.5957Z" fill="#FF5B00"/>
<path d="M21.3407 87.6495C24.9943 91.9227 28.8027 94.2142 33.3745 95.7444C36.1175 96.6625 38.5564 96.9704 41.3014 96.364C43.8933 96.2147 45.8769 94.8452 47.8605 93.4755C49.8441 92.1059 51.0665 89.9731 51.8316 87.6872C52.5967 85.4014 52.9046 82.9624 52.2982 80.2174C54.8863 83.1173 57.7805 85.1029 60.5236 86.021C62.3523 86.6331 64.0299 86.1778 66.3176 85.4184C68.6054 84.659 70.7421 82.832 72.5746 80.395C74.8642 78.111 76.8497 75.217 78.3781 72.1698C80.6696 68.3613 82.6551 65.4669 85.2489 63.7931C87.9957 61.6622 90.1305 61.36 92.4164 62.1251C94.2451 62.7372 95.3104 64.1107 96.0699 66.3984C96.8293 68.6862 96.6745 70.6679 95.7563 73.411C94.6852 76.6112 93.3099 79.2013 91.3244 82.0955C89.4919 84.5325 87.2022 86.8164 85.2186 88.186C83.235 89.5557 81.5575 90.0109 79.7288 89.3988C78.3573 88.9397 76.9875 86.9562 75.4667 83.9052L72.5688 84.9686C74.2407 89.087 76.2188 92.291 77.8925 94.8848C80.0235 97.6317 81.546 99.1581 83.8319 99.9232C85.6606 100.535 87.7954 100.233 89.626 99.3207C92.0668 98.104 94.0504 96.7344 95.8828 94.2974C97.7153 91.8604 99.5479 89.4234 100.466 86.6804C101.843 82.5658 102.306 78.1452 101.397 73.2655C100.946 68.5388 99.274 64.4205 96.3817 60.9104C94.0996 57.0962 90.7482 54.9576 87.548 53.8865C85.7193 53.2744 83.1273 53.4236 80.8395 54.183C78.5518 54.9424 75.958 56.6163 74.2785 58.5961C71.9889 60.8801 70.1564 63.317 68.628 66.3642C66.1835 70.6299 63.5878 73.8284 60.3838 75.8063C57.1798 77.7843 54.4348 78.3907 52.1489 77.6255C51.6917 77.4725 50.7774 77.1665 49.8631 76.8604C49.4078 75.1829 48.1912 72.7421 46.5193 68.6238C49.4173 67.5602 51.4009 66.1906 53.3845 64.821C55.5212 62.9942 56.5905 61.3184 57.2026 59.4897C58.1207 56.7467 58.2775 53.2403 56.4525 49.5791C55.0848 46.0709 52.8027 42.2567 49.7573 39.2039C46.712 36.151 43.3607 34.0126 40.1604 32.9414C37.4174 32.0233 34.6743 31.1051 31.4722 31.5585C28.4231 31.5547 25.2211 32.0081 22.3231 33.0717L28.408 43.7512C28.408 43.7512 34.2039 41.6239 37.253 41.6277C40.3021 41.6315 43.3513 41.6352 45.6372 42.4003C47.9231 43.1655 49.1415 44.0817 50.5112 46.0653C51.4236 47.8959 51.4217 49.4206 50.8096 51.2493C50.1976 53.078 49.7384 54.4493 47.7548 55.819C46.2284 57.3416 44.2448 58.7113 42.4142 59.6238C41.1976 57.183 39.828 55.1994 38.7625 53.8259C37.2398 52.2995 36.0214 51.3833 34.6499 50.9243C32.8212 50.3122 30.9924 49.7001 29.3149 50.1554C27.1801 50.4577 25.9597 51.0658 24.7393 51.6741C23.3659 52.7396 22.4496 53.9582 22.1436 54.8726C21.5315 56.7013 21.8338 58.836 22.5932 61.1237C23.3526 63.4115 24.7222 65.3952 26.549 67.5318C28.3758 69.6685 30.5087 70.8906 32.3374 71.5027C35.5376 72.5738 39.197 72.2735 43.3154 70.6016C43.9237 71.822 44.3788 73.4996 44.8341 75.1772C44.8322 76.7017 44.8304 78.2263 44.3713 79.5978C43.7592 81.4265 42.69 83.1023 41.3166 84.1677C39.9432 85.2332 38.1126 86.1456 35.9778 86.4478C33.8431 86.7501 31.8614 86.5953 30.0327 85.9832C26.8325 84.9121 23.9383 82.9265 21.8073 80.1797C19.2192 77.2798 17.3943 73.6186 15.8754 69.0431C14.3566 64.4676 13.9049 59.7408 13.6064 54.557L9.79413 55.3146C10.0907 62.023 10.9976 68.4272 13.1248 74.2231C15.252 80.019 17.6851 84.9007 21.3387 89.1739L21.3407 87.6495ZM29.4509 63.4191C29.4509 63.4191 28.5364 63.1131 28.2322 62.5029C28.2322 62.5029 28.0812 61.4356 28.2342 60.9784C28.5402 60.0641 28.8464 59.1496 29.9137 58.9984C31.1341 58.3901 32.3544 57.7818 33.4218 57.6307C34.4891 57.4796 36.0137 57.4814 36.928 57.7875C37.3852 57.9405 38.2996 58.2466 38.6037 58.8568C39.0609 59.0099 39.6693 60.2301 39.8204 61.2975C34.9388 63.7307 31.1264 64.4884 28.8406 63.7233L29.4509 63.4191Z" fill="#FF5B00"/>
<path d="M71.8519 47.6168C75.9665 48.994 80.5401 48.9996 84.6585 47.3278C89.234 45.8089 92.744 42.9166 95.9499 39.4141L88.7956 30.4105C85.7427 33.4558 82.3858 35.8908 78.8777 37.2586C75.3695 38.6263 71.7101 38.9267 68.967 38.0086C66.224 37.0905 63.3298 35.105 61.3519 31.901C59.374 28.697 58.0063 25.1888 57.5548 20.4621L53.8954 20.7624C54.8022 27.1666 56.4724 32.8096 59.8199 37.9972C62.8634 42.5746 66.8229 45.9335 71.3946 47.4637L71.8519 47.6168Z" fill="#FF5B00"/>
</g>
</svg>
