<svg width="24" height="24" viewBox="0 0 24 24" fill="none" xmlns="http://www.w3.org/2000/svg">
<g id="fi_2801881">
<g id="layer1">
<path id="circle2017" d="M10.9395 1.93164C5.98074 1.93164 1.94141 5.97096 1.94141 10.9297C1.94141 15.8884 5.98074 19.9356 10.9395 19.9356C13.0575 19.9356 15.0054 19.1933 16.5449 17.961L20.293 21.707C20.4821 21.8883 20.7347 21.9884 20.9967 21.9857C21.2587 21.983 21.5093 21.8779 21.6947 21.6927C21.8801 21.5076 21.9856 21.2572 21.9886 20.9953C21.9917 20.7333 21.892 20.4805 21.7109 20.2911L17.9629 16.5431C19.1963 15.0012 19.9395 13.0502 19.9395 10.9297C19.9395 5.97096 15.8982 1.93164 10.9395 1.93164ZM10.9395 3.93167C14.8173 3.93167 17.9375 7.05187 17.9375 10.9297C17.9375 14.8075 14.8173 17.9356 10.9395 17.9356C7.06162 17.9356 3.94141 14.8075 3.94141 10.9297C3.94141 7.05187 7.06162 3.93167 10.9395 3.93167Z" fill="#FF5B00"/>
</g>
</g>
</svg>
