<svg width="24" height="24" viewBox="0 0 24 24" fill="none" xmlns="http://www.w3.org/2000/svg">
<g id="fi_9219671" clip-path="url(#clip0_536_115193)">
<g id="Group">
<g id="Group_2">
<path id="Vector" d="M9.49144 23.1309C8.17369 23.1309 7.10156 22.0588 7.10156 20.7411C7.10156 19.4233 8.17369 18.3516 9.49144 18.3516C10.8092 18.3516 11.8813 19.4233 11.8813 20.7411C11.8813 22.0588 10.8092 23.1309 9.49144 23.1309ZM9.49144 19.8516C9.00094 19.8516 8.60156 20.2506 8.60156 20.7411C8.60156 21.2319 9.00056 21.6309 9.49144 21.6309C9.98231 21.6309 10.3813 21.2319 10.3813 20.7411C10.3813 20.2506 9.98231 19.8516 9.49144 19.8516Z" fill="#FF5B00"/>
<path id="Vector_2" d="M17.7997 23.1309C16.4819 23.1309 15.4102 22.0588 15.4102 20.7411C15.4102 19.4233 16.4819 18.3516 17.7997 18.3516C19.1174 18.3516 20.1895 19.4233 20.1895 20.7411C20.1895 22.0588 19.117 23.1309 17.7997 23.1309ZM17.7997 19.8516C17.3092 19.8516 16.9102 20.2506 16.9102 20.7411C16.9102 21.2319 17.3092 21.6309 17.7997 21.6309C18.2905 21.6309 18.6895 21.2319 18.6895 20.7411C18.6895 20.2506 18.2902 19.8516 17.7997 19.8516Z" fill="#FF5B00"/>
</g>
<path id="Vector_3" d="M19.5489 16.4985H7.7668C6.62042 16.4985 5.6413 15.7181 5.38555 14.6006L2.94017 3.92172C2.90792 3.78072 2.81042 3.65997 2.67917 3.59922L0.650796 2.65909C0.181296 2.44159 -0.0230794 1.88434 0.194421 1.41447C0.411921 0.944967 0.969546 0.740592 1.43905 0.958092L3.46742 1.89822C4.12105 2.20084 4.60742 2.80084 4.76792 3.50322L7.21329 14.1828C7.27255 14.4423 7.50017 14.6238 7.7668 14.6238H19.5489C19.8144 14.6238 20.0417 14.4435 20.1024 14.1847L22.0037 6.00484C22.058 5.77234 21.959 5.60322 21.8957 5.52334C21.8319 5.44309 21.6894 5.30884 21.4509 5.30884H7.57592C7.05805 5.30884 6.63842 4.88922 6.63842 4.37134C6.63842 3.85347 7.05805 3.43384 7.57592 3.43384H21.4509C22.2005 3.43384 22.8973 3.77022 23.3638 4.35709C23.8303 4.94397 23.9998 5.69922 23.8303 6.42934L21.9287 14.6096C21.6695 15.7215 20.6912 16.4985 19.5489 16.4985Z" fill="#FF5B00"/>
</g>
</g>
<defs>
<clipPath id="clip0_536_115193">
<rect width="24" height="24" fill="white"/>
</clipPath>
</defs>
</svg>
