<svg width="36" height="36" viewBox="0 0 36 36" fill="none" xmlns="http://www.w3.org/2000/svg">
<g id="fi_4494475" clip-path="url(#clip0_854_53803)">
<g id="Layer 2">
<g id="01.facebook">
<path id="background" d="M18 36C27.9411 36 36 27.9411 36 18C36 8.05888 27.9411 0 18 0C8.05888 0 0 8.05888 0 18C0 27.9411 8.05888 36 18 36Z" fill="#334C8C"/>
<path id="icon" d="M22.5615 16.2971L22.2631 18.8029C22.2502 18.9193 22.1947 19.0268 22.1072 19.1046C22.0197 19.1825 21.9065 19.2252 21.7894 19.2245H19.1841V26.6613C19.1848 26.7501 19.1502 26.8355 19.0881 26.899C19.026 26.9624 18.9413 26.9988 18.8525 27H16.1975C16.1534 26.9994 16.1098 26.9901 16.0692 26.9726C16.0286 26.9551 15.9919 26.9298 15.9611 26.8982C15.9303 26.8665 15.9061 26.8291 15.8897 26.788C15.8734 26.747 15.8653 26.7031 15.866 26.6589L15.8802 19.2245H13.9073C13.7816 19.2245 13.6612 19.1746 13.5723 19.0857C13.4835 18.9969 13.4336 18.8764 13.4336 18.7508V16.245C13.4336 16.1194 13.4835 15.9989 13.5723 15.9101C13.6612 15.8212 13.7816 15.7713 13.9073 15.7713H15.8683V13.3413C15.8683 10.53 17.5404 9 19.9894 9H21.9954C22.1211 9 22.2415 9.04991 22.3304 9.13874C22.4192 9.22757 22.4691 9.34806 22.4691 9.47368V11.5839C22.4691 11.7096 22.4192 11.8301 22.3304 11.9189C22.2415 12.0077 22.1211 12.0576 21.9954 12.0576H20.7662C19.4352 12.0789 19.1841 12.7161 19.1841 13.6682V15.7642H22.0996C22.1662 15.7654 22.2317 15.7805 22.292 15.8086C22.3522 15.8368 22.4059 15.8773 22.4495 15.9276C22.4931 15.9779 22.5255 16.0368 22.5448 16.1004C22.5641 16.1641 22.5698 16.2311 22.5615 16.2971Z" fill="white"/>
</g>
</g>
</g>
<defs>
<clipPath id="clip0_854_53803">
<rect width="36" height="36" fill="white"/>
</clipPath>
</defs>
</svg>
