<svg width="36" height="36" viewBox="0 0 36 36" fill="none" xmlns="http://www.w3.org/2000/svg">
<g id="fi_4138124">
<g id="Group">
<path id="Vector" d="M18.5 35C28.165 35 36 27.165 36 17.5C36 7.83502 28.165 0 18.5 0C8.83502 0 1 7.83502 1 17.5C1 27.165 8.83502 35 18.5 35Z" fill="url(#paint0_linear_854_53855)"/>
<g id="Group_2">
<path id="Vector_2" d="M22.2179 7.77777H14.7901C11.4768 7.77777 8.78564 10.4689 8.78564 13.7822V21.21C8.78564 24.5233 11.4768 27.2144 14.7901 27.2144H22.2179C25.5312 27.2144 28.2223 24.5233 28.2223 21.21V13.7822C28.2223 10.4689 25.5312 7.77777 22.2179 7.77777ZM26.0523 21.2178C26.0523 23.3333 24.3334 25.06 22.2101 25.06H14.7823C12.6668 25.06 10.9401 23.3411 10.9401 21.2178V13.79C10.9401 11.6744 12.659 9.94777 14.7823 9.94777H22.2101C24.3256 9.94777 26.0523 11.6667 26.0523 13.79V21.2178Z" fill="white"/>
<path id="Vector_3" d="M18.4998 12.53C15.762 12.53 13.5298 14.7622 13.5298 17.5C13.5298 20.2378 15.762 22.47 18.4998 22.47C21.2376 22.47 23.4698 20.2378 23.4698 17.5C23.4698 14.7622 21.2376 12.53 18.4998 12.53ZM18.4998 20.5178C16.8353 20.5178 15.482 19.1644 15.482 17.5C15.482 15.8356 16.8353 14.4822 18.4998 14.4822C20.1642 14.4822 21.5176 15.8356 21.5176 17.5C21.5176 19.1644 20.1642 20.5178 18.4998 20.5178Z" fill="white"/>
<path id="Vector_4" d="M23.8484 13.0748C24.3063 13.0006 24.6173 12.5693 24.543 12.1114C24.4688 11.6535 24.0375 11.3425 23.5796 11.4167C23.1217 11.4909 22.8107 11.9223 22.8849 12.3802C22.9591 12.8381 23.3905 13.1491 23.8484 13.0748Z" fill="white"/>
</g>
</g>
</g>
<defs>
<linearGradient id="paint0_linear_854_53855" x1="5.17503" y1="30.825" x2="30.0445" y2="5.95552" gradientUnits="userSpaceOnUse">
<stop stop-color="#FEE411"/>
<stop offset="0.0518459" stop-color="#FEDB16"/>
<stop offset="0.1381" stop-color="#FEC125"/>
<stop offset="0.2481" stop-color="#FE983D"/>
<stop offset="0.3762" stop-color="#FE5F5E"/>
<stop offset="0.5" stop-color="#FE2181"/>
<stop offset="1" stop-color="#9000DC"/>
</linearGradient>
</defs>
</svg>
