<svg width="36" height="36" viewBox="0 0 36 36" fill="none" xmlns="http://www.w3.org/2000/svg">
<g id="fi_179335" clip-path="url(#clip0_854_53866)">
<g id="Group">
<path id="Vector" d="M17.9999 0C27.9416 0 36 8.05949 36 18.0001C36 27.9417 27.9416 36 17.9999 36C8.05826 36 0 27.9416 0 18.0001C0 8.05949 8.05838 0 17.9999 0Z" fill="#C8232C"/>
<path id="Vector_2" d="M18.5447 7.88181C12.2019 7.88181 9.00586 12.2851 9.00586 15.9559C9.00586 18.1789 9.87435 20.1566 11.7396 20.8935C12.0445 21.0138 12.3202 20.8979 12.4079 20.5706L12.6801 19.5322C12.7701 19.2093 12.7353 19.0946 12.4888 18.8122C11.9499 18.199 11.608 17.4037 11.608 16.2775C11.608 13.0117 14.1314 10.0878 18.1791 10.0878C21.7646 10.0878 23.7333 12.2084 23.7333 15.0401C23.7333 18.7661 22.03 21.9116 19.501 21.9116C18.106 21.9116 17.0598 20.7945 17.3951 19.4208C17.7956 17.7851 18.5741 16.0177 18.5741 14.8353C18.5741 13.779 17.988 12.8947 16.773 12.8947C15.3453 12.8947 14.199 14.3246 14.199 16.2404C14.199 17.461 14.6253 18.2857 14.6253 18.2857L12.9075 25.3292C12.3979 27.4184 12.8321 29.9811 12.8681 30.2399C12.8906 30.3929 13.0931 30.4288 13.1853 30.3142C13.3169 30.1477 15.0168 28.1148 15.595 26.083C15.7593 25.5082 16.5345 22.5302 16.5345 22.5302C16.998 23.3886 18.3536 24.1424 19.7948 24.1424C24.0843 24.1424 26.9959 20.3546 26.9959 15.2852C26.9946 11.4525 23.6421 7.88181 18.5447 7.88181Z" fill="white"/>
</g>
</g>
<defs>
<clipPath id="clip0_854_53866">
<rect width="36" height="36" fill="white"/>
</clipPath>
</defs>
</svg>
