<svg width="1261" height="291" viewBox="0 0 1261 291" fill="none" xmlns="http://www.w3.org/2000/svg">
<g opacity="0.5">
<path d="M396.997 244.335L396.699 66.3782L392.76 66.3931L393.058 244.335H396.997Z" fill="url(#paint0_linear_167_37310)"/>
<path d="M394.404 0.00974968C392.834 22.2233 391.069 44.2125 387.812 54.7927L394.58 71.2821L401.269 54.7537C398.363 45.3046 396.111 22.35 394.404 0V0.00974968Z" fill="url(#paint1_linear_167_37310)"/>
<path d="M394.404 0.00974968L394.58 71.2821L401.269 54.7537C398.363 45.3046 396.111 22.35 394.404 0V0.00974968Z" fill="url(#paint2_linear_167_37310)"/>
<path d="M392.103 75.8556C387.257 84.0369 375.078 84.6025 368.144 79.0053C361.123 73.3007 361.25 62.8863 365.248 54.8025C367.842 49.059 375.497 38.5178 376.316 25.607C376.647 20.5266 375.253 12.4525 370.884 9.86841C377.291 11.3604 384.312 25.3145 377.33 44.2711C373.898 53.8371 364.634 66.8454 372.562 73.681C378.003 78.4884 389.929 75.9336 388.973 67.879C388.486 63.6469 385.658 61.9014 382.167 62.7206C380.831 63.0229 380.158 63.92 379.661 63.0716C379.602 62.9741 379.573 62.8668 379.563 62.7596C379.485 61.6577 382.108 60.4583 383.386 60.1365C391.508 58.1374 396.423 68.5616 392.094 75.8556H392.103Z" fill="url(#paint3_linear_167_37310)"/>
<path d="M379.389 79.0637C368.838 79.483 365.649 70.6581 366.449 62.9156C367.249 55.173 377.878 39.2003 378.199 26.0653C378.511 13.1838 371.169 9.96589 370.896 9.84888C377.302 11.3408 384.323 25.295 377.341 44.2515C373.909 53.8176 364.645 66.8258 372.573 73.6615C378.014 78.4689 389.94 75.9141 388.984 67.8595C388.497 63.6274 385.669 61.8819 382.178 62.701C380.842 63.0033 380.169 63.9004 379.672 63.0521C379.613 62.9546 379.584 62.8473 379.574 62.74C384.372 59.6294 389.335 61.3358 390.603 66.4748C391.91 71.7503 390.223 78.6152 379.379 79.0442L379.389 79.0637Z" fill="url(#paint4_linear_167_37310)"/>
<path d="M397.097 75.8356C401.982 83.9877 414.161 84.4948 421.075 78.8586C428.067 73.115 427.891 62.7006 423.844 54.646C421.221 48.9123 413.518 38.4101 412.63 25.4993C412.27 20.4189 413.625 12.3448 417.984 9.73145C411.587 11.2527 404.634 25.236 411.704 44.1634C415.185 53.7099 424.517 66.6791 416.619 73.5538C411.197 78.3905 399.261 75.8941 400.178 67.8396C400.646 63.6075 403.464 61.8425 406.955 62.6519C408.291 62.9444 408.974 63.8415 409.461 62.9932C409.52 62.8956 409.549 62.7884 409.559 62.6811C409.627 61.5792 407.004 60.3895 405.726 60.0678C397.594 58.1077 392.738 68.5514 397.097 75.8356Z" fill="url(#paint5_linear_167_37310)"/>
<path d="M409.821 78.9853C420.372 79.3559 423.522 70.5114 422.683 62.7786C421.844 55.0458 411.138 39.1219 410.747 25.9869C410.367 13.1054 417.69 9.85823 417.973 9.74121C411.576 11.2624 404.624 25.2458 411.693 44.1731C415.175 53.7197 424.507 66.6889 416.608 73.5636C411.186 78.4003 399.251 75.9039 400.167 67.8493C400.635 63.6172 403.453 61.8523 406.944 62.6616C408.28 62.9542 408.963 63.8513 409.451 63.0029C409.509 62.9054 409.538 62.7981 409.548 62.6909C404.731 59.6095 399.777 61.3354 398.529 66.4744C397.252 71.7596 398.968 78.6148 409.811 78.9951L409.821 78.9853Z" fill="url(#paint6_linear_167_37310)"/>
<path d="M398.519 71.3212C398.519 73.564 396.706 75.3973 394.463 75.3973C392.22 75.3973 390.387 73.5835 390.387 71.3407C390.387 69.0979 392.2 67.2646 394.443 67.2646C396.686 67.2646 398.519 69.0784 398.519 71.3212Z" fill="url(#paint7_radial_167_37310)"/>
<path d="M397.351 77.4838C397.351 79.083 396.064 80.38 394.474 80.38C392.875 80.38 391.578 79.0928 391.578 77.5033C391.578 75.9041 392.865 74.6072 394.455 74.6072C396.054 74.6072 397.351 75.8943 397.351 77.4838Z" fill="url(#paint8_radial_167_37310)"/>
<path d="M395.693 79.6196C395.693 79.6196 399.496 85.8507 393.938 88.8639C388.38 91.877 373.997 95.5923 366.673 105.256C359.35 114.919 358.765 125.022 358.765 125.022L352.329 121.053L343.612 122.457C343.612 122.457 345.25 103.93 357.176 97.6206C369.101 91.3114 378.746 90.9799 385.776 88.5128C392.817 86.0457 395.03 83.8614 394.552 79.6489L395.703 79.6099L395.693 79.6196Z" fill="url(#paint9_linear_167_37310)"/>
<path d="M398.081 118.186C396.033 117.045 392.805 112.101 395.253 102.974C397.272 95.4168 394.561 91.6138 391.567 90.5801C388.573 89.5367 384.088 90.8434 380.987 98.0204C377.242 106.699 371.645 108.571 369.324 108.201C369.324 108.201 369.753 113.379 382.137 117.689C394.522 121.989 398.071 118.196 398.071 118.196L398.081 118.186Z" fill="url(#paint10_linear_167_37310)"/>
<path style="mix-blend-mode:darken" d="M398.081 118.186C396.033 117.045 392.805 112.101 395.253 102.974C397.272 95.4168 394.561 91.6138 391.567 90.5801C388.573 89.5367 384.088 90.8434 380.987 98.0204C377.242 106.699 371.645 108.571 369.324 108.201C369.324 108.201 369.753 113.379 382.137 117.689C394.522 121.989 398.071 118.196 398.071 118.196L398.081 118.186Z" fill="url(#paint11_radial_167_37310)"/>
<path style="mix-blend-mode:darken" d="M398.081 118.186C396.033 117.045 392.805 112.101 395.253 102.974C397.272 95.4168 394.561 91.6138 391.567 90.5801C388.573 89.5367 384.088 90.8434 380.987 98.0204C377.242 106.699 371.645 108.571 369.324 108.201C369.324 108.201 369.753 113.379 382.137 117.689C394.522 121.989 398.071 118.196 398.071 118.196L398.081 118.186Z" fill="url(#paint12_radial_167_37310)"/>
<path d="M398.081 118.187C398.081 118.187 394.531 121.98 382.147 117.67C369.763 113.369 369.334 108.191 369.334 108.191C369.48 108.211 369.636 108.23 369.812 108.23C369.812 108.23 369.812 108.23 369.822 108.23C371.245 108.377 375.653 108.923 381.406 110.649C383.454 111.263 385.677 112.033 387.979 112.979C391.138 114.276 394.473 115.914 397.788 117.991C397.886 118.06 397.983 118.118 398.081 118.177V118.187Z" fill="url(#paint13_radial_167_37310)"/>
<path d="M393.031 86.3579C393.558 86.5432 393.87 87.5475 393.47 88.6982C393.07 89.8489 392.202 90.4437 391.676 90.2682C391.149 90.0829 390.837 89.0785 391.237 87.9279C391.637 86.7772 392.505 86.1824 393.031 86.3579ZM393.187 85.8996C392.319 85.5973 391.237 86.4359 390.769 87.7621C390.301 89.098 390.632 90.4242 391.51 90.7265C392.378 91.0288 393.46 90.1902 393.928 88.864C394.396 87.5281 394.065 86.2019 393.187 85.8996Z" fill="url(#paint14_radial_167_37310)"/>
<path d="M387.969 112.989V113.018C387.326 114.841 385.336 115.797 383.513 115.163C381.689 114.529 380.734 112.54 381.367 110.716C381.367 110.697 381.387 110.668 381.397 110.648C383.444 111.263 385.668 112.033 387.969 112.979V112.989Z" fill="url(#paint15_radial_167_37310)"/>
<path d="M420.939 102.486C418.658 103.023 412.943 101.55 408.585 93.1639C404.977 86.221 400.413 85.2459 397.507 86.494C394.601 87.7422 392.163 91.7305 394.718 99.122C397.8 108.054 394.942 113.213 392.973 114.5C392.973 114.5 396.785 118.03 408.828 112.862C420.871 107.684 420.939 102.496 420.939 102.496V102.486Z" fill="url(#paint16_linear_167_37310)"/>
<path style="mix-blend-mode:darken" d="M420.939 102.486C418.658 103.023 412.943 101.55 408.585 93.1639C404.977 86.221 400.413 85.2459 397.507 86.494C394.601 87.7422 392.163 91.7305 394.718 99.122C397.8 108.054 394.942 113.213 392.973 114.5C392.973 114.5 396.785 118.03 408.828 112.862C420.871 107.684 420.939 102.496 420.939 102.496V102.486Z" fill="url(#paint17_radial_167_37310)"/>
<path style="mix-blend-mode:darken" d="M420.939 102.486C418.658 103.023 412.943 101.55 408.585 93.1639C404.977 86.221 400.413 85.2459 397.507 86.494C394.601 87.7422 392.163 91.7305 394.718 99.122C397.8 108.054 394.942 113.213 392.973 114.5C392.973 114.5 396.785 118.03 408.828 112.862C420.871 107.684 420.939 102.496 420.939 102.496V102.486Z" fill="url(#paint18_radial_167_37310)"/>
<path d="M420.939 102.487C420.939 102.487 420.881 107.684 408.828 112.852C396.785 118.02 392.973 114.49 392.973 114.49C393.099 114.412 393.226 114.315 393.353 114.208C394.494 113.359 398.121 110.785 403.533 108.181C405.454 107.255 407.609 106.319 409.959 105.47C413.168 104.3 416.737 103.257 420.588 102.555C420.715 102.535 420.822 102.516 420.93 102.496L420.939 102.487Z" fill="url(#paint19_radial_167_37310)"/>
<path d="M395.742 82.3888C396.259 82.1646 397.166 82.7009 397.643 83.8223C398.121 84.9437 397.887 85.9676 397.37 86.1919C396.853 86.4161 395.947 85.8798 395.469 84.7584C394.991 83.637 395.225 82.6131 395.742 82.3888ZM395.547 81.9403C394.698 82.3011 394.464 83.6565 395.02 84.9534C395.576 86.2504 396.717 87.011 397.565 86.6404C398.414 86.2796 398.648 84.9339 398.092 83.6272C397.536 82.3303 396.395 81.5697 395.547 81.9403Z" fill="url(#paint20_radial_167_37310)"/>
<path d="M409.969 105.461V105.49C410.74 107.265 409.921 109.312 408.146 110.073C406.371 110.834 404.323 110.015 403.563 108.24C403.563 108.22 403.543 108.191 403.533 108.172C405.454 107.245 407.609 106.309 409.96 105.461H409.969Z" fill="url(#paint21_radial_167_37310)"/>
<path d="M394.113 82.6325C395.956 85.0801 397.594 87.4204 403.826 89.4487C410.057 91.4769 417.107 93.1932 419.984 101.14C422.86 109.098 415.732 113.398 407.999 125.256C400.276 137.113 401.817 144.358 401.817 144.358L406.809 141.794L412.329 143.52C412.329 143.52 410.154 132.403 416.151 122.896C422.148 113.388 427.941 103.266 419.447 95.2312C410.954 87.1864 398.813 87.0206 396.346 81.4136L394.104 82.6422L394.113 82.6325Z" fill="url(#paint22_linear_167_37310)"/>
<g opacity="0.2">
<path d="M1260.07 271.491H690.201L729.215 252.735L771.204 208.398L788.926 215.882L840.277 154.761L853.021 167.317L853.24 166.91L900.959 92.7021L902.869 89.7275L942.697 144.116L943.042 143.99L962.799 136.663L983.308 150.033L1014.84 128.742L1064.5 179.999L1065.38 179.936L1091.55 177.807L1093.68 177.65L1131.91 206.613L1149.07 200.101L1196.19 239.146L1209.6 235.983L1260.07 271.491Z" fill="#698387"/>
<path d="M1027.52 271.491H955.815L956.097 249.886L940.504 233.886L928.606 209.275L923.408 174.394L911.103 156.358L909.474 137.478L899.611 123.826L900.958 92.7021L902.868 89.7275L942.696 144.116L943.04 143.99L953.217 164.155L966.743 177.274L973.444 194.621L986.031 207.208L993.421 226.903L1008.17 239.616L1016.78 258.904L1027.52 271.491Z" fill="white"/>
<path d="M840.278 154.761L831.135 178.808L837.835 198.535L835.456 211.936L844.129 230.848L845.695 247.005L886.713 271.459L852.395 243.091L853.585 225.744L843.722 213.126L847.667 194.182L837.021 178.026L840.278 154.761Z" fill="white"/>
<path d="M835.455 211.936L815.354 243.874L838.618 212.719L835.455 211.936Z" fill="white"/>
<path d="M837.837 198.535L821.273 215.381L838.401 192.022L837.837 198.535Z" fill="white"/>
<path d="M840.278 154.761L909.57 219.827L838.211 165.814L840.278 154.761Z" fill="white"/>
<path d="M867.393 187.106L908.787 244.249L846.101 171.325L867.393 187.106Z" fill="white"/>
<path d="M838.211 165.814L869.366 224.555L846.101 171.325L838.211 165.814Z" fill="white"/>
<path d="M1097.25 223.365L1062.34 209.181L1047.56 176.867L1022.13 156.358L1014.84 128.742L1081.37 196.343L1087.36 207.647L1107.86 220.359L1114 233.479L1164.85 254.395L1108.68 240.868L1097.25 223.365Z" fill="white"/>
<path d="M1222.18 261.221L1190.28 245.064L1176.88 243.091L1165.04 232.853L1150.86 230.88L1140.59 217.447L1124.02 208.398L1109.46 200.915L1091.55 177.807L1093.68 177.65L1131.94 206.614L1149.07 200.132L1222.18 261.221Z" fill="white"/>
<path d="M900.956 92.7334L884.048 129.838L887.586 147.873L880.478 169.478L900.173 194.652L886.772 168.664L897.7 147.873L894.162 131.215L906.06 101.407L900.956 92.7334Z" fill="white"/>
<path d="M1014.84 128.742L1001.62 154.104L1005.51 167.224L1004.07 183.224L1011.86 211.31L1058.77 237.017L1018.03 205.987L1012.9 184.038L1017.41 168.664L1011.05 155.137L1014.84 128.742Z" fill="white"/>
<path d="M1022.13 156.358L1031.15 186.167L1025.67 155.262L1022.13 156.358Z" fill="white"/>
<path d="M1060.4 204.767L1083.04 258.278L1089.18 248.853L1107.03 262.787L1072.58 212.97L1060.4 204.767Z" fill="white"/>
</g>
<path d="M1199.89 290.623H318.814L379.152 261.66L444.06 193.087L471.489 204.704L550.895 110.175L570.559 129.619L570.935 128.961L644.673 14.2361L647.648 9.60205L709.206 93.7047L709.738 93.5481L740.298 82.1821L771.986 102.879L820.769 69.9393L897.576 149.22L898.891 149.095L939.377 145.807L942.665 145.557L1001.78 190.363L1028.3 180.281L1101.13 240.618L1121.86 235.765L1199.89 290.623Z" fill="#3D8995"/>
<path d="M840.371 290.623H729.528L729.935 257.213L705.825 232.477L687.445 194.434L679.398 140.547L660.361 112.648L657.825 83.4658L642.607 62.3306L644.674 14.2361L647.649 9.60205L709.207 93.7047L709.739 93.5481L725.489 124.672L746.405 144.993L756.769 171.827L776.214 191.271L787.642 221.706L810.468 241.37L823.776 271.178L840.371 290.623Z" fill="white"/>
<path d="M550.895 110.175L536.711 147.373L547.075 177.839L543.412 198.567L556.813 227.812L559.255 252.799L622.661 290.592L569.619 246.724L571.435 219.89L556.218 200.383L562.292 171.138L545.854 146.152L550.895 110.175Z" fill="white"/>
<path d="M543.411 198.567L512.319 247.945L548.295 199.788L543.411 198.567Z" fill="white"/>
<path d="M547.076 177.838L521.463 203.889L547.984 167.787L547.076 177.838Z" fill="white"/>
<path d="M550.895 110.175L658.012 210.747L547.67 127.24L550.895 110.175Z" fill="white"/>
<path d="M592.789 160.179L656.79 248.54L559.881 135.787L592.789 160.179Z" fill="white"/>
<path d="M547.67 127.239L595.827 218.073L559.881 135.787L547.67 127.239Z" fill="white"/>
<path d="M948.145 216.258L894.226 194.308L871.338 144.366L832.01 112.648L820.77 69.939L923.659 174.457L932.865 191.929L964.552 211.561L974.071 231.851L1052.73 264.195L965.836 243.279L948.145 216.258Z" fill="white"/>
<path d="M1141.37 274.779L1091.99 249.792L1071.3 246.724L1053.01 230.88L1031.06 227.843L1015.19 207.115L989.605 193.118L967.06 181.502L939.381 145.807L942.669 145.556L1001.82 190.363L1028.31 180.312L1141.37 274.779Z" fill="white"/>
<path d="M644.673 14.2676L618.528 71.6303L624.008 99.5288L613.018 132.938L643.452 171.827L622.755 131.654L639.664 99.5288L634.153 73.7594L652.564 27.6689L644.673 14.2676Z" fill="white"/>
<path d="M820.771 69.939L800.324 109.141L806.336 129.431L804.113 154.167L816.168 197.596L888.654 237.362L825.687 189.361L817.765 155.451L824.716 131.654L814.884 110.738L820.771 69.939Z" fill="white"/>
<path d="M832.012 112.648L845.977 158.707L837.522 110.957L832.012 112.648Z" fill="white"/>
<path d="M891.189 187.451L926.196 270.207L935.714 255.648L963.3 277.19L910.008 200.132L891.189 187.451Z" fill="white"/>
<g opacity="0.2">
<path d="M570.277 271.491H0.408203L39.4536 252.735L81.4424 208.398L99.1647 215.882L150.516 154.761L163.228 167.317L163.478 166.91L211.166 92.7021L213.107 89.7275L252.935 144.116L253.249 143.99L273.037 136.663L293.546 150.033L325.077 128.742L374.737 179.999L375.614 179.936L401.79 177.807L403.919 177.65L442.151 206.613L459.309 200.101L506.402 239.146L519.835 235.983L570.277 271.491Z" fill="#698387"/>
<path d="M337.755 271.491H266.052L266.302 249.886L250.709 233.886L238.842 209.275L233.644 174.394L221.339 156.358L219.679 137.478L209.848 123.826L211.163 92.7021L213.104 89.7275L252.932 144.116L253.245 143.99L263.453 164.155L276.979 177.274L283.68 194.621L296.267 207.208L303.626 226.903L318.405 239.616L327.015 258.904L337.755 271.491Z" fill="white"/>
<path d="M150.514 154.761L141.34 178.808L148.041 198.535L145.692 211.936L154.365 230.848L155.931 247.005L196.918 271.459L162.632 243.091L163.821 225.744L153.958 213.126L157.904 194.182L147.258 178.026L150.514 154.761Z" fill="white"/>
<path d="M145.694 211.936L125.592 243.874L148.825 212.719L145.694 211.936Z" fill="white"/>
<path d="M148.042 198.535L131.479 215.381L148.637 192.022L148.042 198.535Z" fill="white"/>
<path d="M150.514 154.761L219.806 219.827L148.447 165.814L150.514 154.761Z" fill="white"/>
<path d="M177.632 187.107L219.025 244.25L156.34 171.326L177.632 187.107Z" fill="white"/>
<path d="M148.447 165.815L179.571 224.555L156.338 171.326L148.447 165.815Z" fill="white"/>
<path d="M407.457 223.365L372.576 209.181L357.797 176.867L332.34 156.358L325.076 128.742L391.613 196.343L397.562 207.647L418.071 220.359L424.24 233.479L475.09 254.395L418.885 240.868L407.457 223.365Z" fill="white"/>
<path d="M532.423 261.22L500.485 245.064L487.115 243.091L475.279 232.852L461.095 230.88L450.825 217.447L434.261 208.398L419.701 200.915L401.791 177.807L403.92 177.65L442.152 206.613L459.31 200.132L532.423 261.22Z" fill="white"/>
<path d="M211.167 92.7334L194.259 129.838L197.828 147.873L190.721 169.478L210.384 194.652L197.014 168.664L207.942 147.873L204.373 131.215L216.271 101.407L211.167 92.7334Z" fill="white"/>
<path d="M325.077 128.742L311.832 154.104L315.746 167.224L314.306 183.224L322.102 211.31L368.976 237.017L328.239 205.987L323.104 184.038L327.644 168.664L321.288 155.137L325.077 128.742Z" fill="white"/>
<path d="M332.34 156.359L341.358 186.167L335.909 155.263L332.34 156.359Z" fill="white"/>
<path d="M370.635 204.766L393.242 258.277L399.41 248.853L417.258 262.786L382.784 212.97L370.635 204.766Z" fill="white"/>
</g>
</g>
<defs>
<linearGradient id="paint0_linear_167_37310" x1="392.899" y1="155.396" x2="396.839" y2="155.389" gradientUnits="userSpaceOnUse">
<stop stop-color="#8D8D8D"/>
<stop offset="0.09" stop-color="#757575"/>
<stop offset="0.22" stop-color="#5A5A5A"/>
<stop offset="0.36" stop-color="#474747"/>
<stop offset="0.5" stop-color="#3B3B3B"/>
<stop offset="0.64" stop-color="#383838"/>
<stop offset="0.72" stop-color="#3B3B3B"/>
<stop offset="0.79" stop-color="#454545"/>
<stop offset="0.85" stop-color="#575757"/>
<stop offset="0.91" stop-color="#6F6F6F"/>
<stop offset="0.97" stop-color="#8F8F8F"/>
<stop offset="1" stop-color="#A0A0A0"/>
</linearGradient>
<linearGradient id="paint1_linear_167_37310" x1="357.706" y1="46.4738" x2="401.175" y2="33.7006" gradientUnits="userSpaceOnUse">
<stop stop-color="#A0A0A0"/>
<stop offset="0.03" stop-color="#8F8F8F"/>
<stop offset="0.09" stop-color="#6F6F6F"/>
<stop offset="0.15" stop-color="#575757"/>
<stop offset="0.21" stop-color="#454545"/>
<stop offset="0.28" stop-color="#3B3B3B"/>
<stop offset="0.36" stop-color="#383838"/>
<stop offset="0.46" stop-color="#3B3B3B"/>
<stop offset="0.56" stop-color="#474747"/>
<stop offset="0.65" stop-color="#5A5A5A"/>
<stop offset="0.74" stop-color="#757575"/>
<stop offset="0.81" stop-color="#909090"/>
<stop offset="0.86" stop-color="#AEAEAE"/>
<stop offset="0.91" stop-color="#C3C3C3"/>
<stop offset="0.96" stop-color="#CFCFCF"/>
<stop offset="1" stop-color="#D4D4D4"/>
</linearGradient>
<linearGradient id="paint2_linear_167_37310" x1="378.795" y1="77.256" x2="408.784" y2="-1.28638" gradientUnits="userSpaceOnUse">
<stop stop-color="#A0A0A0"/>
<stop offset="0.03" stop-color="#8F8F8F"/>
<stop offset="0.09" stop-color="#6F6F6F"/>
<stop offset="0.15" stop-color="#575757"/>
<stop offset="0.21" stop-color="#454545"/>
<stop offset="0.28" stop-color="#3B3B3B"/>
<stop offset="0.36" stop-color="#383838"/>
<stop offset="0.46" stop-color="#3B3B3B"/>
<stop offset="0.56" stop-color="#474747"/>
<stop offset="0.65" stop-color="#5A5A5A"/>
<stop offset="0.74" stop-color="#757575"/>
<stop offset="0.81" stop-color="#909090"/>
<stop offset="0.86" stop-color="#AEAEAE"/>
<stop offset="0.91" stop-color="#C3C3C3"/>
<stop offset="0.96" stop-color="#CFCFCF"/>
<stop offset="1" stop-color="#D4D4D4"/>
</linearGradient>
<linearGradient id="paint3_linear_167_37310" x1="371.571" y1="45.6794" x2="418.576" y2="83.1072" gradientUnits="userSpaceOnUse">
<stop stop-color="#A0A0A0"/>
<stop offset="0.03" stop-color="#8F8F8F"/>
<stop offset="0.09" stop-color="#6F6F6F"/>
<stop offset="0.15" stop-color="#575757"/>
<stop offset="0.21" stop-color="#454545"/>
<stop offset="0.28" stop-color="#3B3B3B"/>
<stop offset="0.36" stop-color="#383838"/>
<stop offset="0.46" stop-color="#3B3B3B"/>
<stop offset="0.56" stop-color="#474747"/>
<stop offset="0.65" stop-color="#5A5A5A"/>
<stop offset="0.74" stop-color="#757575"/>
<stop offset="0.81" stop-color="#909090"/>
<stop offset="0.86" stop-color="#AEAEAE"/>
<stop offset="0.91" stop-color="#C3C3C3"/>
<stop offset="0.96" stop-color="#CFCFCF"/>
<stop offset="1" stop-color="#D4D4D4"/>
</linearGradient>
<linearGradient id="paint4_linear_167_37310" x1="381.265" y1="77.5328" x2="365.374" y2="15.3191" gradientUnits="userSpaceOnUse">
<stop stop-color="#A0A0A0"/>
<stop offset="0.03" stop-color="#8F8F8F"/>
<stop offset="0.09" stop-color="#6F6F6F"/>
<stop offset="0.15" stop-color="#575757"/>
<stop offset="0.21" stop-color="#454545"/>
<stop offset="0.28" stop-color="#3B3B3B"/>
<stop offset="0.36" stop-color="#383838"/>
<stop offset="0.46" stop-color="#3B3B3B"/>
<stop offset="0.56" stop-color="#474747"/>
<stop offset="0.65" stop-color="#5A5A5A"/>
<stop offset="0.74" stop-color="#757575"/>
<stop offset="0.81" stop-color="#909090"/>
<stop offset="0.86" stop-color="#AEAEAE"/>
<stop offset="0.91" stop-color="#C3C3C3"/>
<stop offset="0.96" stop-color="#CFCFCF"/>
<stop offset="1" stop-color="#D4D4D4"/>
</linearGradient>
<linearGradient id="paint5_linear_167_37310" x1="417.464" y1="45.512" x2="370.632" y2="83.1593" gradientUnits="userSpaceOnUse">
<stop stop-color="#A0A0A0"/>
<stop offset="0.03" stop-color="#8F8F8F"/>
<stop offset="0.09" stop-color="#6F6F6F"/>
<stop offset="0.15" stop-color="#575757"/>
<stop offset="0.21" stop-color="#454545"/>
<stop offset="0.28" stop-color="#3B3B3B"/>
<stop offset="0.36" stop-color="#383838"/>
<stop offset="0.46" stop-color="#3B3B3B"/>
<stop offset="0.56" stop-color="#474747"/>
<stop offset="0.65" stop-color="#5A5A5A"/>
<stop offset="0.74" stop-color="#757575"/>
<stop offset="0.81" stop-color="#909090"/>
<stop offset="0.86" stop-color="#AEAEAE"/>
<stop offset="0.91" stop-color="#C3C3C3"/>
<stop offset="0.96" stop-color="#CFCFCF"/>
<stop offset="1" stop-color="#D4D4D4"/>
</linearGradient>
<linearGradient id="paint6_linear_167_37310" x1="407.926" y1="77.4124" x2="423.512" y2="15.112" gradientUnits="userSpaceOnUse">
<stop stop-color="#A0A0A0"/>
<stop offset="0.03" stop-color="#8F8F8F"/>
<stop offset="0.09" stop-color="#6F6F6F"/>
<stop offset="0.15" stop-color="#575757"/>
<stop offset="0.21" stop-color="#454545"/>
<stop offset="0.28" stop-color="#3B3B3B"/>
<stop offset="0.36" stop-color="#383838"/>
<stop offset="0.46" stop-color="#3B3B3B"/>
<stop offset="0.56" stop-color="#474747"/>
<stop offset="0.65" stop-color="#5A5A5A"/>
<stop offset="0.74" stop-color="#757575"/>
<stop offset="0.81" stop-color="#909090"/>
<stop offset="0.86" stop-color="#AEAEAE"/>
<stop offset="0.91" stop-color="#C3C3C3"/>
<stop offset="0.96" stop-color="#CFCFCF"/>
<stop offset="1" stop-color="#D4D4D4"/>
</linearGradient>
<radialGradient id="paint7_radial_167_37310" cx="0" cy="0" r="1" gradientUnits="userSpaceOnUse" gradientTransform="translate(393.901 69.8861) rotate(-0.14) scale(5.88004 5.88005)">
<stop stop-color="#D4D4D4"/>
<stop offset="0.04" stop-color="#CFCFCF"/>
<stop offset="0.09" stop-color="#C3C3C3"/>
<stop offset="0.14" stop-color="#AEAEAE"/>
<stop offset="0.19" stop-color="#8D8D8D"/>
<stop offset="0.26" stop-color="#757575"/>
<stop offset="0.35" stop-color="#5A5A5A"/>
<stop offset="0.44" stop-color="#474747"/>
<stop offset="0.54" stop-color="#3B3B3B"/>
<stop offset="0.64" stop-color="#383838"/>
<stop offset="0.72" stop-color="#3B3B3B"/>
<stop offset="0.79" stop-color="#454545"/>
<stop offset="0.85" stop-color="#575757"/>
<stop offset="0.91" stop-color="#6F6F6F"/>
<stop offset="0.97" stop-color="#8F8F8F"/>
<stop offset="1" stop-color="#A0A0A0"/>
</radialGradient>
<radialGradient id="paint8_radial_167_37310" cx="0" cy="0" r="1" gradientUnits="userSpaceOnUse" gradientTransform="translate(394.075 76.4677) rotate(-0.14) scale(4.17357 4.17356)">
<stop stop-color="#D4D4D4"/>
<stop offset="0.04" stop-color="#CFCFCF"/>
<stop offset="0.09" stop-color="#C3C3C3"/>
<stop offset="0.14" stop-color="#AEAEAE"/>
<stop offset="0.19" stop-color="#8D8D8D"/>
<stop offset="0.26" stop-color="#757575"/>
<stop offset="0.35" stop-color="#5A5A5A"/>
<stop offset="0.44" stop-color="#474747"/>
<stop offset="0.54" stop-color="#3B3B3B"/>
<stop offset="0.64" stop-color="#383838"/>
<stop offset="0.72" stop-color="#3B3B3B"/>
<stop offset="0.79" stop-color="#454545"/>
<stop offset="0.85" stop-color="#575757"/>
<stop offset="0.91" stop-color="#6F6F6F"/>
<stop offset="0.97" stop-color="#8F8F8F"/>
<stop offset="1" stop-color="#A0A0A0"/>
</radialGradient>
<linearGradient id="paint9_linear_167_37310" x1="346.999" y1="125.447" x2="380.984" y2="86.378" gradientUnits="userSpaceOnUse">
<stop stop-color="#B80000"/>
<stop offset="0.07" stop-color="#D6080C"/>
<stop offset="0.16" stop-color="#F31118"/>
<stop offset="0.2" stop-color="#FF151D"/>
<stop offset="0.23" stop-color="#FF1D25"/>
<stop offset="0.33" stop-color="#FF3A40"/>
<stop offset="0.42" stop-color="#FF4B51"/>
<stop offset="0.49" stop-color="#FF5257"/>
<stop offset="0.58" stop-color="#FF4E53"/>
<stop offset="0.67" stop-color="#FF4348"/>
<stop offset="0.75" stop-color="#FF3037"/>
<stop offset="0.83" stop-color="#FF151D"/>
<stop offset="1" stop-color="#B80000"/>
</linearGradient>
<linearGradient id="paint10_linear_167_37310" x1="375.592" y1="100.183" x2="410.242" y2="112.229" gradientUnits="userSpaceOnUse">
<stop stop-color="#919191"/>
<stop offset="0.1" stop-color="#5E5E5E"/>
<stop offset="0.19" stop-color="#B1B1B1"/>
<stop offset="0.42" stop-color="#939393"/>
<stop offset="0.55" stop-color="#3B3B3B"/>
<stop offset="0.66" stop-color="#939393"/>
<stop offset="0.79" stop-color="#C5C5C5"/>
<stop offset="0.92" stop-color="#A6A6A6"/>
<stop offset="1" stop-color="#919191"/>
</linearGradient>
<radialGradient id="paint11_radial_167_37310" cx="0" cy="0" r="1" gradientUnits="userSpaceOnUse" gradientTransform="translate(409.221 106.289) rotate(19.17) scale(30.5509 30.5509)">
<stop stop-color="#919191"/>
<stop offset="0.1" stop-color="#5E5E5E"/>
<stop offset="0.19" stop-color="#B1B1B1"/>
<stop offset="0.42" stop-color="#939393"/>
<stop offset="0.55" stop-color="#3B3B3B"/>
<stop offset="0.66" stop-color="#939393"/>
<stop offset="0.79" stop-color="#C5C5C5"/>
<stop offset="0.92" stop-color="#A6A6A6"/>
<stop offset="1" stop-color="#919191"/>
</radialGradient>
<radialGradient id="paint12_radial_167_37310" cx="0" cy="0" r="1" gradientUnits="userSpaceOnUse" gradientTransform="translate(365.142 90.4491) rotate(19.17) scale(35.3096 35.3095)">
<stop stop-color="#919191"/>
<stop offset="0.1" stop-color="#5E5E5E"/>
<stop offset="0.19" stop-color="#B1B1B1"/>
<stop offset="0.42" stop-color="#939393"/>
<stop offset="0.55" stop-color="#3B3B3B"/>
<stop offset="0.66" stop-color="#939393"/>
<stop offset="0.79" stop-color="#C5C5C5"/>
<stop offset="0.92" stop-color="#A6A6A6"/>
<stop offset="1" stop-color="#919191"/>
</radialGradient>
<radialGradient id="paint13_radial_167_37310" cx="0" cy="0" r="1" gradientUnits="userSpaceOnUse" gradientTransform="translate(384.88 114.54) rotate(19.17) scale(27.84 17.8176)">
<stop stop-color="#919191"/>
<stop offset="0.05" stop-color="#7A7A7A"/>
<stop offset="0.1" stop-color="#5E5E5E"/>
<stop offset="0.19" stop-color="#B1B1B1"/>
<stop offset="0.42" stop-color="#939393"/>
<stop offset="0.55" stop-color="#3B3B3B"/>
<stop offset="0.66" stop-color="#939393"/>
<stop offset="0.79" stop-color="#C5C5C5"/>
<stop offset="0.92" stop-color="#A6A6A6"/>
<stop offset="1" stop-color="#919191"/>
</radialGradient>
<radialGradient id="paint14_radial_167_37310" cx="0" cy="0" r="1" gradientUnits="userSpaceOnUse" gradientTransform="translate(391.674 84.7235) rotate(19.17) scale(7.68403 7.68403)">
<stop stop-color="#919191"/>
<stop offset="0.05" stop-color="#7A7A7A"/>
<stop offset="0.1" stop-color="#5E5E5E"/>
<stop offset="0.19" stop-color="#B1B1B1"/>
<stop offset="0.42" stop-color="#939393"/>
<stop offset="0.55" stop-color="#3B3B3B"/>
<stop offset="0.66" stop-color="#939393"/>
<stop offset="0.79" stop-color="#C5C5C5"/>
<stop offset="0.92" stop-color="#A6A6A6"/>
<stop offset="1" stop-color="#919191"/>
</radialGradient>
<radialGradient id="paint15_radial_167_37310" cx="0" cy="0" r="1" gradientUnits="userSpaceOnUse" gradientTransform="translate(385.262 110.916) rotate(19.17) scale(5.92882 5.92881)">
<stop stop-color="#B1B1B1"/>
<stop offset="0.25" stop-color="#939393"/>
<stop offset="0.47" stop-color="#3B3B3B"/>
<stop offset="0.66" stop-color="#939393"/>
<stop offset="0.79" stop-color="#C5C5C5"/>
<stop offset="0.92" stop-color="#A6A6A6"/>
<stop offset="1" stop-color="#919191"/>
</radialGradient>
<linearGradient id="paint16_linear_167_37310" x1="392.177" y1="104.415" x2="425.894" y2="89.9357" gradientUnits="userSpaceOnUse">
<stop stop-color="#919191"/>
<stop offset="0.1" stop-color="#5E5E5E"/>
<stop offset="0.19" stop-color="#B1B1B1"/>
<stop offset="0.42" stop-color="#939393"/>
<stop offset="0.55" stop-color="#3B3B3B"/>
<stop offset="0.66" stop-color="#939393"/>
<stop offset="0.79" stop-color="#C5C5C5"/>
<stop offset="0.92" stop-color="#A6A6A6"/>
<stop offset="1" stop-color="#919191"/>
</linearGradient>
<radialGradient id="paint17_radial_167_37310" cx="0" cy="0" r="1" gradientUnits="userSpaceOnUse" gradientTransform="translate(421.121 86.2336) rotate(-23.24) scale(30.5509 30.5509)">
<stop stop-color="#919191"/>
<stop offset="0.1" stop-color="#5E5E5E"/>
<stop offset="0.19" stop-color="#B1B1B1"/>
<stop offset="0.42" stop-color="#939393"/>
<stop offset="0.55" stop-color="#3B3B3B"/>
<stop offset="0.66" stop-color="#939393"/>
<stop offset="0.79" stop-color="#C5C5C5"/>
<stop offset="0.92" stop-color="#A6A6A6"/>
<stop offset="1" stop-color="#919191"/>
</radialGradient>
<radialGradient id="paint18_radial_167_37310" cx="0" cy="0" r="1" gradientUnits="userSpaceOnUse" gradientTransform="translate(377.893 104.266) rotate(-23.24) scale(35.3096 35.3095)">
<stop stop-color="#919191"/>
<stop offset="0.1" stop-color="#5E5E5E"/>
<stop offset="0.19" stop-color="#B1B1B1"/>
<stop offset="0.42" stop-color="#939393"/>
<stop offset="0.55" stop-color="#3B3B3B"/>
<stop offset="0.66" stop-color="#939393"/>
<stop offset="0.79" stop-color="#C5C5C5"/>
<stop offset="0.92" stop-color="#A6A6A6"/>
<stop offset="1" stop-color="#919191"/>
</radialGradient>
<radialGradient id="paint19_radial_167_37310" cx="0" cy="0" r="1" gradientUnits="userSpaceOnUse" gradientTransform="translate(407.051 105.625) rotate(-23.24) scale(27.84 17.8176)">
<stop stop-color="#919191"/>
<stop offset="0.05" stop-color="#7A7A7A"/>
<stop offset="0.1" stop-color="#5E5E5E"/>
<stop offset="0.19" stop-color="#B1B1B1"/>
<stop offset="0.42" stop-color="#939393"/>
<stop offset="0.55" stop-color="#3B3B3B"/>
<stop offset="0.66" stop-color="#939393"/>
<stop offset="0.79" stop-color="#C5C5C5"/>
<stop offset="0.92" stop-color="#A6A6A6"/>
<stop offset="1" stop-color="#919191"/>
</radialGradient>
<radialGradient id="paint20_radial_167_37310" cx="0" cy="0" r="1" gradientUnits="userSpaceOnUse" gradientTransform="translate(393.632 82.1512) rotate(-23.24) scale(7.68404 7.68405)">
<stop stop-color="#919191"/>
<stop offset="0.05" stop-color="#7A7A7A"/>
<stop offset="0.1" stop-color="#5E5E5E"/>
<stop offset="0.19" stop-color="#B1B1B1"/>
<stop offset="0.42" stop-color="#939393"/>
<stop offset="0.55" stop-color="#3B3B3B"/>
<stop offset="0.66" stop-color="#939393"/>
<stop offset="0.79" stop-color="#C5C5C5"/>
<stop offset="0.92" stop-color="#A6A6A6"/>
<stop offset="1" stop-color="#919191"/>
</radialGradient>
<radialGradient id="paint21_radial_167_37310" cx="0" cy="0" r="1" gradientUnits="userSpaceOnUse" gradientTransform="translate(406.564 105.814) rotate(-23.24) scale(5.92881 5.92881)">
<stop stop-color="#B1B1B1"/>
<stop offset="0.25" stop-color="#939393"/>
<stop offset="0.47" stop-color="#3B3B3B"/>
<stop offset="0.66" stop-color="#939393"/>
<stop offset="0.79" stop-color="#C5C5C5"/>
<stop offset="0.92" stop-color="#A6A6A6"/>
<stop offset="1" stop-color="#919191"/>
</radialGradient>
<linearGradient id="paint22_linear_167_37310" x1="387.111" y1="131.59" x2="411.985" y2="103.006" gradientUnits="userSpaceOnUse">
<stop stop-color="#B80000"/>
<stop offset="0.07" stop-color="#D6080C"/>
<stop offset="0.16" stop-color="#F31118"/>
<stop offset="0.2" stop-color="#FF151D"/>
<stop offset="0.23" stop-color="#FF1D25"/>
<stop offset="0.33" stop-color="#FF3A40"/>
<stop offset="0.42" stop-color="#FF4B51"/>
<stop offset="0.49" stop-color="#FF5257"/>
<stop offset="0.58" stop-color="#FF4E53"/>
<stop offset="0.67" stop-color="#FF4348"/>
<stop offset="0.75" stop-color="#FF3037"/>
<stop offset="0.83" stop-color="#FF151D"/>
<stop offset="1" stop-color="#B80000"/>
</linearGradient>
</defs>
</svg>
