<svg width="462" height="291" viewBox="0 0 462 291" fill="none" xmlns="http://www.w3.org/2000/svg">
<g clip-path="url(#clip0_1228_949)">
<g opacity="0.5">
<path d="M125.589 244.334L125.291 66.3779L121.352 66.3929L121.649 244.334H125.589Z" fill="url(#paint0_linear_1228_949)"/>
<path d="M122.996 0.00974968C121.426 22.2233 119.661 44.2125 116.404 54.7927L123.172 71.2821L129.861 54.7537C126.955 45.3046 124.703 22.35 122.996 0V0.00974968Z" fill="url(#paint1_linear_1228_949)"/>
<path d="M122.996 0.00974968L123.172 71.2821L129.861 54.7537C126.955 45.3046 124.703 22.35 122.996 0V0.00974968Z" fill="url(#paint2_linear_1228_949)"/>
<path d="M120.695 75.8553C115.849 84.0367 103.669 84.6023 96.7361 79.005C89.7152 73.3005 89.8419 62.8861 93.84 54.8022C96.4338 49.0587 104.089 38.5175 104.908 25.6068C105.239 20.5264 103.845 12.4523 99.4762 9.86816C105.883 11.3601 112.904 25.3143 105.922 44.2708C102.489 53.8369 93.2256 66.8451 101.153 73.6808C106.595 78.4882 118.521 75.9334 117.565 67.8788C117.077 63.6467 114.249 61.9012 110.759 62.7203C109.423 63.0226 108.75 63.9197 108.252 63.0714C108.194 62.9739 108.165 62.8666 108.155 62.7593C108.077 61.6574 110.7 60.458 111.977 60.1362C120.1 58.1372 125.015 68.5614 120.685 75.8553H120.695Z" fill="url(#paint3_linear_1228_949)"/>
<path d="M107.981 79.0635C97.4299 79.4828 94.2413 70.6579 95.0409 62.9153C95.8405 55.1728 106.469 39.2001 106.791 26.0651C107.103 13.1836 99.7605 9.96565 99.4875 9.84863C105.894 11.3406 112.915 25.2947 105.933 44.2513C102.501 53.8173 93.2369 66.8256 101.165 73.6613C106.606 78.4687 118.532 75.9138 117.576 67.8592C117.089 63.6272 114.261 61.8817 110.77 62.7008C109.434 63.0031 108.761 63.9002 108.264 63.0518C108.205 62.9543 108.176 62.847 108.166 62.7398C112.964 59.6291 117.927 61.3356 119.195 66.4745C120.502 71.75 118.815 78.6149 107.971 79.044L107.981 79.0635Z" fill="url(#paint4_linear_1228_949)"/>
<path d="M125.688 75.8356C130.574 83.9877 142.753 84.4948 149.667 78.8586C156.658 73.115 156.483 62.7006 152.436 54.646C149.813 48.9123 142.11 38.4101 141.222 25.4993C140.861 20.4189 142.217 12.3448 146.576 9.73145C140.179 11.2527 133.226 25.236 140.296 44.1634C143.777 53.7099 153.109 66.6791 145.21 73.5538C139.789 78.3905 127.853 75.8941 128.77 67.8396C129.238 63.6075 132.056 61.8425 135.547 62.6519C136.883 62.9444 137.565 63.8415 138.053 62.9932C138.111 62.8956 138.141 62.7884 138.15 62.6811C138.219 61.5792 135.596 60.3895 134.318 60.0678C126.186 58.1077 121.329 68.5514 125.688 75.8356Z" fill="url(#paint5_linear_1228_949)"/>
<path d="M138.413 78.9853C148.964 79.3559 152.113 70.5114 151.275 62.7786C150.436 55.0458 139.729 39.1219 139.339 25.9869C138.959 13.1054 146.282 9.85823 146.565 9.74121C140.168 11.2624 133.215 25.2458 140.285 44.1731C143.766 53.7197 153.098 66.6889 145.2 73.5636C139.778 78.4003 127.842 75.9039 128.759 67.8493C129.227 63.6172 132.045 61.8523 135.536 62.6616C136.872 62.9542 137.555 63.8513 138.042 63.0029C138.101 62.9054 138.13 62.7981 138.14 62.6909C133.323 59.6095 128.369 61.3354 127.121 66.4744C125.843 71.7596 127.56 78.6148 138.403 78.9951L138.413 78.9853Z" fill="url(#paint6_linear_1228_949)"/>
<path d="M127.111 71.3212C127.111 73.564 125.297 75.3973 123.055 75.3973C120.812 75.3973 118.979 73.5835 118.979 71.3407C118.979 69.0979 120.792 67.2646 123.035 67.2646C125.278 67.2646 127.111 69.0784 127.111 71.3212Z" fill="url(#paint7_radial_1228_949)"/>
<path d="M125.942 77.4841C125.942 79.0833 124.655 80.3802 123.066 80.3802C121.467 80.3802 120.17 79.093 120.17 77.5036C120.17 75.9043 121.457 74.6074 123.046 74.6074C124.646 74.6074 125.942 75.8946 125.942 77.4841Z" fill="url(#paint8_radial_1228_949)"/>
<path d="M124.285 79.6196C124.285 79.6196 128.088 85.8507 122.53 88.8639C116.972 91.877 102.589 95.5923 95.2653 105.256C87.942 114.919 87.3569 125.022 87.3569 125.022L80.9211 121.053L72.2034 122.457C72.2034 122.457 73.8416 103.93 85.7675 97.6206C97.6933 91.3114 107.337 90.9799 114.368 88.5128C121.409 86.0457 123.622 83.8614 123.144 79.6489L124.295 79.6099L124.285 79.6196Z" fill="url(#paint9_linear_1228_949)"/>
<path d="M126.673 118.186C124.625 117.045 121.397 112.102 123.845 102.974C125.863 95.417 123.152 91.614 120.159 90.5804C117.165 89.537 112.68 90.8437 109.579 98.0206C105.834 106.699 100.237 108.572 97.916 108.201C97.916 108.201 98.3451 113.379 110.729 117.689C123.113 121.989 126.663 118.196 126.663 118.196L126.673 118.186Z" fill="url(#paint10_linear_1228_949)"/>
<path style="mix-blend-mode:darken" d="M126.673 118.186C124.625 117.045 121.397 112.102 123.845 102.974C125.863 95.417 123.152 91.614 120.159 90.5804C117.165 89.537 112.68 90.8437 109.579 98.0206C105.834 106.699 100.237 108.572 97.916 108.201C97.916 108.201 98.3451 113.379 110.729 117.689C123.113 121.989 126.663 118.196 126.663 118.196L126.673 118.186Z" fill="url(#paint11_radial_1228_949)"/>
<path style="mix-blend-mode:darken" d="M126.673 118.186C124.625 117.045 121.397 112.102 123.845 102.974C125.863 95.417 123.152 91.614 120.159 90.5804C117.165 89.537 112.68 90.8437 109.579 98.0206C105.834 106.699 100.237 108.572 97.916 108.201C97.916 108.201 98.3451 113.379 110.729 117.689C123.113 121.989 126.663 118.196 126.663 118.196L126.673 118.186Z" fill="url(#paint12_radial_1228_949)"/>
<path d="M126.673 118.187C126.673 118.187 123.123 121.98 110.739 117.67C98.3549 113.369 97.9258 108.191 97.9258 108.191C98.0721 108.211 98.2281 108.23 98.4036 108.23C98.4036 108.23 98.4036 108.23 98.4133 108.23C99.837 108.377 104.245 108.923 109.998 110.649C112.046 111.263 114.269 112.033 116.57 112.979C119.73 114.276 123.065 115.914 126.38 117.991C126.478 118.06 126.575 118.118 126.673 118.177V118.187Z" fill="url(#paint13_radial_1228_949)"/>
<path d="M121.623 86.3579C122.15 86.5432 122.462 87.5475 122.062 88.6982C121.662 89.8489 120.794 90.4437 120.268 90.2682C119.741 90.0829 119.429 89.0785 119.829 87.9279C120.229 86.7772 121.097 86.1824 121.623 86.3579ZM121.779 85.8996C120.911 85.5973 119.829 86.4359 119.361 87.7621C118.893 89.098 119.224 90.4242 120.102 90.7265C120.97 91.0288 122.052 90.1902 122.52 88.864C122.988 87.5281 122.657 86.2019 121.779 85.8996Z" fill="url(#paint14_radial_1228_949)"/>
<path d="M116.561 112.989V113.018C115.917 114.841 113.928 115.797 112.105 115.163C110.281 114.529 109.326 112.54 109.959 110.717C109.959 110.697 109.979 110.668 109.989 110.648C112.036 111.263 114.26 112.033 116.561 112.979V112.989Z" fill="url(#paint15_radial_1228_949)"/>
<path d="M149.531 102.486C147.249 103.022 141.535 101.55 137.176 93.1637C133.568 86.2207 129.005 85.2456 126.099 86.4938C123.193 87.742 120.755 91.7302 123.31 99.1217C126.391 108.054 123.534 113.212 121.564 114.5C121.564 114.5 125.377 118.03 137.42 112.861C149.463 107.683 149.531 102.496 149.531 102.496V102.486Z" fill="url(#paint16_linear_1228_949)"/>
<path style="mix-blend-mode:darken" d="M149.531 102.486C147.249 103.022 141.535 101.55 137.176 93.1637C133.568 86.2207 129.005 85.2456 126.099 86.4938C123.193 87.742 120.755 91.7302 123.31 99.1217C126.391 108.054 123.534 113.212 121.564 114.5C121.564 114.5 125.377 118.03 137.42 112.861C149.463 107.683 149.531 102.496 149.531 102.496V102.486Z" fill="url(#paint17_radial_1228_949)"/>
<path style="mix-blend-mode:darken" d="M149.531 102.486C147.249 103.022 141.535 101.55 137.176 93.1637C133.568 86.2207 129.005 85.2456 126.099 86.4938C123.193 87.742 120.755 91.7302 123.31 99.1217C126.391 108.054 123.534 113.212 121.564 114.5C121.564 114.5 125.377 118.03 137.42 112.861C149.463 107.683 149.531 102.496 149.531 102.496V102.486Z" fill="url(#paint18_radial_1228_949)"/>
<path d="M149.531 102.486C149.531 102.486 149.473 107.684 137.42 112.852C125.377 118.02 121.564 114.49 121.564 114.49C121.691 114.412 121.818 114.315 121.945 114.207C123.086 113.359 126.713 110.785 132.125 108.181C134.046 107.255 136.201 106.319 138.551 105.47C141.759 104.3 145.328 103.257 149.18 102.555C149.307 102.535 149.414 102.516 149.521 102.496L149.531 102.486Z" fill="url(#paint19_radial_1228_949)"/>
<path d="M124.334 82.3886C124.85 82.1643 125.757 82.7006 126.235 83.822C126.713 84.9434 126.479 85.9673 125.962 86.1916C125.445 86.4159 124.538 85.8796 124.061 84.7582C123.583 83.6368 123.817 82.6129 124.334 82.3886ZM124.139 81.94C123.29 82.3008 123.056 83.6563 123.612 84.9532C124.168 86.2501 125.309 87.0107 126.157 86.6402C127.006 86.2794 127.24 84.9337 126.684 83.627C126.128 82.3301 124.987 81.5695 124.139 81.94Z" fill="url(#paint20_radial_1228_949)"/>
<path d="M138.561 105.46V105.49C139.331 107.264 138.512 109.312 136.738 110.073C134.963 110.833 132.915 110.014 132.154 108.24C132.154 108.22 132.135 108.191 132.125 108.171C134.046 107.245 136.201 106.309 138.551 105.46H138.561Z" fill="url(#paint21_radial_1228_949)"/>
<path d="M122.705 82.6325C124.548 85.0801 126.186 87.4204 132.417 89.4487C138.648 91.4769 145.699 93.1932 148.575 101.14C151.452 109.098 144.324 113.398 136.591 125.256C128.868 137.113 130.409 144.358 130.409 144.358L135.401 141.794L140.921 143.52C140.921 143.52 138.746 132.403 144.743 122.896C150.74 113.388 156.532 103.266 148.039 95.2312C139.546 87.1864 127.405 87.0206 124.938 81.4136L122.695 82.6422L122.705 82.6325Z" fill="url(#paint22_linear_1228_949)"/>
<g opacity="0.2">
<path d="M988.662 271.491H418.793L457.807 252.735L499.796 208.398L517.518 215.882L568.869 154.761L581.613 167.317L581.832 166.91L629.551 92.7021L631.461 89.7275L671.289 144.116L671.633 143.99L691.391 136.663L711.9 150.033L743.431 128.742L793.091 179.999L793.967 179.936L820.144 177.807L822.273 177.65L860.504 206.613L877.663 200.101L924.787 239.146L938.188 235.983L988.662 271.491Z" fill="#698387"/>
</g>
<path d="M928.48 290.623H47.4062L107.744 261.66L172.652 193.087L200.081 204.704L279.487 110.175L299.151 129.619L299.526 128.961L373.265 14.2361L376.24 9.60205L437.798 93.7047L438.33 93.5481L468.89 82.1821L500.577 102.879L549.361 69.9393L626.168 149.22L627.483 149.095L667.969 145.807L671.256 145.557L730.373 190.363L756.893 180.281L829.724 240.618L850.452 235.765L928.48 290.623Z" fill="#3D8995"/>
<path d="M568.963 290.623H458.12L458.527 257.213L434.417 232.477L416.037 194.434L407.99 140.547L388.953 112.648L386.417 83.4658L371.199 62.3306L373.266 14.2361L376.24 9.60205L437.799 93.7047L438.331 93.5481L454.081 124.672L474.997 144.993L485.361 171.827L504.805 191.271L516.234 221.706L539.06 241.37L552.368 271.178L568.963 290.623Z" fill="white"/>
<path d="M279.487 110.175L265.303 147.373L275.667 177.839L272.003 198.567L285.405 227.812L287.847 252.799L351.253 290.592L298.211 246.724L300.027 219.89L284.81 200.383L290.884 171.138L274.446 146.152L279.487 110.175Z" fill="white"/>
<path d="M272.003 198.566L240.91 247.945L276.887 199.788L272.003 198.566Z" fill="white"/>
<path d="M275.667 177.838L250.055 203.889L276.576 167.787L275.667 177.838Z" fill="white"/>
<path d="M279.487 110.175L386.603 210.747L276.262 127.24L279.487 110.175Z" fill="white"/>
<path d="M321.381 160.179L385.381 248.54L288.472 135.788L321.381 160.179Z" fill="white"/>
<path d="M276.262 127.239L324.419 218.073L288.473 135.787L276.262 127.239Z" fill="white"/>
<path d="M373.265 14.2676L347.12 71.6303L352.6 99.5288L341.609 132.938L372.044 171.827L351.347 131.654L368.255 99.5288L362.745 73.7594L381.156 27.6689L373.265 14.2676Z" fill="white"/>
<g opacity="0.2">
<path d="M298.869 271.491H-271L-231.955 252.735L-189.966 208.398L-172.244 215.882L-120.893 154.761L-108.18 167.317L-107.93 166.91L-60.2423 92.7021L-58.301 89.7275L-18.4728 144.116L-18.1597 143.99L1.62918 136.663L22.1382 150.033L53.6689 128.742L103.329 179.999L104.206 179.936L130.382 177.807L132.511 177.65L170.743 206.613L187.901 200.101L234.994 239.146L248.426 235.983L298.869 271.491Z" fill="#698387"/>
<path d="M66.3469 271.491H-5.35641L-5.10593 249.886L-20.699 233.886L-32.5661 209.275L-37.7638 174.394L-50.0692 156.358L-51.7287 137.478L-61.5605 123.826L-60.2455 92.7021L-58.3041 89.7275L-18.4759 144.116L-18.1628 143.99L-7.95527 164.155L5.5713 177.274L12.2719 194.621L24.8592 207.208L32.2174 226.903L46.9964 239.616L55.607 258.904L66.3469 271.491Z" fill="white"/>
<path d="M136.049 223.365L101.167 209.181L86.3885 176.867L60.9322 156.358L53.668 128.742L120.205 196.343L126.154 207.647L146.663 220.359L152.831 233.479L203.681 254.395L147.477 240.868L136.049 223.365Z" fill="white"/>
<path d="M261.014 261.221L229.077 245.064L215.707 243.091L203.871 232.853L189.687 230.88L179.417 217.447L162.853 208.398L148.293 200.915L130.383 177.807L132.512 177.65L170.743 206.614L187.902 200.132L261.014 261.221Z" fill="white"/>
<path d="M53.6686 128.742L40.4238 154.104L44.3378 167.224L42.8974 183.224L50.694 211.31L97.5673 237.017L56.831 205.987L51.696 184.038L56.2361 168.664L49.8799 155.137L53.6686 128.742Z" fill="white"/>
<path d="M60.9316 156.359L69.9494 186.167L64.5011 155.263L60.9316 156.359Z" fill="white"/>
<path d="M99.2266 204.766L121.833 258.277L128.002 248.853L145.849 262.786L111.375 212.97L99.2266 204.766Z" fill="white"/>
</g>
</g>
</g>
<defs>
<linearGradient id="paint0_linear_1228_949" x1="121.491" y1="155.396" x2="125.431" y2="155.389" gradientUnits="userSpaceOnUse">
<stop stop-color="#8D8D8D"/>
<stop offset="0.09" stop-color="#757575"/>
<stop offset="0.22" stop-color="#5A5A5A"/>
<stop offset="0.36" stop-color="#474747"/>
<stop offset="0.5" stop-color="#3B3B3B"/>
<stop offset="0.64" stop-color="#383838"/>
<stop offset="0.72" stop-color="#3B3B3B"/>
<stop offset="0.79" stop-color="#454545"/>
<stop offset="0.85" stop-color="#575757"/>
<stop offset="0.91" stop-color="#6F6F6F"/>
<stop offset="0.97" stop-color="#8F8F8F"/>
<stop offset="1" stop-color="#A0A0A0"/>
</linearGradient>
<linearGradient id="paint1_linear_1228_949" x1="86.2977" y1="46.4738" x2="129.767" y2="33.7006" gradientUnits="userSpaceOnUse">
<stop stop-color="#A0A0A0"/>
<stop offset="0.03" stop-color="#8F8F8F"/>
<stop offset="0.09" stop-color="#6F6F6F"/>
<stop offset="0.15" stop-color="#575757"/>
<stop offset="0.21" stop-color="#454545"/>
<stop offset="0.28" stop-color="#3B3B3B"/>
<stop offset="0.36" stop-color="#383838"/>
<stop offset="0.46" stop-color="#3B3B3B"/>
<stop offset="0.56" stop-color="#474747"/>
<stop offset="0.65" stop-color="#5A5A5A"/>
<stop offset="0.74" stop-color="#757575"/>
<stop offset="0.81" stop-color="#909090"/>
<stop offset="0.86" stop-color="#AEAEAE"/>
<stop offset="0.91" stop-color="#C3C3C3"/>
<stop offset="0.96" stop-color="#CFCFCF"/>
<stop offset="1" stop-color="#D4D4D4"/>
</linearGradient>
<linearGradient id="paint2_linear_1228_949" x1="107.387" y1="77.256" x2="137.375" y2="-1.28638" gradientUnits="userSpaceOnUse">
<stop stop-color="#A0A0A0"/>
<stop offset="0.03" stop-color="#8F8F8F"/>
<stop offset="0.09" stop-color="#6F6F6F"/>
<stop offset="0.15" stop-color="#575757"/>
<stop offset="0.21" stop-color="#454545"/>
<stop offset="0.28" stop-color="#3B3B3B"/>
<stop offset="0.36" stop-color="#383838"/>
<stop offset="0.46" stop-color="#3B3B3B"/>
<stop offset="0.56" stop-color="#474747"/>
<stop offset="0.65" stop-color="#5A5A5A"/>
<stop offset="0.74" stop-color="#757575"/>
<stop offset="0.81" stop-color="#909090"/>
<stop offset="0.86" stop-color="#AEAEAE"/>
<stop offset="0.91" stop-color="#C3C3C3"/>
<stop offset="0.96" stop-color="#CFCFCF"/>
<stop offset="1" stop-color="#D4D4D4"/>
</linearGradient>
<linearGradient id="paint3_linear_1228_949" x1="100.162" y1="45.6791" x2="147.168" y2="83.107" gradientUnits="userSpaceOnUse">
<stop stop-color="#A0A0A0"/>
<stop offset="0.03" stop-color="#8F8F8F"/>
<stop offset="0.09" stop-color="#6F6F6F"/>
<stop offset="0.15" stop-color="#575757"/>
<stop offset="0.21" stop-color="#454545"/>
<stop offset="0.28" stop-color="#3B3B3B"/>
<stop offset="0.36" stop-color="#383838"/>
<stop offset="0.46" stop-color="#3B3B3B"/>
<stop offset="0.56" stop-color="#474747"/>
<stop offset="0.65" stop-color="#5A5A5A"/>
<stop offset="0.74" stop-color="#757575"/>
<stop offset="0.81" stop-color="#909090"/>
<stop offset="0.86" stop-color="#AEAEAE"/>
<stop offset="0.91" stop-color="#C3C3C3"/>
<stop offset="0.96" stop-color="#CFCFCF"/>
<stop offset="1" stop-color="#D4D4D4"/>
</linearGradient>
<linearGradient id="paint4_linear_1228_949" x1="109.857" y1="77.5326" x2="93.9658" y2="15.3188" gradientUnits="userSpaceOnUse">
<stop stop-color="#A0A0A0"/>
<stop offset="0.03" stop-color="#8F8F8F"/>
<stop offset="0.09" stop-color="#6F6F6F"/>
<stop offset="0.15" stop-color="#575757"/>
<stop offset="0.21" stop-color="#454545"/>
<stop offset="0.28" stop-color="#3B3B3B"/>
<stop offset="0.36" stop-color="#383838"/>
<stop offset="0.46" stop-color="#3B3B3B"/>
<stop offset="0.56" stop-color="#474747"/>
<stop offset="0.65" stop-color="#5A5A5A"/>
<stop offset="0.74" stop-color="#757575"/>
<stop offset="0.81" stop-color="#909090"/>
<stop offset="0.86" stop-color="#AEAEAE"/>
<stop offset="0.91" stop-color="#C3C3C3"/>
<stop offset="0.96" stop-color="#CFCFCF"/>
<stop offset="1" stop-color="#D4D4D4"/>
</linearGradient>
<linearGradient id="paint5_linear_1228_949" x1="146.055" y1="45.512" x2="99.2239" y2="83.1593" gradientUnits="userSpaceOnUse">
<stop stop-color="#A0A0A0"/>
<stop offset="0.03" stop-color="#8F8F8F"/>
<stop offset="0.09" stop-color="#6F6F6F"/>
<stop offset="0.15" stop-color="#575757"/>
<stop offset="0.21" stop-color="#454545"/>
<stop offset="0.28" stop-color="#3B3B3B"/>
<stop offset="0.36" stop-color="#383838"/>
<stop offset="0.46" stop-color="#3B3B3B"/>
<stop offset="0.56" stop-color="#474747"/>
<stop offset="0.65" stop-color="#5A5A5A"/>
<stop offset="0.74" stop-color="#757575"/>
<stop offset="0.81" stop-color="#909090"/>
<stop offset="0.86" stop-color="#AEAEAE"/>
<stop offset="0.91" stop-color="#C3C3C3"/>
<stop offset="0.96" stop-color="#CFCFCF"/>
<stop offset="1" stop-color="#D4D4D4"/>
</linearGradient>
<linearGradient id="paint6_linear_1228_949" x1="136.518" y1="77.4124" x2="152.104" y2="15.112" gradientUnits="userSpaceOnUse">
<stop stop-color="#A0A0A0"/>
<stop offset="0.03" stop-color="#8F8F8F"/>
<stop offset="0.09" stop-color="#6F6F6F"/>
<stop offset="0.15" stop-color="#575757"/>
<stop offset="0.21" stop-color="#454545"/>
<stop offset="0.28" stop-color="#3B3B3B"/>
<stop offset="0.36" stop-color="#383838"/>
<stop offset="0.46" stop-color="#3B3B3B"/>
<stop offset="0.56" stop-color="#474747"/>
<stop offset="0.65" stop-color="#5A5A5A"/>
<stop offset="0.74" stop-color="#757575"/>
<stop offset="0.81" stop-color="#909090"/>
<stop offset="0.86" stop-color="#AEAEAE"/>
<stop offset="0.91" stop-color="#C3C3C3"/>
<stop offset="0.96" stop-color="#CFCFCF"/>
<stop offset="1" stop-color="#D4D4D4"/>
</linearGradient>
<radialGradient id="paint7_radial_1228_949" cx="0" cy="0" r="1" gradientUnits="userSpaceOnUse" gradientTransform="translate(122.493 69.8861) rotate(-0.14) scale(5.88004 5.88005)">
<stop stop-color="#D4D4D4"/>
<stop offset="0.04" stop-color="#CFCFCF"/>
<stop offset="0.09" stop-color="#C3C3C3"/>
<stop offset="0.14" stop-color="#AEAEAE"/>
<stop offset="0.19" stop-color="#8D8D8D"/>
<stop offset="0.26" stop-color="#757575"/>
<stop offset="0.35" stop-color="#5A5A5A"/>
<stop offset="0.44" stop-color="#474747"/>
<stop offset="0.54" stop-color="#3B3B3B"/>
<stop offset="0.64" stop-color="#383838"/>
<stop offset="0.72" stop-color="#3B3B3B"/>
<stop offset="0.79" stop-color="#454545"/>
<stop offset="0.85" stop-color="#575757"/>
<stop offset="0.91" stop-color="#6F6F6F"/>
<stop offset="0.97" stop-color="#8F8F8F"/>
<stop offset="1" stop-color="#A0A0A0"/>
</radialGradient>
<radialGradient id="paint8_radial_1228_949" cx="0" cy="0" r="1" gradientUnits="userSpaceOnUse" gradientTransform="translate(122.667 76.4679) rotate(-0.14) scale(4.17357 4.17356)">
<stop stop-color="#D4D4D4"/>
<stop offset="0.04" stop-color="#CFCFCF"/>
<stop offset="0.09" stop-color="#C3C3C3"/>
<stop offset="0.14" stop-color="#AEAEAE"/>
<stop offset="0.19" stop-color="#8D8D8D"/>
<stop offset="0.26" stop-color="#757575"/>
<stop offset="0.35" stop-color="#5A5A5A"/>
<stop offset="0.44" stop-color="#474747"/>
<stop offset="0.54" stop-color="#3B3B3B"/>
<stop offset="0.64" stop-color="#383838"/>
<stop offset="0.72" stop-color="#3B3B3B"/>
<stop offset="0.79" stop-color="#454545"/>
<stop offset="0.85" stop-color="#575757"/>
<stop offset="0.91" stop-color="#6F6F6F"/>
<stop offset="0.97" stop-color="#8F8F8F"/>
<stop offset="1" stop-color="#A0A0A0"/>
</radialGradient>
<linearGradient id="paint9_linear_1228_949" x1="75.5905" y1="125.447" x2="109.576" y2="86.378" gradientUnits="userSpaceOnUse">
<stop stop-color="#B80000"/>
<stop offset="0.07" stop-color="#D6080C"/>
<stop offset="0.16" stop-color="#F31118"/>
<stop offset="0.2" stop-color="#FF151D"/>
<stop offset="0.23" stop-color="#FF1D25"/>
<stop offset="0.33" stop-color="#FF3A40"/>
<stop offset="0.42" stop-color="#FF4B51"/>
<stop offset="0.49" stop-color="#FF5257"/>
<stop offset="0.58" stop-color="#FF4E53"/>
<stop offset="0.67" stop-color="#FF4348"/>
<stop offset="0.75" stop-color="#FF3037"/>
<stop offset="0.83" stop-color="#FF151D"/>
<stop offset="1" stop-color="#B80000"/>
</linearGradient>
<linearGradient id="paint10_linear_1228_949" x1="104.184" y1="100.184" x2="138.834" y2="112.23" gradientUnits="userSpaceOnUse">
<stop stop-color="#919191"/>
<stop offset="0.1" stop-color="#5E5E5E"/>
<stop offset="0.19" stop-color="#B1B1B1"/>
<stop offset="0.42" stop-color="#939393"/>
<stop offset="0.55" stop-color="#3B3B3B"/>
<stop offset="0.66" stop-color="#939393"/>
<stop offset="0.79" stop-color="#C5C5C5"/>
<stop offset="0.92" stop-color="#A6A6A6"/>
<stop offset="1" stop-color="#919191"/>
</linearGradient>
<radialGradient id="paint11_radial_1228_949" cx="0" cy="0" r="1" gradientUnits="userSpaceOnUse" gradientTransform="translate(137.812 106.289) rotate(19.17) scale(30.5509 30.5509)">
<stop stop-color="#919191"/>
<stop offset="0.1" stop-color="#5E5E5E"/>
<stop offset="0.19" stop-color="#B1B1B1"/>
<stop offset="0.42" stop-color="#939393"/>
<stop offset="0.55" stop-color="#3B3B3B"/>
<stop offset="0.66" stop-color="#939393"/>
<stop offset="0.79" stop-color="#C5C5C5"/>
<stop offset="0.92" stop-color="#A6A6A6"/>
<stop offset="1" stop-color="#919191"/>
</radialGradient>
<radialGradient id="paint12_radial_1228_949" cx="0" cy="0" r="1" gradientUnits="userSpaceOnUse" gradientTransform="translate(93.7341 90.4493) rotate(19.17) scale(35.3096 35.3095)">
<stop stop-color="#919191"/>
<stop offset="0.1" stop-color="#5E5E5E"/>
<stop offset="0.19" stop-color="#B1B1B1"/>
<stop offset="0.42" stop-color="#939393"/>
<stop offset="0.55" stop-color="#3B3B3B"/>
<stop offset="0.66" stop-color="#939393"/>
<stop offset="0.79" stop-color="#C5C5C5"/>
<stop offset="0.92" stop-color="#A6A6A6"/>
<stop offset="1" stop-color="#919191"/>
</radialGradient>
<radialGradient id="paint13_radial_1228_949" cx="0" cy="0" r="1" gradientUnits="userSpaceOnUse" gradientTransform="translate(113.472 114.54) rotate(19.17) scale(27.84 17.8176)">
<stop stop-color="#919191"/>
<stop offset="0.05" stop-color="#7A7A7A"/>
<stop offset="0.1" stop-color="#5E5E5E"/>
<stop offset="0.19" stop-color="#B1B1B1"/>
<stop offset="0.42" stop-color="#939393"/>
<stop offset="0.55" stop-color="#3B3B3B"/>
<stop offset="0.66" stop-color="#939393"/>
<stop offset="0.79" stop-color="#C5C5C5"/>
<stop offset="0.92" stop-color="#A6A6A6"/>
<stop offset="1" stop-color="#919191"/>
</radialGradient>
<radialGradient id="paint14_radial_1228_949" cx="0" cy="0" r="1" gradientUnits="userSpaceOnUse" gradientTransform="translate(120.266 84.7235) rotate(19.17) scale(7.68403 7.68403)">
<stop stop-color="#919191"/>
<stop offset="0.05" stop-color="#7A7A7A"/>
<stop offset="0.1" stop-color="#5E5E5E"/>
<stop offset="0.19" stop-color="#B1B1B1"/>
<stop offset="0.42" stop-color="#939393"/>
<stop offset="0.55" stop-color="#3B3B3B"/>
<stop offset="0.66" stop-color="#939393"/>
<stop offset="0.79" stop-color="#C5C5C5"/>
<stop offset="0.92" stop-color="#A6A6A6"/>
<stop offset="1" stop-color="#919191"/>
</radialGradient>
<radialGradient id="paint15_radial_1228_949" cx="0" cy="0" r="1" gradientUnits="userSpaceOnUse" gradientTransform="translate(113.853 110.916) rotate(19.17) scale(5.92882 5.92881)">
<stop stop-color="#B1B1B1"/>
<stop offset="0.25" stop-color="#939393"/>
<stop offset="0.47" stop-color="#3B3B3B"/>
<stop offset="0.66" stop-color="#939393"/>
<stop offset="0.79" stop-color="#C5C5C5"/>
<stop offset="0.92" stop-color="#A6A6A6"/>
<stop offset="1" stop-color="#919191"/>
</radialGradient>
<linearGradient id="paint16_linear_1228_949" x1="120.769" y1="104.414" x2="154.486" y2="89.9354" gradientUnits="userSpaceOnUse">
<stop stop-color="#919191"/>
<stop offset="0.1" stop-color="#5E5E5E"/>
<stop offset="0.19" stop-color="#B1B1B1"/>
<stop offset="0.42" stop-color="#939393"/>
<stop offset="0.55" stop-color="#3B3B3B"/>
<stop offset="0.66" stop-color="#939393"/>
<stop offset="0.79" stop-color="#C5C5C5"/>
<stop offset="0.92" stop-color="#A6A6A6"/>
<stop offset="1" stop-color="#919191"/>
</linearGradient>
<radialGradient id="paint17_radial_1228_949" cx="0" cy="0" r="1" gradientUnits="userSpaceOnUse" gradientTransform="translate(149.712 86.2334) rotate(-23.24) scale(30.5509 30.5509)">
<stop stop-color="#919191"/>
<stop offset="0.1" stop-color="#5E5E5E"/>
<stop offset="0.19" stop-color="#B1B1B1"/>
<stop offset="0.42" stop-color="#939393"/>
<stop offset="0.55" stop-color="#3B3B3B"/>
<stop offset="0.66" stop-color="#939393"/>
<stop offset="0.79" stop-color="#C5C5C5"/>
<stop offset="0.92" stop-color="#A6A6A6"/>
<stop offset="1" stop-color="#919191"/>
</radialGradient>
<radialGradient id="paint18_radial_1228_949" cx="0" cy="0" r="1" gradientUnits="userSpaceOnUse" gradientTransform="translate(106.485 104.266) rotate(-23.24) scale(35.3096 35.3095)">
<stop stop-color="#919191"/>
<stop offset="0.1" stop-color="#5E5E5E"/>
<stop offset="0.19" stop-color="#B1B1B1"/>
<stop offset="0.42" stop-color="#939393"/>
<stop offset="0.55" stop-color="#3B3B3B"/>
<stop offset="0.66" stop-color="#939393"/>
<stop offset="0.79" stop-color="#C5C5C5"/>
<stop offset="0.92" stop-color="#A6A6A6"/>
<stop offset="1" stop-color="#919191"/>
</radialGradient>
<radialGradient id="paint19_radial_1228_949" cx="0" cy="0" r="1" gradientUnits="userSpaceOnUse" gradientTransform="translate(135.643 105.625) rotate(-23.24) scale(27.84 17.8176)">
<stop stop-color="#919191"/>
<stop offset="0.05" stop-color="#7A7A7A"/>
<stop offset="0.1" stop-color="#5E5E5E"/>
<stop offset="0.19" stop-color="#B1B1B1"/>
<stop offset="0.42" stop-color="#939393"/>
<stop offset="0.55" stop-color="#3B3B3B"/>
<stop offset="0.66" stop-color="#939393"/>
<stop offset="0.79" stop-color="#C5C5C5"/>
<stop offset="0.92" stop-color="#A6A6A6"/>
<stop offset="1" stop-color="#919191"/>
</radialGradient>
<radialGradient id="paint20_radial_1228_949" cx="0" cy="0" r="1" gradientUnits="userSpaceOnUse" gradientTransform="translate(122.224 82.1509) rotate(-23.24) scale(7.68404 7.68405)">
<stop stop-color="#919191"/>
<stop offset="0.05" stop-color="#7A7A7A"/>
<stop offset="0.1" stop-color="#5E5E5E"/>
<stop offset="0.19" stop-color="#B1B1B1"/>
<stop offset="0.42" stop-color="#939393"/>
<stop offset="0.55" stop-color="#3B3B3B"/>
<stop offset="0.66" stop-color="#939393"/>
<stop offset="0.79" stop-color="#C5C5C5"/>
<stop offset="0.92" stop-color="#A6A6A6"/>
<stop offset="1" stop-color="#919191"/>
</radialGradient>
<radialGradient id="paint21_radial_1228_949" cx="0" cy="0" r="1" gradientUnits="userSpaceOnUse" gradientTransform="translate(135.156 105.814) rotate(-23.24) scale(5.92881 5.92881)">
<stop stop-color="#B1B1B1"/>
<stop offset="0.25" stop-color="#939393"/>
<stop offset="0.47" stop-color="#3B3B3B"/>
<stop offset="0.66" stop-color="#939393"/>
<stop offset="0.79" stop-color="#C5C5C5"/>
<stop offset="0.92" stop-color="#A6A6A6"/>
<stop offset="1" stop-color="#919191"/>
</radialGradient>
<linearGradient id="paint22_linear_1228_949" x1="115.703" y1="131.59" x2="140.577" y2="103.006" gradientUnits="userSpaceOnUse">
<stop stop-color="#B80000"/>
<stop offset="0.07" stop-color="#D6080C"/>
<stop offset="0.16" stop-color="#F31118"/>
<stop offset="0.2" stop-color="#FF151D"/>
<stop offset="0.23" stop-color="#FF1D25"/>
<stop offset="0.33" stop-color="#FF3A40"/>
<stop offset="0.42" stop-color="#FF4B51"/>
<stop offset="0.49" stop-color="#FF5257"/>
<stop offset="0.58" stop-color="#FF4E53"/>
<stop offset="0.67" stop-color="#FF4348"/>
<stop offset="0.75" stop-color="#FF3037"/>
<stop offset="0.83" stop-color="#FF151D"/>
<stop offset="1" stop-color="#B80000"/>
</linearGradient>
<clipPath id="clip0_1228_949">
<rect width="462" height="291" fill="white"/>
</clipPath>
</defs>
</svg>
