<svg width="152" height="71" viewBox="0 0 152 71" fill="none" xmlns="http://www.w3.org/2000/svg">
<path opacity="0.6" d="M6.58946 70.5114H150.439C151.539 68.3714 151.779 66.0214 150.619 63.5314C147.909 57.7014 139.999 59.0014 135.039 60.4614C138.849 56.6414 142.449 53.3814 143.409 47.6714C144.769 39.6214 139.759 33.2214 132.439 30.3414C122.829 26.5614 112.869 31.7514 110.469 40.7014C109.649 31.9314 102.069 21.3614 94.2495 20.4714C82.2395 19.1014 78.2094 28.1714 77.7194 38.0214C77.6894 22.1514 67.5894 -5.78859 47.8494 1.06141C36.1194 5.13141 30.1795 18.7614 28.8295 30.1414C28.2295 35.1814 27.6995 43.7614 30.8995 48.5514C27.2995 45.6614 19.4495 45.6614 15.7695 45.7714C8.74946 45.9814 1.45944 48.5214 0.0994421 56.4914C-0.590558 60.5214 2.38945 66.3914 6.57945 70.5014L6.58946 70.5114Z" fill="url(#paint0_linear_167_37308)"/>
<defs>
<linearGradient id="paint0_linear_167_37308" x1="75.6995" y1="69.5714" x2="75.6995" y2="-6.05859" gradientUnits="userSpaceOnUse">
<stop stop-color="white"/>
<stop offset="1" stop-color="#D4D5D9"/>
</linearGradient>
</defs>
</svg>
