<svg width="224" height="241" viewBox="0 0 224 241" fill="none" xmlns="http://www.w3.org/2000/svg">
<g opacity="0.03">
<path d="M128.993 20.8241L104.264 0L79.5352 20.8241L104.264 41.6482L128.993 20.8241Z" fill="#FF5B00"/>
<path d="M22.2666 230.358C35.2817 238.167 46.9948 240.77 60.0099 240.77C67.8189 240.77 74.3265 239.468 80.834 235.564C87.3415 232.961 91.2461 227.755 95.1506 222.549C99.0552 217.343 100.357 210.835 100.357 204.328C100.357 197.82 99.0552 191.313 95.1506 184.805C104.261 190.011 113.372 192.614 121.181 192.614C126.387 192.614 130.291 190.011 135.498 186.107C140.704 182.202 144.608 175.694 147.211 167.885C151.116 160.076 153.719 150.966 155.02 141.856C157.623 130.142 160.226 121.031 165.432 114.524C170.638 106.715 175.844 104.112 182.352 104.112C187.558 104.112 191.462 106.715 195.367 111.921C199.271 117.127 200.573 122.333 200.573 130.142C200.573 139.253 199.271 147.062 196.668 156.172C194.065 163.981 190.161 171.79 186.256 176.996C182.352 182.202 178.447 184.805 173.241 184.805C169.337 184.805 164.13 180.901 157.623 174.393L151.115 179.599C158.924 188.709 166.734 195.217 173.241 200.423C181.05 205.629 186.256 208.232 192.764 208.232C197.97 208.232 203.176 205.629 207.08 201.725C212.286 196.519 216.191 191.313 218.794 183.504C221.397 175.695 224 167.886 224 160.077C224 148.363 221.397 136.649 214.889 124.936C209.683 113.222 201.874 104.112 191.462 97.6044C182.352 89.7954 171.94 87.1921 162.829 87.1921C157.623 87.1921 151.115 89.795 145.909 93.6995C140.703 97.6041 135.497 104.112 132.894 110.619C128.99 118.428 126.387 126.237 125.085 135.348C122.482 148.363 118.578 158.775 112.07 166.584C105.563 174.393 99.0551 178.298 92.5476 178.298C91.2461 178.298 88.6432 178.298 86.0401 178.298C83.4371 174.393 78.2312 169.187 70.4222 160.077C76.9297 154.871 80.8343 149.665 84.7389 144.459C88.6434 137.951 89.945 132.745 89.945 127.539C89.945 119.73 87.3417 110.619 79.5327 102.81C73.0252 95.001 63.9145 87.192 53.5025 81.986C43.0904 76.7799 32.6784 74.1772 23.5679 74.1772C15.7588 74.1772 7.94977 74.1771 0.140732 78.0816C-7.66831 80.6846 -15.4771 84.5892 -21.9846 89.7952L2.74381 111.921C2.74381 111.921 15.7588 101.509 23.5679 98.9057C31.3769 96.3027 39.1862 93.6995 45.6938 93.6995C52.2013 93.6995 56.1057 95.0012 61.3117 98.9057C65.2162 102.81 66.5178 106.715 66.5178 111.921C66.5178 117.127 66.5175 121.031 62.613 126.237C60.01 131.443 56.1057 136.649 52.2012 140.554C46.9952 135.348 41.7891 131.443 37.8845 128.84C32.6785 126.237 28.7742 124.936 24.8697 124.936C19.6636 124.936 14.4575 124.936 10.553 127.539C5.347 130.142 2.74374 132.745 0.140732 135.348C-2.46228 139.252 -3.76363 143.157 -3.76363 145.76C-3.76363 150.966 -1.16071 156.172 2.74381 161.378C6.64833 166.584 11.8542 170.489 18.3617 174.393C24.8693 178.298 31.3767 179.599 36.5827 179.599C45.6933 179.599 54.8042 175.694 63.9148 167.885C66.5178 170.488 69.1205 174.393 71.7235 178.298C73.025 182.202 74.3266 186.107 74.3266 190.011C74.3266 195.217 73.0252 200.423 70.4222 204.328C67.8192 208.232 63.9146 212.137 58.7086 214.74C53.5026 217.343 48.2967 218.645 43.0907 218.645C33.9801 218.645 24.8695 216.041 17.0605 210.835C7.94991 205.629 0.141052 197.82 -7.66799 187.408C-15.477 176.996 -20.6835 165.283 -25.8895 152.267L-35 157.474C-28.4925 174.393 -20.6831 190.011 -10.2711 203.026C0.140991 216.041 10.5528 226.453 23.5679 234.262L22.2666 230.358ZM22.2666 161.378C22.2666 161.378 19.6632 161.378 18.3617 160.077C18.3617 160.077 17.0605 157.474 17.0605 156.172C17.0605 153.569 17.0605 150.966 19.6635 149.664C22.2665 147.061 24.8692 144.458 27.4722 143.157C30.0753 141.855 33.9797 140.554 36.5827 140.554C37.8843 140.554 40.4874 140.554 41.7889 141.856C43.0904 141.856 45.6935 144.458 46.995 147.061C36.583 157.473 27.4723 162.68 20.9648 162.68L22.2666 161.378Z" fill="#FF5B00"/>
<path d="M117.279 84.5913C128.993 84.5913 140.706 80.6868 149.817 72.8777C160.229 65.0687 166.736 54.6567 171.942 42.9432L145.912 26.0239C140.706 36.436 134.199 45.5461 126.39 52.0537C118.58 58.5612 109.47 62.466 101.661 62.466C93.8515 62.466 84.7412 59.863 76.9321 53.3554C69.1231 46.8479 62.6159 39.0388 57.4098 27.3252L48.2988 31.2296C56.1079 46.8477 65.2188 59.8626 78.2339 70.2747C89.9475 79.3852 102.962 84.5913 115.977 84.5913H117.279Z" fill="#FF5B00"/>
</g>
</svg>
