<svg width="72" height="34" viewBox="0 0 72 34" fill="none" xmlns="http://www.w3.org/2000/svg">
<path id="Vector" opacity="0.6" d="M3.13856 33.5338H71.5507C72.0738 32.516 72.188 31.3984 71.6363 30.2142C70.3475 27.4416 66.5856 28.0599 64.2268 28.7542C66.0387 26.9375 67.7508 25.3871 68.2074 22.6715C68.8542 18.8431 66.4715 15.7994 62.9903 14.4298C58.4199 12.6321 53.6832 15.1003 52.5418 19.3568C52.1518 15.1859 48.5469 10.159 44.8279 9.73578C39.1162 9.08424 37.1996 13.3977 36.9665 18.0822C36.9523 10.5348 32.1489 -2.75294 22.761 0.504785C17.1824 2.44039 14.3527 8.92254 13.7107 14.3346C13.4253 16.7316 13.1733 20.812 14.6951 23.0901C12.9831 21.7156 9.24976 21.7156 7.49962 21.7679C4.16106 21.8678 0.694081 23.0758 0.0472928 26.8662C-0.280857 28.7827 1.13637 31.5744 3.12905 33.529L3.13856 33.5338Z" fill="url(#paint0_linear_167_37386)"/>
<defs>
<linearGradient id="paint0_linear_167_37386" x1="36.0059" y1="33.0867" x2="36.0059" y2="-2.88134" gradientUnits="userSpaceOnUse">
<stop stop-color="white"/>
<stop offset="1" stop-color="#D4D5D9"/>
</linearGradient>
</defs>
</svg>
