<svg width="569" height="277" viewBox="0 0 569 277" fill="none" xmlns="http://www.w3.org/2000/svg">
<path d="M520.835 58.293L484.41 91.0746L520.835 120.214L557.258 91.0746L520.835 58.293Z" fill="#F0ECEC"/>
<path d="M484.41 182.131L520.835 214.913L557.258 182.131L520.835 149.35L484.41 182.131Z" fill="#F0ECEC"/>
<path d="M200.331 225.829C200.331 225.829 233.112 251.326 254.966 262.253C276.821 273.18 291.391 276.823 305.961 276.823C316.888 276.823 327.815 273.18 335.099 262.253L298.676 240.398C298.676 240.398 291.39 247.684 287.748 251.326C284.106 251.326 280.464 251.326 276.821 251.326C269.536 251.326 262.251 251.326 254.966 244.041C247.682 240.399 236.755 233.114 233.113 229.471C225.828 222.186 222.185 218.544 222.185 214.901L222.185 40.0665L182.12 0L0 0L0 40.0665L178.476 40.0665L178.476 120.2C178.476 120.2 149.338 94.7028 134.768 87.418C120.199 80.1333 105.629 76.4913 87.4166 76.4913C76.4895 76.4913 61.9205 76.4915 50.9933 83.7763C40.0661 87.4187 32.7814 94.7032 25.4966 101.988C18.2119 109.273 14.5685 120.2 14.5685 127.485C14.5685 138.412 18.2112 152.982 29.1384 167.551C36.4232 182.121 47.3504 193.048 61.92 200.333C76.4896 211.26 87.4176 214.901 98.3448 214.901C109.272 214.901 116.557 211.259 123.841 203.975C131.126 196.69 134.768 189.405 134.768 178.478C134.768 167.551 131.126 160.265 123.841 149.338C116.557 138.411 105.629 127.484 91.0598 116.556C91.0598 116.556 101.987 116.556 109.272 116.556C131.126 116.556 152.98 123.843 171.192 142.054V189.405C171.192 189.405 178.477 214.902 193.046 229.471L200.331 225.829ZM101.987 138.411C101.987 138.411 109.272 149.339 109.272 152.981C109.272 160.266 105.63 167.551 98.3448 174.836C91.06 182.121 83.7739 182.12 72.8467 182.12C65.562 182.12 61.9206 182.121 58.2782 174.836C54.6358 171.194 50.9933 163.909 50.9933 160.266C50.9933 152.981 50.9928 145.696 61.92 138.411C69.2048 131.127 76.4895 127.484 87.4166 123.841C94.7014 127.484 98.3442 134.769 101.987 138.411Z" fill="#F0ECEC"/>
<path d="M433.455 225.835C433.455 225.835 466.236 251.332 484.448 262.259C502.66 273.186 520.872 276.829 535.441 276.829C542.726 276.829 546.37 276.829 553.654 276.829C557.297 276.829 564.58 269.544 568.223 265.902L531.799 244.047C531.799 244.047 517.229 258.617 509.945 258.617C502.66 258.617 495.376 258.617 488.091 251.332C477.164 247.69 469.879 240.405 462.595 236.762C455.31 229.477 451.666 225.835 451.666 222.192V47.3576L411.6 7.29102L200.342 7.29102L240.408 47.3576L298.687 47.3576V116.563H273.19H265.905C265.905 116.563 265.905 120.205 265.905 123.847C265.905 131.132 269.548 138.417 280.475 149.344C287.76 160.271 298.686 171.199 309.613 178.484C320.54 185.769 327.825 193.054 335.11 193.054C335.11 193.054 338.752 193.054 342.395 193.054C342.395 193.054 342.395 189.411 342.395 185.769V156.629H411.6V200.339C411.6 200.339 418.885 222.193 433.455 236.762V225.835ZM342.395 109.279V40.0726L411.6 40.0726V109.279H342.395Z" fill="#F0ECEC"/>
<path d="M473.479 43.7101H491.69V3.64355L433.412 3.64355L473.479 43.7101Z" fill="#F0ECEC"/>
</svg>
