<svg width="24" height="23" viewBox="0 0 24 23" fill="none" xmlns="http://www.w3.org/2000/svg">
<g id="Group">
<g id="Group_2">
<path id="Vector" d="M9.49144 22.6309C8.17369 22.6309 7.10156 21.5588 7.10156 20.2411C7.10156 18.9233 8.17369 17.8516 9.49144 17.8516C10.8092 17.8516 11.8813 18.9233 11.8813 20.2411C11.8813 21.5588 10.8092 22.6309 9.49144 22.6309ZM9.49144 19.3516C9.00094 19.3516 8.60156 19.7506 8.60156 20.2411C8.60156 20.7319 9.00056 21.1309 9.49144 21.1309C9.98231 21.1309 10.3813 20.7319 10.3813 20.2411C10.3813 19.7506 9.98231 19.3516 9.49144 19.3516Z" fill="#686868"/>
<path id="Vector_2" d="M17.7997 22.6309C16.4819 22.6309 15.4102 21.5588 15.4102 20.2411C15.4102 18.9233 16.4819 17.8516 17.7997 17.8516C19.1174 17.8516 20.1895 18.9233 20.1895 20.2411C20.1895 21.5588 19.117 22.6309 17.7997 22.6309ZM17.7997 19.3516C17.3092 19.3516 16.9102 19.7506 16.9102 20.2411C16.9102 20.7319 17.3092 21.1309 17.7997 21.1309C18.2905 21.1309 18.6895 20.7319 18.6895 20.2411C18.6895 19.7506 18.2902 19.3516 17.7997 19.3516Z" fill="#686868"/>
</g>
<path id="Vector_3" d="M19.5489 15.9985H7.7668C6.62042 15.9985 5.6413 15.2181 5.38555 14.1006L2.94017 3.42172C2.90792 3.28072 2.81042 3.15997 2.67917 3.09922L0.650796 2.15909C0.181296 1.94159 -0.0230794 1.38434 0.194421 0.914468C0.411921 0.444967 0.969546 0.240592 1.43905 0.458092L3.46742 1.39822C4.12105 1.70084 4.60742 2.30084 4.76792 3.00322L7.21329 13.6828C7.27255 13.9423 7.50017 14.1238 7.7668 14.1238H19.5489C19.8144 14.1238 20.0417 13.9435 20.1024 13.6847L22.0037 5.50484C22.058 5.27234 21.959 5.10322 21.8957 5.02334C21.8319 4.94309 21.6894 4.80884 21.4509 4.80884H7.57592C7.05805 4.80884 6.63842 4.38922 6.63842 3.87134C6.63842 3.35347 7.05805 2.93384 7.57592 2.93384H21.4509C22.2005 2.93384 22.8973 3.27022 23.3638 3.85709C23.8303 4.44397 23.9998 5.19922 23.8303 5.92934L21.9287 14.1096C21.6695 15.2215 20.6912 15.9985 19.5489 15.9985Z" fill="#686868"/>
</g>
</svg>
