<svg width="20" height="21" viewBox="0 0 20 21" fill="none" xmlns="http://www.w3.org/2000/svg">
<g clip-path="url(#clip0_8538_2728)">
<mask id="mask0_8538_2728" style="mask-type:luminance" maskUnits="userSpaceOnUse" x="0" y="0" width="20" height="21">
<path d="M20 0.5H0V20.5H20V0.5Z" fill="white"/>
</mask>
<g mask="url(#mask0_8538_2728)">
<path d="M17.0754 3.4273C13.1759 -0.472186 6.82893 -0.472186 2.92944 3.4273C1.04052 5.31697 0 7.82883 0 10.5003C0 13.1717 1.04052 15.6836 2.92944 17.5725C4.87958 19.5226 7.44101 20.4973 10.0024 20.4973C12.5638 20.4973 15.1253 19.5226 17.0754 17.5725C20.9749 13.673 20.9749 7.32754 17.0754 3.4273ZM15.9798 16.4769C12.6839 19.7729 7.32089 19.7729 4.02496 16.4769C2.42893 14.8809 1.54955 12.758 1.54955 10.5003C1.54955 8.24255 2.42893 6.11963 4.02496 4.52282C7.32089 1.22689 12.6839 1.22767 15.9798 4.52282C19.275 7.81875 19.275 13.1818 15.9798 16.4769Z" fill="#FF5B00"/>
<path d="M13.3414 12.6417L11.148 10.4514L13.3414 8.26114C13.6436 7.95898 13.6436 7.46855 13.3422 7.16558C13.0393 6.86186 12.5488 6.86265 12.2459 7.1648L10.051 9.35665L7.85602 7.1648C7.55309 6.86265 7.06265 6.86186 6.75972 7.16558C6.45757 7.46851 6.45757 7.95895 6.7605 8.26114L8.95392 10.4514L6.7605 12.6417C6.45757 12.9439 6.45757 13.4343 6.75972 13.7373C6.91081 13.8891 7.10992 13.9643 7.30828 13.9643C7.50664 13.9643 7.70496 13.8883 7.85606 13.738L10.051 11.5462L12.2459 13.738C12.397 13.8891 12.5954 13.9643 12.7937 13.9643C12.9921 13.9643 13.1912 13.8883 13.3423 13.7373C13.6444 13.4343 13.6444 12.9439 13.3414 12.6417Z" fill="#FF5B00"/>
</g>
</g>
<defs>
<clipPath id="clip0_8538_2728">
<rect width="20" height="21" fill="white"/>
</clipPath>
</defs>
</svg>
