<svg width="25" height="24" viewBox="0 0 25 24" fill="none" xmlns="http://www.w3.org/2000/svg">
<g id="fi_3114845" opacity="0.6" clip-path="url(#clip0_1392_21)">
<path id="Vector" d="M17.4999 16C16.8708 16.0015 16.2509 16.1517 15.6909 16.4385C15.131 16.7253 14.6468 17.1404 14.2779 17.65L9.26288 14.307C9.57892 13.4643 9.57892 12.5357 9.26288 11.693L14.2779 8.35002C14.8408 9.11315 15.6574 9.65054 16.5809 9.86564C17.5045 10.0807 18.4745 9.95946 19.3166 9.52357C20.1588 9.08769 20.8179 8.36577 21.1755 7.48754C21.5332 6.6093 21.566 5.6323 21.2679 4.73208C20.9699 3.83186 20.3606 3.06742 19.5495 2.57611C18.7385 2.08479 17.7788 1.89881 16.8429 2.05157C15.907 2.20433 15.0563 2.68582 14.4435 3.40953C13.8308 4.13325 13.4962 5.05175 13.4999 6.00002C13.5064 6.14573 13.5211 6.29096 13.5439 6.43502L8.15288 10.029C7.57837 9.51111 6.86602 9.17088 6.10209 9.04954C5.33817 8.9282 4.55546 9.03095 3.84874 9.34536C3.14202 9.65976 2.54162 10.1723 2.12025 10.821C1.69888 11.4696 1.47461 12.2265 1.47461 13C1.47461 13.7735 1.69888 14.5304 2.12025 15.1791C2.54162 15.8277 3.14202 16.3403 3.84874 16.6547C4.55546 16.9691 5.33817 17.0718 6.10209 16.9505C6.86602 16.8292 7.57837 16.4889 8.15288 15.971L13.5439 19.565C13.5211 19.7091 13.5064 19.8543 13.4999 20C13.4999 20.7911 13.7345 21.5645 14.174 22.2223C14.6135 22.8801 15.2382 23.3928 15.9692 23.6955C16.7001 23.9983 17.5043 24.0775 18.2802 23.9232C19.0562 23.7688 19.7689 23.3879 20.3283 22.8284C20.8877 22.269 21.2687 21.5563 21.423 20.7804C21.5774 20.0045 21.4982 19.2002 21.1954 18.4693C20.8927 17.7384 20.38 17.1137 19.7222 16.6741C19.0644 16.2346 18.291 16 17.4999 16ZM17.4999 4.00002C17.8954 4.00002 18.2821 4.11731 18.611 4.33708C18.9399 4.55684 19.1963 4.8692 19.3476 5.23465C19.499 5.6001 19.5386 6.00223 19.4615 6.3902C19.3843 6.77816 19.1938 7.13452 18.9141 7.41423C18.6344 7.69393 18.278 7.88442 17.8901 7.96159C17.5021 8.03876 17.1 7.99915 16.7345 7.84778C16.3691 7.6964 16.0567 7.44005 15.8369 7.11116C15.6172 6.78226 15.4999 6.39558 15.4999 6.00002C15.4999 5.46958 15.7106 4.96088 16.0857 4.5858C16.4607 4.21073 16.9695 4.00002 17.4999 4.00002ZM5.49988 15C5.10432 15 4.71764 14.8827 4.38874 14.663C4.05985 14.4432 3.8035 14.1308 3.65213 13.7654C3.50075 13.3999 3.46114 12.9978 3.53831 12.6098C3.61548 12.2219 3.80597 11.8655 4.08567 11.5858C4.36538 11.3061 4.72174 11.1156 5.1097 11.0384C5.49767 10.9613 5.8998 11.0009 6.26525 11.1523C6.6307 11.3036 6.94306 11.56 7.16282 11.8889C7.38259 12.2178 7.49988 12.6045 7.49988 13C7.49988 13.5304 7.28917 14.0392 6.9141 14.4142C6.53903 14.7893 6.03032 15 5.49988 15ZM17.4999 22C17.1043 22 16.7176 21.8827 16.3887 21.663C16.0598 21.4432 15.8035 21.1308 15.6521 20.7654C15.5008 20.3999 15.4611 19.9978 15.5383 19.6098C15.6155 19.2219 15.806 18.8655 16.0857 18.5858C16.3654 18.3061 16.7217 18.1156 17.1097 18.0384C17.4977 17.9613 17.8998 18.0009 18.2653 18.1523C18.6307 18.3036 18.9431 18.56 19.1628 18.8889C19.3826 19.2178 19.4999 19.6045 19.4999 20C19.4999 20.5304 19.2892 21.0392 18.9141 21.4142C18.539 21.7893 18.0303 22 17.4999 22Z" fill="#FF5B00"/>
</g>
<defs>
<clipPath id="clip0_1392_21">
<rect width="24" height="24" fill="white" transform="translate(0.5)"/>
</clipPath>
</defs>
</svg>
