<svg width="24" height="25" viewBox="0 0 24 25" fill="none" xmlns="http://www.w3.org/2000/svg">
<path d="M9.49144 23.6309C8.17369 23.6309 7.10156 22.5588 7.10156 21.2411C7.10156 19.9233 8.17369 18.8516 9.49144 18.8516C10.8092 18.8516 11.8813 19.9233 11.8813 21.2411C11.8813 22.5588 10.8092 23.6309 9.49144 23.6309ZM9.49144 20.3516C9.00094 20.3516 8.60156 20.7506 8.60156 21.2411C8.60156 21.7319 9.00056 22.1309 9.49144 22.1309C9.98231 22.1309 10.3813 21.7319 10.3813 21.2411C10.3813 20.7506 9.98231 20.3516 9.49144 20.3516Z" fill="#686868"/>
<path d="M17.7997 23.6309C16.4819 23.6309 15.4102 22.5588 15.4102 21.2411C15.4102 19.9233 16.4819 18.8516 17.7997 18.8516C19.1174 18.8516 20.1895 19.9233 20.1895 21.2411C20.1895 22.5588 19.117 23.6309 17.7997 23.6309ZM17.7997 20.3516C17.3092 20.3516 16.9102 20.7506 16.9102 21.2411C16.9102 21.7319 17.3092 22.1309 17.7997 22.1309C18.2905 22.1309 18.6895 21.7319 18.6895 21.2411C18.6895 20.7506 18.2902 20.3516 17.7997 20.3516Z" fill="#686868"/>
<path d="M19.5489 16.9985H7.7668C6.62042 16.9985 5.6413 16.2181 5.38555 15.1006L2.94017 4.42172C2.90792 4.28072 2.81042 4.15997 2.67917 4.09922L0.650796 3.15909C0.181296 2.94159 -0.0230794 2.38434 0.194421 1.91447C0.411921 1.44497 0.969546 1.24059 1.43905 1.45809L3.46742 2.39822C4.12105 2.70084 4.60742 3.30084 4.76792 4.00322L7.21329 14.6828C7.27255 14.9423 7.50017 15.1238 7.7668 15.1238H19.5489C19.8144 15.1238 20.0417 14.9435 20.1024 14.6847L22.0037 6.50484C22.058 6.27234 21.959 6.10322 21.8957 6.02334C21.8319 5.94309 21.6894 5.80884 21.4509 5.80884H7.57592C7.05805 5.80884 6.63842 5.38922 6.63842 4.87134C6.63842 4.35347 7.05805 3.93384 7.57592 3.93384H21.4509C22.2005 3.93384 22.8973 4.27022 23.3638 4.85709C23.8303 5.44397 23.9998 6.19922 23.8303 6.92934L21.9287 15.1096C21.6695 16.2215 20.6912 16.9985 19.5489 16.9985Z" fill="#686868"/>
<g clip-path="url(#clip0_378_23958)">
<path d="M10.2289 21.1147C10.2295 21.387 10.1458 21.6533 9.9881 21.8802C9.83043 22.107 9.60596 22.284 9.34302 22.389C9.08008 22.494 8.79048 22.5222 8.51078 22.4701C8.23108 22.4179 7.97383 22.2877 7.77152 22.096C7.56921 21.9042 7.43091 21.6595 7.37409 21.3927C7.31727 21.1259 7.34447 20.8489 7.45227 20.5969C7.56006 20.3448 7.74361 20.129 7.97974 19.9765C8.21586 19.8241 8.49398 19.7419 8.77895 19.7404H8.79046C9.17195 19.7404 9.53781 19.8852 9.80757 20.1429C10.0773 20.4007 10.2289 20.7502 10.2289 21.1147ZM17.9963 19.7404H17.9848C17.6023 19.7418 17.236 19.8882 16.9663 20.1474C16.6967 20.4066 16.5456 20.7575 16.5464 21.1229C16.5472 21.4884 16.6996 21.8387 16.9704 22.0968C17.2411 22.355 17.608 22.5 17.9906 22.5C18.3731 22.5 18.74 22.355 19.0107 22.0968C19.2815 21.8387 19.434 21.4884 19.4347 21.1229C19.4355 20.7575 19.2845 20.4066 19.0148 20.1474C18.7451 19.8882 18.3788 19.7418 17.9963 19.7404ZM23.3875 7.36277L22.2206 14.142C22.1917 14.6374 22.0567 15.1218 21.8239 15.5654C21.5912 16.0089 21.2658 16.4022 20.8677 16.7208C20.4696 17.0394 20.0074 17.2766 19.5095 17.4178C19.0117 17.5589 18.4888 17.601 17.9733 17.5415H8.46135C7.70068 17.5384 6.9664 17.2748 6.39186 16.7985C5.81733 16.3221 5.44064 15.6648 5.3302 14.9457L3.58915 3.32889C3.53887 3.00265 3.36806 2.70437 3.10761 2.48799C2.84716 2.27162 2.51427 2.15143 2.16914 2.14918H1.86305C1.63415 2.14918 1.41463 2.0623 1.25278 1.90766C1.09093 1.75302 1 1.54328 1 1.32459C1 1.10589 1.09093 0.896156 1.25278 0.741516C1.41463 0.586876 1.63415 0.5 1.86305 0.5H2.16914C2.92981 0.503089 3.66409 0.766728 4.23863 1.24304C4.81316 1.71934 5.18985 2.37673 5.30029 3.0958L5.40615 3.79835H20.2748C20.7383 3.79829 21.1962 3.89554 21.6161 4.08321C22.036 4.27088 22.4076 4.5444 22.7046 4.88442C23.0017 5.22444 23.2169 5.62266 23.3351 6.05092C23.4533 6.47918 23.4704 6.92702 23.3875 7.36277ZM21.3783 5.94228C21.2436 5.78753 21.0749 5.66298 20.8842 5.57748C20.6935 5.49198 20.4854 5.44761 20.2748 5.44753H5.65241L7.03329 14.7126C7.08378 15.0401 7.25575 15.3395 7.51788 15.556C7.78 15.7725 8.11483 15.8919 8.46135 15.8923H17.9733C19.8145 15.8923 20.2586 15.2326 20.5199 13.8616L21.6867 7.08131C21.7265 6.88148 21.7195 6.6757 21.6662 6.47876C21.6129 6.28182 21.5145 6.09861 21.3783 5.94228ZM15.0343 8.62054L12.5764 10.969L11.6558 10.0894C11.4931 9.93913 11.2751 9.85592 11.0488 9.85769C10.8225 9.85947 10.606 9.94609 10.4459 10.0989C10.2858 10.2517 10.195 10.4585 10.1929 10.6747C10.1908 10.8909 10.2777 11.0992 10.4349 11.2548L11.9688 12.7204C12.0489 12.797 12.1441 12.8578 12.2488 12.8993C12.3536 12.9408 12.4659 12.9621 12.5792 12.9621C12.6926 12.9621 12.8049 12.9408 12.9096 12.8993C13.0144 12.8578 13.1096 12.797 13.1897 12.7204L16.2553 9.79036C16.4172 9.63567 16.5081 9.42587 16.5081 9.2071C16.5081 8.98834 16.4172 8.77853 16.2553 8.62384C16.0933 8.46915 15.8738 8.38225 15.6448 8.38225C15.4158 8.38225 15.1962 8.46915 15.0343 8.62384V8.62054Z" fill="#008000"/>
</g>
<defs>
<clipPath id="clip0_378_23958">
<rect width="7" height="6" fill="white" transform="translate(10 7.5)"/>
</clipPath>
</defs>
</svg>
