<svg width="24" height="25" viewBox="0 0 24 25" fill="none" xmlns="http://www.w3.org/2000/svg">
<g id="fi_9208320">
<path id="Vector" fill-rule="evenodd" clip-rule="evenodd" d="M12 2.5C12.5523 2.5 13 2.94772 13 3.5V13.5C13 14.0523 12.5523 14.5 12 14.5C11.4477 14.5 11 14.0523 11 13.5V3.5C11 2.94772 11.4477 2.5 12 2.5ZM8.86561 6.06953C9.14215 6.54759 8.97879 7.15932 8.50073 7.43586C6.40581 8.64771 5 10.9103 5 13.5C5 17.366 8.13401 20.5 12 20.5C15.866 20.5 19 17.366 19 13.5C19 10.9103 17.5942 8.64771 15.4993 7.43586C15.0212 7.15932 14.8579 6.54759 15.1344 6.06953C15.4109 5.59147 16.0227 5.42811 16.5007 5.70465C19.1882 7.25928 21 10.1675 21 13.5C21 18.4706 16.9706 22.5 12 22.5C7.02944 22.5 3 18.4706 3 13.5C3 10.1675 4.81178 7.25928 7.49927 5.70465C7.97733 5.42811 8.58906 5.59147 8.86561 6.06953Z" fill="#FF2222"/>
</g>
</svg>
