<svg width="19" height="22" viewBox="0 0 19 22" fill="none" xmlns="http://www.w3.org/2000/svg">
<path d="M12.6243 10.201C14.032 9.17434 14.9487 7.51283 14.9487 5.64102C14.9487 2.53056 12.4181 0 9.30768 0C6.19721 0 3.66665 2.53056 3.66665 5.64102C3.66665 7.51283 4.5833 9.17434 5.99105 10.201C2.49167 11.5401 0 14.933 0 18.8974C0 20.6082 1.3918 22 3.10256 22H15.5128C17.2236 22 18.6154 20.6082 18.6154 18.8974C18.6154 14.933 16.1237 11.5401 12.6243 10.201ZM5.35898 5.64102C5.35898 3.46371 7.13036 1.69232 9.30768 1.69232C11.485 1.69232 13.2564 3.46371 13.2564 5.64102C13.2564 7.81834 11.485 9.58977 9.30768 9.58977C7.13036 9.58977 5.35898 7.81834 5.35898 5.64102ZM15.5128 20.3077H3.10256C2.32495 20.3077 1.69232 19.675 1.69232 18.8974C1.69232 14.6982 5.10851 11.282 9.30772 11.282C13.5069 11.282 16.9231 14.6982 16.9231 18.8974C16.9231 19.675 16.2904 20.3077 15.5128 20.3077Z" fill="#686868"/>
</svg>
