<svg width="68" height="135" viewBox="0 0 68 135" fill="none" xmlns="http://www.w3.org/2000/svg">
<g id="Group" opacity="0.5">
<path id="Vector" d="M67.1512 59.6809C57.0991 59.6809 57.0969 74.8875 67.1512 74.8875C77.2055 74.8875 77.2011 59.6809 67.1512 59.6809ZM60.4248 67.2842C60.4248 58.379 73.8777 58.3901 73.8777 67.2842C73.8777 76.1783 60.4248 76.1783 60.4248 67.2842Z" fill="white"/>
<path id="Vector_2" d="M59.03 77.084C60.6396 78.5453 62.4353 76.0034 61.0293 74.6639C59.4374 73.5325 57.2897 75.7821 59.03 77.084Z" fill="white"/>
<path id="Vector_3" d="M58.9249 72.2772C58.1367 70.776 55.0989 71.8234 56.2525 73.9223C57.178 75.6715 59.877 74.1902 58.9249 72.2772Z" fill="white"/>
<path id="Vector_4" d="M54.651 70.0232C55.3263 72.2904 58.2356 70.9753 57.7131 69.3368C57.3699 67.5456 54.2126 67.7936 54.651 70.0232Z" fill="white"/>
<path id="Vector_5" d="M57.5799 66.1595C57.6219 64.1778 54.5665 63.6841 54.458 65.8163C54.1702 68.0326 57.3252 68.0127 57.5799 66.1595Z" fill="white"/>
<path id="Vector_6" d="M56.4552 63.8722C58.1844 64.3748 59.4841 62.267 57.7371 61.0691C55.9858 59.858 54.1879 63.2389 56.4552 63.8722Z" fill="white"/>
<path id="Vector_7" d="M60.2653 58.3723C58.928 56.5434 56.2887 59.3044 58.1021 60.5753C59.7494 61.7178 61.4011 59.8845 60.2653 58.3723Z" fill="white"/>
<path id="Vector_8" d="M62.8025 58.6183C64.576 57.4182 63.0682 54.7768 61.3832 55.8152C59.2621 56.9798 61.3345 59.4264 62.8025 58.6183Z" fill="white"/>
<path id="Vector_9" d="M72.688 51.0102C73.8991 47.7732 68.1735 46.7059 68.0738 50.1046C67.9853 53.1291 71.6806 53.7247 72.688 51.0102Z" fill="white"/>
<path id="Vector_10" d="M69.0146 84.1736C68.6581 81.4126 64.9185 80.9697 64.3118 84.0784C63.6786 87.3265 69.5106 87.6829 69.0146 84.1736Z" fill="white"/>
<path id="Vector_11" d="M63.3844 83.93C64.0109 80.755 60.3511 79.8428 58.996 82.223C57.1849 85.3183 62.74 87.1184 63.3844 83.93Z" fill="white"/>
<path id="Vector_12" d="M58.1604 81.7754C59.6549 79.207 56.7743 76.8312 54.5358 78.7885C51.9763 81.0381 56.44 84.7378 58.1604 81.7754Z" fill="white"/>
<path id="Vector_13" d="M54.5796 74.9031C53.3685 72.6005 48.7454 74.2168 50.5034 77.4095C51.9315 80.0886 56.0232 77.8014 54.5796 74.9031Z" fill="white"/>
<path id="Vector_14" d="M52.7289 70.4147C52.193 67.6537 47.3928 68.0877 48.0571 71.4576C49.0844 74.8983 53.5503 72.9278 52.7289 70.4147Z" fill="white"/>
<path id="Vector_15" d="M52.5239 65.5664C52.6214 62.5352 47.9319 61.7935 47.7658 65.0438C47.3318 68.5421 52.1697 68.2964 52.5239 65.5664Z" fill="white"/>
<path id="Vector_16" d="M53.8046 60.9055C55.0423 58.6538 51.2229 55.6005 49.476 58.8553C48.0412 61.4901 52.1617 63.7153 53.8046 60.9055Z" fill="white"/>
<path id="Vector_17" d="M56.5526 56.8955C58.5741 55.0047 55.6448 51.1411 53.1163 53.5545C50.8136 56.3 54.9053 58.948 56.5526 56.8955Z" fill="white"/>
<path id="Vector_18" d="M60.4918 54.057C63.2462 52.2149 60.8638 48.225 58.3286 49.7838C55.0783 51.5661 58.2976 55.2903 60.4918 54.057Z" fill="white"/>
<path id="Vector_19" d="M67.1329 50.0098C67.2171 46.8214 61.4028 47.2975 62.4811 50.7249C63.2826 53.3154 67.0444 53.3331 67.1329 50.0098Z" fill="white"/>
<path id="Vector_20" d="M78.604 132.211C80.8093 130.336 82.4345 128.803 83.6478 127.544L83.6478 125.701C82.4898 126.932 80.7761 128.544 78.3428 130.732C60.5236 123.549 72.6171 126.226 75.5264 114.781C78.2609 118.793 81.5843 120.055 83.6478 120.972L83.6478 119.644C79.8572 117.892 75.9826 115.089 75.9826 111.427C75.9826 103.992 72.0082 106.377 76.7996 93.7827C80.2492 95.7112 82.326 97.1769 83.6478 98.4146L83.6478 96.8094C76.8549 91.159 75.9825 94.4425 79.2727 88.2718C82.0049 88.3648 83.1607 88.2983 83.6478 88.7124L83.6478 87.3264C82.5917 87.198 81.6507 87.1116 80.9001 87.0606C82.3194 86.0709 83.1585 85.2739 83.6478 84.8023L83.6478 83.1239C79.6225 87.3773 73.9057 90.1405 67.1504 90.1405C51.4457 90.1405 40.3087 74.5265 45.6403 59.6167C45.8374 59.4528 48.2618 53.1936 49.7209 52.671C50.1372 50.2444 64.0551 39.2402 78.4137 47.4169C78.5 47.5697 81.9518 49.7152 83.6456 51.3802L83.6456 49.724C80.4993 46.7748 79.6713 47.6892 83.6456 47.2265L83.6456 45.8803C83.1563 46.2722 81.9983 46.1925 79.2572 46.2855C75.9981 40.159 76.9457 43.3097 83.6456 37.7434L83.6456 36.012C81.4226 37.9538 78.9605 39.559 76.7885 40.7724C71.1845 26.0286 76.9324 31.4 75.8829 21.6335C77.5413 18.5028 80.4241 16.3839 83.6456 14.9026L83.6456 13.5631C81.613 14.524 78.2476 15.7683 75.5176 19.7825C72.6149 8.32671 60.4948 11.0257 78.3251 3.82982C80.7938 6.04837 82.5075 7.67352 83.6456 8.91342L83.6456 7.03365C82.43 5.7716 80.8005 4.23502 78.5864 2.35303C55.8275 10.8176 78.3871 10.7401 55.6946 2.36183C37.3285 17.9736 58.3825 10.3747 34.18 10.191C22.2083 31.1432 39.4784 16.8001 16.642 24.9038C12.5282 48.845 23.9398 29.1881 5.18841 44.7312C9.55465 68.6525 13.4293 46.3608 1.2207 67.282C13.4515 88.2408 9.5812 65.8782 5.19725 89.8327C23.8335 105.281 12.5813 85.7034 16.6442 109.662C39.3434 117.757 22.2482 103.323 34.1823 124.377C58.3914 124.194 37.3396 116.593 55.7012 132.209C78.314 123.797 55.8983 123.764 78.5997 132.209L78.604 132.211ZM74.5567 113.112C73.9456 117.697 70.7683 121.395 67.1504 124.28C55.9758 115.368 61.3406 111.896 61.3406 105.686C61.3406 102.648 65.1732 97.7792 67.1526 95.4854C76.7508 106.602 70.7639 105.325 74.5567 113.112ZM48.9548 100.126C51.5431 97.4426 54.7625 95.3149 57.5013 93.7849C58.615 96.7209 59.7132 100.427 59.9723 104.149C56.9079 111.334 61.5377 116.179 47.6551 120.844C39.9766 108.281 46.6278 107.8 48.9526 100.126L48.9548 100.126ZM43.3731 107.145C40.0076 110.218 35.0369 111.059 30.5157 110.949C29.599 106.414 29.5392 101.532 32.0235 97.6242C40.8755 93.672 33.8346 91.345 49.0235 88.8895C49.2294 103.582 45.472 98.7423 43.3753 107.147L43.3731 107.145ZM69.3225 91.283C66.4995 93.9975 67.8988 94.0927 64.9806 91.283C66.6146 91.4291 67.6929 91.4291 69.3225 91.283ZM61.0484 101.906C59.5583 91.5885 56.1131 93.9 62.9436 91.1479C68.3704 96.0234 65.9194 92.8306 61.0484 101.906ZM73.2592 101.893C68.335 92.7221 65.8795 96.0787 71.3617 91.1479C78.1324 93.8757 74.7426 91.6948 73.2592 101.893ZM76.122 91.9273C75.0371 91.3649 74.0695 90.9088 73.299 90.5678C78.4579 89.2039 77.9287 87.5898 76.122 91.9273ZM58.1788 91.9273C57.7072 90.7981 57.26 89.8261 56.888 89.0689C61.6971 91.3428 62.3458 89.7685 58.1788 91.9273ZM49.5571 97.746C51.6915 87.5367 47.6972 88.5264 55.0304 88.274C58.46 94.7215 57.2423 90.8734 49.5571 97.746ZM50.2899 87.3773C50.2346 86.1595 50.146 85.1056 50.0575 84.2709C53.7727 88.0105 54.9352 86.7751 50.2899 87.3773ZM48.5851 82.8649C49.6014 90.1117 49.8139 86.0532 40.2091 89.8925C45.7709 80.9253 41.5708 80.5821 48.5851 82.8649ZM44.4402 80.4006C44.8056 79.236 45.0846 78.2042 45.286 77.3894C47.5356 82.2361 49.0035 81.4235 44.4402 80.4006ZM34.1025 79.3157C42.3701 72.8062 38.5574 71.0305 44.3783 75.5783C42.8638 82.721 44.4093 78.9924 34.1025 79.3157ZM43.9088 73.6055C40.7294 71.2873 40.8755 72.6844 43.1428 69.3079C43.2668 70.7847 43.5302 72.2172 43.9088 73.6055ZM40.2002 71.1434C29.2337 64.5188 29.2404 70.0562 40.198 63.4316C43.4107 67.5875 43.6277 66.7085 40.2002 71.1434ZM41.3183 62.7342C42.3523 62.0722 43.2313 61.4611 43.9111 60.9651C42.5029 66.1306 44.1568 66.4495 41.3183 62.7342ZM34.1003 55.2615C44.52 55.5914 42.8417 51.8119 44.3628 59.0034C38.6304 63.4892 42.1752 61.6205 34.1003 55.2615ZM44.427 54.1788C45.627 53.9109 46.6632 53.6363 47.4736 53.4017C44.4004 57.7435 45.8307 58.6757 44.427 54.1788ZM53.3964 47.5143C49.0257 50.5632 50.0663 51.8518 50.2789 47.2043C51.4922 47.3615 52.555 47.459 53.3964 47.5143ZM48.5718 51.7145C41.6283 53.9751 45.6315 53.4482 40.1958 44.6847C49.9069 48.5727 49.5991 44.4301 48.5718 51.7145ZM64.9563 43.292C67.7881 40.5731 66.3821 40.4734 69.3114 43.292C67.715 43.1481 66.6191 43.1414 64.9563 43.292ZM62.9237 43.4204C56.1374 40.686 59.5671 42.8536 61.0395 32.662C65.977 41.8683 68.3992 38.5007 62.9237 43.4204ZM57.4903 40.79C54.7514 39.2601 51.5299 37.1279 48.9393 34.4422C46.6389 26.8677 39.97 26.2898 47.6441 13.7313C61.5797 18.4142 56.826 23.0506 59.9656 30.4169C59.7088 34.1433 58.6084 37.8519 57.4925 40.79L57.4903 40.79ZM47.7858 35.0976C48.8175 38.6866 49.0522 42.5459 49.008 45.6877C45.9082 45.1851 42.1508 44.284 38.7965 42.6433C34.1225 36.4194 27.6063 37.9715 30.5046 23.6284C45.1886 23.2631 42.3213 29.2545 47.7836 35.0976L47.7858 35.0976ZM50.3364 44.8884C50.3364 33.2488 46.0411 35.9854 57.0032 42.0233C56.1529 44.098 55.3625 45.6589 55.0171 46.3055C49.5748 46.1172 50.3364 45.9489 50.3364 44.8884ZM58.17 42.6477C59.2594 43.2123 60.2269 43.6662 60.9974 44.0072C55.8164 45.3777 56.3589 46.9962 58.17 42.6477ZM77.404 45.5039C72.5794 43.2234 71.9263 44.8043 76.1088 42.6389C76.5826 43.7747 77.032 44.7467 77.404 45.5039ZM71.3418 43.416C65.8973 38.5206 68.4058 41.6934 73.2503 32.6731C74.7493 43.0285 78.1723 40.6639 71.3418 43.416ZM73.0068 30.18C71.4879 33.5942 69.1874 36.705 67.1327 39.083C57.0275 27.388 63.9842 30.2309 59.7398 21.4785C60.3509 16.882 63.5082 13.1911 67.1416 10.2906C78.5997 19.426 72.5773 22.2114 73.0068 30.18ZM55.9537 3.84534C74.0784 11.1453 61.7414 8.04326 58.7678 19.8002C52.121 10.0183 41.6416 16.7094 55.9537 3.84534ZM34.9284 11.4973C54.4215 12.1726 41.8032 13.4967 43.0299 25.5282C33.4383 18.6068 25.8948 28.4641 34.9284 11.4973ZM17.7889 25.8758C36.3853 19.8335 24.9073 25.3621 30.2013 36.2954C18.8406 33.0783 15.0943 44.9991 17.7889 25.8758ZM37.944 43.6618C40.1404 46.6796 41.6815 50.2244 42.711 53.1913C28.3148 55.939 32.3799 51.4068 23.7626 50.7913C20.096 47.9727 18.4731 43.4027 17.7801 38.7929C31.4545 33.4281 30.8124 40.0372 37.944 43.6595L37.944 43.6618ZM6.5988 45.2537C21.9648 33.2444 13.1636 42.3776 21.8275 50.7956C10.0683 51.668 10.5975 64.1468 6.5988 45.2537ZM11.0115 57.3937C21.9869 47.7069 23.7405 54.1168 31.6382 55.0733C34.7291 57.159 37.3861 59.9599 39.3699 62.3932C26.2623 70.2179 29.6367 64.0892 20.7426 66.6244C16.2501 65.1985 13.3585 61.6979 11.0115 57.3937ZM2.72188 67.2908C13.0574 50.7093 7.86083 62.3245 18.9248 67.2908C7.84755 72.2814 13.0707 83.8679 2.72188 67.2908ZM11.0204 77.1902C18.0391 64.3062 21.8076 69.7662 29.5968 67.9529C33.2169 68.854 36.6753 70.5788 39.3721 72.1862C37.3905 74.6173 34.7336 77.4204 31.6427 79.5061C23.9154 80.4383 22.0135 86.8858 11.0204 77.1902ZM6.60764 89.3301C10.6573 70.2356 9.75611 82.8892 21.8297 83.786C13.1282 92.2572 21.998 101.355 6.60764 89.3301ZM17.7889 95.7887C18.4819 91.1922 20.0982 86.6178 23.7626 83.7882C33.4361 83.0996 27.6085 78.5031 42.7243 81.3903C37.6518 95.9592 36.5137 88.7058 31.1644 96.6102C26.8845 98.3682 22.1308 97.4914 17.7867 95.7887L17.7889 95.7887ZM17.7956 108.706C15.0811 89.381 18.5528 101.574 30.2013 98.2863C25.0623 108.932 36.0864 114.657 17.7956 108.706ZM34.9351 123.087C25.7753 105.836 33.177 116.159 43.0387 109.056C41.8431 120.799 54.2156 122.418 34.9351 123.087ZM55.9647 130.739C41.6659 117.875 52.1232 124.559 58.7745 114.788C61.6816 126.242 73.795 123.545 55.9647 130.739Z" fill="white"/>
<path id="Vector_21" d="M-6.08902e-05 72.7043C2.75873 88.3692 0.50918 87.5677 7.32866 77.8366L-6.08902e-05 72.7043Z" fill="white"/>
<path id="Vector_22" d="M5.90625 95.3439C13.8505 109.111 11.4637 109.144 14.5457 97.662L5.90625 95.3439Z" fill="white"/>
<path id="Vector_23" d="M19.1973 114.598C31.3771 124.816 29.1431 125.661 28.1113 113.82L19.1973 114.598Z" fill="white"/>
<path id="Vector_24" d="M38.2695 128.146C53.2237 133.579 51.3948 135.116 46.3776 124.366L38.2695 128.146Z" fill="white"/>
<path id="Vector_25" d="M67.1496 128.031L60.8262 134.35C76.7368 134.345 75.5456 136.413 67.1496 128.031Z" fill="white"/>
<path id="Vector_26" d="M67.1391 6.54004L73.4715 0.220943C57.5453 0.225371 58.7543 -1.83375 67.1391 6.54004Z" fill="white"/>
<path id="Vector_27" d="M50.1497 2.10725C35.211 7.54512 35.5897 5.18932 46.3658 10.2109L50.1497 2.10725Z" fill="white"/>
<path id="Vector_28" d="M19.1973 19.984C30.4073 20.9627 27.8988 23.0727 28.8796 11.8472L19.1973 19.984Z" fill="white"/>
<path id="Vector_29" d="M12.2285 28.276C4.27318 42.0743 3.09529 39.9931 14.5423 36.9221L12.2285 28.276Z" fill="white"/>
<path id="Vector_30" d="M2.19793 49.4143C-0.556434 65.088 -2.39416 63.5603 7.33467 56.7475L2.19793 49.4143Z" fill="white"/>
</g>
</svg>
