<svg width="62" height="73" viewBox="0 0 62 73" fill="none" xmlns="http://www.w3.org/2000/svg">
<g id="Group" opacity="0.03">
<path id="Vector" d="M33.1174 6.2369L25.711 0L18.3047 6.2369L25.711 12.4738L33.1174 6.2369Z" fill="#FF5B00"/>
<path id="Vector_2" d="M1.15158 68.9931C5.04965 71.332 8.55779 72.1115 12.4559 72.1115C14.7947 72.1115 16.7437 71.7217 18.6928 70.5522C20.6418 69.7726 21.8112 68.2135 22.9807 66.6542C24.1501 65.095 24.5399 63.146 24.5399 61.197C24.5399 59.2479 24.1501 57.2988 22.9807 55.3498C25.7093 56.909 28.438 57.6887 30.7768 57.6887C32.336 57.6887 33.5055 56.9091 35.0647 55.7397C36.6239 54.5703 37.7934 52.6211 38.573 50.2823C39.7424 47.9434 40.5221 45.2149 40.9119 42.4863C41.6915 38.978 42.471 36.2492 44.0302 34.3002C45.5895 31.9614 47.1487 31.1818 49.0978 31.1818C50.657 31.1818 51.8264 31.9615 52.9958 33.5207C54.1652 35.08 54.555 36.6392 54.555 38.978C54.555 41.7066 54.1653 44.0455 53.3857 46.7742C52.6061 49.113 51.4366 51.4518 50.2671 53.0111C49.0977 54.5703 47.9284 55.3498 46.3691 55.3498C45.1997 55.3498 43.6404 54.1805 41.6914 52.2314L39.7424 53.7905C42.0812 56.5192 44.4201 58.4682 46.3691 60.0274C48.708 61.5867 50.2671 62.3663 52.2161 62.3663C53.7754 62.3663 55.3346 61.5868 56.504 60.4173C58.0633 58.8581 59.2327 57.2989 60.0123 54.9601C60.7919 52.6212 61.5716 50.2824 61.5716 47.9435C61.5716 44.4353 60.792 40.927 58.8429 37.4187C57.2837 33.9105 54.9449 31.1819 51.8264 29.2328C49.0978 26.894 45.9793 26.1143 43.2506 26.1143C41.6914 26.1143 39.7423 26.8939 38.1831 28.0633C36.6239 29.2327 35.0647 31.1818 34.2851 33.1308C33.1157 35.4697 32.336 37.8085 31.9462 40.5371C31.1666 44.4352 29.9972 47.5537 28.0482 49.8925C26.0991 52.2314 24.1501 53.4008 22.201 53.4008C21.8112 53.4008 21.0316 53.4008 20.252 53.4008C19.4724 52.2314 17.9132 50.6722 15.5744 47.9435C17.5234 46.3843 18.6929 44.8251 19.8623 43.2659C21.0317 41.3169 21.4215 39.7576 21.4215 38.1984C21.4215 35.8595 20.6419 33.1308 18.303 30.792C16.354 28.4531 13.6253 26.1143 10.5069 24.5551C7.3884 22.9958 4.26997 22.2163 1.54132 22.2163C-0.797515 22.2163 -3.13637 22.2163 -5.47521 23.3857C-7.81404 24.1653 -10.1528 25.3347 -12.1018 26.8939L-4.69557 33.5207C-4.69557 33.5207 -0.797515 30.4022 1.54132 29.6226C3.88016 28.843 6.21908 28.0633 8.16811 28.0633C10.1171 28.0633 11.2865 28.4532 12.8458 29.6226C14.0152 30.792 14.405 31.9615 14.405 33.5207C14.405 35.08 14.4049 36.2493 13.2355 37.8085C12.4559 39.3677 11.2865 40.927 10.1171 42.0964C8.55789 40.5371 6.99864 39.3677 5.82922 38.5881C4.26999 37.8085 3.10063 37.4187 1.93122 37.4187C0.371988 37.4187 -1.18726 37.4188 -2.35668 38.1984C-3.91591 38.978 -4.69559 39.7575 -5.47521 40.5371C-6.25482 41.7065 -6.64458 42.876 -6.64458 43.6556C-6.64458 45.2149 -5.86499 46.774 -4.69557 48.3333C-3.52615 49.8925 -1.96697 51.062 -0.0179367 52.2314C1.9311 53.4008 3.8801 53.7905 5.43933 53.7905C8.16798 53.7905 10.8967 52.6211 13.6254 50.2823C14.405 51.0619 15.1845 52.2314 15.9641 53.4008C16.3539 54.5702 16.7438 55.7396 16.7438 56.9091C16.7438 58.4683 16.354 60.0275 15.5744 61.197C14.7948 62.3664 13.6253 63.5357 12.0661 64.3153C10.5069 65.095 8.94771 65.4849 7.38848 65.4849C4.65984 65.4849 1.93116 64.7052 -0.407679 63.146C-3.13632 61.5867 -5.47511 59.2479 -7.81395 56.1294C-10.1528 53.011 -11.7121 49.5027 -13.2714 45.6046L-16 47.1639C-14.051 52.2314 -11.712 56.909 -8.59358 60.8071C-5.47513 64.7051 -2.35674 67.8237 1.54132 70.1625L1.15158 68.9931ZM1.15158 48.3333C1.15158 48.3333 0.37187 48.3333 -0.0179367 47.9435C-0.0179367 47.9435 -0.407679 47.164 -0.407679 46.7742C-0.407679 45.9945 -0.40766 45.2148 0.371952 44.825C1.15157 44.0454 1.93108 43.2658 2.7107 42.876C3.49031 42.4862 4.65972 42.0964 5.43933 42.0964C5.82914 42.0964 6.60879 42.0965 6.99859 42.4863C7.3884 42.4863 8.16805 43.2658 8.55786 44.0454C5.4394 47.1638 2.71073 48.7232 0.761694 48.7232L1.15158 48.3333Z" fill="#FF5B00"/>
<path id="Vector_3" d="M29.6091 25.3351C33.1173 25.3351 36.6256 24.1657 39.3542 21.8269C42.4727 19.488 44.4216 16.3696 45.9809 12.8613L38.1847 7.79395C36.6255 10.9124 34.6765 13.6409 32.3377 15.59C29.9989 17.539 27.2701 18.7085 24.9313 18.7085C22.5924 18.7085 19.8638 17.9289 17.525 15.9798C15.1862 14.0308 13.2372 11.6919 11.678 8.18369L8.94922 9.35306C11.2881 14.0307 14.0168 17.9288 17.9149 21.0472C21.4232 23.7759 25.3211 25.3351 29.2192 25.3351H29.6091Z" fill="#FF5B00"/>
</g>
</svg>
