<svg width="1372" height="582" viewBox="0 0 1372 582" fill="none" xmlns="http://www.w3.org/2000/svg">
<g filter="url(#filter0_d_250_52324)">
<g clip-path="url(#clip0_250_52324)">
<rect x="60" y="60" width="1252" height="462" rx="16" fill="white"/>
<g opacity="0.03">
<path d="M803.174 129.139L690.195 34L577.219 129.139L690.195 224.277L803.174 129.139Z" fill="#FF5B00"/>
<path d="M315.488 1086.43C374.95 1122.11 428.464 1134 487.925 1134C523.602 1134 553.333 1128.05 583.064 1110.22C612.794 1098.32 630.633 1074.54 648.472 1050.75C666.31 1026.97 672.257 997.239 672.257 967.508C672.257 937.778 666.31 908.046 648.472 878.315C690.095 902.1 731.719 913.993 767.396 913.993C791.18 913.993 809.019 902.101 832.804 884.262C856.588 866.424 874.427 836.691 886.319 801.014C904.158 765.337 916.051 723.716 921.997 682.093C933.889 628.577 945.781 586.952 969.565 557.222C993.35 521.545 1017.14 509.653 1046.87 509.653C1070.65 509.653 1088.49 521.547 1106.33 545.331C1124.17 569.116 1130.11 592.9 1130.11 628.577C1130.11 670.2 1124.17 705.878 1112.27 747.501C1100.38 783.178 1082.54 818.855 1064.7 842.639C1046.87 866.424 1029.03 878.315 1005.24 878.315C987.404 878.315 963.618 860.478 933.887 830.747L904.157 854.53C939.834 896.153 975.512 925.884 1005.24 949.668C1040.92 973.453 1064.7 985.346 1094.43 985.346C1118.22 985.346 1142 973.454 1159.84 955.616C1183.63 931.831 1201.47 908.047 1213.36 872.37C1225.25 836.693 1237.14 801.016 1237.14 765.339C1237.14 711.823 1225.25 658.307 1195.52 604.792C1171.74 551.277 1136.06 509.654 1088.49 479.923C1046.87 444.246 999.296 432.353 957.673 432.353C933.888 432.353 904.157 444.245 880.372 462.083C856.587 479.922 832.803 509.653 820.911 539.384C803.073 575.061 791.18 610.737 785.233 652.36C773.341 711.822 755.503 759.392 725.773 795.069C696.042 830.746 666.31 848.585 636.579 848.585C630.633 848.585 618.741 848.585 606.849 848.585C594.957 830.746 571.173 806.962 535.496 765.339C565.226 741.554 583.065 717.77 600.904 693.985C618.742 664.255 624.689 640.469 624.689 616.685C624.689 581.008 612.795 539.383 577.118 503.706C547.388 468.029 505.764 432.352 458.195 408.567C410.625 384.783 363.056 372.892 321.433 372.892C285.756 372.892 250.079 372.891 214.402 390.73C178.725 402.622 143.049 420.461 113.318 444.245L226.295 545.331C226.295 545.331 285.756 497.761 321.433 485.868C357.11 473.976 392.788 462.083 422.519 462.083C452.25 462.083 470.088 468.03 493.873 485.868C511.711 503.707 517.658 521.547 517.658 545.331C517.658 569.116 517.656 586.952 499.818 610.737C487.925 634.522 470.088 658.307 452.25 676.145C428.465 652.361 404.68 634.522 386.841 622.63C363.057 610.737 345.219 604.792 327.381 604.792C303.596 604.792 279.811 604.792 261.973 616.685C238.188 628.577 226.294 640.468 214.402 652.36C202.51 670.199 196.564 688.038 196.564 699.931C196.564 723.715 208.456 747.499 226.295 771.284C244.133 795.069 267.917 812.908 297.648 830.747C327.379 848.585 357.109 854.53 380.894 854.53C422.517 854.53 464.142 836.691 505.765 801.014C517.658 812.907 529.548 830.746 541.441 848.585C547.387 866.423 553.333 884.262 553.333 902.1C553.333 925.885 547.388 949.67 535.496 967.508C523.603 985.347 505.765 1003.18 481.98 1015.08C458.195 1026.97 434.411 1032.92 410.627 1032.92C369.004 1032.92 327.38 1021.02 291.703 997.239C250.08 973.454 214.404 937.777 178.727 890.208C143.05 842.638 119.263 789.123 95.4784 729.661L53.8555 753.446C83.5863 830.746 119.265 902.099 166.834 961.561C214.403 1021.02 261.972 1068.59 321.433 1104.27L315.488 1086.43ZM315.488 771.284C315.488 771.284 303.594 771.285 297.648 765.339C297.648 765.339 291.703 753.447 291.703 747.501C291.703 735.609 291.703 723.714 303.596 717.768C315.488 705.876 327.379 693.984 339.271 688.038C351.163 682.092 369.002 676.145 380.894 676.145C386.84 676.145 398.733 676.147 404.679 682.093C410.625 682.093 422.518 693.983 428.464 705.876C380.895 753.445 339.272 777.231 309.541 777.231L315.488 771.284Z" fill="#FF5B00"/>
<path d="M749.566 420.47C803.082 420.47 856.597 402.632 898.22 366.955C945.79 331.278 975.519 283.709 999.304 230.193L880.38 152.895C856.596 200.464 826.866 242.085 791.189 271.816C755.512 301.547 713.888 319.386 678.211 319.386C642.534 319.386 600.911 307.494 565.234 277.763C529.557 248.033 499.828 212.355 476.043 158.84L434.418 176.677C470.095 248.031 511.72 307.493 571.182 355.062C624.697 396.685 684.157 420.47 743.619 420.47H749.566Z" fill="#FF5B00"/>
</g>
</g>
</g>
<defs>
<filter id="filter0_d_250_52324" x="0" y="0" width="1372" height="582" filterUnits="userSpaceOnUse" color-interpolation-filters="sRGB">
<feFlood flood-opacity="0" result="BackgroundImageFix"/>
<feColorMatrix in="SourceAlpha" type="matrix" values="0 0 0 0 0 0 0 0 0 0 0 0 0 0 0 0 0 0 127 0" result="hardAlpha"/>
<feOffset/>
<feGaussianBlur stdDeviation="30"/>
<feComposite in2="hardAlpha" operator="out"/>
<feColorMatrix type="matrix" values="0 0 0 0 0 0 0 0 0 0 0 0 0 0 0 0 0 0 0.05 0"/>
<feBlend mode="normal" in2="BackgroundImageFix" result="effect1_dropShadow_250_52324"/>
<feBlend mode="normal" in="SourceGraphic" in2="effect1_dropShadow_250_52324" result="shape"/>
</filter>
<clipPath id="clip0_250_52324">
<rect x="60" y="60" width="1252" height="462" rx="16" fill="white"/>
</clipPath>
</defs>
</svg>
