<svg width="13" height="8" viewBox="0 0 13 8" fill="none" xmlns="http://www.w3.org/2000/svg">
<path d="M7.00726 7.43002L12.7923 1.64486C12.9262 1.51105 13 1.33244 13 1.14198C13 0.951529 12.9262 0.772912 12.7923 0.639109L12.3664 0.213071C12.0888 -0.0641539 11.6378 -0.0641539 11.3606 0.213071L6.5027 5.07102L1.63936 0.207681C1.50545 0.073877 1.32694 -5.10246e-07 1.13659 -5.18566e-07C0.946033 -5.26896e-07 0.767523 0.0738769 0.633508 0.207681L0.207682 0.633718C0.0737724 0.767627 -4.1357e-08 0.946138 -4.9682e-08 1.13659C-5.8007e-08 1.32705 0.0737724 1.50566 0.207682 1.63947L5.99802 7.43002C6.13236 7.56414 6.31171 7.63781 6.50238 7.63738C6.69378 7.63781 6.87303 7.56414 7.00726 7.43002Z" fill="#FF5B00"/>
</svg>
