<svg width="14" height="15" viewBox="0 0 14 15" fill="none" xmlns="http://www.w3.org/2000/svg">
<g id="write 1" clip-path="url(#clip0_401_43953)">
<g id="Group">
<path id="Vector" d="M2.51913 12.2915C2.65913 12.2915 2.68713 12.2775 2.81313 12.2495L5.33313 11.7455C5.59913 11.6755 5.86513 11.5495 6.07513 11.3395L12.1791 5.2355C13.1171 4.2975 13.1171 2.6875 12.1791 1.7495L11.6611 1.2035C10.7231 0.2655 9.09913 0.2655 8.16113 1.2035L2.05713 7.3215C1.86113 7.5175 1.72113 7.7975 1.65113 8.0635L1.11913 10.6115C1.04913 11.0875 1.18913 11.5495 1.52513 11.8855C1.79113 12.1515 2.18313 12.2915 2.51913 12.2915ZM2.99513 8.3295L9.09913 2.2115C9.50513 1.8055 10.2471 1.8055 10.6391 2.2115L11.1711 2.7435C11.6471 3.2195 11.6471 3.8915 11.1711 4.3535L5.08113 10.4715L2.49113 10.9055L2.99513 8.3295Z" fill="#FF5B00"/>
<path id="Vector_2" d="M12.1231 13.1562H1.79114C1.38514 13.1562 1.11914 13.4222 1.11914 13.8282C1.11914 14.2342 1.45514 14.5002 1.79114 14.5002H12.0671C12.4731 14.5002 12.8091 14.2342 12.8091 13.8282C12.7951 13.4222 12.4591 13.1562 12.1231 13.1562Z" fill="#FF5B00"/>
</g>
</g>
<defs>
<clipPath id="clip0_401_43953">
<rect width="14" height="14" fill="white" transform="translate(0 0.5)"/>
</clipPath>
</defs>
</svg>
