<svg width="835" height="682" viewBox="0 0 835 682" fill="none" xmlns="http://www.w3.org/2000/svg">
<g clip-path="url(#clip0_374_23830)">
<path d="M560.93 92.3787L508.58 17.7174L425.914 56.2012L478.263 130.862L560.93 92.3787Z" fill="#FAFAFA"/>
<path d="M116.462 585.71C146.308 616.445 176.39 632.084 211.921 641.604C233.239 647.316 251.952 648.541 272.559 642.693C292.219 640.382 306.668 629.096 321.117 617.809C335.566 606.522 343.856 589.795 348.593 572.116C353.33 554.437 354.514 535.806 348.592 515.271C369.674 536.078 392.65 549.814 413.969 555.527C428.181 559.335 440.735 555.12 457.789 548.32C474.844 541.521 490.24 526.697 503.031 507.387C519.375 489.028 533.113 466.183 543.298 442.385C558.93 412.467 572.668 389.619 591.617 375.748C611.514 358.342 627.621 355.079 645.386 359.839C659.599 363.648 668.362 373.576 675.232 390.575C682.101 407.574 681.865 422.669 676.181 443.884C669.549 468.634 660.312 488.897 646.574 511.744C633.783 531.054 617.439 549.413 602.99 560.7C588.541 571.987 575.988 576.201 561.776 572.393C551.117 569.537 539.745 555.122 526.717 532.683L505.163 542.065C519.849 572.528 536.431 595.919 550.407 614.822C567.936 634.677 580.252 645.557 598.017 650.318C612.23 654.126 628.337 650.863 641.838 643.111C659.84 632.776 674.289 621.49 687.079 602.179C699.87 582.868 712.661 563.558 718.345 542.343C726.872 510.521 728.293 476.795 719.054 440.213C713.368 404.583 698.682 374.12 674.995 348.825C655.808 320.946 629.278 306.257 604.406 299.593C590.194 295.785 570.534 298.096 553.479 304.895C536.425 311.694 517.476 325.566 505.633 341.341C489.289 359.699 476.499 379.009 466.314 402.807C449.733 436.261 431.495 461.692 408.046 478.147C384.596 494.601 363.988 500.448 346.223 495.688C342.67 494.736 335.564 492.832 328.458 490.928C324.194 478.416 313.772 460.465 299.085 430.003C320.64 420.62 335.089 409.333 349.538 398.046C364.934 383.223 372.277 370.032 376.067 355.889C381.751 334.674 381.276 308.019 365.643 281.092C353.562 255.117 334.375 227.238 309.74 205.479C285.105 183.719 258.575 169.032 233.704 162.368C212.386 156.656 191.067 150.943 166.907 155.838C143.694 157.198 119.534 162.093 97.979 171.476L149.38 249.673C149.38 249.673 192.49 230.907 215.703 229.547C238.917 228.188 262.13 226.829 279.896 231.589C297.661 236.349 307.372 242.741 318.742 257.156C326.559 270.62 327.27 282.18 323.48 296.323C319.691 310.466 316.848 321.072 302.399 332.359C291.503 344.598 277.055 355.886 263.554 363.637C253.131 345.686 241.761 331.27 232.997 321.343C220.679 310.463 210.968 304.072 200.309 301.215C186.097 297.407 171.884 293.599 159.33 297.815C143.223 301.078 134.222 306.245 125.221 311.412C115.273 320.115 108.878 329.771 106.983 336.843C103.193 350.986 106.51 367.033 113.379 384.032C120.249 401.031 131.618 415.447 146.541 430.815C161.464 446.182 178.282 454.477 192.494 458.285C217.365 464.95 245.08 461.007 275.636 446.456C280.847 455.432 285.11 467.944 289.374 480.455C290.085 492.015 290.796 503.574 287.953 514.182C284.164 528.325 276.821 541.516 266.873 550.219C256.925 558.923 243.424 566.673 227.317 569.937C211.21 573.2 196.05 572.929 181.838 569.12C156.966 562.456 133.99 548.72 116.461 528.864C95.3794 508.057 79.7461 481.13 66.0071 447.132C52.268 413.133 46.5814 377.503 41.8433 338.337L13.1823 345.816C18.6313 396.541 28.5817 444.682 47.532 487.657C66.4823 530.631 87.3267 566.534 117.173 597.269L116.462 585.71ZM166.675 398.313C166.675 398.313 159.568 396.409 156.962 391.921C156.962 391.921 155.305 383.898 156.252 380.362C158.147 373.291 160.042 366.218 168.096 364.586C177.097 359.419 186.097 354.252 194.15 352.62C202.204 350.988 213.81 350.308 220.916 352.212C224.469 353.164 231.576 355.069 234.181 359.557C237.734 360.509 242.946 369.484 244.604 377.507C208.601 398.177 179.939 405.657 162.174 400.897L166.675 398.313Z" fill="#FAFAFA"/>
<path d="M482.523 257.042C514.501 265.61 549.321 263.571 579.876 249.021C613.985 235.422 639.329 211.896 662.068 183.882L603.323 118.877C581.531 143.355 557.135 163.345 531.08 175.311C505.025 187.278 477.31 191.222 455.992 185.509C434.673 179.797 411.697 166.062 395.116 142.67C378.535 119.279 366.455 93.3044 360.769 57.6743L333.055 61.6166C343.004 109.758 358.402 151.78 386.354 189.587C411.699 222.906 443.439 246.569 478.97 256.089L482.523 257.042Z" fill="#FAFAFA"/>
</g>
<defs>
<clipPath id="clip0_374_23830">
<rect width="835" height="682" fill="white"/>
</clipPath>
</defs>
</svg>
