<svg width="14" height="14" viewBox="0 0 14 14" fill="none" xmlns="http://www.w3.org/2000/svg">
<g id="fi_3857838">
<path id="Vector" d="M1.3125 4.8125V4.15625C1.31314 3.6343 1.52076 3.13391 1.88984 2.76484C2.25891 2.39576 2.7593 2.18814 3.28125 2.1875H3.9375V2.84375C3.9375 3.07581 4.02969 3.29837 4.19378 3.46247C4.35788 3.62656 4.58044 3.71875 4.8125 3.71875C5.04456 3.71875 5.26712 3.62656 5.43122 3.46247C5.59531 3.29837 5.6875 3.07581 5.6875 2.84375V2.1875H8.3125V2.84375C8.3125 3.07581 8.40469 3.29837 8.56878 3.46247C8.73288 3.62656 8.95544 3.71875 9.1875 3.71875C9.41956 3.71875 9.64212 3.62656 9.80622 3.46247C9.97031 3.29837 10.0625 3.07581 10.0625 2.84375V2.1875H10.7188C11.2407 2.18814 11.7411 2.39576 12.1102 2.76484C12.4792 3.13391 12.6869 3.6343 12.6875 4.15625V4.8125H1.3125ZM4.375 2.84375C4.375 2.95978 4.42109 3.07106 4.50314 3.15311C4.58519 3.23516 4.69647 3.28125 4.8125 3.28125C4.92853 3.28125 5.03981 3.23516 5.12186 3.15311C5.20391 3.07106 5.25 2.95978 5.25 2.84375V1.75C5.25 1.63397 5.20391 1.52269 5.12186 1.44064C5.03981 1.35859 4.92853 1.3125 4.8125 1.3125C4.69647 1.3125 4.58519 1.35859 4.50314 1.44064C4.42109 1.52269 4.375 1.63397 4.375 1.75V2.84375ZM8.75 1.75V2.84375C8.75 2.95978 8.79609 3.07106 8.87814 3.15311C8.96019 3.23516 9.07147 3.28125 9.1875 3.28125C9.30353 3.28125 9.41481 3.23516 9.49686 3.15311C9.57891 3.07106 9.625 2.95978 9.625 2.84375V1.75C9.625 1.63397 9.57891 1.52269 9.49686 1.44064C9.41481 1.35859 9.30353 1.3125 9.1875 1.3125C9.07147 1.3125 8.96019 1.35859 8.87814 1.44064C8.79609 1.52269 8.75 1.63397 8.75 1.75ZM12.6875 5.25V9.84375C12.6869 10.3657 12.4792 10.8661 12.1102 11.2352C11.7411 11.6042 11.2407 11.8119 10.7188 11.8125H3.28125C2.7593 11.8119 2.25891 11.6042 1.88984 11.2352C1.52076 10.8661 1.31314 10.3657 1.3125 9.84375V5.25H12.6875ZM8.59841 7.72384H7.69519L7.41563 6.86481C7.38686 6.77728 7.33119 6.70107 7.25655 6.64704C7.18192 6.59301 7.09214 6.56392 7 6.56392C6.90786 6.56392 6.81808 6.59301 6.74345 6.64704C6.66881 6.70107 6.61314 6.77728 6.58437 6.86481L6.30525 7.72384H5.40159C5.3092 7.72383 5.21917 7.75306 5.14441 7.80736C5.06965 7.86166 5.014 7.93823 4.98544 8.0261C4.95688 8.11398 4.95687 8.20863 4.98541 8.29651C5.01396 8.38439 5.06959 8.46097 5.14434 8.51528L5.87519 9.04619L5.59606 9.90522C5.5675 9.9931 5.56749 10.0878 5.59604 10.1756C5.6246 10.2635 5.68024 10.3401 5.755 10.3944C5.82976 10.4487 5.9198 10.478 6.0122 10.478C6.1046 10.4779 6.19463 10.4487 6.26937 10.3943L7 9.86344L7.73063 10.3943C7.80537 10.4487 7.8954 10.4779 7.9878 10.478C8.0802 10.478 8.17024 10.4487 8.245 10.3944C8.31976 10.3401 8.3754 10.2635 8.40396 10.1756C8.43251 10.0878 8.4325 9.9931 8.40394 9.90522L8.12481 9.04619L8.85566 8.51528C8.93041 8.46097 8.98604 8.38439 9.01459 8.29651C9.04313 8.20863 9.04312 8.11398 9.01456 8.0261C8.986 7.93823 8.93035 7.86166 8.85559 7.80736C8.78083 7.75306 8.6908 7.72383 8.59841 7.72384Z" fill="#FF5B00"/>
</g>
</svg>
