<?xml version="1.0" standalone="no"?>
<!DOCTYPE svg PUBLIC "-//W3C//DTD SVG 1.1//EN" "http://www.w3.org/Graphics/SVG/1.1/DTD/svg11.dtd" >
<svg xmlns="http://www.w3.org/2000/svg" xmlns:xlink="http://www.w3.org/1999/xlink" version="1.1">
<metadata>
Created by FontForge 20170731 at Mon Apr 17 14:55:41 2023
 By Aleksey,,,
Copyright (c) 2017 by Alexander Slobzheninov. All rights reserved.
</metadata>
<defs>
<font id="Objectivity-Black" horiz-adv-x="1314" >
  <font-face 
    font-family="Objectivity Black"
    font-weight="900"
    font-stretch="normal"
    units-per-em="2048"
    panose-1="0 0 0 0 0 0 0 0 0 0"
    ascent="1638"
    descent="-410"
    x-height="1065"
    cap-height="1475"
    bbox="-162 -821 3258 2355"
    underline-thickness="102"
    underline-position="-358"
    unicode-range="U+000D-F6C3"
  />
<missing-glyph horiz-adv-x="1024" 
 />
    <glyph glyph-name=".notdef" horiz-adv-x="1024" 
 />
    <glyph glyph-name=".null" horiz-adv-x="0" 
 />
    <glyph glyph-name="nonmarkingreturn" horiz-adv-x="682" 
 />
    <glyph glyph-name="NULL" horiz-adv-x="1519" 
d="M1395 1475v-1475h-1270v1475h1270zM535 348h450v778h-450v-778z" />
    <glyph glyph-name="NULL" horiz-adv-x="1519" 
d="M1395 1475v-1475h-1270v1475h1270zM535 348h450v778h-450v-778z" />
    <glyph glyph-name="CR" unicode="&#xd;" horiz-adv-x="61" 
 />
    <glyph glyph-name="space" unicode=" " horiz-adv-x="614" 
 />
    <glyph glyph-name="exclam" unicode="!" horiz-adv-x="761" 
d="M381 -41q-111 0 -183.5 69.5t-72.5 176.5t72.5 176.5t183.5 69.5q112 0 184 -69.5t72 -176.5t-72 -176.5t-184 -69.5zM616 1475v-410l-122 -533h-226l-123 533v410h471z" />
    <glyph glyph-name="quotedbl" unicode="&#x22;" horiz-adv-x="925" 
d="M391 1188l-61 -492h-205l-62 492v287h328v-287zM862 1188l-61 -492h-205l-61 492v287h327v-287z" />
    <glyph glyph-name="numbersign" unicode="#" horiz-adv-x="1867" 
d="M1047 860h-218l-51 -184h219zM1393 676h309v-307h-391l-101 -369h-397l100 369h-217l-100 -369h-397l100 369h-236v307h320l49 184h-266v307h350l100 369h398l-103 -369h219l101 369h397l-102 -369h278v-307h-360z" />
    <glyph glyph-name="dollar" unicode="$" horiz-adv-x="1497" 
d="M995 -16v-236h-491v229q-198 53 -316 190.5t-118 321.5h454q0 -74 64.5 -123t159.5 -49q72 0 118.5 29.5t46.5 73.5q0 24 -13 41.5t-31 28t-54 18.5t-63 11.5t-78 8.5q-104 12 -184.5 29t-162 52.5t-134.5 85t-86 128.5t-33 181q0 183 116 314t314 181v180h491v-192
q181 -58 287.5 -186t106.5 -295h-435q0 66 -58.5 108.5t-147.5 42.5q-69 0 -115.5 -26t-46.5 -66q0 -14 4 -26t15 -21t20.5 -15.5t30.5 -12.5t34.5 -9t42.5 -7t45 -5.5t51 -5.5q83 -8 151 -20.5t138.5 -35.5t123.5 -58t95.5 -83.5t65 -118t22.5 -155.5q0 -183 -116 -317.5
t-314 -190.5z" />
    <glyph glyph-name="percent" unicode="%" horiz-adv-x="2318" 
d="M1313 430q0 204 133.5 337.5t337.5 133.5t337.5 -133.5t133.5 -337.5t-133.5 -337.5t-337.5 -133.5t-337.5 133.5t-133.5 337.5zM1907 430q0 54 -34.5 88.5t-88.5 34.5t-88.5 -34.5t-34.5 -88.5t34.5 -88.5t88.5 -34.5t88.5 34.5t34.5 88.5zM63 1106q0 204 134 337.5
t338 133.5t337.5 -133.5t133.5 -337.5t-133.5 -337.5t-337.5 -133.5t-338 133.5t-134 337.5zM657 1106q0 54 -34 88.5t-88 34.5t-88.5 -34.5t-34.5 -88.5t34.5 -88.5t88.5 -34.5t88 34.5t34 88.5zM1477 1536h383l-1018 -1536h-383z" />
    <glyph glyph-name="ampersand" unicode="&#x26;" horiz-adv-x="1804" 
d="M883 313q-11 10 -137 120t-138 120q-26 -14 -42.5 -44t-16.5 -65q0 -63 57 -105t144 -42q67 0 133 16zM799 854q270 -251 358 -328q40 60 84 170h408q-61 -213 -234 -407q85 -73 318 -289h-492l-86 76q-224 -127 -487 -127q-271 0 -432.5 121.5t-161.5 339.5
q0 150 75.5 243t208.5 152q-79 126 -79 256q0 202 149.5 333.5t374.5 131.5q211 0 363 -117t175 -297l-389 -68q-12 67 -53 110.5t-92 43.5q-50 0 -84.5 -40.5t-34.5 -102.5q0 -101 111 -201z" />
    <glyph glyph-name="quotesingle" unicode="'" horiz-adv-x="454" 
d="M391 1188l-61 -492h-205l-62 492v287h328v-287z" />
    <glyph glyph-name="parenleft" unicode="(" horiz-adv-x="811" 
d="M807 -369h-416q-149 149 -238.5 407t-89.5 546t89.5 545.5t238.5 406.5h418q-153 -183 -244.5 -440t-91.5 -512t91 -512.5t243 -440.5z" />
    <glyph glyph-name="parenright" unicode=")" horiz-adv-x="808" 
d="M420 -369h-416q152 183 243 440.5t91 512.5q0 254 -92 511.5t-244 440.5h418q149 -149 238.5 -406.5t89.5 -545.5t-89.5 -546t-238.5 -407z" />
    <glyph glyph-name="asterisk" unicode="*" horiz-adv-x="1060" 
d="M997 932l-153 -266l-180 127l20 -220h-307l20 220l-180 -127l-154 266l199 92l-199 92l154 266l180 -127l-20 220h307l-20 -220l180 127l153 -266l-198 -92z" />
    <glyph glyph-name="plus" unicode="+" horiz-adv-x="1089" 
d="M760 184h-430v287h-267v328h267v286h430v-286h266v-328h-266v-287z" />
    <glyph glyph-name="comma" unicode="," horiz-adv-x="638" 
d="M289 -41q-98 0 -162 69.5t-64 176.5q0 106 71 176t175 70q120 0 193 -95t73 -252q0 -129 -69.5 -268.5t-175.5 -224.5l-230 41q82 77 135.5 163.5t53.5 143.5z" />
    <glyph glyph-name="hyphen" unicode="-" horiz-adv-x="966" 
d="M63 819h840v-368h-840v368z" />
    <glyph glyph-name="period" unicode="." horiz-adv-x="638" 
d="M319 -41q-111 0 -183.5 69.5t-72.5 176.5t72.5 176.5t183.5 69.5q112 0 184 -69.5t72 -176.5t-72 -176.5t-184 -69.5z" />
    <glyph glyph-name="slash" unicode="/" horiz-adv-x="1064" 
d="M666 1475h397l-664 -1946h-397z" />
    <glyph glyph-name="zero" unicode="0" horiz-adv-x="1599" 
d="M801 -51q-205 0 -369 101t-256 281t-92 406t92 406t256 281.5t369 101.5t369 -101.5t256 -281.5t92 -406t-92 -406t-256 -281t-369 -101zM801 1075q-80 0 -132.5 -95.5t-52.5 -242.5t52.5 -242.5t132.5 -95.5t132 95.5t52 242.5t-52 242.5t-132 95.5z" />
    <glyph glyph-name="one" unicode="1" horiz-adv-x="1067" 
d="M412 0v942l-349 -252v477l410 308h451v-1475h-512z" />
    <glyph glyph-name="two" unicode="2" horiz-adv-x="1386" 
d="M537 901l-455 86q13 155 98.5 278t225.5 192t309 69q162 0 296.5 -63t213.5 -176t80 -253q0 -124 -61.5 -236t-164.5 -192l-305 -237h490v-369h-1190v287l612 491q70 56 109 106t39 107q0 55 -35.5 90t-91.5 35q-63 0 -111.5 -60.5t-58.5 -154.5z" />
    <glyph glyph-name="three" unicode="3" horiz-adv-x="1384" 
d="M705 1106h-611v369h1168v-267l-285 -282q145 -46 235.5 -172t90.5 -285q0 -150 -82 -269t-226.5 -185t-326.5 -66q-282 0 -451 156t-184 407l463 63q10 -99 53 -158t119 -59q62 0 102.5 46t40.5 116q0 69 -40.5 112.5t-102.5 43.5q-68 0 -109 -23l-96 258z" />
    <glyph glyph-name="four" unicode="4" horiz-adv-x="1452" 
d="M698 1085l-204 -430h204v430zM698 0v287h-675v266l491 922h717v-820h160v-368h-160v-287h-533z" />
    <glyph glyph-name="five" unicode="5" horiz-adv-x="1413" 
d="M670 676h-496l51 799h1014v-369h-647l-10 -143h268q214 0 352.5 -135t138.5 -345q0 -157 -81.5 -279t-226 -188.5t-326.5 -66.5q-282 0 -451 156t-184 407l463 63q10 -99 53 -158t119 -59q62 0 102.5 44.5t40.5 109.5q0 72 -51 118t-129 46z" />
    <glyph glyph-name="six" unicode="6" horiz-adv-x="1437" 
d="M719 358q55 0 89 48t34 126q0 74 -34 119t-89 45t-89 -45t-34 -119q0 -78 34 -126t89 -48zM197 872l399 603h567l-338 -484q60 13 113 13q195 0 315.5 -131.5t120.5 -342.5q0 -260 -185 -420.5t-487 -160.5q-288 0 -463.5 155t-175.5 410q0 159 134 358z" />
    <glyph glyph-name="seven" unicode="7" horiz-adv-x="1110" 
d="M1108 1167l-471 -1167h-543l436 1065h-507v410h1085v-308z" />
    <glyph glyph-name="eight" unicode="8" horiz-adv-x="1476" 
d="M739 594q-54 0 -88.5 -33t-34.5 -84q0 -52 34.5 -85.5t88.5 -33.5t88.5 33.5t34.5 85.5q0 51 -34.5 84t-88.5 33zM739 1137q-54 0 -88.5 -32.5t-34.5 -82.5q0 -53 34.5 -87t88.5 -34t88.5 34t34.5 87q0 50 -34.5 82.5t-88.5 32.5zM739 1536q170 0 305.5 -53.5t212 -150.5
t76.5 -220q0 -111 -59.5 -206.5t-151.5 -127.5q117 -25 195 -129t78 -233q0 -131 -84.5 -235.5t-234.5 -163t-337 -58.5q-286 0 -470.5 129t-184.5 328q0 129 77.5 233t194.5 129q-92 32 -151.5 126.5t-59.5 205.5q0 122 76.5 219.5t212 152t305.5 54.5z" />
    <glyph glyph-name="nine" unicode="9" horiz-adv-x="1437" 
d="M719 1116q-55 0 -89 -48t-34 -126q0 -74 34 -119t89 -45t89 45t34 119q0 78 -34 126t-89 48zM1241 602l-399 -602h-568l338 483q-58 -12 -114 -12q-194 0 -314.5 131t-120.5 342q0 260 185 421t487 161q288 0 463.5 -155t175.5 -410q0 -152 -133 -359z" />
    <glyph glyph-name="colon" unicode=":" horiz-adv-x="638" 
d="M319 -41q-111 0 -183.5 69.5t-72.5 176.5t72.5 176.5t183.5 69.5q112 0 184 -69.5t72 -176.5t-72 -176.5t-184 -69.5zM319 655q-111 0 -183.5 69.5t-72.5 176.5t72.5 176.5t183.5 69.5q112 0 184 -69.5t72 -176.5t-72 -176.5t-184 -69.5z" />
    <glyph glyph-name="semicolon" unicode=";" horiz-adv-x="638" 
d="M289 -41q-98 0 -162 69.5t-64 176.5q0 106 71 176t175 70q120 0 193 -95t73 -252q0 -129 -69.5 -268.5t-175.5 -224.5l-230 41q82 77 135.5 163.5t53.5 143.5zM319 655q-111 0 -183.5 69.5t-72.5 176.5t72.5 176.5t183.5 69.5q112 0 184 -69.5t72 -176.5t-72 -176.5
t-184 -69.5z" />
    <glyph glyph-name="less" unicode="&#x3c;" horiz-adv-x="864" 
d="M332 532l469 -163v-394l-799 353v409l799 350v-391z" />
    <glyph glyph-name="equal" unicode="=" horiz-adv-x="1089" 
d="M63 532h963v-348h-963v348zM63 1065h963v-348h-963v348z" />
    <glyph glyph-name="greater" unicode="&#x3e;" horiz-adv-x="862" 
d="M862 737v-409l-799 -353v394l469 163l-469 164v391z" />
    <glyph glyph-name="question" unicode="?" horiz-adv-x="1374" 
d="M678 -41q-111 0 -183.5 69.5t-72.5 176.5t72.5 176.5t183.5 69.5q112 0 184 -69.5t72 -176.5t-72 -176.5t-184 -69.5zM883 492h-410q0 146 46 235.5t157 161.5q28 17 44 27.5t38 30t32.5 41t10.5 46.5q0 44 -32 73.5t-79 29.5q-62 0 -104 -53.5t-51 -139.5l-472 86
q9 107 60.5 199t135.5 157.5t202 102.5t254 37q170 0 306.5 -55.5t214 -156t77.5 -227.5q0 -119 -68 -215t-178 -147q-46 -21 -74.5 -39t-56 -44.5t-40.5 -63.5t-13 -86z" />
    <glyph glyph-name="at" unicode="@" horiz-adv-x="2131" 
d="M1190 532q0 54 -34.5 88.5t-88.5 34.5t-88.5 -34.5t-34.5 -88.5t34.5 -88t88.5 -34t88.5 34t34.5 88zM1067 1157q-193 0 -347.5 -80t-241.5 -223t-87 -322q0 -168 63 -302t175.5 -209.5t253.5 -75.5q83 0 172.5 23t152.5 59v-306q-63 -35 -152.5 -57t-172.5 -22
q-174 0 -326.5 66.5t-260.5 183.5t-170.5 283t-62.5 357q0 255 129 458.5t358.5 318t516.5 114.5t516.5 -114.5t358.5 -318t129 -458.5q0 -119 -28.5 -214.5t-86.5 -167.5t-153.5 -111t-223.5 -39q-134 0 -229 56t-115 147q-47 -54 -128.5 -87.5t-166.5 -33.5
q-164 0 -264.5 124t-100.5 326q0 196 139 323.5t353 127.5q221 0 356.5 -130t135.5 -341v-147q0 -4 -0.5 -20.5t0 -23.5t1.5 -22.5t4 -23t8.5 -19t13.5 -17t20 -10t28 -4.5q60 0 84.5 80t24.5 227q0 179 -87 322t-241.5 223t-347.5 80z" />
    <glyph glyph-name="A" unicode="A" horiz-adv-x="1646" 
d="M946 553l-123 473l-123 -473h246zM1042 184h-438l-47 -184h-555l432 1475h778l433 -1475h-555z" />
    <glyph glyph-name="B" unicode="B" horiz-adv-x="1640" 
d="M1006 471q0 55 -39.5 89t-104.5 34h-205v-225h205q65 0 104.5 28t39.5 74zM821 1106h-164v-205h164q64 0 104 28.5t40 74.5t-39.5 74t-104.5 28zM985 0h-860v1475h805q261 0 424.5 -116.5t163.5 -293.5q0 -122 -55 -205.5t-150 -111.5q114 -26 180 -122t66 -237
q0 -182 -156.5 -285.5t-417.5 -103.5z" />
    <glyph glyph-name="C" unicode="C" horiz-adv-x="1724" 
d="M899 399q98 0 174.5 62.5t95.5 159.5l494 -52q-9 -178 -112 -319.5t-278.5 -221t-389.5 -79.5q-234 0 -421.5 101t-293 281t-105.5 406t105.5 406t293 281.5t421.5 101.5q157 0 296 -46.5t241 -128.5t165 -197.5t72 -248.5l-490 -51q-17 97 -92.5 159t-173.5 62
q-138 0 -221.5 -93t-83.5 -245t84 -245t219 -93z" />
    <glyph glyph-name="D" unicode="D" horiz-adv-x="1681" 
d="M125 0v1475h655q249 0 440 -92t295.5 -259.5t104.5 -386.5t-104.5 -386.5t-295.5 -259t-440 -91.5h-655zM1087 737q0 157 -84.5 252.5t-222.5 95.5h-143v-696h143q138 0 222.5 95.5t84.5 252.5z" />
    <glyph glyph-name="E" unicode="E" horiz-adv-x="1271" 
d="M637 573v-163h573v-410h-1085v1475h1065v-410h-553v-143h471v-349h-471z" />
    <glyph glyph-name="F" unicode="F" horiz-adv-x="1251" 
d="M1087 451h-430v-451h-532v1475h1085v-451h-553v-184h430v-389z" />
    <glyph glyph-name="G" unicode="G" horiz-adv-x="1763" 
d="M924 399q103 0 179.5 49.5t86.5 124.5h-307v287h813q22 -195 -26.5 -364.5t-153 -289.5t-263 -188.5t-350.5 -68.5q-240 0 -432 101t-300 281t-108 406t108 406t300 281.5t432 101.5q282 0 483.5 -145.5t247.5 -376.5l-489 -82q-20 68 -88.5 110.5t-157.5 42.5
q-132 0 -217.5 -95t-85.5 -243t92 -243t236 -95z" />
    <glyph glyph-name="H" unicode="H" horiz-adv-x="1699" 
d="M655 0h-532v1475h532v-512h389v512h533v-1475h-533v553h-389v-553z" />
    <glyph glyph-name="I" unicode="I" horiz-adv-x="782" 
d="M125 1475h532v-1475h-532v1475z" />
    <glyph glyph-name="J" unicode="J" horiz-adv-x="1048" 
d="M412 573v902h532v-983q0 -237 -156.5 -385t-400.5 -148q-196 0 -324 41v389q72 -20 164 -20q83 0 134 56t51 148z" />
    <glyph glyph-name="K" unicode="K" horiz-adv-x="1628" 
d="M125 0v1475h532v-545l349 545h620l-498 -697l498 -778h-620l-349 604v-604h-532z" />
    <glyph glyph-name="L" unicode="L" horiz-adv-x="1189" 
d="M1128 0h-1003v1475h532v-1024h471v-451z" />
    <glyph glyph-name="M" unicode="M" horiz-adv-x="2195" 
d="M637 848v-848h-512v1475h668l305 -938l293 938h680v-1475h-512v848l-267 -848h-389z" />
    <glyph glyph-name="N" unicode="N" horiz-adv-x="1703" 
d="M657 1475l430 -834v834h492v-1475h-532l-431 829v-829h-491v1475h532z" />
    <glyph glyph-name="O" unicode="O" horiz-adv-x="1804" 
d="M903 -51q-249 0 -440 98t-295.5 277t-104.5 413t104.5 413.5t295.5 277.5t440 98t440 -98t295.5 -277.5t104.5 -413.5t-104.5 -413t-295.5 -277t-440 -98zM903 1075q-138 0 -222.5 -93t-84.5 -245t84.5 -245t222.5 -93t222.5 93t84.5 245t-84.5 245t-222.5 93z" />
    <glyph glyph-name="P" unicode="P" horiz-adv-x="1558" 
d="M780 1106h-143v-369h143q92 0 148.5 51t56.5 134t-56.5 133.5t-148.5 50.5zM883 369h-246v-369h-512v1475h764q283 0 456 -152t173 -401t-174.5 -401t-460.5 -152z" />
    <glyph glyph-name="Q" unicode="Q" horiz-adv-x="1804" 
d="M903 1075q-138 0 -222.5 -93t-84.5 -245t84.5 -245t222.5 -93t222.5 93t84.5 245t-84.5 245t-222.5 93zM1743 737q0 -196 -76 -356t-215 -268l252 -338h-471l-141 190q-94 -16 -189 -16q-249 0 -440 98t-295.5 277t-104.5 413t104.5 413.5t295.5 277.5t440 98t440 -98
t295.5 -277.5t104.5 -413.5z" />
    <glyph glyph-name="R" unicode="R" horiz-adv-x="1648" 
d="M801 1106h-144v-328h144q87 0 146 44.5t59 119.5t-59 119.5t-146 44.5zM780 451h-123v-451h-532v1475h784q284 0 456.5 -146t172.5 -387q0 -147 -75.5 -256.5t-211.5 -169.5l336 -516h-581z" />
    <glyph glyph-name="S" unicode="S" horiz-adv-x="1497" 
d="M1425 492q0 -160 -89.5 -284.5t-248 -191.5t-358.5 -67q-189 0 -339.5 69.5t-235 192.5t-84.5 278h454q0 -74 64.5 -123t159.5 -49q72 0 118.5 29.5t46.5 73.5q0 24 -13 41.5t-31 28t-54 18.5t-63 11.5t-78 8.5q-104 12 -184.5 29t-162 52.5t-134.5 85t-86 128.5t-33 181
q0 234 183.5 378t471.5 144q189 0 340 -67t235.5 -185.5t84.5 -267.5h-435q0 66 -58.5 108.5t-147.5 42.5q-69 0 -115.5 -26t-46.5 -66q0 -14 4 -26t15 -21t20.5 -15.5t30.5 -12.5t34.5 -9t42.5 -7t45 -5.5t51 -5.5q83 -8 151 -20.5t138.5 -35.5t123.5 -58t95.5 -83.5
t65 -118t22.5 -155.5z" />
    <glyph glyph-name="T" unicode="T" horiz-adv-x="1355" 
d="M412 0v1044h-389v431h1310v-431h-389v-1044h-532z" />
    <glyph glyph-name="U" unicode="U" horiz-adv-x="1662" 
d="M1026 645v830h533v-850q0 -304 -200.5 -490t-527.5 -186t-527 186t-200 490v850h533v-830q0 -97 48.5 -168t145.5 -78q88 0 141.5 68t53.5 178z" />
    <glyph glyph-name="V" unicode="V" horiz-adv-x="1636" 
d="M2 1475h549l266 -1084l266 1084h551l-407 -1475h-819z" />
    <glyph glyph-name="W" unicode="W" horiz-adv-x="2629" 
d="M1561 1475l268 -988l244 988h534l-391 -1475h-717l-184 756l-185 -756h-716l-391 1475h534l246 -988l266 988h492z" />
    <glyph glyph-name="X" unicode="X" horiz-adv-x="1828" 
d="M23 0l466 778l-464 697h608l276 -422l277 422h618l-495 -697l497 -778h-620l-277 487l-276 -487h-610z" />
    <glyph glyph-name="Y" unicode="Y" horiz-adv-x="1521" 
d="M502 0v492l-502 983h551l217 -533l195 533h559l-488 -983v-492h-532z" />
    <glyph glyph-name="Z" unicode="Z" horiz-adv-x="1396" 
d="M84 348l532 717h-512v410h1188v-349l-506 -716h527v-410h-1229v348z" />
    <glyph glyph-name="bracketleft" unicode="[" horiz-adv-x="843" 
d="M575 1229v-1290h267v-308h-717v1905h717v-307h-267z" />
    <glyph glyph-name="backslash" unicode="\" horiz-adv-x="1064" 
d="M399 1475l664 -1946h-397l-664 1946h397z" />
    <glyph glyph-name="bracketright" unicode="]" horiz-adv-x="843" 
d="M719 -369h-717v308h266v1290h-266v307h717v-1905z" />
    <glyph glyph-name="asciicircum" unicode="^" horiz-adv-x="1294" 
d="M647 1192l-160 -373h-424l359 656h450l359 -656h-420z" />
    <glyph glyph-name="underscore" unicode="_" horiz-adv-x="1024" 
d="M0 0h1024v-307h-1024v307z" />
    <glyph glyph-name="grave" unicode="`" horiz-adv-x="755" 
d="M63 1536h404l225 -369h-307z" />
    <glyph glyph-name="a" unicode="a" horiz-adv-x="1398" 
d="M678 369q63 0 103 46t40 117t-40 117.5t-103 46.5t-103 -46.5t-40 -117.5t40 -117t103 -46zM823 938v127h471v-1065h-471v127q-53 -80 -129.5 -124t-167.5 -44q-209 0 -336 157.5t-127 415.5t127 416t336 158q91 0 167.5 -44t129.5 -124z" />
    <glyph glyph-name="b" unicode="b" horiz-adv-x="1376" 
d="M698 696q-63 0 -103 -46.5t-40 -117.5t40 -117t103 -46t103.5 46t40.5 117t-40.5 117.5t-103.5 46.5zM1313 532q0 -258 -124 -415.5t-327 -157.5q-177 0 -287 135v-94h-471v1536h471v-569q111 139 287 139q203 0 327 -158t124 -416z" />
    <glyph glyph-name="c" unicode="c" horiz-adv-x="1304" 
d="M674 1106q225 0 390 -130t187 -327l-430 -55q-10 54 -50 88.5t-91 34.5q-63 0 -104 -52.5t-41 -132.5t40.5 -132t104.5 -52q51 0 91 34.5t50 88.5l430 -51q-15 -131 -95.5 -236.5t-207 -165t-274.5 -59.5q-172 0 -311.5 73.5t-219.5 205t-80 294.5q0 249 173 411.5
t438 162.5z" />
    <glyph glyph-name="d" unicode="d" horiz-adv-x="1376" 
d="M678 696q-63 0 -103 -46.5t-40 -117.5t40 -117t103 -46t103 46t40 117t-40 117.5t-103 46.5zM63 532q0 258 124 416t327 158q173 0 287 -139v569h471v-1536h-471v94q-110 -135 -287 -135q-203 0 -327 157.5t-124 415.5z" />
    <glyph glyph-name="e" unicode="e" horiz-adv-x="1335" 
d="M543 635h258q0 56 -37 99.5t-92 43.5q-103 0 -129 -143zM63 532q0 170 78.5 301t218 202t318.5 71q272 0 433 -158.5t161 -421.5q0 -89 -6 -116h-717q39 -123 149 -123q95 0 123 82l410 -52q-31 -156 -189 -257t-374 -101q-269 0 -437 158t-168 415z" />
    <glyph glyph-name="f" unicode="f" horiz-adv-x="905" 
d="M657 1085v-20h205v-348h-205v-717h-471v717h-123v348h123v41q0 212 114 341.5t300 129.5q134 0 262 -41v-379q-48 10 -92 10q-51 0 -82 -22.5t-31 -59.5z" />
    <glyph glyph-name="g" unicode="g" horiz-adv-x="1376" 
d="M678 369q63 0 103 46t40 117t-40 117.5t-103 46.5t-103 -46.5t-40 -117.5t40 -117t103 -46zM655 -164q65 0 105.5 50.5t40.5 133.5v107q-114 -127 -291 -127q-195 0 -321 147.5t-126 384.5q0 256 126 415t321 159q179 0 291 -137v96h471v-1065q0 -230 -163.5 -371
t-430.5 -141q-156 0 -284.5 55t-205.5 153.5t-86 221.5l406 41q9 -54 51 -88.5t96 -34.5z" />
    <glyph glyph-name="h" unicode="h" 
d="M104 1536h471v-575q50 71 129 108t170 37q159 0 258 -107.5t99 -281.5v-717h-471v573q0 55 -26 89t-68 34q-41 0 -66 -33.5t-25 -89.5v-573h-471v1536z" />
    <glyph glyph-name="i" unicode="i" horiz-adv-x="720" 
d="M125 1065h471v-1065h-471v1065zM360 1147q-111 0 -183.5 69.5t-72.5 176.5t72.5 176t183.5 69q112 0 184 -69t72 -176t-72 -176.5t-184 -69.5z" />
    <glyph glyph-name="j" unicode="j" horiz-adv-x="741" 
d="M145 20v1045h471v-1106q0 -203 -119.5 -327t-314.5 -124q-154 0 -282 41v359q48 -10 112 -10q60 0 96.5 33.5t36.5 88.5zM381 1147q-111 0 -183.5 69.5t-72.5 176.5t72.5 176t183.5 69q112 0 184 -69t72 -176t-72 -176.5t-184 -69.5z" />
    <glyph glyph-name="k" unicode="k" horiz-adv-x="1386" 
d="M104 0v1536h471v-834l267 363h540l-397 -512l401 -553h-544l-267 401v-401h-471z" />
    <glyph glyph-name="l" unicode="l" horiz-adv-x="675" 
d="M102 1536h471v-1536h-471v1536z" />
    <glyph glyph-name="m" unicode="m" horiz-adv-x="1990" 
d="M575 0h-471v1065h451v-137q44 85 130.5 131.5t188.5 46.5t180.5 -45t123.5 -125q43 77 142.5 123.5t203.5 46.5q173 0 278 -107t105 -282v-717h-471v573q0 50 -27.5 84.5t-77.5 38.5q-47 0 -73.5 -33.5t-26.5 -89.5v-573h-471v573q0 56 -25.5 89.5t-68.5 33.5
q-42 0 -66.5 -33.5t-24.5 -89.5v-573z" />
    <glyph glyph-name="n" unicode="n" 
d="M104 1065h451v-160q130 201 328 201q151 0 249.5 -116t98.5 -294v-696h-471v573q0 55 -25.5 89t-66.5 34t-67 -34t-26 -89v-573h-471v1065z" />
    <glyph glyph-name="o" unicode="o" horiz-adv-x="1351" 
d="M676 1106q277 0 445.5 -158t168.5 -416t-168.5 -415.5t-445.5 -157.5t-446 157.5t-169 415.5t169 416t446 158zM676 369q64 0 103.5 44.5t39.5 118.5t-39.5 119t-103.5 45q-65 0 -104.5 -45.5t-39.5 -118.5t39.5 -118t104.5 -45z" />
    <glyph glyph-name="p" unicode="p" horiz-adv-x="1376" 
d="M698 369q63 0 103.5 46t40.5 117t-40.5 117.5t-103.5 46.5t-103 -46.5t-40 -117.5t40 -117t103 -46zM1313 532q0 -258 -124 -415.5t-327 -157.5q-176 0 -287 139v-569h-471v1536h471v-94q110 135 287 135q203 0 327 -158t124 -416z" />
    <glyph glyph-name="q" unicode="q" horiz-adv-x="1376" 
d="M678 369q63 0 103 46t40 117t-40 117.5t-103 46.5t-103 -46.5t-40 -117.5t40 -117t103 -46zM63 532q0 258 124 416t327 158q177 0 287 -135v94h471v-1536h-471v569q-114 -139 -287 -139q-203 0 -327 157.5t-124 415.5z" />
    <glyph glyph-name="r" unicode="r" horiz-adv-x="964" 
d="M104 1065h451v-135q41 79 117 127.5t159 48.5q58 0 113 -25v-415q-107 47 -196 47q-77 0 -125 -50t-48 -131v-532h-471v1065z" />
    <glyph glyph-name="s" unicode="s" horiz-adv-x="1191" 
d="M1151 371q0 -187 -158 -304.5t-415 -117.5q-224 0 -369.5 111.5t-145.5 283.5h371q0 -47 43.5 -77.5t110.5 -30.5q48 0 80 20.5t32 52.5q0 36 -42.5 54t-161.5 24q-73 3 -129.5 12t-115.5 31t-97.5 57t-63 93.5t-24.5 136.5q0 173 144.5 286t367.5 113q226 0 374 -106.5
t148 -270.5h-391q0 39 -37 64.5t-92 25.5q-46 0 -75.5 -17.5t-29.5 -45.5q0 -20 17.5 -35.5t45 -22.5t45.5 -10t35 -4q60 -5 105.5 -10.5t104 -17t101.5 -26t87 -39.5t72 -56t45.5 -75.5t17.5 -98.5z" />
    <glyph glyph-name="t" unicode="t" horiz-adv-x="905" 
d="M166 430v287h-123v348h143l41 287h410v-287h205v-348h-205v-225q0 -56 31 -89.5t82 -33.5q44 0 92 10v-379q-128 -41 -262 -41q-184 0 -299 133t-115 338z" />
    <glyph glyph-name="u" unicode="u" 
d="M1210 0h-450v160q-130 -201 -328 -201q-151 0 -249.5 116t-98.5 294v696h471v-573q0 -55 25.5 -89t66.5 -34t66.5 34t25.5 89v573h471v-1065z" />
    <glyph glyph-name="v" unicode="v" horiz-adv-x="1353" 
d="M1016 0h-676l-338 1065h502l174 -713l174 713h502z" />
    <glyph glyph-name="w" unicode="w" horiz-adv-x="1980" 
d="M879 0h-574l-282 1065h487l127 -588l160 588h387l180 -602l129 602h467l-283 -1065h-573l-113 512z" />
    <glyph glyph-name="x" unicode="x" horiz-adv-x="1456" 
d="M596 0h-573l348 553l-334 512h559l133 -260l133 260h559l-334 -512l349 -553h-574l-133 291z" />
    <glyph glyph-name="y" unicode="y" horiz-adv-x="1345" 
d="M238 -451v318q30 -10 102 -10q41 0 59.5 1t47.5 6.5t44 17.5t30.5 35t25.5 58l-545 1090h512l205 -498l143 498h481l-399 -1126q-84 -235 -195.5 -333t-265.5 -98q-137 0 -245 41z" />
    <glyph glyph-name="z" unicode="z" horiz-adv-x="1189" 
d="M84 307l389 389h-369v369h983v-307l-342 -389h363v-369h-1024v307z" />
    <glyph glyph-name="braceleft" unicode="{" horiz-adv-x="944" 
d="M821 -61h123v-308h-430q-129 0 -208 79t-79 208v328q0 64 -39.5 103.5t-103.5 39.5h-21v410h21q64 0 103.5 39.5t39.5 103.5v307q0 129 79 208t208 79h430v-307h-123q-64 0 -103.5 -39.5t-39.5 -104.5v-184q0 -129 -79 -213.5t-208 -91.5l-20 -2l20 -2q129 -7 208 -91.5
t79 -213.5v-205q0 -64 39 -103.5t104 -39.5z" />
    <glyph glyph-name="bar" unicode="|" horiz-adv-x="659" 
d="M125 1536h410v-2007h-410v2007z" />
    <glyph glyph-name="braceright" unicode="}" horiz-adv-x="944" 
d="M432 -369h-430v308h123q65 0 104 39.5t39 103.5v205q0 129 79 213.5t208 91.5l20 2l-20 2q-129 7 -208 91.5t-79 213.5v184q0 65 -39.5 104.5t-103.5 39.5h-123v307h430q129 0 208 -79t79 -208v-307q0 -64 39.5 -103.5t103.5 -39.5h21v-410h-21q-64 0 -103.5 -39.5
t-39.5 -103.5v-328q0 -129 -79 -208t-208 -79z" />
    <glyph glyph-name="asciitilde" unicode="~" horiz-adv-x="1294" 
d="M176 430l-113 307q73 73 167 118.5t169 45.5q66 0 145.5 -32t139.5 -70.5t127.5 -70.5t112.5 -32q51 0 103 23t87 59l117 -307q-73 -73 -166 -118.5t-168 -45.5q-67 0 -149 32t-145.5 70.5t-134.5 70.5t-118 32q-42 0 -89 -23t-85 -59z" />
    <glyph glyph-name="exclamdown" unicode="&#xa1;" horiz-adv-x="761" 
d="M381 1044q111 0 183.5 -69t72.5 -176t-72.5 -176.5t-183.5 -69.5q-112 0 -184 69.5t-72 176.5t72 176t184 69zM145 -471v410l123 532h226l122 -532v-410h-471z" />
    <glyph glyph-name="cent" unicode="&#xa2;" horiz-adv-x="1304" 
d="M834 -23v-223h-390v244q-173 61 -277 203.5t-104 330.5q0 190 103.5 333t277.5 204v201h390v-183q169 -42 283.5 -160.5t133.5 -277.5l-430 -55q-10 54 -50 88.5t-91 34.5q-63 0 -104 -52.5t-41 -132.5t40.5 -132t104.5 -52q51 0 91 34.5t50 88.5l430 -51
q-19 -161 -133.5 -281t-283.5 -162z" />
    <glyph glyph-name="sterling" unicode="&#xa3;" horiz-adv-x="1437" 
d="M1374 1077l-409 -63q-7 54 -36.5 88.5t-66.5 34.5q-35 0 -58.5 -32t-23.5 -81v-143h389v-267h-415q-32 -76 -102 -140t-167 -105h889v-369h-1311v410q77 26 133.5 80t79.5 124h-192v267h205v163q0 210 147 346t379 136q224 0 382 -127t177 -322z" />
    <glyph glyph-name="currency" unicode="&#xa4;" horiz-adv-x="1470" 
d="M739 348q65 0 104.5 50.5t39.5 133.5t-39.5 134t-104.5 51q-64 0 -103.5 -51t-39.5 -134t39 -133.5t104 -50.5zM1026 1012l102 135l273 -205l-115 -149q68 -117 68 -261q0 -142 -68 -262l121 -153l-279 -199l-102 133q-130 -51 -287 -51q-164 0 -286 49l-123 -131
l-267 199l127 153q-65 115 -65 262q0 149 65 261l-110 149l270 205l103 -133q127 51 286 51q160 0 287 -53z" />
    <glyph glyph-name="yen" unicode="&#xa5;" horiz-adv-x="1648" 
d="M213 659h248l-438 816h571l237 -574l216 574h579l-428 -816h244v-204h-344v-86h344v-205h-344v-164h-533v164h-352v205h352v86h-352v204z" />
    <glyph glyph-name="section" unicode="&#xa7;" horiz-adv-x="1353" 
d="M852 553q0 24 -23 44.5t-59 29.5q-15 5 -225 57q-27 -4 -44.5 -24.5t-17.5 -43.5q0 -30 34 -55t89 -37q4 -1 80.5 -19.5t83.5 -19.5q35 5 58.5 24t23.5 44zM135 1044q0 181 143.5 290.5t385.5 109.5q207 0 348 -85t180 -243l-381 -53q-8 59 -51 97t-107 38
q-47 0 -77.5 -20.5t-30.5 -51.5q0 -50 104 -83q42 -14 156 -39q62 -14 94.5 -21.5t91.5 -24.5t92.5 -32.5t76.5 -41t66 -53t39.5 -66.5t16.5 -85q0 -101 -69 -175.5t-185 -107.5q172 -95 172 -293q0 -120 -70.5 -216.5t-195 -150.5t-279.5 -54q-140 0 -256 44.5t-186.5 123
t-83.5 178.5l375 53q9 -58 57.5 -95.5t114.5 -37.5q48 0 81.5 18t33.5 47q0 28 -17 48.5t-64.5 39t-75 26t-103.5 26.5q-2 1 -3.5 1.5t-3.5 0.5q-44 10 -69.5 16.5t-68.5 18.5t-69.5 22t-63 26.5t-59 33t-48 39.5t-39.5 48.5t-23.5 58.5t-9.5 70q0 96 57 169.5t154 105.5
q-150 87 -150 280z" />
    <glyph glyph-name="dieresis" unicode="&#xa8;" horiz-adv-x="1130" 
d="M279 1126q-94 0 -155 58t-61 147t61 147t155 58t154.5 -58t60.5 -147t-60.5 -147t-154.5 -58zM852 1126q-94 0 -154.5 58t-60.5 147t60.5 147t154.5 58t154.5 -58t60.5 -147t-60.5 -147t-154.5 -58z" />
    <glyph glyph-name="copyright" unicode="&#xa9;" horiz-adv-x="2172" 
d="M1087 1239q-323 0 -519.5 -191.5t-196.5 -504.5q0 -323 197 -520t519 -197q159 0 293 52t227 145t145 227t52 293q0 313 -197 504.5t-520 191.5zM1092 1085q210 0 359 -123.5t171 -314.5l-315 -47q-15 87 -71.5 143t-131.5 56q-87 0 -147 -74.5t-60 -192.5
q0 -114 60 -190t147 -76q75 0 131.5 56.5t71.5 144.5l309 -55q-14 -188 -160 -310t-358 -122q-155 0 -279.5 68t-197 194.5t-72.5 289.5q0 241 153.5 397t389.5 156zM1087 -440q-304 0 -536.5 122t-360 345.5t-127.5 515.5q0 286 127.5 504.5t360 338t536.5 119.5
t536.5 -119.5t360 -338t127.5 -504.5q0 -292 -127.5 -515.5t-360 -345.5t-536.5 -122z" />
    <glyph glyph-name="guillemotleft" unicode="&#xab;" horiz-adv-x="1556" 
d="M860 1065l-346 -512l346 -553h-469l-328 553l328 512h469zM1495 1065l-346 -512l346 -553h-469l-328 553l328 512h469z" />
    <glyph glyph-name="logicalnot" unicode="&#xac;" 
d="M901 143v308h-838v368h1168v-676h-330z" />
    <glyph glyph-name="registered" unicode="&#xae;" horiz-adv-x="2172" 
d="M371 543q0 -323 197 -520t519 -197q159 0 293 52t227 145t145 227t52 293q0 313 -197 504.5t-520 191.5t-519.5 -191.5t-196.5 -504.5zM1085 860h-120v-266h120q70 0 113 35t43 98q0 62 -39.5 97.5t-116.5 35.5zM1087 -440q-304 0 -536.5 122t-360 345.5t-127.5 515.5
q0 286 127.5 504.5t360 338t536.5 119.5t536.5 -119.5t360 -338t127.5 -504.5q0 -292 -127.5 -515.5t-360 -345.5t-536.5 -122zM1348 440l213 -420h-371l-146 390h-79v-390h-328v1045h518q191 0 307.5 -90t116.5 -238q0 -103 -61.5 -180.5t-169.5 -116.5z" />
    <glyph glyph-name="macron" unicode="&#xaf;" horiz-adv-x="884" 
d="M821 1475v-267h-758v267h758z" />
    <glyph glyph-name="degree" unicode="&#xb0;" horiz-adv-x="1150" 
d="M575 645q-230 0 -371 129.5t-141 341.5t141 341.5t371 129.5t371 -129.5t141 -341.5t-141 -341.5t-371 -129.5zM575 1300q-83 0 -133.5 -50.5t-50.5 -133.5t50.5 -133.5t133.5 -50.5t134 50.5t51 133.5t-51 133.5t-134 50.5z" />
    <glyph glyph-name="plusminus" unicode="&#xb1;" horiz-adv-x="1089" 
d="M63 287h963v-287h-963v287zM719 410h-348v184h-308v287h308v184h348v-184h307v-287h-307v-184z" />
    <glyph glyph-name="acute" unicode="&#xb4;" horiz-adv-x="796" 
d="M692 1536l-321 -369h-308l226 369h403z" />
    <glyph glyph-name="paragraph" unicode="&#xb6;" horiz-adv-x="1806" 
d="M1702 1147h-205v-1557h-410v1557h-143v-1557h-409v983q-214 0 -344 124t-128 327t131.5 327t340.5 124h1167v-328z" />
    <glyph glyph-name="periodcentered" unicode="&#xb7;" horiz-adv-x="638" 
d="M319 410q-111 0 -183.5 69t-72.5 176t72.5 176.5t183.5 69.5q112 0 184 -69.5t72 -176.5t-72 -176t-184 -69z" />
    <glyph glyph-name="cedilla" unicode="&#xb8;" horiz-adv-x="634" 
d="M227 -266h-102l61 327h226l-41 -225q91 0 145.5 -51.5t54.5 -136.5q0 -91 -77 -146t-203 -55q-75 0 -137.5 34t-90.5 89l103 102q13 -28 40 -44.5t58 -16.5t48.5 16.5t17.5 44.5t-28.5 45t-74.5 17z" />
    <glyph glyph-name="guillemotright" unicode="&#xbb;" horiz-adv-x="1554" 
d="M858 553l-328 -553h-469l347 553l-347 512h469zM1493 553l-328 -553h-469l346 553l-346 512h469z" />
    <glyph glyph-name="questiondown" unicode="&#xbf;" horiz-adv-x="1374" 
d="M494 532h409q0 -146 -46 -235.5t-159 -161.5q-71 -44 -94 -71q-29 -34 -29 -74q0 -44 31.5 -73.5t77.5 -29.5q64 0 106.5 53.5t51.5 139.5l471 -86q-11 -144 -95.5 -256.5t-229 -176t-326.5 -63.5q-259 0 -429 123.5t-170 315.5q0 120 67.5 215.5t178.5 146.5
q94 43 139.5 92t45.5 141zM709 1065q111 0 183.5 -69.5t72.5 -176.5t-72.5 -176.5t-183.5 -69.5q-112 0 -184 69.5t-72 176.5t72 176.5t184 69.5z" />
    <glyph glyph-name="Agrave" unicode="&#xc0;" horiz-adv-x="1646" 
d="M946 553l-123 473l-123 -473h246zM1042 184h-438l-47 -184h-555l432 1475h778l433 -1475h-555zM975 1618h-320l-323 328h405z" />
    <glyph glyph-name="Aacute" unicode="&#xc1;" horiz-adv-x="1646" 
d="M946 553l-123 473l-123 -473h246zM1042 184h-438l-47 -184h-555l432 1475h778l433 -1475h-555zM956 1618h-321l239 328h406z" />
    <glyph glyph-name="Acircumflex" unicode="&#xc2;" horiz-adv-x="1646" 
d="M946 553l-123 473l-123 -473h246zM1042 184h-438l-47 -184h-555l432 1475h778l433 -1475h-555zM944 1618l-123 164l-123 -164h-286l184 328h451l184 -328h-287z" />
    <glyph glyph-name="Atilde" unicode="&#xc3;" horiz-adv-x="1646" 
d="M946 553l-123 473l-123 -473h246zM1042 184h-438l-47 -184h-555l432 1475h778l433 -1475h-555zM563 1686l-213 106q31 98 118 167t187 69q63 0 123.5 -26t106 -51.5t71.5 -25.5q28 0 56 21t45 55l215 -107q-31 -97 -123.5 -166t-196.5 -69q-52 0 -101.5 16t-81 35t-64 35
t-54.5 16q-50 0 -88 -75z" />
    <glyph glyph-name="Adieresis" unicode="&#xc4;" horiz-adv-x="1646" 
d="M946 553l-123 473l-123 -473h246zM1042 184h-438l-47 -184h-555l432 1475h778l433 -1475h-555zM535 1597q-94 0 -155 60.5t-61 154.5t61 155t155 61t154.5 -61t60.5 -155t-60.5 -154.5t-154.5 -60.5zM1108 1597q-94 0 -154.5 60.5t-60.5 154.5t60.5 155t154.5 61
t154.5 -61t60.5 -155t-60.5 -154.5t-154.5 -60.5z" />
    <glyph glyph-name="Aring" unicode="&#xc5;" horiz-adv-x="1646" 
d="M946 553l-123 473l-123 -473h246zM823 1915q-32 0 -51.5 -20t-19.5 -52t19.5 -51.5t51.5 -19.5t52 19.5t20 51.5t-20 52t-52 20zM1042 184h-438l-47 -184h-555l432 1475h778l433 -1475h-555zM823 1567q-143 0 -230 76t-87 200q0 125 87.5 201t229.5 76q143 0 230.5 -76.5
t87.5 -200.5t-87.5 -200t-230.5 -76z" />
    <glyph glyph-name="AE" unicode="&#xc6;" horiz-adv-x="2148" 
d="M1104 1122l-268 -590h268v590zM1575 573v-163h512v-410h-983v184h-428l-84 -184h-590l713 1475h1351v-410h-491v-143h410v-349h-410z" />
    <glyph glyph-name="Ccedilla" unicode="&#xc7;" horiz-adv-x="1724" 
d="M842 -266h-103l41 221q-209 21 -372 126t-254 276t-91 380q0 226 105.5 406t293 281.5t421.5 101.5q157 0 296 -46.5t241 -128.5t165 -197.5t72 -248.5l-490 -51q-17 97 -92.5 159t-173.5 62q-138 0 -221.5 -93t-83.5 -245t84 -245t219 -93q98 0 174.5 62.5t95.5 159.5
l494 -52q-12 -243 -194 -411.5t-463 -200.5l-21 -121q91 0 146 -51.5t55 -136.5q0 -91 -77.5 -146t-203.5 -55q-75 0 -137 33.5t-90 89.5l102 102q13 -28 40.5 -44.5t58.5 -16.5q30 0 47.5 16.5t17.5 44.5t-28 45t-74 17z" />
    <glyph glyph-name="Egrave" unicode="&#xc8;" horiz-adv-x="1271" 
d="M637 573v-163h573v-410h-1085v1475h1065v-410h-553v-143h471v-349h-471zM168 1946h405l238 -328h-319z" />
    <glyph glyph-name="Eacute" unicode="&#xc9;" horiz-adv-x="1271" 
d="M637 573v-163h573v-410h-1085v1475h1065v-410h-553v-143h471v-349h-471zM711 1946h405l-323 -328h-322z" />
    <glyph glyph-name="Ecircumflex" unicode="&#xca;" horiz-adv-x="1271" 
d="M637 573v-163h573v-410h-1085v1475h1065v-410h-553v-143h471v-349h-471zM535 1618h-287l184 328h451l184 -328h-287l-123 164z" />
    <glyph glyph-name="Edieresis" unicode="&#xcb;" horiz-adv-x="1271" 
d="M637 573v-163h573v-410h-1085v1475h1065v-410h-553v-143h471v-349h-471zM371 1597q-94 0 -154.5 60.5t-60.5 154.5t60.5 155t154.5 61t154.5 -61t60.5 -155t-60.5 -154.5t-154.5 -60.5zM944 1597q-94 0 -154.5 60.5t-60.5 154.5t60.5 155t154.5 61t154.5 -61t60.5 -155
t-60.5 -154.5t-154.5 -60.5z" />
    <glyph glyph-name="Igrave" unicode="&#xcc;" horiz-adv-x="780" 
d="M123 1475h532v-1475h-532v1475zM-100 1946h405l238 -328h-320z" />
    <glyph glyph-name="Iacute" unicode="&#xcd;" horiz-adv-x="788" 
d="M125 1475h532v-1475h-532v1475zM444 1946h406l-324 -328h-321z" />
    <glyph glyph-name="Icircumflex" unicode="&#xce;" horiz-adv-x="782" 
d="M125 1475h532v-1475h-532v1475zM268 1618h-286l184 328h450l185 -328h-287l-123 164z" />
    <glyph glyph-name="Idieresis" unicode="&#xcf;" horiz-adv-x="761" 
d="M115 1475h532v-1475h-532v1475zM94 1597q-94 0 -154.5 60.5t-60.5 154.5t60.5 155t154.5 61t154.5 -61t60.5 -155t-60.5 -154.5t-154.5 -60.5zM668 1597q-94 0 -154.5 60.5t-60.5 154.5t60.5 155t154.5 61t154.5 -61t60.5 -155t-60.5 -154.5t-154.5 -60.5z" />
    <glyph glyph-name="Ntilde" unicode="&#xd1;" horiz-adv-x="1703" 
d="M125 1475h532l430 -834v834h492v-1475h-532l-431 829v-829h-491v1475zM598 1686l-213 106q31 98 118 167t187 69q63 0 123.5 -26t106 -51.5t71.5 -25.5q28 0 56 21t45 55l215 -107q-31 -97 -123.5 -166t-196.5 -69q-52 0 -101.5 16t-81 35t-64 35t-54.5 16q-50 0 -88 -75
z" />
    <glyph glyph-name="Ograve" unicode="&#xd2;" horiz-adv-x="1804" 
d="M903 -51q-249 0 -440 98t-295.5 277t-104.5 413t104.5 413.5t295.5 277.5t440 98t440 -98t295.5 -277.5t104.5 -413.5t-104.5 -413t-295.5 -277t-440 -98zM903 1075q-138 0 -222.5 -93t-84.5 -245t84.5 -245t222.5 -93t222.5 93t84.5 245t-84.5 245t-222.5 93zM414 1946
h405l238 -328h-320z" />
    <glyph glyph-name="Oacute" unicode="&#xd3;" horiz-adv-x="1804" 
d="M903 -51q-249 0 -440 98t-295.5 277t-104.5 413t104.5 413.5t295.5 277.5t440 98t440 -98t295.5 -277.5t104.5 -413.5t-104.5 -413t-295.5 -277t-440 -98zM903 1075q-138 0 -222.5 -93t-84.5 -245t84.5 -245t222.5 -93t222.5 93t84.5 245t-84.5 245t-222.5 93zM956 1946
h406l-324 -328h-321z" />
    <glyph glyph-name="Ocircumflex" unicode="&#xd4;" horiz-adv-x="1804" 
d="M903 1075q-138 0 -222.5 -93t-84.5 -245t84.5 -245t222.5 -93t222.5 93t84.5 245t-84.5 245t-222.5 93zM903 -51q-249 0 -440 98t-295.5 277t-104.5 413t104.5 413.5t295.5 277.5t440 98t440 -98t295.5 -277.5t104.5 -413.5t-104.5 -413t-295.5 -277t-440 -98zM1026 1618
l-123 164l-123 -164h-286l184 328h450l185 -328h-287z" />
    <glyph glyph-name="Otilde" unicode="&#xd5;" horiz-adv-x="1804" 
d="M903 1075q-138 0 -222.5 -93t-84.5 -245t84.5 -245t222.5 -93t222.5 93t84.5 245t-84.5 245t-222.5 93zM903 -51q-249 0 -440 98t-295.5 277t-104.5 413t104.5 413.5t295.5 277.5t440 98t440 -98t295.5 -277.5t104.5 -413.5t-104.5 -413t-295.5 -277t-440 -98zM645 1686
l-213 106q31 98 118 167t187 69q63 0 123.5 -26t106 -51.5t71.5 -25.5q28 0 56 21t45 55l215 -107q-31 -97 -123.5 -166t-196.5 -69q-52 0 -101.5 16t-81 35t-64 35t-54.5 16q-50 0 -88 -75z" />
    <glyph glyph-name="Odieresis" unicode="&#xd6;" horiz-adv-x="1804" 
d="M903 -51q-249 0 -440 98t-295.5 277t-104.5 413t104.5 413.5t295.5 277.5t440 98t440 -98t295.5 -277.5t104.5 -413.5t-104.5 -413t-295.5 -277t-440 -98zM903 1075q-138 0 -222.5 -93t-84.5 -245t84.5 -245t222.5 -93t222.5 93t84.5 245t-84.5 245t-222.5 93zM616 1597
q-94 0 -154.5 60.5t-60.5 154.5t60.5 155t154.5 61t154.5 -61t60.5 -155t-60.5 -154.5t-154.5 -60.5zM1190 1597q-94 0 -154.5 60.5t-60.5 154.5t60.5 155t154.5 61t154.5 -61t60.5 -155t-60.5 -154.5t-154.5 -60.5z" />
    <glyph glyph-name="multiply" unicode="&#xd7;" horiz-adv-x="1028" 
d="M330 164l-267 266l185 184l-185 185l267 266l184 -184l184 184l269 -264l-187 -187l185 -184l-267 -266l-184 184z" />
    <glyph glyph-name="Oslash" unicode="&#xd8;" horiz-adv-x="1763" 
d="M883 1075q-125 0 -206 -95.5t-81 -242.5q0 -115 51 -200l281 534q-28 4 -45 4zM883 399q125 0 205.5 95t80.5 243q0 113 -53 201l-280 -535q14 -4 47 -4zM616 -12l-143 -275h-258l193 369q-162 104 -253.5 275t-91.5 380q0 226 105.5 406t293 281.5t421.5 101.5
q135 0 266 -39l143 274h258l-194 -368q162 -106 254 -276.5t92 -379.5q0 -169 -61.5 -315.5t-169.5 -250t-260 -163t-328 -59.5q-139 0 -267 39z" />
    <glyph glyph-name="Ugrave" unicode="&#xd9;" horiz-adv-x="1662" 
d="M1026 645v830h533v-850q0 -304 -200.5 -490t-527.5 -186t-527 186t-200 490v850h533v-830q0 -97 48.5 -168t145.5 -78q88 0 141.5 68t53.5 178zM666 1618l-324 328h406l237 -328h-319z" />
    <glyph glyph-name="Uacute" unicode="&#xda;" horiz-adv-x="1662" 
d="M1026 645v830h533v-850q0 -304 -200.5 -490t-527.5 -186t-527 186t-200 490v850h533v-830q0 -97 48.5 -168t145.5 -78q88 0 141.5 68t53.5 178zM885 1946h405l-323 -328h-322z" />
    <glyph glyph-name="Ucircumflex" unicode="&#xdb;" horiz-adv-x="1662" 
d="M1026 645v830h533v-850q0 -304 -200.5 -490t-527.5 -186t-527 186t-200 490v850h533v-830q0 -97 48.5 -168t145.5 -78q88 0 141.5 68t53.5 178zM831 1782l-122 -164h-287l184 328h451l184 -328h-287z" />
    <glyph glyph-name="Udieresis" unicode="&#xdc;" horiz-adv-x="1662" 
d="M1026 645v830h533v-850q0 -304 -200.5 -490t-527.5 -186t-527 186t-200 490v850h533v-830q0 -97 48.5 -168t145.5 -78q88 0 141.5 68t53.5 178zM545 1597q-94 0 -154.5 60.5t-60.5 154.5t60.5 155t154.5 61t154.5 -61t60.5 -155t-60.5 -154.5t-154.5 -60.5zM1118 1597
q-94 0 -154.5 60.5t-60.5 154.5t60.5 155t154.5 61t154.5 -61t60.5 -155t-60.5 -154.5t-154.5 -60.5z" />
    <glyph glyph-name="Yacute" unicode="&#xdd;" horiz-adv-x="1521" 
d="M502 0v492l-502 983h551l217 -533l195 533h559l-488 -983v-492h-532zM815 1946h406l-324 -328h-319z" />
    <glyph glyph-name="germandbls" unicode="&#xdf;" horiz-adv-x="1660" 
d="M637 1004v-1004h-533v983q0 245 196.5 394t518.5 149q292 0 464.5 -126.5t172.5 -334.5q0 -84 -51 -149t-143 -101q134 -37 225.5 -154t91.5 -272q0 -192 -139 -316t-353 -124q-85 0 -189.5 23t-180.5 57l71 295q69 -37 130 -37q56 0 92.5 44t36.5 111q0 86 -59.5 139.5
t-156.5 53.5h-94v266h103q66 0 105.5 33.5t39.5 89.5q0 72 -48 116t-126 44t-126 -49.5t-48 -130.5z" />
    <glyph glyph-name="agrave" unicode="&#xe0;" horiz-adv-x="1398" 
d="M678 369q63 0 103 46t40 117t-40 117.5t-103 46.5t-103 -46.5t-40 -117.5t40 -117t103 -46zM823 938v127h471v-1065h-471v127q-53 -80 -129.5 -124t-167.5 -44q-209 0 -336 157.5t-127 415.5t127 416t336 158q91 0 167.5 -44t129.5 -124zM858 1188h-307l-322 368h404z
" />
    <glyph glyph-name="aacute" unicode="&#xe1;" horiz-adv-x="1398" 
d="M678 369q63 0 103 46t40 117t-40 117.5t-103 46.5t-103 -46.5t-40 -117.5t40 -117t103 -46zM823 938v127h471v-1065h-471v127q-53 -80 -129.5 -124t-167.5 -44q-209 0 -336 157.5t-127 415.5t127 416t336 158q91 0 167.5 -44t129.5 -124zM803 1188h-307l225 368h403z" />
    <glyph glyph-name="acircumflex" unicode="&#xe2;" horiz-adv-x="1398" 
d="M678 369q63 0 103 46t40 117t-40 117.5t-103 46.5t-103 -46.5t-40 -117.5t40 -117t103 -46zM823 938v127h471v-1065h-471v127q-53 -80 -129.5 -124t-167.5 -44q-209 0 -336 157.5t-127 415.5t127 416t336 158q91 0 167.5 -44t129.5 -124zM803 1188l-123 205l-123 -205
h-301l199 368h450l199 -368h-301z" />
    <glyph glyph-name="atilde" unicode="&#xe3;" horiz-adv-x="1398" 
d="M678 369q63 0 103 46t40 117t-40 117.5t-103 46.5t-103 -46.5t-40 -117.5t40 -117t103 -46zM823 938v127h471v-1065h-471v127q-53 -80 -129.5 -124t-167.5 -44q-209 0 -336 157.5t-127 415.5t127 416t336 158q91 0 167.5 -44t129.5 -124zM442 1235l-213 106
q31 98 118.5 167t187.5 69q49 0 98.5 -16t81.5 -35t65.5 -35t55.5 -16q28 0 55.5 20.5t44.5 54.5l215 -106q-31 -97 -123.5 -166.5t-196.5 -69.5q-66 0 -126.5 26t-104.5 51.5t-70 25.5q-49 0 -88 -76z" />
    <glyph glyph-name="adieresis" unicode="&#xe4;" horiz-adv-x="1398" 
d="M678 369q63 0 103 46t40 117t-40 117.5t-103 46.5t-103 -46.5t-40 -117.5t40 -117t103 -46zM823 938v127h471v-1065h-471v127q-53 -80 -129.5 -124t-167.5 -44q-209 0 -336 157.5t-127 415.5t127 416t336 158q91 0 167.5 -44t129.5 -124zM393 1174q-94 0 -154.5 57.5
t-60.5 146.5t60.5 147t154.5 58t154.5 -58t60.5 -147t-60.5 -146.5t-154.5 -57.5zM967 1174q-94 0 -154.5 57.5t-60.5 146.5t60.5 147t154.5 58t154.5 -58t60.5 -147t-60.5 -146.5t-154.5 -57.5z" />
    <glyph glyph-name="aring" unicode="&#xe5;" horiz-adv-x="1398" 
d="M678 369q63 0 103 46t40 117t-40 117.5t-103 46.5t-103 -46.5t-40 -117.5t40 -117t103 -46zM680 1577q-46 0 -74 -28t-28 -74t28 -74.5t74 -28.5t74 28.5t28 74.5t-28 74t-74 28zM823 938v127h471v-1065h-471v127q-53 -80 -129.5 -124t-167.5 -44q-209 0 -336 157.5
t-127 415.5t127 416t336 158q91 0 167.5 -44t129.5 -124zM680 1167q-157 0 -252.5 85t-95.5 223t95.5 222.5t252.5 84.5t252.5 -84.5t95.5 -222.5t-95.5 -223t-252.5 -85z" />
    <glyph glyph-name="ae" unicode="&#xe6;" horiz-adv-x="2113" 
d="M696 737q-74 0 -119 -56.5t-45 -148.5t45 -148t119 -56t119 56t45 148t-45 148.5t-119 56.5zM1321 614h260q-6 60 -42 102t-87 42t-85 -36t-46 -108zM860 926v139h266v-156q51 88 156.5 142.5t239.5 54.5q152 0 273 -72t189 -200.5t68 -290.5q0 -103 -6 -133h-723
q11 -54 53.5 -88.5t102.5 -34.5q47 0 84.5 23.5t48.5 58.5l397 -56q-47 -154 -190 -254t-316 -100q-125 0 -228 51.5t-149 134.5v-145h-266v139q-57 -87 -141.5 -133.5t-186.5 -46.5q-212 0 -341.5 157.5t-129.5 415.5t129.5 416t341.5 158q101 0 185.5 -47t142.5 -133z" />
    <glyph glyph-name="ccedilla" unicode="&#xe7;" horiz-adv-x="1304" 
d="M594 -266h-102l45 237q-211 42 -342.5 195t-131.5 366q0 249 173 411.5t438 162.5q225 0 390 -130t187 -327l-430 -55q-10 54 -50 88.5t-91 34.5q-63 0 -104 -52.5t-41 -132.5t40.5 -132t104.5 -52q51 0 91 34.5t50 88.5l430 -51q-20 -180 -157 -305t-334 -150l-23 -129
q91 0 146 -51.5t55 -136.5q0 -91 -77.5 -146t-203.5 -55q-75 0 -137 33.5t-90 89.5l102 102q13 -28 40.5 -44.5t58.5 -16.5q30 0 47.5 16.5t17.5 44.5t-28 45t-74 17z" />
    <glyph glyph-name="egrave" unicode="&#xe8;" horiz-adv-x="1335" 
d="M543 635h258q0 56 -37 99.5t-92 43.5q-103 0 -129 -143zM63 532q0 170 78.5 301t218 202t318.5 71q272 0 433 -158.5t161 -421.5q0 -89 -6 -116h-717q39 -123 149 -123q95 0 123 82l410 -52q-31 -156 -189 -257t-374 -101q-269 0 -437 158t-168 415zM856 1188h-307
l-322 368h404z" />
    <glyph glyph-name="eacute" unicode="&#xe9;" horiz-adv-x="1335" 
d="M543 635h258q0 56 -37 99.5t-92 43.5q-103 0 -129 -143zM63 532q0 170 78.5 301t218 202t318.5 71q272 0 433 -158.5t161 -421.5q0 -89 -6 -116h-717q39 -123 149 -123q95 0 123 82l410 -52q-31 -156 -189 -257t-374 -101q-269 0 -437 158t-168 415zM801 1188h-307
l225 368h403z" />
    <glyph glyph-name="ecircumflex" unicode="&#xea;" horiz-adv-x="1335" 
d="M543 635h258q0 56 -37 99.5t-92 43.5q-103 0 -129 -143zM63 532q0 170 78.5 301t218 202t318.5 71q272 0 433 -158.5t161 -421.5q0 -89 -6 -116h-717q39 -123 149 -123q95 0 123 82l410 -52q-31 -156 -189 -257t-374 -101q-269 0 -437 158t-168 415zM801 1188l-123 205
l-123 -205h-301l199 368h450l199 -368h-301z" />
    <glyph glyph-name="edieresis" unicode="&#xeb;" horiz-adv-x="1335" 
d="M543 635h258q0 56 -37 99.5t-92 43.5q-103 0 -129 -143zM63 532q0 170 78.5 301t218 202t318.5 71q272 0 433 -158.5t161 -421.5q0 -89 -6 -116h-717q39 -123 149 -123q95 0 123 82l410 -52q-31 -156 -189 -257t-374 -101q-269 0 -437 158t-168 415zM391 1174
q-94 0 -154.5 57.5t-60.5 146.5t60.5 147t154.5 58t154.5 -58t60.5 -147t-60.5 -146.5t-154.5 -57.5zM965 1174q-94 0 -154.5 57.5t-60.5 146.5t60.5 147t154.5 58t154.5 -58t60.5 -147t-60.5 -146.5t-154.5 -57.5z" />
    <glyph glyph-name="igrave" unicode="&#xec;" horiz-adv-x="688" 
d="M115 1065h471v-1065h-471v1065zM-100 1556h403l225 -368h-307z" />
    <glyph glyph-name="iacute" unicode="&#xed;" horiz-adv-x="684" 
d="M104 1065h471v-1065h-471v1065zM383 1556h403l-321 -368h-309z" />
    <glyph glyph-name="icircumflex" unicode="&#xee;" horiz-adv-x="688" 
d="M109 1065h471v-1065h-471v1065zM221 1188h-301l199 368h450l199 -368h-301l-123 205z" />
    <glyph glyph-name="idieresis" unicode="&#xef;" horiz-adv-x="679" 
d="M104 1065h471v-1065h-471v1065zM53 1174q-94 0 -154.5 57.5t-60.5 146.5t60.5 147t154.5 58t154.5 -58t60.5 -147t-60.5 -146.5t-154.5 -57.5zM627 1174q-94 0 -154.5 57.5t-60.5 146.5t60.5 147t154.5 58t154.5 -58t60.5 -147t-60.5 -146.5t-154.5 -57.5z" />
    <glyph glyph-name="ntilde" unicode="&#xf1;" 
d="M575 0h-471v1065h451v-160q130 201 328 201q151 0 249.5 -116t98.5 -294v-696h-471v573q0 55 -25.5 89t-66.5 34t-67 -34t-26 -89v-573zM410 1235l-213 106q31 98 118 167t187 69q49 0 98.5 -16t81.5 -35t65.5 -35t55.5 -16q28 0 55.5 20.5t44.5 54.5l215 -106
q-31 -97 -123 -166.5t-196 -69.5q-66 0 -126.5 26t-104.5 51.5t-70 25.5q-49 0 -88 -76z" />
    <glyph glyph-name="ograve" unicode="&#xf2;" horiz-adv-x="1355" 
d="M678 1106q277 0 445.5 -158t168.5 -416t-168.5 -415.5t-445.5 -157.5t-446 157.5t-169 415.5t169 416t446 158zM678 369q64 0 103.5 44.5t39.5 118.5t-39.5 119t-103.5 45t-103.5 -45t-39.5 -119t39.5 -118.5t103.5 -44.5zM227 1556h404l225 -368h-307z" />
    <glyph glyph-name="oacute" unicode="&#xf3;" horiz-adv-x="1355" 
d="M678 1106q277 0 445.5 -158t168.5 -416t-168.5 -415.5t-445.5 -157.5t-446 157.5t-169 415.5t169 416t446 158zM678 369q64 0 103.5 44.5t39.5 118.5t-39.5 119t-103.5 45t-103.5 -45t-39.5 -119t39.5 -118.5t103.5 -44.5zM719 1556h403l-321 -368h-307z" />
    <glyph glyph-name="ocircumflex" unicode="&#xf4;" horiz-adv-x="1355" 
d="M678 369q64 0 103.5 44.5t39.5 118.5t-39.5 119t-103.5 45t-103.5 -45t-39.5 -119t39.5 -118.5t103.5 -44.5zM678 1106q277 0 445.5 -158t168.5 -416t-168.5 -415.5t-445.5 -157.5t-446 157.5t-169 415.5t169 416t446 158zM801 1188l-123 205l-123 -205h-301l199 368h450
l199 -368h-301z" />
    <glyph glyph-name="otilde" unicode="&#xf5;" horiz-adv-x="1355" 
d="M678 369q64 0 103.5 44.5t39.5 118.5t-39.5 119t-103.5 45t-103.5 -45t-39.5 -119t39.5 -118.5t103.5 -44.5zM678 1106q277 0 445.5 -158t168.5 -416t-168.5 -415.5t-445.5 -157.5t-446 157.5t-169 415.5t169 416t446 158zM440 1235l-213 106q31 98 118 167t187 69
q63 0 123.5 -25.5t106.5 -51t72 -25.5q28 0 55.5 20.5t44.5 54.5l215 -106q-31 -97 -123.5 -166.5t-196.5 -69.5q-66 0 -126.5 26t-104.5 51.5t-70 25.5q-49 0 -88 -76z" />
    <glyph glyph-name="odieresis" unicode="&#xf6;" horiz-adv-x="1355" 
d="M678 1106q277 0 445.5 -158t168.5 -416t-168.5 -415.5t-445.5 -157.5t-446 157.5t-169 415.5t169 416t446 158zM678 369q64 0 103.5 44.5t39.5 118.5t-39.5 119t-103.5 45t-103.5 -45t-39.5 -119t39.5 -118.5t103.5 -44.5zM391 1174q-94 0 -154.5 57.5t-60.5 146.5
t60.5 147t154.5 58t154.5 -58t60.5 -147t-60.5 -146.5t-154.5 -57.5zM965 1174q-94 0 -154.5 57.5t-60.5 146.5t60.5 147t154.5 58t154.5 -58t60.5 -147t-60.5 -146.5t-154.5 -57.5z" />
    <glyph glyph-name="divide" unicode="&#xf7;" horiz-adv-x="1048" 
d="M524 41q-94 0 -154.5 58t-60.5 147t60.5 147t154.5 58t154.5 -58t60.5 -147t-60.5 -147t-154.5 -58zM63 840h922v-328h-922v328zM524 901q-94 0 -154.5 58t-60.5 147t60.5 147t154.5 58t154.5 -58t60.5 -147t-60.5 -147t-154.5 -58z" />
    <glyph glyph-name="oslash" unicode="&#xf8;" horiz-adv-x="1396" 
d="M514 379l213 399h-29q-98 0 -161.5 -68.5t-63.5 -177.5q0 -91 41 -153zM698 287q101 0 163.5 67.5t62.5 177.5q0 90 -41 152l-211 -395q8 -2 26 -2zM508 -18l-76 -146h-209l113 209q-130 73 -201.5 198.5t-71.5 288.5q0 258 174.5 416t460.5 158q94 0 191 -23l76 146h206
l-112 -211q130 -73 202 -199t72 -287q0 -258 -174.5 -415.5t-460.5 -157.5q-93 0 -190 23z" />
    <glyph glyph-name="ugrave" unicode="&#xf9;" 
d="M1210 0h-450v160q-130 -201 -328 -201q-151 0 -249.5 116t-98.5 294v696h471v-573q0 -55 25.5 -89t66.5 -34t66.5 34t25.5 89v573h471v-1065zM197 1556h403l225 -368h-307z" />
    <glyph glyph-name="uacute" unicode="&#xfa;" 
d="M1210 0h-450v160q-130 -201 -328 -201q-151 0 -249.5 116t-98.5 294v696h471v-573q0 -55 25.5 -89t66.5 -34t66.5 34t25.5 89v573h471v-1065zM688 1556h404l-322 -368h-307z" />
    <glyph glyph-name="ucircumflex" unicode="&#xfb;" 
d="M1210 0h-450v160q-130 -201 -328 -201q-151 0 -249.5 116t-98.5 294v696h471v-573q0 -55 25.5 -89t66.5 -34t66.5 34t25.5 89v573h471v-1065zM524 1188h-301l199 368h450l199 -368h-301l-123 205z" />
    <glyph glyph-name="udieresis" unicode="&#xfc;" 
d="M1210 0h-450v160q-130 -201 -328 -201q-151 0 -249.5 116t-98.5 294v696h471v-573q0 -55 25.5 -89t66.5 -34t66.5 34t25.5 89v573h471v-1065zM360 1174q-94 0 -154.5 57.5t-60.5 146.5t60.5 147t154.5 58t154.5 -58t60.5 -147t-60.5 -146.5t-154.5 -57.5zM934 1174
q-94 0 -154.5 57.5t-60.5 146.5t60.5 147t154.5 58t154.5 -58t60.5 -147t-60.5 -146.5t-154.5 -57.5z" />
    <glyph glyph-name="yacute" unicode="&#xfd;" horiz-adv-x="1345" 
d="M238 -451v318q30 -10 102 -10q41 0 59.5 1t47.5 6.5t44 17.5t30.5 35t25.5 58l-545 1090h512l205 -498l143 498h481l-399 -1126q-84 -235 -195.5 -333t-265.5 -98q-137 0 -245 41zM797 1188h-308l226 368h403z" />
    <glyph glyph-name="ydieresis" unicode="&#xff;" horiz-adv-x="1345" 
d="M238 -451v318q30 -10 102 -10q41 0 59.5 1t47.5 6.5t44 17.5t30.5 35t25.5 58l-545 1090h512l205 -498l143 498h481l-399 -1126q-84 -235 -195.5 -333t-265.5 -98q-137 0 -245 41zM387 1174q-94 0 -154.5 57.5t-60.5 146.5t60.5 147t154.5 58t154.5 -58t60.5 -147
t-60.5 -146.5t-154.5 -57.5zM961 1174q-94 0 -155 57.5t-61 146.5t61 147t155 58t154.5 -58t60.5 -147t-60.5 -146.5t-154.5 -57.5z" />
    <glyph glyph-name="Amacron" unicode="&#x100;" horiz-adv-x="1646" 
d="M946 553l-123 473l-123 -473h246zM1042 184h-438l-47 -184h-555l432 1475h778l433 -1475h-555zM442 1659v266h758v-266h-758z" />
    <glyph glyph-name="amacron" unicode="&#x101;" horiz-adv-x="1398" 
d="M678 369q63 0 103 46t40 117t-40 117.5t-103 46.5t-103 -46.5t-40 -117.5t40 -117t103 -46zM823 938v127h471v-1065h-471v127q-53 -80 -129.5 -124t-167.5 -44q-209 0 -336 157.5t-127 415.5t127 416t336 158q91 0 167.5 -44t129.5 -124zM260 1229v266h758v-266h-758z
" />
    <glyph glyph-name="Abreve" unicode="&#x102;" horiz-adv-x="1646" 
d="M946 553l-123 473l-123 -473h246zM1042 184h-438l-47 -184h-555l432 1475h778l433 -1475h-555zM903 1946h266q0 -148 -95.5 -238t-252.5 -90t-252.5 90t-95.5 238h266q0 -46 22.5 -74.5t59.5 -28.5t59.5 28.5t22.5 74.5z" />
    <glyph glyph-name="abreve" unicode="&#x103;" horiz-adv-x="1398" 
d="M678 369q63 0 103 46t40 117t-40 117.5t-103 46.5t-103 -46.5t-40 -117.5t40 -117t103 -46zM823 938v127h471v-1065h-471v127q-53 -80 -129.5 -124t-167.5 -44q-209 0 -336 157.5t-127 415.5t127 416t336 158q91 0 167.5 -44t129.5 -124zM721 1556h266
q0 -179 -82.5 -273.5t-265.5 -94.5t-265.5 94.5t-82.5 273.5h266q0 -64 22.5 -103.5t59.5 -39.5t59.5 39.5t22.5 103.5z" />
    <glyph glyph-name="Aogonek" unicode="&#x104;" horiz-adv-x="1699" 
d="M946 553l-123 473l-123 -473h246zM1395 0h-305l-48 184h-438l-47 -184h-555l432 1475h778l433 -1475h-9q-196 -75 -196 -197q0 -78 71.5 -129t186.5 -51v-194q-229 0 -370.5 87.5t-141.5 225.5q0 85 55.5 153t153.5 105z" />
    <glyph glyph-name="aogonek" unicode="&#x105;" horiz-adv-x="1447" 
d="M678 369q63 0 103 46t40 117t-40 117.5t-103 46.5t-103 -46.5t-40 -117.5t40 -117t103 -46zM1042 0h-219v127q-53 -80 -129.5 -124t-167.5 -44q-209 0 -336 157.5t-127 415.5t127 416t336 158q91 0 167.5 -44t129.5 -124v127h471v-1065h-10q-197 -74 -197 -197
q0 -78 72 -129t187 -51v-194q-229 0 -370.5 87.5t-141.5 225.5q0 86 55 153.5t153 104.5z" />
    <glyph glyph-name="Cacute" unicode="&#x106;" horiz-adv-x="1724" 
d="M899 399q98 0 174.5 62.5t95.5 159.5l494 -52q-9 -178 -112 -319.5t-278.5 -221t-389.5 -79.5q-234 0 -421.5 101t-293 281t-105.5 406t105.5 406t293 281.5t421.5 101.5q157 0 296 -46.5t241 -128.5t165 -197.5t72 -248.5l-490 -51q-17 97 -92.5 159t-173.5 62
q-138 0 -221.5 -93t-83.5 -245t84 -245t219 -93zM936 1946h405l-323 -328h-322z" />
    <glyph glyph-name="cacute" unicode="&#x107;" horiz-adv-x="1304" 
d="M674 1106q225 0 390 -130t187 -327l-430 -55q-10 54 -50 88.5t-91 34.5q-63 0 -104 -52.5t-41 -132.5t40.5 -132t104.5 -52q51 0 91 34.5t50 88.5l430 -51q-15 -131 -95.5 -236.5t-207 -165t-274.5 -59.5q-172 0 -311.5 73.5t-219.5 205t-80 294.5q0 249 173 411.5
t438 162.5zM696 1556h404l-322 -368h-307z" />
    <glyph glyph-name="Ccircumflex" unicode="&#x108;" horiz-adv-x="1724" 
d="M899 399q98 0 174.5 62.5t95.5 159.5l494 -52q-9 -178 -112 -319.5t-278.5 -221t-389.5 -79.5q-234 0 -421.5 101t-293 281t-105.5 406t105.5 406t293 281.5t421.5 101.5q157 0 296 -46.5t241 -128.5t165 -197.5t72 -248.5l-490 -51q-17 97 -92.5 159t-173.5 62
q-138 0 -221.5 -93t-83.5 -245t84 -245t219 -93zM760 1618h-287l184 328h451l184 -328h-286l-123 164z" />
    <glyph glyph-name="ccircumflex" unicode="&#x109;" horiz-adv-x="1304" 
d="M674 1106q225 0 390 -130t187 -327l-430 -55q-10 54 -50 88.5t-91 34.5q-63 0 -104 -52.5t-41 -132.5t40.5 -132t104.5 -52q51 0 91 34.5t50 88.5l430 -51q-15 -131 -95.5 -236.5t-207 -165t-274.5 -59.5q-172 0 -311.5 73.5t-219.5 205t-80 294.5q0 249 173 411.5
t438 162.5zM532 1188h-301l199 368h451l198 -368h-301l-123 205z" />
    <glyph glyph-name="Cdotaccent" unicode="&#x10a;" horiz-adv-x="1724" 
d="M899 399q98 0 174.5 62.5t95.5 159.5l494 -52q-9 -178 -112 -319.5t-278.5 -221t-389.5 -79.5q-234 0 -421.5 101t-293 281t-105.5 406t105.5 406t293 281.5t421.5 101.5q157 0 296 -46.5t241 -128.5t165 -197.5t72 -248.5l-490 -51q-17 97 -92.5 159t-173.5 62
q-138 0 -221.5 -93t-83.5 -245t84 -245t219 -93zM883 1618q-103 0 -169.5 63.5t-66.5 161.5t66.5 161.5t169.5 63.5t169 -63.5t66 -161.5t-66 -161.5t-169 -63.5z" />
    <glyph glyph-name="cdotaccent" unicode="&#x10b;" horiz-adv-x="1304" 
d="M674 1106q225 0 390 -130t187 -327l-430 -55q-10 54 -50 88.5t-91 34.5q-63 0 -104 -52.5t-41 -132.5t40.5 -132t104.5 -52q51 0 91 34.5t50 88.5l430 -51q-15 -131 -95.5 -236.5t-207 -165t-274.5 -59.5q-172 0 -311.5 73.5t-219.5 205t-80 294.5q0 249 173 411.5
t438 162.5zM653 1208q-101 0 -168 64t-67 162t66.5 161.5t168.5 63.5q104 0 170 -63t66 -162t-66 -162.5t-170 -63.5z" />
    <glyph glyph-name="Ccaron" unicode="&#x10c;" horiz-adv-x="1724" 
d="M899 399q98 0 174.5 62.5t95.5 159.5l494 -52q-9 -178 -112 -319.5t-278.5 -221t-389.5 -79.5q-234 0 -421.5 101t-293 281t-105.5 406t105.5 406t293 281.5t421.5 101.5q157 0 296 -46.5t241 -128.5t165 -197.5t72 -248.5l-490 -51q-17 97 -92.5 159t-173.5 62
q-138 0 -221.5 -93t-83.5 -245t84 -245t219 -93zM1006 1987h301l-199 -369h-451l-198 369h301l123 -205z" />
    <glyph glyph-name="ccaron" unicode="&#x10d;" horiz-adv-x="1304" 
d="M674 1106q225 0 390 -130t187 -327l-430 -55q-10 54 -50 88.5t-91 34.5q-63 0 -104 -52.5t-41 -132.5t40.5 -132t104.5 -52q51 0 91 34.5t50 88.5l430 -51q-15 -131 -95.5 -236.5t-207 -165t-274.5 -59.5q-172 0 -311.5 73.5t-219.5 205t-80 294.5q0 249 173 411.5
t438 162.5zM778 1556h301l-198 -368h-451l-199 368h301l123 -204z" />
    <glyph glyph-name="Dcaron" unicode="&#x10e;" horiz-adv-x="1681" 
d="M1087 737q0 157 -84.5 252.5t-222.5 95.5h-143v-696h143q138 0 222.5 95.5t84.5 252.5zM780 0h-655v1475h655q249 0 440 -92t295.5 -259.5t104.5 -386.5t-104.5 -386.5t-295.5 -259t-440 -91.5zM647 1987l123 -205l123 205h301l-199 -369h-450l-199 369h301z" />
    <glyph glyph-name="dcaron" unicode="&#x10f;" horiz-adv-x="1736" 
d="M678 696q-63 0 -103 -46.5t-40 -117.5t40 -117t103 -46t103 46t40 117t-40 117.5t-103 46.5zM63 532q0 258 124 416t327 158q173 0 287 -139v569h471v-1536h-471v94q-110 -135 -287 -135q-203 0 -327 157.5t-124 415.5zM1491 1147q-73 0 -118.5 54t-45.5 138
q0 89 52.5 143t138.5 54q98 0 158.5 -69t60.5 -181q0 -119 -56.5 -239.5t-142.5 -186.5l-190 41q62 51 102.5 120.5t40.5 125.5z" />
    <glyph glyph-name="Dcroat" unicode="&#x110;" horiz-adv-x="1722" 
d="M166 901v574h655q249 0 440 -92t295.5 -259.5t104.5 -386.5t-104.5 -386.5t-295.5 -259t-440 -91.5h-655v635h-164v266h164zM1128 737q0 157 -84.5 252.5t-222.5 95.5h-143v-184h143v-266h-143v-246h143q138 0 222.5 95.5t84.5 252.5z" />
    <glyph glyph-name="dcroat" unicode="&#x111;" horiz-adv-x="1394" 
d="M678 696q-63 0 -103 -46.5t-40 -117.5t40 -117t103 -46t103 46t40 117t-40 117.5t-103 46.5zM801 967v200h-246v226h246v143h471v-143h123v-226h-123v-1167h-471v94q-110 -135 -287 -135q-203 0 -327 157.5t-124 415.5t124 416t327 158q173 0 287 -139z" />
    <glyph glyph-name="Emacron" unicode="&#x112;" horiz-adv-x="1271" 
d="M637 573v-163h573v-410h-1085v1475h1065v-410h-553v-143h471v-349h-471zM1036 1925v-266h-757v266h757z" />
    <glyph glyph-name="emacron" unicode="&#x113;" horiz-adv-x="1335" 
d="M543 635h258q0 56 -37 99.5t-92 43.5q-103 0 -129 -143zM63 532q0 170 78.5 301t218 202t318.5 71q272 0 433 -158.5t161 -421.5q0 -89 -6 -116h-717q39 -123 149 -123q95 0 123 82l410 -52q-31 -156 -189 -257t-374 -101q-269 0 -437 158t-168 415zM299 1229v266h758
v-266h-758z" />
    <glyph glyph-name="Ebreve" unicode="&#x114;" horiz-adv-x="1271" 
d="M637 573v-163h573v-410h-1085v1475h1065v-410h-553v-143h471v-349h-471zM739 1946h267q0 -148 -96 -238t-253 -90t-252.5 90t-95.5 238h266q0 -46 22.5 -74.5t59.5 -28.5t59.5 28.5t22.5 74.5z" />
    <glyph glyph-name="ebreve" unicode="&#x115;" horiz-adv-x="1335" 
d="M543 635h258q0 56 -37 99.5t-92 43.5q-103 0 -129 -143zM63 532q0 170 78.5 301t218 202t318.5 71q272 0 433 -158.5t161 -421.5q0 -89 -6 -116h-717q39 -123 149 -123q95 0 123 82l410 -52q-31 -156 -189 -257t-374 -101q-269 0 -437 158t-168 415zM760 1556h266
q0 -179 -82.5 -273.5t-265.5 -94.5t-265.5 94.5t-82.5 273.5h266q0 -64 22.5 -103.5t59.5 -39.5t59.5 39.5t22.5 103.5z" />
    <glyph glyph-name="Edotaccent" unicode="&#x116;" horiz-adv-x="1271" 
d="M637 573v-163h573v-410h-1085v1475h1065v-410h-553v-143h471v-349h-471zM657 1618q-103 0 -169 63.5t-66 161.5t66 161.5t169 63.5t169.5 -63.5t66.5 -161.5t-66.5 -161.5t-169.5 -63.5z" />
    <glyph glyph-name="edotaccent" unicode="&#x117;" horiz-adv-x="1335" 
d="M543 635h258q0 56 -37 99.5t-92 43.5q-103 0 -129 -143zM63 532q0 170 78.5 301t218 202t318.5 71q272 0 433 -158.5t161 -421.5q0 -89 -6 -116h-717q39 -123 149 -123q95 0 123 82l410 -52q-31 -156 -189 -257t-374 -101q-269 0 -437 158t-168 415zM676 1208
q-102 0 -169 64t-67 162t67 161.5t169 63.5q104 0 169.5 -63t65.5 -162t-65.5 -162.5t-169.5 -63.5z" />
    <glyph glyph-name="Eogonek" unicode="&#x118;" horiz-adv-x="1271" 
d="M907 0h-782v1475h1065v-410h-553v-143h471v-349h-471v-163h573v-410h-61q-197 -76 -197 -197q0 -78 71.5 -129t186.5 -51v-194q-229 0 -370.5 87.5t-141.5 225.5q0 85 55.5 153t153.5 105z" />
    <glyph glyph-name="eogonek" unicode="&#x119;" horiz-adv-x="1335" 
d="M543 635h258q0 56 -37 99.5t-92 43.5q-103 0 -129 -143zM618 -39q-250 15 -402.5 170.5t-152.5 400.5q0 170 78.5 301t218 202t318.5 71q272 0 433 -158.5t161 -421.5q0 -89 -6 -116h-717q39 -123 149 -123q95 0 123 82l410 -52q-22 -105 -102.5 -188t-204.5 -127l18 -2
q-203 -75 -203 -199q0 -78 71.5 -129t186.5 -51v-194q-229 0 -370.5 87.5t-141.5 225.5q0 137 133 221z" />
    <glyph glyph-name="Ecaron" unicode="&#x11a;" horiz-adv-x="1271" 
d="M637 573v-163h573v-410h-1085v1475h1065v-410h-553v-143h471v-349h-471zM780 1987h301l-198 -369h-451l-199 369h302l122 -205z" />
    <glyph glyph-name="ecaron" unicode="&#x11b;" horiz-adv-x="1335" 
d="M543 635h258q0 56 -37 99.5t-92 43.5q-103 0 -129 -143zM63 532q0 170 78.5 301t218 202t318.5 71q272 0 433 -158.5t161 -421.5q0 -89 -6 -116h-717q39 -123 149 -123q95 0 123 82l410 -52q-31 -156 -189 -257t-374 -101q-269 0 -437 158t-168 415zM555 1556l123 -204
l123 204h301l-199 -368h-450l-199 368h301z" />
    <glyph glyph-name="Gcircumflex" unicode="&#x11c;" horiz-adv-x="1763" 
d="M924 399q103 0 179.5 49.5t86.5 124.5h-307v287h813q22 -195 -26.5 -364.5t-153 -289.5t-263 -188.5t-350.5 -68.5q-240 0 -432 101t-300 281t-108 406t108 406t300 281.5t432 101.5q282 0 483.5 -145.5t247.5 -376.5l-489 -82q-20 68 -88.5 110.5t-157.5 42.5
q-132 0 -217.5 -95t-85.5 -243t92 -243t236 -95zM780 1618h-286l184 328h450l185 -328h-287l-123 164z" />
    <glyph glyph-name="gcircumflex" unicode="&#x11d;" horiz-adv-x="1376" 
d="M678 369q63 0 103 46t40 117t-40 117.5t-103 46.5t-103 -46.5t-40 -117.5t40 -117t103 -46zM655 -164q65 0 105.5 50.5t40.5 133.5v107q-114 -127 -291 -127q-195 0 -321 147.5t-126 384.5q0 256 126 415t321 159q179 0 291 -137v96h471v-1065q0 -230 -163.5 -371
t-430.5 -141q-156 0 -284.5 55t-205.5 153.5t-86 221.5l406 41q9 -54 51 -88.5t96 -34.5zM791 1188l-123 205l-123 -205h-301l198 368h451l199 -368h-301z" />
    <glyph glyph-name="Gbreve" unicode="&#x11e;" horiz-adv-x="1763" 
d="M924 399q103 0 179.5 49.5t86.5 124.5h-307v287h813q22 -195 -26.5 -364.5t-153 -289.5t-263 -188.5t-350.5 -68.5q-240 0 -432 101t-300 281t-108 406t108 406t300 281.5t432 101.5q282 0 483.5 -145.5t247.5 -376.5l-489 -82q-20 68 -88.5 110.5t-157.5 42.5
q-132 0 -217.5 -95t-85.5 -243t92 -243t236 -95zM985 1946h266q0 -148 -95.5 -238t-252.5 -90t-252.5 90t-95.5 238h266q0 -46 22.5 -74.5t59.5 -28.5t59.5 28.5t22.5 74.5z" />
    <glyph glyph-name="gbreve" unicode="&#x11f;" horiz-adv-x="1376" 
d="M678 369q63 0 103 46t40 117t-40 117.5t-103 46.5t-103 -46.5t-40 -117.5t40 -117t103 -46zM655 -164q65 0 105.5 50.5t40.5 133.5v107q-114 -127 -291 -127q-195 0 -321 147.5t-126 384.5q0 256 126 415t321 159q179 0 291 -137v96h471v-1065q0 -230 -163.5 -371
t-430.5 -141q-156 0 -284.5 55t-205.5 153.5t-86 221.5l406 41q9 -54 51 -88.5t96 -34.5zM750 1556h266q0 -179 -82.5 -273.5t-265.5 -94.5t-266 94.5t-83 273.5h267q0 -64 22.5 -103.5t59.5 -39.5t59.5 39.5t22.5 103.5z" />
    <glyph glyph-name="Gdotaccent" unicode="&#x120;" horiz-adv-x="1763" 
d="M924 399q103 0 179.5 49.5t86.5 124.5h-307v287h813q22 -195 -26.5 -364.5t-153 -289.5t-263 -188.5t-350.5 -68.5q-240 0 -432 101t-300 281t-108 406t108 406t300 281.5t432 101.5q282 0 483.5 -145.5t247.5 -376.5l-489 -82q-20 68 -88.5 110.5t-157.5 42.5
q-132 0 -217.5 -95t-85.5 -243t92 -243t236 -95zM903 1618q-103 0 -169 63.5t-66 161.5t66 161.5t169 63.5t169.5 -63.5t66.5 -161.5t-66.5 -161.5t-169.5 -63.5z" />
    <glyph glyph-name="gdotaccent" unicode="&#x121;" horiz-adv-x="1376" 
d="M678 369q63 0 103 46t40 117t-40 117.5t-103 46.5t-103 -46.5t-40 -117.5t40 -117t103 -46zM655 -164q65 0 105.5 50.5t40.5 133.5v107q-114 -127 -291 -127q-195 0 -321 147.5t-126 384.5q0 256 126 415t321 159q179 0 291 -137v96h471v-1065q0 -230 -163.5 -371
t-430.5 -141q-156 0 -284.5 55t-205.5 153.5t-86 221.5l406 41q9 -54 51 -88.5t96 -34.5zM666 1208q-102 0 -169 64t-67 162t67 161.5t169 63.5q104 0 169.5 -63t65.5 -162t-65.5 -162.5t-169.5 -63.5z" />
    <glyph glyph-name="Gcommaaccent" unicode="&#x122;" horiz-adv-x="1763" 
d="M924 399q103 0 179.5 49.5t86.5 124.5h-307v287h813q22 -195 -26.5 -364.5t-153 -289.5t-263 -188.5t-350.5 -68.5q-240 0 -432 101t-300 281t-108 406t108 406t300 281.5t432 101.5q282 0 483.5 -145.5t247.5 -376.5l-489 -82q-20 68 -88.5 110.5t-157.5 42.5
q-132 0 -217.5 -95t-85.5 -243t92 -243t236 -95zM877 -532q-73 0 -118.5 54t-45.5 138q0 89 52 143t138 54q98 0 158.5 -69t60.5 -181q0 -119 -56 -239.5t-142 -186.5l-191 41q62 52 103 121t41 125z" />
    <glyph glyph-name="gcommaaccent" unicode="&#x123;" horiz-adv-x="1376" 
d="M678 369q63 0 103 46t40 117t-40 117.5t-103 46.5t-103 -46.5t-40 -117.5t40 -117t103 -46zM655 -164q65 0 105.5 50.5t40.5 133.5v107q-114 -127 -291 -127q-195 0 -321 147.5t-126 384.5q0 256 126 415t321 159q179 0 291 -137v96h471v-1065q0 -230 -163.5 -371
t-430.5 -141q-156 0 -284.5 55t-205.5 153.5t-86 221.5l406 41q9 -54 51 -88.5t96 -34.5zM682 1556q73 0 118.5 -54t45.5 -138q0 -89 -52.5 -143t-138.5 -54q-98 0 -158.5 69t-60.5 181q0 119 55.5 239.5t141.5 186.5l192 -41q-63 -51 -103 -120t-40 -126z" />
    <glyph glyph-name="Itilde" unicode="&#x128;" horiz-adv-x="761" 
d="M125 0v1475h532v-1475h-532zM133 1686l-213 106q31 98 118 167t187 69q63 0 123.5 -26t106 -51.5t71.5 -25.5q28 0 56 21t45 55l215 -107q-31 -97 -123.5 -166t-196.5 -69q-52 0 -101.5 16t-81 35t-64 35t-54.5 16q-50 0 -88 -75z" />
    <glyph glyph-name="itilde" unicode="&#x129;" horiz-adv-x="679" 
d="M565 0h-471v1065h471v-1065zM92 1235l-213 106q31 98 118 167t187 69q49 0 98.5 -16t81.5 -35t65.5 -35t55.5 -16q28 0 56 20.5t45 54.5l215 -106q-31 -97 -123.5 -166.5t-196.5 -69.5q-66 0 -126.5 26t-104.5 51.5t-70 25.5q-49 0 -88 -76z" />
    <glyph glyph-name="Imacron" unicode="&#x12a;" horiz-adv-x="782" 
d="M125 1475h532v-1475h-532v1475zM770 1925v-266h-758v266h758z" />
    <glyph glyph-name="imacron" unicode="&#x12b;" horiz-adv-x="720" 
d="M125 1065h471v-1065h-471v1065zM739 1495v-266h-757v266h757z" />
    <glyph glyph-name="Iogonek" unicode="&#x12e;" horiz-adv-x="835" 
d="M410 0h-285v1475h532v-1475h-6q-198 -75 -198 -197q0 -78 71.5 -129t186.5 -51v-194q-229 0 -370.5 87.5t-141.5 225.5q0 85 56.5 153t154.5 105z" />
    <glyph glyph-name="iogonek" unicode="&#x12f;" horiz-adv-x="753" 
d="M346 0h-221v1065h471v-1065h-8q-197 -76 -197 -197q0 -78 71.5 -129t186.5 -51v-194q-229 0 -370.5 87.5t-141.5 225.5q0 85 55.5 153t153.5 105zM360 1147q-111 0 -183.5 69.5t-72.5 176.5t72.5 176t183.5 69q112 0 184 -69t72 -176t-72 -176.5t-184 -69.5z" />
    <glyph glyph-name="Idotaccent" unicode="&#x130;" horiz-adv-x="782" 
d="M125 1475h532v-1475h-532v1475zM391 1618q-103 0 -169 63.5t-66 161.5t66 161.5t169 63.5t169.5 -63.5t66.5 -161.5t-66.5 -161.5t-169.5 -63.5z" />
    <glyph glyph-name="dotlessi" unicode="&#x131;" horiz-adv-x="679" 
d="M104 1065h471v-1065h-471v1065z" />
    <glyph glyph-name="IJ" unicode="&#x132;" horiz-adv-x="1806" 
d="M125 0v1475h532v-1475h-532zM1151 573v902h532v-983q0 -237 -156.5 -385t-400.5 -148q-195 0 -323 41v389q72 -20 164 -20q83 0 133.5 56t50.5 148z" />
    <glyph glyph-name="ij" unicode="&#x133;" horiz-adv-x="1417" 
d="M125 0v1065h471v-1065h-471zM823 20v1045h471v-1106q0 -203 -119.5 -327t-314.5 -124q-154 0 -282 41v359q48 -10 112 -10q60 0 96.5 33.5t36.5 88.5zM360 1147q-111 0 -183.5 69.5t-72.5 176.5t72.5 176t183.5 69q112 0 184 -69t72 -176t-72 -176.5t-184 -69.5z
M1059 1147q-111 0 -183.5 69.5t-72.5 176.5t72.5 176t183.5 69q112 0 184 -69t72 -176t-72 -176.5t-184 -69.5z" />
    <glyph glyph-name="Kcommaaccent" unicode="&#x136;" horiz-adv-x="1628" 
d="M657 0h-532v1475h532v-545l349 545h620l-498 -697l498 -778h-620l-349 604v-604zM795 -532q-73 0 -118.5 54t-45.5 138q0 89 52 143t138 54q98 0 158.5 -69t60.5 -181q0 -119 -56 -239.5t-142 -186.5l-191 41q62 52 103 121t41 125z" />
    <glyph glyph-name="kcommaaccent" unicode="&#x137;" horiz-adv-x="1386" 
d="M104 0v1536h471v-834l267 363h540l-397 -512l401 -553h-544l-267 401v-401h-471zM662 -532q-73 0 -118.5 54t-45.5 138q0 89 52 143t138 54q98 0 158.5 -69t60.5 -181q0 -119 -56 -239.5t-142 -186.5l-191 41q62 52 103 121t41 125z" />
    <glyph glyph-name="Lacute" unicode="&#x139;" horiz-adv-x="1189" 
d="M1128 0h-1003v1475h532v-1024h471v-451zM432 1946h406l-324 -328h-319z" />
    <glyph glyph-name="lacute" unicode="&#x13a;" horiz-adv-x="878" 
d="M104 1536h471v-1536h-471v1536zM371 1966h403l-321 -369h-308z" />
    <glyph glyph-name="Lcommaaccent" unicode="&#x13b;" horiz-adv-x="1189" 
d="M657 451h471v-451h-1003v1475h532v-1024zM590 -532q-73 0 -118.5 54t-45.5 138q0 89 52 143t138 54q98 0 159 -69t61 -181q0 -119 -56.5 -239.5t-142.5 -186.5l-191 41q62 52 103 121t41 125z" />
    <glyph glyph-name="lcommaaccent" unicode="&#x13c;" horiz-adv-x="679" 
d="M104 0v1536h471v-1536h-471zM301 -532q-73 0 -118.5 54t-45.5 138q0 89 52.5 143t138.5 54q98 0 158.5 -69t60.5 -181q0 -119 -56.5 -239.5t-142.5 -186.5l-190 41q62 51 102.5 120.5t40.5 125.5z" />
    <glyph glyph-name="Lcaron" unicode="&#x13d;" horiz-adv-x="1204" 
d="M1128 0h-1003v1475h532v-1024h471v-451zM897 1147q-73 0 -118.5 54t-45.5 138q0 89 52.5 143t138.5 54q98 0 158.5 -69t60.5 -181q0 -119 -56.5 -239.5t-142.5 -186.5l-190 41q62 51 102.5 120.5t40.5 125.5z" />
    <glyph glyph-name="lcaron" unicode="&#x13e;" horiz-adv-x="1067" 
d="M104 1536h471v-1536h-471v1536zM821 1147q-73 0 -118.5 54t-45.5 138q0 89 52.5 143t138.5 54q98 0 158.5 -69t60.5 -181q0 -119 -56.5 -239.5t-142.5 -186.5l-190 41q62 51 102.5 120.5t40.5 125.5z" />
    <glyph glyph-name="Lslash" unicode="&#x141;" horiz-adv-x="1067" 
d="M2 635l205 129v711h532v-375l430 272v-383l-430 -272v-266h471v-451h-1003v381l-205 -129v383z" />
    <glyph glyph-name="lslash" unicode="&#x142;" horiz-adv-x="1044" 
d="M1004 907l-246 -157v-750h-471v451l-246 -158v383l246 158v702h471v-403l246 157v-383z" />
    <glyph glyph-name="Nacute" unicode="&#x143;" horiz-adv-x="1703" 
d="M657 1475l430 -834v834h492v-1475h-532l-431 829v-829h-491v1475h532zM909 1946h406l-324 -328h-321z" />
    <glyph glyph-name="nacute" unicode="&#x144;" 
d="M104 1065h451v-160q130 201 328 201q151 0 249.5 -116t98.5 -294v-696h-471v573q0 55 -25.5 89t-66.5 34t-67 -34t-26 -89v-573h-471v1065zM770 1556h404l-322 -368h-307z" />
    <glyph glyph-name="Ncommaaccent" unicode="&#x145;" horiz-adv-x="1703" 
d="M125 1475h532l430 -834v834h492v-1475h-532l-431 829v-829h-491v1475zM825 -532q-73 0 -118 54t-45 138q0 89 52 143t138 54q98 0 158.5 -69t60.5 -181q0 -119 -55.5 -239.5t-141.5 -186.5l-192 41q63 51 103 120t40 126z" />
    <glyph glyph-name="ncommaaccent" unicode="&#x146;" 
d="M104 1065h451v-160q130 201 328 201q151 0 249.5 -116t98.5 -294v-696h-471v573q0 55 -25.5 89t-66.5 34t-67 -34t-26 -89v-573h-471v1065zM637 -532q-73 0 -118.5 54t-45.5 138q0 89 52.5 143t138.5 54q98 0 158.5 -69t60.5 -181q0 -119 -56.5 -239.5t-142.5 -186.5
l-190 41q62 51 102.5 120.5t40.5 125.5z" />
    <glyph glyph-name="Ncaron" unicode="&#x147;" horiz-adv-x="1703" 
d="M657 1475l430 -834v834h492v-1475h-532l-431 829v-829h-491v1475h532zM979 1987h301l-199 -369h-450l-199 369h301l123 -205z" />
    <glyph glyph-name="ncaron" unicode="&#x148;" 
d="M104 1065h451v-160q130 201 328 201q151 0 249.5 -116t98.5 -294v-696h-471v573q0 55 -25.5 89t-66.5 34t-67 -34t-26 -89v-573h-471v1065zM852 1556h301l-199 -368h-450l-199 368h301l123 -204z" />
    <glyph glyph-name="Omacron" unicode="&#x14c;" horiz-adv-x="1804" 
d="M903 -51q-249 0 -440 98t-295.5 277t-104.5 413t104.5 413.5t295.5 277.5t440 98t440 -98t295.5 -277.5t104.5 -413.5t-104.5 -413t-295.5 -277t-440 -98zM903 1075q-138 0 -222.5 -93t-84.5 -245t84.5 -245t222.5 -93t222.5 93t84.5 245t-84.5 245t-222.5 93zM1282 1925
v-266h-758v266h758z" />
    <glyph glyph-name="omacron" unicode="&#x14d;" horiz-adv-x="1355" 
d="M678 1106q277 0 445.5 -158t168.5 -416t-168.5 -415.5t-445.5 -157.5t-446 157.5t-169 415.5t169 416t446 158zM678 369q64 0 103.5 44.5t39.5 118.5t-39.5 119t-103.5 45t-103.5 -45t-39.5 -119t39.5 -118.5t103.5 -44.5zM1057 1495v-266h-758v266h758z" />
    <glyph glyph-name="Obreve" unicode="&#x14e;" horiz-adv-x="1804" 
d="M903 1075q-138 0 -222.5 -93t-84.5 -245t84.5 -245t222.5 -93t222.5 93t84.5 245t-84.5 245t-222.5 93zM903 -51q-249 0 -440 98t-295.5 277t-104.5 413t104.5 413.5t295.5 277.5t440 98t440 -98t295.5 -277.5t104.5 -413.5t-104.5 -413t-295.5 -277t-440 -98zM985 1946
h266q0 -148 -95.5 -238t-252.5 -90t-252.5 90t-95.5 238h266q0 -46 22.5 -74.5t59.5 -28.5t59.5 28.5t22.5 74.5z" />
    <glyph glyph-name="obreve" unicode="&#x14f;" horiz-adv-x="1355" 
d="M678 369q64 0 103.5 44.5t39.5 118.5t-39.5 119t-103.5 45t-103.5 -45t-39.5 -119t39.5 -118.5t103.5 -44.5zM678 1106q277 0 445.5 -158t168.5 -416t-168.5 -415.5t-445.5 -157.5t-446 157.5t-169 415.5t169 416t446 158zM760 1556h266q0 -179 -82.5 -273.5
t-265.5 -94.5t-265.5 94.5t-82.5 273.5h266q0 -64 22.5 -103.5t59.5 -39.5t59.5 39.5t22.5 103.5z" />
    <glyph glyph-name="Ohungarumlaut" unicode="&#x150;" horiz-adv-x="1804" 
d="M903 -51q-249 0 -440 98t-295.5 277t-104.5 413t104.5 413.5t295.5 277.5t440 98t440 -98t295.5 -277.5t104.5 -413.5t-104.5 -413t-295.5 -277t-440 -98zM903 1075q-138 0 -222.5 -93t-84.5 -245t84.5 -245t222.5 -93t222.5 93t84.5 245t-84.5 245t-222.5 93zM723 1946
h389l-266 -328h-311zM1194 1946h389l-307 -328h-311z" />
    <glyph glyph-name="ohungarumlaut" unicode="&#x151;" horiz-adv-x="1351" 
d="M676 1106q277 0 445.5 -158t168.5 -416t-168.5 -415.5t-445.5 -157.5t-446 157.5t-169 415.5t169 416t446 158zM676 369q64 0 103.5 44.5t39.5 118.5t-39.5 119t-103.5 45q-65 0 -104.5 -45.5t-39.5 -118.5t39.5 -118t104.5 -45zM477 1556h404l-281 -368h-293zM948 1556
h424l-342 -368h-307z" />
    <glyph glyph-name="OE" unicode="&#x152;" horiz-adv-x="2131" 
d="M1067 473v528q-77 74 -184 74q-125 0 -206 -95.5t-81 -242.5t81 -242.5t206 -95.5q107 0 184 74zM63 737q0 238 86 414.5t258 275.5t414 99q125 0 246 -51h983v-410h-471v-143h389v-349h-389v-163h492v-410h-1000q-119 -51 -250 -51q-242 0 -414 99t-258 275t-86 414z
" />
    <glyph glyph-name="oe" unicode="&#x153;" horiz-adv-x="2095" 
d="M678 369q64 0 103.5 44.5t39.5 118.5t-39.5 119t-103.5 45t-103.5 -45t-39.5 -119t39.5 -118.5t103.5 -44.5zM1303 635h258q0 56 -37 99.5t-92 43.5q-103 0 -129 -143zM1059 102q-127 -143 -381 -143q-277 0 -446 157.5t-169 415.5t169 416t446 158q254 0 383 -145
q136 145 397 145q258 0 416 -159.5t158 -420.5q0 -84 -7 -116h-716q39 -123 147 -123q45 0 78 22.5t49 59.5l385 -78q-37 -145 -184 -238.5t-336 -93.5q-258 0 -389 143z" />
    <glyph glyph-name="Racute" unicode="&#x154;" horiz-adv-x="1648" 
d="M801 1106h-144v-328h144q87 0 146 44.5t59 119.5t-59 119.5t-146 44.5zM780 451h-123v-451h-532v1475h784q284 0 456.5 -146t172.5 -387q0 -147 -75.5 -256.5t-211.5 -169.5l336 -516h-581zM936 1618h-322l240 328h406z" />
    <glyph glyph-name="racute" unicode="&#x155;" horiz-adv-x="991" 
d="M104 1065h451v-135q41 79 117 127.5t159 48.5q58 0 113 -25v-415q-107 47 -196 47q-77 0 -125 -50t-48 -131v-532h-471v1065zM565 1556h404l-322 -368h-307z" />
    <glyph glyph-name="Rcommaaccent" unicode="&#x156;" horiz-adv-x="1648" 
d="M801 1106h-144v-328h144q87 0 146 44.5t59 119.5t-59 119.5t-146 44.5zM780 451h-123v-451h-532v1475h784q284 0 456.5 -146t172.5 -387q0 -147 -75.5 -256.5t-211.5 -169.5l336 -516h-581zM793 -532q-73 0 -118.5 54t-45.5 138q0 89 52 143t138 54q98 0 158.5 -69
t60.5 -181q0 -120 -55 -240.5t-141 -187.5l-193 43q63 49 103.5 119t40.5 127z" />
    <glyph glyph-name="rcommaaccent" unicode="&#x157;" horiz-adv-x="964" 
d="M575 0h-471v1065h451v-135q41 79 117 127.5t159 48.5q58 0 113 -25v-415q-107 47 -196 47q-77 0 -125 -50t-48 -131v-532zM313 -532q-73 0 -118 54t-45 138q0 89 52 143t138 54q98 0 158.5 -69t60.5 -181q0 -119 -56.5 -239.5t-142.5 -186.5l-190 41q62 51 102.5 120.5
t40.5 125.5z" />
    <glyph glyph-name="Rcaron" unicode="&#x158;" horiz-adv-x="1648" 
d="M801 1106h-144v-328h144q87 0 146 44.5t59 119.5t-59 119.5t-146 44.5zM780 451h-123v-451h-532v1475h784q284 0 456.5 -146t172.5 -387q0 -147 -75.5 -256.5t-211.5 -169.5l336 -516h-581zM678 1987l123 -205l123 205h301l-199 -369h-451l-198 369h301z" />
    <glyph glyph-name="rcaron" unicode="&#x159;" horiz-adv-x="964" 
d="M104 1065h451v-135q41 79 117 127.5t159 48.5q58 0 113 -25v-415q-107 47 -196 47q-77 0 -125 -50t-48 -131v-532h-471v1065zM647 1556h301l-198 -368h-451l-199 368h301l123 -204z" />
    <glyph glyph-name="Sacute" unicode="&#x15a;" horiz-adv-x="1497" 
d="M1425 492q0 -160 -89.5 -284.5t-248 -191.5t-358.5 -67q-189 0 -339.5 69.5t-235 192.5t-84.5 278h454q0 -74 64.5 -123t159.5 -49q72 0 118.5 29.5t46.5 73.5q0 24 -13 41.5t-31 28t-54 18.5t-63 11.5t-78 8.5q-104 12 -184.5 29t-162 52.5t-134.5 85t-86 128.5t-33 181
q0 234 183.5 378t471.5 144q189 0 340 -67t235.5 -185.5t84.5 -267.5h-435q0 66 -58.5 108.5t-147.5 42.5q-69 0 -115.5 -26t-46.5 -66q0 -14 4 -26t15 -21t20.5 -15.5t30.5 -12.5t34.5 -9t42.5 -7t45 -5.5t51 -5.5q83 -8 151 -20.5t138.5 -35.5t123.5 -58t95.5 -83.5
t65 -118t22.5 -155.5zM782 1946h406l-324 -328h-321z" />
    <glyph glyph-name="sacute" unicode="&#x15b;" horiz-adv-x="1232" 
d="M1159 371q0 -187 -158 -304.5t-415 -117.5q-224 0 -369 111.5t-145 283.5h370q0 -47 43.5 -77.5t110.5 -30.5q50 0 81.5 20.5t31.5 52.5q0 36 -43 54t-160 24q-73 3 -130 12t-116 31t-98 57t-63.5 93.5t-24.5 136.5q0 173 144.5 286t367.5 113q227 0 374.5 -106.5
t147.5 -270.5h-389q-1 40 -38 65t-93 25q-46 0 -75.5 -17.5t-29.5 -45.5q0 -21 17.5 -36t45.5 -22t46.5 -10t36.5 -4q60 -5 105.5 -10.5t104 -17t101 -26.5t86 -39.5t71 -55.5t45 -75.5t17.5 -98.5zM649 1556h404l-322 -368h-309z" />
    <glyph glyph-name="Scircumflex" unicode="&#x15c;" horiz-adv-x="1497" 
d="M1425 492q0 -160 -89.5 -284.5t-248 -191.5t-358.5 -67q-189 0 -339.5 69.5t-235 192.5t-84.5 278h454q0 -74 64.5 -123t159.5 -49q72 0 118.5 29.5t46.5 73.5q0 24 -13 41.5t-31 28t-54 18.5t-63 11.5t-78 8.5q-104 12 -184.5 29t-162 52.5t-134.5 85t-86 128.5t-33 181
q0 234 183.5 378t471.5 144q189 0 340 -67t235.5 -185.5t84.5 -267.5h-435q0 66 -58.5 108.5t-147.5 42.5q-69 0 -115.5 -26t-46.5 -66q0 -14 4 -26t15 -21t20.5 -15.5t30.5 -12.5t34.5 -9t42.5 -7t45 -5.5t51 -5.5q83 -8 151 -20.5t138.5 -35.5t123.5 -58t95.5 -83.5
t65 -118t22.5 -155.5zM606 1618h-287l185 328h450l185 -328h-287l-123 164z" />
    <glyph glyph-name="scircumflex" unicode="&#x15d;" horiz-adv-x="1232" 
d="M1159 371q0 -187 -158 -304.5t-415 -117.5q-224 0 -369 111.5t-145 283.5h370q0 -47 43.5 -77.5t110.5 -30.5q50 0 81.5 20.5t31.5 52.5q0 36 -43 54t-160 24q-73 3 -130 12t-116 31t-98 57t-63.5 93.5t-24.5 136.5q0 173 144.5 286t367.5 113q227 0 374.5 -106.5
t147.5 -270.5h-389q-1 40 -38 65t-93 25q-46 0 -75.5 -17.5t-29.5 -45.5q0 -21 17.5 -36t45.5 -22t46.5 -10t36.5 -4q60 -5 105.5 -10.5t104 -17t101 -26.5t86 -39.5t71 -55.5t45 -75.5t17.5 -98.5zM483 1188h-301l199 368h450l199 -368h-301l-123 205z" />
    <glyph glyph-name="Scedilla" unicode="&#x15e;" horiz-adv-x="1497" 
d="M647 -266h-102l41 225q-231 37 -373.5 181.5t-142.5 348.5h454q0 -74 64.5 -123t159.5 -49q72 0 118.5 29.5t46.5 73.5q0 24 -13 41.5t-31 28t-54 18.5t-63 11.5t-78 8.5q-104 12 -184.5 29t-162 52.5t-134.5 85t-86 128.5t-33 181q0 234 183.5 378t471.5 144
q189 0 340 -67t235.5 -185.5t84.5 -267.5h-435q0 66 -58.5 108.5t-147.5 42.5q-69 0 -115.5 -26t-46.5 -66q0 -14 4 -26t15 -21t20.5 -15.5t30.5 -12.5t34.5 -9t42.5 -7t45 -5.5t51 -5.5q83 -8 151 -20.5t138.5 -35.5t123.5 -58t95.5 -83.5t65 -118t22.5 -155.5
q0 -225 -170.5 -372t-443.5 -167l-20 -117q91 0 145.5 -51.5t54.5 -136.5q0 -91 -77 -146t-203 -55q-75 0 -137.5 34t-90.5 89l103 102q13 -28 40 -44.5t58 -16.5t48.5 16.5t17.5 44.5t-28.5 45t-74.5 17z" />
    <glyph glyph-name="scedilla" unicode="&#x15f;" horiz-adv-x="1232" 
d="M565 -266h-102l41 219q-193 20 -312.5 127.5t-119.5 263.5h370q0 -47 43.5 -77.5t110.5 -30.5q50 0 81.5 20.5t31.5 52.5q0 36 -43 54t-160 24q-73 3 -130 12t-116 31t-98 57t-63.5 93.5t-24.5 136.5q0 173 144.5 286t367.5 113q227 0 374.5 -106.5t147.5 -270.5h-389
q-1 40 -38 65t-93 25q-46 0 -75.5 -17.5t-29.5 -45.5q0 -21 17.5 -36t45.5 -22t46.5 -10t36.5 -4q60 -5 105.5 -10.5t104 -17t101 -26.5t86 -39.5t71 -55.5t45 -75.5t17.5 -98.5q0 -158 -115.5 -269t-312.5 -143l-22 -123q91 0 145.5 -51.5t54.5 -136.5q0 -91 -77 -146
t-203 -55q-75 0 -137.5 34t-90.5 89l103 102q13 -28 40 -44.5t58 -16.5t48.5 16.5t17.5 44.5t-28.5 45t-74.5 17z" />
    <glyph glyph-name="Scaron" unicode="&#x160;" horiz-adv-x="1497" 
d="M1425 492q0 -160 -89.5 -284.5t-248 -191.5t-358.5 -67q-189 0 -339.5 69.5t-235 192.5t-84.5 278h454q0 -74 64.5 -123t159.5 -49q72 0 118.5 29.5t46.5 73.5q0 24 -13 41.5t-31 28t-54 18.5t-63 11.5t-78 8.5q-104 12 -184.5 29t-162 52.5t-134.5 85t-86 128.5t-33 181
q0 234 183.5 378t471.5 144q189 0 340 -67t235.5 -185.5t84.5 -267.5h-435q0 66 -58.5 108.5t-147.5 42.5q-69 0 -115.5 -26t-46.5 -66q0 -14 4 -26t15 -21t20.5 -15.5t30.5 -12.5t34.5 -9t42.5 -7t45 -5.5t51 -5.5q83 -8 151 -20.5t138.5 -35.5t123.5 -58t95.5 -83.5
t65 -118t22.5 -155.5zM852 1987h301l-199 -369h-450l-199 369h301l123 -205z" />
    <glyph glyph-name="scaron" unicode="&#x161;" horiz-adv-x="1232" 
d="M1159 371q0 -187 -158 -304.5t-415 -117.5q-224 0 -369 111.5t-145 283.5h370q0 -47 43.5 -77.5t110.5 -30.5q50 0 81.5 20.5t31.5 52.5q0 36 -43 54t-160 24q-73 3 -130 12t-116 31t-98 57t-63.5 93.5t-24.5 136.5q0 173 144.5 286t367.5 113q227 0 374.5 -106.5
t147.5 -270.5h-389q-1 40 -38 65t-93 25q-46 0 -75.5 -17.5t-29.5 -45.5q0 -21 17.5 -36t45.5 -22t46.5 -10t36.5 -4q60 -5 105.5 -10.5t104 -17t101 -26.5t86 -39.5t71 -55.5t45 -75.5t17.5 -98.5zM688 1556h301l-198 -368h-451l-199 368h301l123 -204z" />
    <glyph glyph-name="Tcommaaccent" unicode="&#x162;" horiz-adv-x="1355" 
d="M412 0v1044h-389v431h1310v-431h-389v-1044h-532zM647 -532q-73 0 -118.5 54t-45.5 138q0 89 52.5 143t138.5 54q98 0 158.5 -69t60.5 -181q0 -119 -56 -239.5t-141 -186.5l-192 41q63 51 103 120t40 126z" />
    <glyph glyph-name="tcommaaccent" unicode="&#x163;" horiz-adv-x="905" 
d="M166 430v287h-123v348h143l41 287h410v-287h205v-348h-205v-225q0 -56 31 -89.5t82 -33.5q44 0 92 10v-379q-128 -41 -262 -41q-184 0 -299 133t-115 338zM496 -532q-73 0 -118.5 54t-45.5 138q0 89 52 143t138 54q98 0 158.5 -69t60.5 -181q0 -119 -56 -239.5
t-142 -186.5l-191 41q62 52 103 121t41 125z" />
    <glyph glyph-name="Tcaron" unicode="&#x164;" horiz-adv-x="1355" 
d="M412 0v1044h-389v431h1310v-431h-389v-1044h-532zM801 1987h301l-199 -369h-450l-199 369h301l123 -205z" />
    <glyph glyph-name="tcaron" unicode="&#x165;" horiz-adv-x="1062" 
d="M166 430v287h-123v348h143l41 287h410v-287h205v-348h-205v-225q0 -56 31 -89.5t82 -33.5q44 0 92 10v-379q-128 -41 -262 -41q-184 0 -299 133t-115 338zM817 1434q-73 0 -118.5 54t-45.5 138q0 89 52.5 143t138.5 54q98 0 158.5 -69t60.5 -181q0 -119 -56.5 -239.5
t-142.5 -186.5l-190 41q62 51 102.5 120.5t40.5 125.5z" />
    <glyph glyph-name="Utilde" unicode="&#x168;" horiz-adv-x="1662" 
d="M1026 645v830h533v-850q0 -304 -200.5 -490t-527.5 -186t-527 186t-200 490v850h533v-830q0 -97 48.5 -168t145.5 -78q88 0 141.5 68t53.5 178zM573 1686l-213 106q31 98 118.5 167t187.5 69q63 0 123.5 -26t106 -51.5t71.5 -25.5q28 0 55.5 21t44.5 55l215 -107
q-31 -97 -123 -166t-196 -69q-52 0 -101.5 16t-81 35t-64 35t-54.5 16q-51 0 -89 -75z" />
    <glyph glyph-name="utilde" unicode="&#x169;" 
d="M1210 1065v-1065h-450v160q-130 -201 -328 -201q-151 0 -249.5 116t-98.5 294v696h471v-573q0 -55 25.5 -89t66.5 -34t66.5 34t25.5 89v573h471zM410 1235l-213 106q31 98 118 167t187 69q49 0 98.5 -16t81.5 -35t65.5 -35t55.5 -16q28 0 55.5 20.5t44.5 54.5l215 -106
q-31 -97 -123 -166.5t-196 -69.5q-66 0 -126.5 26t-104.5 51.5t-70 25.5q-49 0 -88 -76z" />
    <glyph glyph-name="Umacron" unicode="&#x16a;" horiz-adv-x="1662" 
d="M1026 645v830h533v-850q0 -304 -200.5 -490t-527.5 -186t-527 186t-200 490v850h533v-830q0 -97 48.5 -168t145.5 -78q88 0 141.5 68t53.5 178zM1210 1925v-266h-757v266h757z" />
    <glyph glyph-name="umacron" unicode="&#x16b;" 
d="M1210 0h-450v160q-130 -201 -328 -201q-151 0 -249.5 116t-98.5 294v696h471v-573q0 -55 25.5 -89t66.5 -34t66.5 34t25.5 89v573h471v-1065zM1026 1495v-266h-758v266h758z" />
    <glyph glyph-name="Ubreve" unicode="&#x16c;" horiz-adv-x="1662" 
d="M1026 645v830h533v-850q0 -304 -200.5 -490t-527.5 -186t-527 186t-200 490v850h533v-830q0 -97 48.5 -168t145.5 -78q88 0 141.5 68t53.5 178zM913 1946h267q0 -148 -96 -238t-253 -90t-252.5 90t-95.5 238h267q0 -46 22 -74.5t59 -28.5t59.5 28.5t22.5 74.5z" />
    <glyph glyph-name="ubreve" unicode="&#x16d;" 
d="M1210 0h-450v160q-130 -201 -328 -201q-151 0 -249.5 116t-98.5 294v696h471v-573q0 -55 25.5 -89t66.5 -34t66.5 34t25.5 89v573h471v-1065zM729 1556h266q0 -179 -82.5 -273.5t-265.5 -94.5t-265.5 94.5t-82.5 273.5h266q0 -64 22.5 -103.5t59.5 -39.5t59.5 39.5
t22.5 103.5z" />
    <glyph glyph-name="Uring" unicode="&#x16e;" horiz-adv-x="1662" 
d="M831 2007q-46 0 -74 -28t-28 -74t28 -74.5t74 -28.5t74.5 28.5t28.5 74.5t-28.5 74t-74.5 28zM1026 645v830h533v-850q0 -304 -200.5 -490t-527.5 -186t-527 186t-200 490v850h533v-830q0 -97 48.5 -168t145.5 -78q88 0 141.5 68t53.5 178zM831 1597q-157 0 -252.5 85
t-95.5 223t95.5 222.5t252.5 84.5t253 -84.5t96 -222.5t-96 -223t-253 -85z" />
    <glyph glyph-name="uring" unicode="&#x16f;" 
d="M647 1577q-46 0 -74 -28t-28 -74t28 -74.5t74 -28.5t74.5 28.5t28.5 74.5t-28.5 74t-74.5 28zM739 1065h471v-1065h-450v160q-130 -201 -328 -201q-151 0 -249.5 116t-98.5 294v696h471v-573q0 -55 25.5 -89t66.5 -34t66.5 34t25.5 89v573zM647 1167q-157 0 -252.5 85
t-95.5 223t95.5 222.5t252.5 84.5t252.5 -84.5t95.5 -222.5t-95.5 -223t-252.5 -85z" />
    <glyph glyph-name="Uhungarumlaut" unicode="&#x170;" horiz-adv-x="1662" 
d="M1026 645v830h533v-850q0 -304 -200.5 -490t-527.5 -186t-527 186t-200 490v850h533v-830q0 -97 48.5 -168t145.5 -78q88 0 141.5 68t53.5 178zM641 1946h389l-266 -328h-311zM1112 1946h389l-307 -328h-311z" />
    <glyph glyph-name="uhungarumlaut" unicode="&#x171;" horiz-adv-x="1302" 
d="M1210 0h-450v160q-130 -201 -328 -201q-151 0 -249.5 116t-98.5 294v696h471v-573q0 -55 25.5 -89t66.5 -34t66.5 34t25.5 89v573h471v-1065zM428 1556h401l-278 -368h-293zM899 1556h422l-340 -368h-307z" />
    <glyph glyph-name="Uogonek" unicode="&#x172;" horiz-adv-x="1662" 
d="M748 -47q-293 23 -468.5 205.5t-175.5 466.5v850h533v-830q0 -97 48.5 -168t145.5 -78q88 0 141.5 68t53.5 178v830h533v-850q0 -261 -150 -437.5t-405 -224.5q-121 -62 -121 -162q0 -78 71.5 -129t186.5 -51v-194q-229 0 -370.5 87.5t-141.5 225.5q0 130 119 213z" />
    <glyph glyph-name="uogonek" unicode="&#x173;" horiz-adv-x="1355" 
d="M950 0h-190v160q-130 -201 -328 -201q-151 0 -249.5 116t-98.5 294v696h471v-573q0 -55 25.5 -89t66.5 -34t66.5 34t25.5 89v573h471v-1065h-18q-197 -74 -197 -197q0 -78 71.5 -129t186.5 -51v-194q-229 0 -370.5 87.5t-141.5 225.5q0 85 55.5 153t153.5 105z" />
    <glyph glyph-name="Wcircumflex" unicode="&#x174;" horiz-adv-x="2629" 
d="M1561 1475l268 -988l244 988h534l-391 -1475h-717l-184 756l-185 -756h-716l-391 1475h534l246 -988l266 988h492zM1190 1618h-287l184 328h451l184 -328h-286l-123 164z" />
    <glyph glyph-name="wcircumflex" unicode="&#x175;" horiz-adv-x="1980" 
d="M879 0h-574l-282 1065h487l127 -588l160 588h387l180 -602l129 602h467l-283 -1065h-573l-113 512zM868 1188h-301l199 368h451l198 -368h-301l-123 205z" />
    <glyph glyph-name="Ycircumflex" unicode="&#x176;" horiz-adv-x="1521" 
d="M502 0v492l-502 983h551l217 -533l195 533h559l-488 -983v-492h-532zM639 1618h-287l185 328h450l184 -328h-286l-123 164z" />
    <glyph glyph-name="ycircumflex" unicode="&#x177;" horiz-adv-x="1345" 
d="M238 -451v318q30 -10 102 -10q41 0 59.5 1t47.5 6.5t44 17.5t30.5 35t25.5 58l-545 1090h512l205 -498l143 498h481l-399 -1126q-84 -235 -195.5 -333t-265.5 -98q-137 0 -245 41zM674 1393l-123 -205h-301l199 368h450l199 -368h-301z" />
    <glyph glyph-name="Ydieresis" unicode="&#x178;" horiz-adv-x="1521" 
d="M502 0v492l-502 983h551l217 -533l195 533h559l-488 -983v-492h-532zM475 1597q-94 0 -154.5 60.5t-60.5 154.5t60.5 155t154.5 61t154.5 -61t60.5 -155t-60.5 -154.5t-154.5 -60.5zM1049 1597q-94 0 -154.5 60.5t-60.5 154.5t60.5 155t154.5 61t154.5 -61t60.5 -155
t-60.5 -154.5t-154.5 -60.5z" />
    <glyph glyph-name="Zacute" unicode="&#x179;" horiz-adv-x="1396" 
d="M84 348l532 717h-512v410h1188v-349l-506 -716h527v-410h-1229v348zM752 1946h405l-323 -328h-322z" />
    <glyph glyph-name="zacute" unicode="&#x17a;" horiz-adv-x="1189" 
d="M84 307l389 389h-369v369h983v-307l-342 -389h363v-369h-1024v307zM639 1556h403l-321 -368h-309z" />
    <glyph glyph-name="Zdotaccent" unicode="&#x17b;" horiz-adv-x="1396" 
d="M84 348l532 717h-512v410h1188v-349l-506 -716h527v-410h-1229v348zM698 1618q-103 0 -169 63.5t-66 161.5t66 161.5t169 63.5t169.5 -63.5t66.5 -161.5t-66.5 -161.5t-169.5 -63.5z" />
    <glyph glyph-name="zdotaccent" unicode="&#x17c;" horiz-adv-x="1189" 
d="M84 307l389 389h-369v369h983v-307l-342 -389h363v-369h-1024v307zM596 1208q-103 0 -169.5 64t-66.5 162t66.5 161.5t169.5 63.5t169 -63.5t66 -161.5t-66 -162t-169 -64z" />
    <glyph glyph-name="Zcaron" unicode="&#x17d;" horiz-adv-x="1396" 
d="M84 348l532 717h-512v410h1188v-349l-506 -716h527v-410h-1229v348zM821 1987h301l-198 -369h-451l-199 369h301l123 -205z" />
    <glyph glyph-name="zcaron" unicode="&#x17e;" horiz-adv-x="1189" 
d="M84 307l389 389h-369v369h983v-307l-342 -389h363v-369h-1024v307zM719 1556h301l-199 -368h-450l-199 368h301l123 -204z" />
    <glyph glyph-name="Aacutering" unicode="&#x1fa;" horiz-adv-x="1646" 
d="M946 553l-123 473l-123 -473h246zM823 1864q-32 0 -51.5 -20t-19.5 -52t19.5 -52t51.5 -20t52 20t20 52t-20 52t-52 20zM1042 184h-438l-47 -184h-555l432 1475h778l433 -1475h-555zM823 1516q-143 0 -230 76t-87 200t87 200t230 76t230.5 -76t87.5 -200t-87.5 -200
t-230.5 -76zM958 2109h-319l238 246h364z" />
    <glyph glyph-name="aacutering" unicode="&#x1fb;" horiz-adv-x="1398" 
d="M678 369q63 0 103 46t40 117t-40 117.5t-103 46.5t-103 -46.5t-40 -117.5t40 -117t103 -46zM690 1475q-32 0 -52 -20t-20 -52t20 -52t52 -20t52 20t20 52t-20 52t-52 20zM823 938v127h471v-1065h-471v127q-53 -80 -129.5 -124t-167.5 -44q-209 0 -336 157.5t-127 415.5
t127 416t336 158q91 0 167.5 -44t129.5 -124zM690 1126q-142 0 -229.5 76t-87.5 201q0 124 87 200t230 76t230.5 -76t87.5 -200t-87.5 -200.5t-230.5 -76.5zM918 1720h-300l177 226h344z" />
    <glyph glyph-name="AEacute" unicode="&#x1fc;" horiz-adv-x="2148" 
d="M1104 1122l-268 -590h268v590zM1575 573v-163h512v-410h-983v184h-428l-84 -184h-590l713 1475h1351v-410h-491v-143h410v-349h-410zM1350 1577h-320l238 328h405z" />
    <glyph glyph-name="aeacute" unicode="&#x1fd;" horiz-adv-x="2113" 
d="M696 737q-74 0 -119 -56.5t-45 -148.5t45 -148t119 -56t119 56t45 148t-45 148.5t-119 56.5zM1321 614h260q-6 60 -42 102t-87 42t-85 -36t-46 -108zM860 926v139h266v-156q51 88 156.5 142.5t239.5 54.5q152 0 273 -72t189 -200.5t68 -290.5q0 -103 -6 -133h-723
q11 -54 53.5 -88.5t102.5 -34.5q47 0 84.5 23.5t48.5 58.5l397 -56q-47 -154 -190 -254t-316 -100q-125 0 -228 51.5t-149 134.5v-145h-266v139q-57 -87 -141.5 -133.5t-186.5 -46.5q-212 0 -341.5 157.5t-129.5 415.5t129.5 416t341.5 158q101 0 185.5 -47t142.5 -133z
M1149 1167h-307l225 369h403z" />
    <glyph glyph-name="Oslashacute" unicode="&#x1fe;" horiz-adv-x="1763" 
d="M883 1075q-125 0 -206 -95.5t-81 -242.5q0 -115 51 -200l281 534q-28 4 -45 4zM883 399q125 0 205.5 95t80.5 243q0 113 -53 201l-280 -535q14 -4 47 -4zM616 -12l-143 -275h-258l193 369q-162 104 -253.5 275t-91.5 380q0 226 105.5 406t293 281.5t421.5 101.5
q135 0 266 -39l143 274h258l-194 -368q162 -106 254 -276.5t92 -379.5q0 -169 -61.5 -315.5t-169.5 -250t-260 -163t-328 -59.5q-139 0 -267 39zM1024 1597h-319l237 328h406z" />
    <glyph glyph-name="oslashacute" unicode="&#x1ff;" horiz-adv-x="1396" 
d="M514 379l213 399h-29q-98 0 -161.5 -68.5t-63.5 -177.5q0 -91 41 -153zM698 287q101 0 163.5 67.5t62.5 177.5q0 90 -41 152l-211 -395q8 -2 26 -2zM508 -18l-76 -146h-209l113 209q-130 73 -201.5 198.5t-71.5 288.5q0 258 174.5 416t460.5 158q94 0 191 -23l76 146h206
l-112 -211q130 -73 202 -199t72 -287q0 -258 -174.5 -415.5t-460.5 -157.5q-93 0 -190 23zM514 1188l225 368h404l-322 -368h-307z" />
    <glyph glyph-name="Scommaaccent" unicode="&#x218;" horiz-adv-x="1497" 
d="M1425 492q0 -160 -89.5 -284.5t-248 -191.5t-358.5 -67q-189 0 -339.5 69.5t-235 192.5t-84.5 278h454q0 -74 64.5 -123t159.5 -49q72 0 118.5 29.5t46.5 73.5q0 24 -13 41.5t-31 28t-54 18.5t-63 11.5t-78 8.5q-104 12 -184.5 29t-162 52.5t-134.5 85t-86 128.5t-33 181
q0 234 183.5 378t471.5 144q189 0 340 -67t235.5 -185.5t84.5 -267.5h-435q0 66 -58.5 108.5t-147.5 42.5q-69 0 -115.5 -26t-46.5 -66q0 -14 4 -26t15 -21t20.5 -15.5t30.5 -12.5t34.5 -9t42.5 -7t45 -5.5t51 -5.5q83 -8 151 -20.5t138.5 -35.5t123.5 -58t95.5 -83.5
t65 -118t22.5 -155.5zM692 -532q-73 0 -118.5 54t-45.5 138q0 89 52.5 143t140.5 54q97 0 157 -69t60 -181q0 -119 -55.5 -239.5t-141.5 -186.5l-192 41q63 51 103 120t40 126z" />
    <glyph glyph-name="scommaaccent" unicode="&#x219;" horiz-adv-x="1232" 
d="M1159 371q0 -187 -158 -304.5t-415 -117.5q-224 0 -369 111.5t-145 283.5h370q0 -47 43.5 -77.5t110.5 -30.5q50 0 81.5 20.5t31.5 52.5q0 36 -43 54t-160 24q-73 3 -130 12t-116 31t-98 57t-63.5 93.5t-24.5 136.5q0 173 144.5 286t367.5 113q227 0 374.5 -106.5
t147.5 -270.5h-389q-1 40 -38 65t-93 25q-46 0 -75.5 -17.5t-29.5 -45.5q0 -21 17.5 -36t45.5 -22t46.5 -10t36.5 -4q60 -5 105.5 -10.5t104 -17t101 -26.5t86 -39.5t71 -55.5t45 -75.5t17.5 -98.5zM580 -532q-73 0 -118.5 54t-45.5 138q0 89 52 143t138 54q98 0 158.5 -69
t60.5 -181q0 -119 -55 -239.5t-141 -186.5l-193 41q63 51 103.5 120t40.5 126z" />
    <glyph glyph-name="circumflex" unicode="&#x2c6;" horiz-adv-x="974" 
d="M63 1167l199 369h451l198 -369h-301l-123 205l-122 -205h-302z" />
    <glyph glyph-name="caron" unicode="&#x2c7;" horiz-adv-x="974" 
d="M610 1536h301l-198 -369h-451l-199 369h302l122 -205z" />
    <glyph glyph-name="breve" unicode="&#x2d8;" horiz-adv-x="823" 
d="M494 1536h266q0 -179 -83 -274t-265 -95q-183 0 -266 95t-83 274h267q0 -64 22.5 -103.5t59.5 -39.5t59.5 39.5t22.5 103.5z" />
    <glyph glyph-name="dotaccent" unicode="&#x2d9;" horiz-adv-x="598" 
d="M299 1147q-102 0 -169 63.5t-67 161.5t67 161.5t169 63.5q103 0 169.5 -63.5t66.5 -161.5t-66.5 -161.5t-169.5 -63.5z" />
    <glyph glyph-name="ring" unicode="&#x2da;" horiz-adv-x="823" 
d="M412 1116q-157 0 -253 84.5t-96 222.5t96 223t253 85t252.5 -85t95.5 -223t-95.5 -222.5t-252.5 -84.5zM412 1526q-46 0 -74.5 -28.5t-28.5 -74.5t28.5 -74t74.5 -28t74 28t28 74t-28 74.5t-74 28.5z" />
    <glyph glyph-name="ogonek" unicode="&#x2db;" horiz-adv-x="638" 
d="M350 20l170 -20q-203 -75 -203 -199q0 -78 71.5 -129t186.5 -51v-194q-229 0 -370.5 87.5t-141.5 225.5q0 102 77.5 177t209.5 103z" />
    <glyph glyph-name="tilde" unicode="&#x2dc;" horiz-adv-x="1048" 
d="M276 1194l-213 106q31 98 118.5 167t187.5 69q49 0 98.5 -16t81.5 -35t65.5 -35t55.5 -16q28 0 55.5 20.5t44.5 54.5l215 -106q-31 -97 -123 -166.5t-196 -69.5q-52 0 -101.5 16t-81 35.5t-64 35.5t-54.5 16q-50 0 -89 -76z" />
    <glyph glyph-name="hungarumlaut" unicode="&#x2dd;" horiz-adv-x="1189" 
d="M233 1536h402l-279 -369h-293zM705 1536h421l-340 -369h-307z" />
    <glyph glyph-name="Wgrave" unicode="&#x1e80;" horiz-adv-x="2629" 
d="M1561 1475l268 -988l244 988h534l-391 -1475h-717l-184 756l-185 -756h-716l-391 1475h534l246 -988l266 988h492zM823 1946h406l237 -328h-319z" />
    <glyph glyph-name="wgrave" unicode="&#x1e81;" horiz-adv-x="1980" 
d="M879 0h-574l-282 1065h487l127 -588l160 588h387l180 -602l129 602h467l-283 -1065h-573l-113 512zM541 1556h403l225 -368h-307z" />
    <glyph glyph-name="Wacute" unicode="&#x1e82;" horiz-adv-x="2629" 
d="M1561 1475l268 -988l244 988h534l-391 -1475h-717l-184 756l-185 -756h-716l-391 1475h534l246 -988l266 988h492zM1366 1946h406l-324 -328h-322z" />
    <glyph glyph-name="wacute" unicode="&#x1e83;" horiz-adv-x="1980" 
d="M879 0h-574l-282 1065h487l127 -588l160 588h387l180 -602l129 602h467l-283 -1065h-573l-113 512zM1032 1556h404l-322 -368h-307z" />
    <glyph glyph-name="Wdieresis" unicode="&#x1e84;" horiz-adv-x="2629" 
d="M1561 1475l268 -988l244 988h534l-391 -1475h-717l-184 756l-185 -756h-716l-391 1475h534l246 -988l266 988h492zM1026 1597q-94 0 -154.5 60.5t-60.5 154.5t60.5 155t154.5 61t154.5 -61t60.5 -155t-60.5 -154.5t-154.5 -60.5zM1599 1597q-94 0 -154.5 60.5
t-60.5 154.5t60.5 155t154.5 61t155 -61t61 -155t-61 -154.5t-155 -60.5z" />
    <glyph glyph-name="wdieresis" unicode="&#x1e85;" horiz-adv-x="1980" 
d="M879 0h-574l-282 1065h487l127 -588l160 588h387l180 -602l129 602h467l-283 -1065h-573l-113 512zM705 1174q-94 0 -155 57.5t-61 146.5t61 147t155 58t154.5 -58t60.5 -147t-60.5 -146.5t-154.5 -57.5zM1278 1174q-94 0 -154.5 57.5t-60.5 146.5t60.5 147t154.5 58
t154.5 -58t60.5 -147t-60.5 -146.5t-154.5 -57.5z" />
    <glyph glyph-name="Germandbls" unicode="&#x1e9e;" horiz-adv-x="1660" 
d="M637 1004v-1004h-533v983q0 245 196.5 394t518.5 149q292 0 464.5 -126.5t172.5 -334.5q0 -84 -51 -149t-143 -101q134 -37 225.5 -154t91.5 -272q0 -192 -139 -316t-353 -124q-85 0 -189.5 23t-180.5 57l71 295q69 -37 130 -37q56 0 92.5 44t36.5 111q0 86 -59.5 139.5
t-156.5 53.5h-94v266h103q66 0 105.5 33.5t39.5 89.5q0 72 -48 116t-126 44t-126 -49.5t-48 -130.5z" />
    <glyph glyph-name="Ygrave" unicode="&#x1ef2;" horiz-adv-x="1521" 
d="M502 0v492l-502 983h551l217 -533l195 533h559l-488 -983v-492h-532zM272 1946h406l237 -328h-319z" />
    <glyph glyph-name="ygrave" unicode="&#x1ef3;" horiz-adv-x="1345" 
d="M238 -451v318q30 -10 102 -10q41 0 59.5 1t47.5 6.5t44 17.5t30.5 35t25.5 58l-545 1090h512l205 -498l143 498h481l-399 -1126q-84 -235 -195.5 -333t-265.5 -98q-137 0 -245 41zM852 1188h-307l-322 368h404z" />
    <glyph glyph-name="endash" unicode="&#x2013;" horiz-adv-x="1294" 
d="M1231 819v-368h-1168v368h1168z" />
    <glyph glyph-name="emdash" unicode="&#x2014;" horiz-adv-x="1662" 
d="M43 819h1577v-368h-1577v368z" />
    <glyph glyph-name="quoteleft" unicode="&#x2018;" horiz-adv-x="638" 
d="M350 1178q98 0 161.5 -69.5t63.5 -176.5q0 -106 -70.5 -176t-174.5 -70q-120 0 -193.5 95t-73.5 251q0 129 69.5 269t176.5 225l230 -41q-83 -76 -136 -163t-53 -144z" />
    <glyph glyph-name="quoteright" unicode="&#x2019;" horiz-adv-x="638" 
d="M289 1065q-98 0 -162 69.5t-64 176.5q0 106 71 175.5t175 69.5q120 0 193 -94.5t73 -251.5q0 -129 -69.5 -268.5t-175.5 -224.5l-230 41q82 77 135.5 163.5t53.5 143.5z" />
    <glyph glyph-name="quotesinglbase" unicode="&#x201a;" horiz-adv-x="638" 
d="M289 -41q-98 0 -162 69.5t-64 176.5q0 106 71 176t175 70q120 0 193 -95t73 -252q0 -129 -69.5 -268.5t-175.5 -224.5l-230 41q82 77 135.5 163.5t53.5 143.5z" />
    <glyph glyph-name="quotedblleft" unicode="&#x201c;" horiz-adv-x="1261" 
d="M580 932q0 -106 -71 -176t-175 -70q-120 0 -193 94.5t-73 251.5q0 130 69 270t176 224l230 -41q-82 -77 -135.5 -163.5t-53.5 -143.5q98 0 162 -69.5t64 -176.5zM1194 932q0 -106 -71 -176t-175 -70q-120 0 -193 94.5t-73 251.5q0 129 69.5 269t176.5 225l229 -41
q-82 -77 -135 -163.5t-53 -143.5q98 0 161.5 -69.5t63.5 -176.5z" />
    <glyph glyph-name="quotedblright" unicode="&#x201d;" horiz-adv-x="1255" 
d="M68 1331q0 106 70.5 176t174.5 70q120 0 193.5 -95t73.5 -251q0 -129 -69.5 -269t-176.5 -225l-230 41q82 77 135.5 163.5t53.5 143.5q-98 0 -161.5 69.5t-63.5 176.5zM682 1331q0 106 71 176t175 70q120 0 193 -94.5t73 -251.5q0 -129 -69.5 -269t-176.5 -225l-229 41
q82 77 135 163.5t53 143.5q-98 0 -161.5 69.5t-63.5 176.5z" />
    <glyph glyph-name="quotedblbase" unicode="&#x201e;" horiz-adv-x="1255" 
d="M68 205q0 106 70.5 176t174.5 70q120 0 193.5 -95t73.5 -252q0 -129 -69.5 -268.5t-176.5 -224.5l-230 41q82 77 135.5 163.5t53.5 143.5q-98 0 -161.5 69.5t-63.5 176.5zM682 205q0 106 71 176t175 70q120 0 193 -95t73 -252q0 -129 -69.5 -268.5t-176.5 -224.5l-229 41
q82 77 135 163.5t53 143.5q-98 0 -161.5 69.5t-63.5 176.5z" />
    <glyph glyph-name="bullet" unicode="&#x2022;" horiz-adv-x="802" 
d="M401 307q-148 0 -243 92.5t-95 235.5t95 235.5t243 92.5t243 -92.5t95 -235.5t-95 -235.5t-243 -92.5z" />
    <glyph glyph-name="ellipsis" unicode="&#x2026;" horiz-adv-x="1867" 
d="M319 -41q-111 0 -183.5 69.5t-72.5 176.5t72.5 176.5t183.5 69.5q112 0 184 -69.5t72 -176.5t-72 -176.5t-184 -69.5zM934 -41q-111 0 -183.5 69.5t-72.5 176.5t72.5 176.5t183.5 69.5q112 0 184 -69.5t72 -176.5t-72 -176.5t-184 -69.5zM1548 -41q-111 0 -183.5 69.5
t-72.5 176.5t72.5 176.5t183.5 69.5q112 0 184 -69.5t72 -176.5t-72 -176.5t-184 -69.5z" />
    <glyph glyph-name="perthousand" unicode="&#x2030;" horiz-adv-x="3321" 
d="M1313 430q0 204 133.5 337.5t337.5 133.5t337.5 -133.5t133.5 -337.5t-133.5 -337.5t-337.5 -133.5t-337.5 133.5t-133.5 337.5zM1907 430q0 54 -34.5 88.5t-88.5 34.5t-88.5 -34.5t-34.5 -88.5t34.5 -88.5t88.5 -34.5t88.5 34.5t34.5 88.5zM2316 430q0 204 133.5 337.5
t337.5 133.5t337.5 -133.5t133.5 -337.5t-133.5 -337.5t-337.5 -133.5t-337.5 133.5t-133.5 337.5zM2910 430q0 54 -34.5 88.5t-88.5 34.5t-88.5 -34.5t-34.5 -88.5t34.5 -88.5t88.5 -34.5t88.5 34.5t34.5 88.5zM63 1106q0 204 134 337.5t338 133.5t337.5 -133.5
t133.5 -337.5t-133.5 -337.5t-337.5 -133.5t-338 133.5t-134 337.5zM657 1106q0 54 -34 88.5t-88 34.5t-88.5 -34.5t-34.5 -88.5t34.5 -88.5t88.5 -34.5t88 34.5t34 88.5zM1477 1536h383l-1018 -1536h-383z" />
    <glyph glyph-name="guilsinglleft" unicode="&#x2039;" horiz-adv-x="862" 
d="M799 1065l-346 -512l346 -553h-469l-328 553l328 512h469z" />
    <glyph glyph-name="guilsinglright" unicode="&#x203a;" horiz-adv-x="860" 
d="M860 553l-328 -553h-469l347 553l-347 512h469z" />
    <glyph glyph-name="lira" unicode="&#x20a4;" horiz-adv-x="1437" 
d="M866 1137q-39 0 -62.5 -37t-23.5 -96v-62h389v-205h-389q0 -21 -4 -61h393v-205h-489q-78 -91 -195 -143h889v-328h-1311v410q82 28 136 82h-136v184h226v61h-226v205h226v102q0 209 147.5 345.5t374.5 136.5q241 0 388.5 -123t176.5 -324l-413 -65q-24 123 -97 123z" />
    <glyph glyph-name="Euro" unicode="&#x20ac;" horiz-adv-x="1847" 
d="M1022 399q98 0 174.5 62.5t95.5 159.5l494 -52q-9 -178 -112 -319.5t-278.5 -221t-389.5 -79.5q-290 0 -503 152t-284 403h-176v205h143v59h-143v205h176q73 251 285 402t502 151q157 0 296 -46.5t241 -128.5t165 -197.5t72 -248.5l-490 -51q-17 97 -92.5 159t-173.5 62
q-147 0 -229 -102h231v-205h-307v-59h307v-205h-233q84 -105 229 -105z" />
    <glyph glyph-name="trademark" unicode="&#x2122;" horiz-adv-x="2523" 
d="M268 307v840h-245v328h880v-328h-246v-840h-389zM2030 905l-205 -598h-266l-205 598v-598h-369v1168h442l263 -674l254 674h454v-1168h-368v598z" />
    <glyph glyph-name="minus" unicode="&#x2212;" horiz-adv-x="966" 
d="M63 819h840v-368h-840v368z" />
    <glyph glyph-name="approxequal" unicode="&#x2248;" horiz-adv-x="1413" 
 />
    <glyph glyph-name="notequal" unicode="&#x2260;" horiz-adv-x="1089" 
d="M63 532h332l56 185h-388v348h494l80 266h256l-80 -266h213v-348h-317l-54 -185h371v-348h-475l-78 -266h-262l80 266h-228v348z" />
    <glyph glyph-name="lessequal" unicode="&#x2264;" horiz-adv-x="925" 
d="M862 287v-287h-799v287h799zM63 922l799 143v-266l-549 -82l549 -82v-266l-799 143v410z" />
    <glyph glyph-name="greaterequal" unicode="&#x2265;" horiz-adv-x="925" 
d="M63 287h799v-287h-799v287zM63 635l549 82l-549 82v266l799 -143v-410l-799 -143v266z" />
    <glyph glyph-name="commaaccent" unicode="&#xf6c3;" horiz-adv-x="536" 
d="M227 -82q-73 0 -118.5 54.5t-45.5 138.5q0 89 52.5 142.5t138.5 53.5q98 0 158.5 -69t60.5 -181q0 -119 -56.5 -239.5t-142.5 -186.5l-190 41q62 51 102.5 120.5t40.5 125.5z" />
    <glyph glyph-name="acute.case" horiz-adv-x="770" 
d="M707 1536l-324 -328h-320l238 328h406z" />
    <glyph glyph-name="breve.case" horiz-adv-x="823" 
d="M494 1536h266q0 -148 -95.5 -238t-252.5 -90t-253 90t-96 238h267q0 -46 22.5 -74t59.5 -28t59.5 28t22.5 74z" />
    <glyph glyph-name="caron.case" horiz-adv-x="946" 
d="M596 1536h287l-185 -328h-450l-185 328h287l123 -164z" />
    <glyph glyph-name="circumflex.case" horiz-adv-x="946" 
d="M63 1208l185 328h450l185 -328h-287l-123 164l-123 -164h-287z" />
    <glyph glyph-name="dieresis.case" horiz-adv-x="1130" 
d="M279 1106q-94 0 -155 60.5t-61 154.5t61 154.5t155 60.5t154.5 -60.5t60.5 -154.5t-60.5 -154.5t-154.5 -60.5zM852 1106q-94 0 -154.5 60.5t-60.5 154.5t60.5 154.5t154.5 60.5t154.5 -60.5t60.5 -154.5t-60.5 -154.5t-154.5 -60.5z" />
    <glyph glyph-name="dotaccent.case" horiz-adv-x="598" 
d="M299 1147q-103 0 -169.5 63.5t-66.5 161.5t66.5 161.5t169.5 63.5t169.5 -63.5t66.5 -161.5t-66.5 -161.5t-169.5 -63.5z" />
    <glyph glyph-name="grave.case" horiz-adv-x="770" 
d="M63 1946h406l238 -328h-320z" />
    <glyph glyph-name="hungarumlaut.case" horiz-adv-x="1175" 
d="M252 1536h389l-266 -328h-312zM723 1536h389l-307 -328h-311z" />
    <glyph glyph-name="ijacute" horiz-adv-x="1390" 
d="M104 0v1065h471v-1065h-471zM821 20v1045h471v-1065q0 -203 -119.5 -327t-314.5 -124q-155 0 -283 41v318q48 -10 113 -10q60 0 96.5 33.5t36.5 88.5zM160 1167l227 369h404l-322 -369h-309zM862 1167l225 369h404l-322 -369h-307z" />
    <glyph glyph-name="ring.case" horiz-adv-x="761" 
d="M381 1106q-143 0 -230.5 76t-87.5 200t87.5 200.5t230.5 76.5q142 0 229.5 -76t87.5 -201q0 -124 -87 -200t-230 -76zM381 1454q-32 0 -52 -20t-20 -52t20 -51.5t52 -19.5t52 19.5t20 51.5t-20 52t-52 20z" />
    <glyph glyph-name="tilde.case" horiz-adv-x="1048" 
d="M276 1235l-213 106q31 98 118.5 167t187.5 69q49 0 98.5 -16t81.5 -35t65.5 -35t55.5 -16q28 0 55.5 20.5t44.5 54.5l215 -106q-31 -97 -123 -166.5t-196 -69.5q-66 0 -126.5 26t-104.5 51.5t-70 25.5q-50 0 -89 -76z" />
    </font>
</defs>
</svg>
