<?xml version="1.0" standalone="no"?>
<!DOCTYPE svg PUBLIC "-//W3C//DTD SVG 1.1//EN" "http://www.w3.org/Graphics/SVG/1.1/DTD/svg11.dtd" >
<svg xmlns="http://www.w3.org/2000/svg" xmlns:xlink="http://www.w3.org/1999/xlink" version="1.1">
<metadata>
Created by FontForge 20170731 at Mon Apr 17 14:55:40 2023
 By Aleksey,,,
Copyright (c) 2017 by Alexander Slobzheninov. All rights reserved.


</metadata>
<defs>
<font id="Objectivity-Light" horiz-adv-x="1236" >
  <font-face 
    font-family="Objectivity Light"
    font-weight="300"
    font-stretch="normal"
    units-per-em="2048"
    panose-1="0 0 0 0 0 0 0 0 0 0"
    ascent="1638"
    descent="-410"
    x-height="1030"
    cap-height="1440"
    bbox="-106 -573 2945 2038"
    underline-thickness="102"
    underline-position="-358"
    unicode-range="U+000D-F6C3"
  />
<missing-glyph horiz-adv-x="1024" 
 />
    <glyph glyph-name=".notdef" horiz-adv-x="1024" 
 />
    <glyph glyph-name=".null" horiz-adv-x="0" 
 />
    <glyph glyph-name="nonmarkingreturn" horiz-adv-x="682" 
 />
    <glyph glyph-name="NULL" horiz-adv-x="1460" 
d="M1270 1440v-1440h-1080v1440h1080zM295 96h870v1245h-870v-1245z" />
    <glyph glyph-name="NULL" horiz-adv-x="1460" 
d="M1270 1440v-1440h-1080v1440h1080zM295 96h870v1245h-870v-1245z" />
    <glyph glyph-name="CR" unicode="&#xd;" horiz-adv-x="61" 
 />
    <glyph glyph-name="space" unicode=" " horiz-adv-x="622" 
 />
    <glyph glyph-name="exclam" unicode="!" horiz-adv-x="423" 
d="M211 -23q-37 0 -61.5 24t-24.5 62q0 35 24.5 59.5t61.5 24.5q38 0 62 -23.5t24 -60.5q0 -38 -24 -62t-62 -24zM272 1440v-375l-20 -662h-82l-18 662v375h120z" />
    <glyph glyph-name="quotedbl" unicode="&#x22;" horiz-adv-x="616" 
d="M207 1159l-6 -356h-88l-9 356v279h103v-279zM512 1159l-8 -356h-88l-8 356v279h104v-279z" />
    <glyph glyph-name="numbersign" unicode="#" horiz-adv-x="1941" 
d="M807 961l-98 -369h395l98 369h-395zM1735 592l-2 -92h-549l-133 -500h-105l133 500h-395l-135 -500h-105l136 500h-476v92h500l98 369h-495v92h520l123 454h104l-123 -454h394l123 454h104l-121 -454h504l2 -92h-532l-99 -369h529z" />
    <glyph glyph-name="dollar" unicode="$" horiz-adv-x="1425" 
d="M766 -51v-199h-115v203q-227 22 -369.5 162.5t-142.5 345.5h121q0 -177 132 -289.5t339 -112.5q194 0 313 93.5t119 244.5q0 35 -8.5 64.5t-20.5 52t-36.5 42t-45 32.5t-57 25.5t-62 19.5t-72 15t-73.5 11.5t-79 10.5q-62 8 -101.5 14.5t-96 17.5t-93.5 25t-81 34t-72 47
t-53 62t-36.5 81t-11.5 102q0 181 134.5 302.5t352.5 133.5v190h115v-192q218 -20 357 -152t139 -323l-117 -2q0 161 -127 265.5t-322 104.5q-184 -1 -297.5 -89.5t-113.5 -227.5q0 -35 8.5 -65t21 -53t36 -42.5t45 -33t57.5 -26t62.5 -20t71.5 -15t74.5 -12t79.5 -10.5
q74 -10 115.5 -17t107 -22t104 -31.5t85 -44.5t71.5 -63t42.5 -85.5t17.5 -112.5q0 -195 -142.5 -323t-375.5 -138z" />
    <glyph glyph-name="percent" unicode="%" horiz-adv-x="2082" 
d="M1153 391q0 181 116 296.5t298 115.5q181 0 296 -115t115 -297q0 -181 -115 -296t-296 -115q-182 0 -298 115t-116 296zM1866 391q0 130 -84 213.5t-215 83.5t-215 -83.5t-84 -213.5q0 -129 84.5 -213t214.5 -84t214.5 84t84.5 213zM104 1110q0 180 116.5 296t297.5 116
t297.5 -116t116.5 -296q0 -182 -115.5 -297t-298.5 -115q-182 0 -298 115.5t-116 296.5zM817 1110q0 130 -83 212.5t-214 82.5q-132 0 -216.5 -82.5t-84.5 -212.5t84.5 -213.5t216.5 -83.5q130 0 213.5 83.5t83.5 213.5zM1483 1501h137l-1018 -1501h-137z" />
    <glyph glyph-name="ampersand" unicode="&#x26;" horiz-adv-x="1595" 
d="M1022 252q-87 79 -479 440q-136 -55 -209.5 -132.5t-73.5 -203.5q0 -129 104.5 -213t264.5 -84q228 0 393 193zM598 788q59 -53 250.5 -226.5t247.5 -223.5q93 133 168 358h116q-84 -260 -204 -430q24 -21 141 -128t153 -138h-167l-201 180q-206 -231 -484 -231
q-207 0 -342 114t-135 289q0 83 25 150t71.5 116.5t99.5 84t124 65.5q-170 178 -170 348q2 154 111 254t276 100q157 0 267 -97t132 -251l-112 -20q-15 114 -93 187t-190 73q-120 0 -196 -70t-76 -180q0 -151 188 -324z" />
    <glyph glyph-name="quotesingle" unicode="'" horiz-adv-x="311" 
d="M207 1159l-6 -356h-88l-9 356v281h103v-281z" />
    <glyph glyph-name="parenleft" unicode="(" horiz-adv-x="653" 
d="M578 -369h-127q-146 146 -236 405t-90 537t89.5 535.5t236.5 404.5h127q-160 -157 -254.5 -410t-94.5 -530q0 -283 94.5 -536t254.5 -406z" />
    <glyph glyph-name="parenright" unicode=")" horiz-adv-x="653" 
d="M203 -369h-129q160 153 254 406t94 536q0 277 -94 530t-254 410h129q146 -146 235.5 -404t89.5 -536t-89.5 -537t-235.5 -405z" />
    <glyph glyph-name="asterisk" unicode="*" horiz-adv-x="1034" 
d="M930 803l-45 -80l-324 188l2 -372h-92l2 372l-323 -188l-46 80l326 186l-326 185l46 79l323 -188l-2 375h92l-2 -375l324 188l45 -79l-326 -185z" />
    <glyph glyph-name="plus" unicode="+" horiz-adv-x="1171" 
d="M641 184h-113v412h-424v106h424v383h115v-383h424v-106h-426v-412z" />
    <glyph glyph-name="comma" unicode="," horiz-adv-x="393" 
d="M195 -23q-38 0 -62 23.5t-24 60.5t23.5 60.5t60.5 23.5q43 0 69.5 -31.5t26.5 -82.5q0 -87 -36.5 -167t-94.5 -116l-54 45q40 26 65.5 78t25.5 106z" />
    <glyph glyph-name="hyphen" unicode="-" horiz-adv-x="1048" 
d="M104 696h840v-106h-840v106z" />
    <glyph glyph-name="period" unicode="." horiz-adv-x="378" 
d="M190 -23q-38 0 -62 24t-24 62q0 36 24 60t62 24q37 0 61.5 -23.5t24.5 -60.5q0 -38 -24.5 -62t-61.5 -24z" />
    <glyph glyph-name="slash" unicode="/" horiz-adv-x="880" 
d="M692 1440h115l-619 -1911h-114z" />
    <glyph glyph-name="zero" unicode="0" horiz-adv-x="1480" 
d="M739 -51q-172 0 -308 99t-211 274.5t-75 396.5t75 397t211 275.5t308 99.5q173 0 309.5 -99.5t211.5 -275.5t75 -397t-75 -396.5t-211.5 -274.5t-309.5 -99zM739 1380q-208 0 -340.5 -186.5t-132.5 -474.5t132.5 -474t340.5 -186q138 0 247 85t168.5 235t59.5 340
t-59.5 340.5t-168.5 235.5t-247 85z" />
    <glyph glyph-name="one" unicode="1" horiz-adv-x="741" 
d="M412 0v1272l-340 -271v148l368 291h92v-1440h-120z" />
    <glyph glyph-name="two" unicode="2" horiz-adv-x="1216" 
d="M256 1018l-115 22q25 196 161.5 323.5t320.5 127.5q195 0 321.5 -129t126.5 -326q0 -76 -18 -140.5t-59.5 -127t-90 -116t-127.5 -128.5l-430 -413h705v-111h-904v76l570 549q117 112 175 204.5t58 206.5q0 149 -92 246.5t-233 97.5t-244 -100.5t-125 -261.5z" />
    <glyph glyph-name="three" unicode="3" horiz-adv-x="1269" 
d="M864 1329h-659v111h839v-82l-417 -465q216 0 357.5 -127t141.5 -340q0 -207 -140.5 -342t-356.5 -135q-203 0 -347 135t-159 340l108 18q15 -166 126.5 -274.5t267.5 -108.5q166 0 274.5 103.5t108.5 263.5q0 159 -109.5 263t-277.5 104q-42 0 -86 -9.5t-68 -23.5l-39 86
z" />
    <glyph glyph-name="four" unicode="4" horiz-adv-x="1169" 
d="M217 496h526v831zM743 385h-684v78l625 977h180v-944h180v-111h-180v-385h-121v385z" />
    <glyph glyph-name="five" unicode="5" horiz-adv-x="1284" 
d="M586 797h-326l64 643h710v-111h-610l-39 -422h209q245 0 397 -134t152 -345q0 -209 -140.5 -344t-357.5 -135q-204 0 -346.5 133.5t-159.5 339.5l111 20q12 -166 123 -274.5t270 -108.5q166 0 273.5 103.5t107.5 263.5q0 162 -121.5 266.5t-316.5 104.5z" />
    <glyph glyph-name="six" unicode="6" horiz-adv-x="1214" 
d="M616 59q162 0 267.5 113t105.5 285q0 167 -105 276t-268 109q-170 1 -280.5 -108t-110.5 -277q0 -173 110.5 -285.5t280.5 -112.5zM209 764l524 676h150l-412 -527q87 37 174 37q203 -2 334 -140.5t131 -352.5q0 -221 -140.5 -364.5t-355.5 -143.5q-222 0 -366 141.5
t-144 358.5q0 78 29.5 166.5t75.5 148.5z" />
    <glyph glyph-name="seven" unicode="7" horiz-adv-x="1042" 
d="M999 1364l-573 -1364h-131l559 1329h-823v111h968v-76z" />
    <glyph glyph-name="eight" unicode="8" horiz-adv-x="1349" 
d="M676 711q-175 0 -288.5 -92.5t-113.5 -235.5t114 -236.5t288 -93.5q173 0 286 93.5t113 236.5q0 142 -113 235t-286 93zM676 1380q-152 0 -250 -78t-98 -200t98 -201.5t250 -79.5q150 0 248 79.5t98 201.5q0 121 -97.5 199.5t-248.5 78.5zM676 1491q203 0 335 -107
t132 -272q0 -126 -75.5 -220t-197.5 -122q148 -29 241 -139t93 -256q0 -186 -149 -306t-379 -120q-231 0 -381 120t-150 306q0 146 93 256t241 139q-122 28 -197 122t-75 220q0 166 132.5 272.5t336.5 106.5z" />
    <glyph glyph-name="nine" unicode="9" horiz-adv-x="1214" 
d="M598 1380q-163 -2 -268 -113.5t-105 -283.5q0 -168 105.5 -277.5t267.5 -109.5q170 0 280.5 109t110.5 278q0 172 -110.5 284.5t-280.5 112.5zM1006 676l-525 -676h-149l411 526q-76 -37 -174 -37q-203 0 -334 139.5t-131 354.5q0 221 140 363.5t356 142.5
q223 0 366.5 -140.5t143.5 -357.5q0 -78 -29.5 -167.5t-74.5 -147.5z" />
    <glyph glyph-name="colon" unicode=":" horiz-adv-x="378" 
d="M190 -23q-38 0 -62 24t-24 62q0 36 24 60t62 24q37 0 61.5 -23.5t24.5 -60.5q0 -38 -24.5 -62t-61.5 -24zM190 803q-38 0 -62 24t-24 62q0 36 24 60t62 24q37 0 61.5 -23.5t24.5 -60.5q0 -38 -24.5 -62t-61.5 -24z" />
    <glyph glyph-name="semicolon" unicode=";" horiz-adv-x="393" 
d="M190 803q-38 0 -62 24t-24 62q0 36 24 60t62 24q37 0 61.5 -23.5t24.5 -60.5q0 -38 -24.5 -62t-61.5 -24zM195 -23q-38 0 -62 23.5t-24 60.5t23.5 60.5t60.5 23.5q43 0 69.5 -31.5t26.5 -82.5q0 -87 -36.5 -167t-94.5 -116l-54 45q40 26 65.5 78t25.5 106z" />
    <glyph glyph-name="less" unicode="&#x3c;" horiz-adv-x="962" 
d="M172 514l664 -401v-113l-762 461v106l762 463v-115z" />
    <glyph glyph-name="equal" unicode="=" horiz-adv-x="1171" 
d="M104 442h963v-106h-963v106zM104 956h963v-106h-963v106z" />
    <glyph glyph-name="greater" unicode="&#x3e;" horiz-adv-x="960" 
d="M887 567v-106l-762 -461v113l663 401l-663 401v115z" />
    <glyph glyph-name="question" unicode="?" horiz-adv-x="1200" 
d="M578 -25q-37 0 -61.5 24t-24.5 62q0 37 24.5 61.5t61.5 24.5q38 0 62 -24.5t24 -61.5t-24 -61.5t-62 -24.5zM635 348h-115q0 109 27 184.5t73 123.5t130 102q42 28 62.5 43t53 44.5t48 55.5t28 64.5t12.5 83.5q0 141 -98.5 236t-247.5 95q-153 0 -250 -103t-118 -271
l-115 22q25 205 156.5 334t328.5 129q199 0 332 -126.5t133 -315.5q0 -58 -15 -108t-34.5 -83.5t-59.5 -70.5t-68.5 -58t-82.5 -57q-69 -44 -106 -83.5t-55.5 -96.5t-18.5 -144z" />
    <glyph glyph-name="at" unicode="@" horiz-adv-x="2078" 
d="M1372 530q0 158 -91.5 254.5t-240.5 96.5q-147 0 -239 -97.5t-92 -253.5q0 -151 92 -246.5t239 -95.5q143 0 237.5 96.5t94.5 245.5zM1038 1321q-229 0 -412.5 -101.5t-286.5 -281.5t-103 -406q0 -224 95.5 -402.5t265.5 -279t382 -100.5q74 0 154.5 21.5t128.5 52.5
v-111q-56 -30 -134.5 -46.5t-148.5 -16.5q-242 0 -437 113.5t-306 315.5t-111 453q0 254 117 457.5t326 318.5t470 115q262 0 471.5 -114.5t327 -318t117.5 -458.5q0 -246 -83 -396t-235 -150q-107 0 -174 78t-71 227q-43 -93 -145.5 -149t-229.5 -56q-185 0 -303.5 126.5
t-118.5 319.5q0 196 126 323.5t320 127.5q193 0 319 -121t126 -307v-260q0 -100 40.5 -156.5t108.5 -56.5q69 0 116.5 60.5t69 159.5t21.5 230q0 170 -60 316.5t-166 250.5t-255 163t-322 59z" />
    <glyph glyph-name="A" unicode="A" horiz-adv-x="1380" 
d="M690 1329l-356 -919h713zM299 309l-119 -309h-129l553 1440h170l553 -1440h-127l-121 309h-780z" />
    <glyph glyph-name="B" unicode="B" horiz-adv-x="1384" 
d="M1118 412q0 130 -106.5 214.5t-270.5 84.5h-430v-600h430q164 0 270.5 85t106.5 216zM754 1329h-443v-508h443q141 0 232 71t91 181q0 112 -91 184t-232 72zM754 0h-564v1440h574q189 0 311.5 -103.5t122.5 -261.5q0 -112 -70.5 -196.5t-183.5 -112.5
q130 -26 212.5 -125.5t82.5 -232.5q0 -177 -137 -292.5t-348 -115.5z" />
    <glyph glyph-name="C" unicode="C" horiz-adv-x="1681" 
d="M879 59q202 0 360 118.5t201 297.5l114 -24q-50 -216 -240 -359t-435 -143q-216 0 -388.5 99t-269 275t-96.5 396q0 166 56.5 309.5t156 245t239.5 159.5t302 58q245 0 435 -149.5t240 -374.5l-118 -17q-42 183 -199.5 306.5t-357.5 123.5q-182 0 -326.5 -84.5
t-225.5 -235.5t-81 -341q0 -142 47.5 -264.5t131 -209.5t201 -136.5t253.5 -49.5z" />
    <glyph glyph-name="D" unicode="D" horiz-adv-x="1554" 
d="M190 0v1440h400q249 0 440 -89.5t295.5 -253.5t104.5 -378t-104.5 -377.5t-295 -252.5t-440.5 -89h-400zM1309 719q0 277 -197.5 443.5t-521.5 166.5h-279v-1218h279q213 0 376 74.5t253 213t90 320.5z" />
    <glyph glyph-name="E" unicode="E" horiz-adv-x="1300" 
d="M309 694v-583h877v-111h-996v1440h975v-111h-856v-528h774v-107h-774z" />
    <glyph glyph-name="F" unicode="F" horiz-adv-x="1163" 
d="M956 610h-645v-610h-121v1440h889v-111h-768v-614h645v-105z" />
    <glyph glyph-name="G" unicode="G" horiz-adv-x="1763" 
d="M893 59q132 0 247.5 47t198 129.5t130 198.5t47.5 250h-625v104h745q11 -180 -39 -336t-147.5 -266.5t-242 -173.5t-314.5 -63q-220 0 -395.5 99t-274 275t-98.5 396t98.5 396.5t274 276t395.5 99.5q248 0 440 -145t238 -367l-113 -21q-46 183 -206 302.5t-359 119.5
q-186 0 -334 -84.5t-230.5 -235.5t-82.5 -341q0 -187 82.5 -338t230.5 -236.5t334 -85.5z" />
    <glyph glyph-name="H" unicode="H" horiz-adv-x="1472" 
d="M309 0h-121v1440h121v-635h854v635h121v-1440h-121v694h-854v-694z" />
    <glyph glyph-name="I" unicode="I" horiz-adv-x="501" 
d="M190 1440h121v-1440h-121v1440z" />
    <glyph glyph-name="J" unicode="J" horiz-adv-x="927" 
d="M616 432v1008h121l2 -1008q0 -220 -116 -346.5t-301 -126.5q-122 0 -250 41v109q128 -39 235 -39q140 0 225 94.5t84 267.5z" />
    <glyph glyph-name="K" unicode="K" horiz-adv-x="1193" 
d="M190 0v1440h121v-627l647 627h164l-708 -680l725 -760h-160l-668 707v-707h-121z" />
    <glyph glyph-name="L" unicode="L" horiz-adv-x="1159" 
d="M1087 0h-897v1440h121v-1329h776v-111z" />
    <glyph glyph-name="M" unicode="M" horiz-adv-x="1886" 
d="M311 1282v-1282h-121v1440h175l577 -1280l578 1280h176v-1440h-121v1284l-580 -1284h-104z" />
    <glyph glyph-name="N" unicode="N" horiz-adv-x="1478" 
d="M350 1440l817 -1290v1290h121v-1440h-160l-817 1288v-1288h-121v1440h160z" />
    <glyph glyph-name="O" unicode="O" horiz-adv-x="1785" 
d="M893 -51q-166 0 -309 57.5t-244 158.5t-158 244.5t-57 309.5t57.5 309.5t158 245t243.5 159.5t309 58q165 0 308 -58t244 -159.5t158.5 -245t57.5 -309.5t-57.5 -309.5t-158.5 -244.5t-244 -158.5t-308 -57.5zM893 1380q-186 0 -334 -84.5t-230.5 -235.5t-82.5 -341
q0 -188 82.5 -339t230.5 -236t334 -85q139 0 259.5 49.5t205.5 136.5t133.5 209.5t48.5 264.5q0 190 -82.5 341t-230.5 235.5t-334 84.5z" />
    <glyph glyph-name="P" unicode="P" horiz-adv-x="1341" 
d="M662 1329h-353v-741h353q203 0 329 102t125 266q0 166 -126 269.5t-328 103.5zM674 475h-365v-475h-119v1440h484q250 0 406.5 -135t156.5 -349q0 -213 -156.5 -347t-406.5 -134z" />
    <glyph glyph-name="Q" unicode="Q" horiz-adv-x="1785" 
d="M893 1380q-186 0 -334 -84.5t-230.5 -235.5t-82.5 -341q0 -188 82.5 -339t230.5 -236t334 -85q185 0 333 84.5t231 235.5t83 340q0 190 -82.5 341t-230.5 235.5t-334 84.5zM1661 719q0 -203 -83.5 -368.5t-231.5 -268.5l251 -307h-147l-207 252q-159 -78 -350 -78
q-166 0 -309 57.5t-244 158.5t-158 244.5t-57 309.5t57.5 309.5t158 245t243.5 159.5t309 58q165 0 308 -58t244 -159.5t158.5 -245t57.5 -309.5z" />
    <glyph glyph-name="R" unicode="R" horiz-adv-x="1449" 
d="M801 1329h-490v-661h490q175 0 285 90.5t110 236.5q0 152 -109.5 243t-285.5 91zM311 557v-557h-121v1440h617q226 0 368 -124t142 -321q0 -159 -102.5 -274t-268.5 -146l371 -575h-143l-353 559z" />
    <glyph glyph-name="S" unicode="S" horiz-adv-x="1425" 
d="M1284 410q0 -204 -154 -332.5t-403 -128.5q-168 0 -302.5 65.5t-210 182.5t-75.5 264h121q0 -177 132 -289.5t339 -112.5q194 0 313 93.5t119 244.5q0 35 -8.5 64.5t-20.5 52t-36.5 42t-45 32.5t-57 25.5t-62 19.5t-72 15t-73.5 11.5t-79 10.5q-62 8 -101.5 14.5
t-96 17.5t-93.5 25t-81 34t-72 47t-53 62t-36.5 81t-11.5 102q0 191 148.5 314.5t385.5 123.5q243 0 403.5 -136t160.5 -343l-117 -2q0 161 -127 265.5t-322 104.5q-184 -1 -297.5 -89.5t-113.5 -227.5q0 -35 8.5 -65t21 -53t36 -42.5t45 -33t57.5 -26t62.5 -20t71.5 -15
t74.5 -12t79.5 -10.5q74 -10 115.5 -17t107 -22t104 -31.5t85 -44.5t71.5 -63t42.5 -85.5t17.5 -112.5z" />
    <glyph glyph-name="T" unicode="T" horiz-adv-x="1198" 
d="M539 0v1329h-496v111h1112v-111h-496v-1329h-120z" />
    <glyph glyph-name="U" unicode="U" horiz-adv-x="1480" 
d="M1186 580v860h121v-860q0 -184 -71.5 -328t-200.5 -223.5t-294 -79.5q-252 0 -409.5 175.5t-157.5 455.5v860h121v-860q0 -227 123 -374t323 -147q201 0 323 143.5t122 377.5z" />
    <glyph glyph-name="V" unicode="V" horiz-adv-x="1370" 
d="M51 1440h129l506 -1340l504 1340h129l-547 -1440h-174z" />
    <glyph glyph-name="W" unicode="W" horiz-adv-x="2109" 
d="M1143 1440l366 -1344l396 1344h123l-426 -1440h-185l-362 1307l-361 -1307h-188l-426 1440h125l395 -1344l371 1344h172z" />
    <glyph glyph-name="X" unicode="X" horiz-adv-x="1327" 
d="M72 0l499 760l-481 680h148l424 -602l430 602h145l-487 -680l505 -760h-145l-451 680l-444 -680h-143z" />
    <glyph glyph-name="Y" unicode="Y" horiz-adv-x="1239" 
d="M559 0v563l-508 877h135l435 -758l430 758h137l-508 -877v-563h-121z" />
    <glyph glyph-name="Z" unicode="Z" horiz-adv-x="1284" 
d="M80 80l936 1253h-916v107h1084v-80l-934 -1256h954v-104h-1124v80z" />
    <glyph glyph-name="bracketleft" unicode="[" horiz-adv-x="905" 
d="M301 1407v-1683h528v-93h-639v1870h639v-94h-528z" />
    <glyph glyph-name="backslash" unicode="\" horiz-adv-x="880" 
d="M188 1440l619 -1911h-115l-618 1911h114z" />
    <glyph glyph-name="bracketright" unicode="]" horiz-adv-x="905" 
d="M715 -369h-639l-2 93h530v1683h-530v94h641v-1870z" />
    <glyph glyph-name="asciicircum" unicode="^" horiz-adv-x="1169" 
d="M586 1360l-373 -541h-121l428 621h129l428 -621h-121z" />
    <glyph glyph-name="underscore" unicode="_" horiz-adv-x="1024" 
d="M0 0h1024v-100h-1024v100z" />
    <glyph glyph-name="grave" unicode="`" horiz-adv-x="581" 
d="M104 1499l132 2l241 -334h-123z" />
    <glyph glyph-name="a" unicode="a" horiz-adv-x="1363" 
d="M647 63q184 0 307 128.5t123 322.5t-123 322.5t-307 128.5q-187 0 -308.5 -127t-121.5 -324q0 -195 121.5 -323t308.5 -128zM1077 807v223h113v-1030h-113v221q-61 -122 -177 -192t-263 -70q-232 0 -382.5 157t-150.5 398q0 243 150.5 400t382.5 157q148 0 263.5 -70.5
t176.5 -193.5z" />
    <glyph glyph-name="b" unicode="b" horiz-adv-x="1359" 
d="M713 961q-187 0 -308.5 -126.5t-121.5 -320.5t121.5 -319t308.5 -125q186 0 308 125.5t122 318.5q0 194 -121.5 320.5t-308.5 126.5zM1255 514q0 -241 -150.5 -398t-381.5 -157q-147 0 -262 69.5t-178 190.5v-219h-111v1501h115v-688q61 120 175.5 189t260.5 69
q231 0 381.5 -157.5t150.5 -399.5z" />
    <glyph glyph-name="c" unicode="c" horiz-adv-x="1234" 
d="M639 1071q181 0 319 -104.5t170 -266.5l-110 -16q-31 124 -138 204.5t-239 80.5q-183 0 -303.5 -128.5t-120.5 -326.5q0 -196 120 -324.5t302 -128.5q136 0 242 76t137 195l112 -17q-37 -155 -175 -255.5t-316 -100.5q-232 0 -383.5 157t-151.5 398q0 243 151.5 400
t383.5 157z" />
    <glyph glyph-name="d" unicode="d" horiz-adv-x="1359" 
d="M647 961q-187 0 -308.5 -126.5t-121.5 -320.5q0 -193 122 -318.5t308 -125.5q187 0 308.5 125t121.5 319t-121.5 320.5t-308.5 126.5zM104 514q0 159 68.5 286.5t190.5 199t274 71.5q146 0 261 -69t177 -189v688h113v-1501h-111v219q-63 -121 -178 -190.5t-262 -69.5
q-231 0 -382 157t-151 398z" />
    <glyph glyph-name="e" unicode="e" horiz-adv-x="1296" 
d="M221 580h854q-17 171 -135 278t-289 107q-174 0 -293.5 -107t-136.5 -278zM104 520q0 239 156 395t395 156q234 0 385.5 -155.5t151.5 -395.5v-43h-973q12 -182 133 -298t301 -116q132 0 245 74.5t153 188.5l110 -19q-50 -151 -192 -249.5t-312 -98.5q-241 0 -397 158
t-156 403z" />
    <glyph glyph-name="f" unicode="f" horiz-adv-x="739" 
d="M381 1260v-230h274v-98h-274v-932h-113v932h-176v98h176v238q0 128 69 201t181 73q80 0 150 -24v-101q-66 19 -129 19q-71 0 -114.5 -45.5t-43.5 -130.5z" />
    <glyph glyph-name="g" unicode="g" horiz-adv-x="1359" 
d="M647 70q187 0 308.5 126t121.5 318q0 196 -122 323.5t-308 127.5q-189 0 -309.5 -127t-120.5 -324q0 -193 122.5 -318.5t307.5 -125.5zM662 -408q182 0 296.5 114.5t114.5 301.5v209q-65 -119 -178 -185.5t-256 -66.5q-233 0 -384 155.5t-151 393.5q0 242 151 398.5
t384 156.5q144 0 257 -67t179 -185v213h113v-1022q0 -234 -146 -377t-376 -143q-204 0 -354.5 114t-176.5 289l111 15q22 -136 140 -225t276 -89z" />
    <glyph glyph-name="h" unicode="h" 
d="M172 1501h115v-647q50 99 150.5 158t221.5 59q193 0 308.5 -130t115.5 -335v-606h-112v606q0 159 -88 259t-238 100t-254 -102t-104 -255v-608h-115v1501z" />
    <glyph glyph-name="i" unicode="i" horiz-adv-x="493" 
d="M190 1030h113v-1030h-113v1030zM248 1237q-38 0 -62 24t-24 62q0 37 24 60.5t62 23.5q37 0 61.5 -23.5t24.5 -60.5q0 -38 -24.5 -62t-61.5 -24z" />
    <glyph glyph-name="j" unicode="j" horiz-adv-x="487" 
d="M184 -186v1216h113v-1225q0 -116 -68.5 -189t-177.5 -73q-76 0 -155 27v104q67 -24 133 -24q69 0 112 46t43 118zM240 1237q-37 0 -61.5 24t-24.5 62q0 37 24 60.5t62 23.5q37 0 61.5 -23.5t24.5 -60.5q0 -38 -24.5 -62t-61.5 -24z" />
    <glyph glyph-name="k" unicode="k" horiz-adv-x="1034" 
d="M172 0v1501h115v-905l493 434h158l-553 -485l571 -545h-155l-514 492v-492h-115z" />
    <glyph glyph-name="l" unicode="l" horiz-adv-x="454" 
d="M172 1501h113v-1501h-113v1501z" />
    <glyph glyph-name="m" unicode="m" horiz-adv-x="1894" 
d="M287 0h-115v1030h111v-147q46 89 131 138.5t196 49.5q131 0 228 -66.5t133 -177.5q42 112 139 177t229 65q179 0 291.5 -123t112.5 -319v-627h-115v627q0 151 -83 244.5t-216 93.5q-141 0 -229 -93.5t-88 -244.5v-627h-113v627q0 152 -81.5 245t-215.5 93
q-142 0 -228.5 -93t-86.5 -245v-627z" />
    <glyph glyph-name="n" unicode="n" 
d="M172 1030h115v-172q51 97 155 155t226 58q193 0 304 -129t111 -336v-606h-112v606q0 161 -82 260t-230 99q-152 0 -262 -102t-110 -255v-608h-115v1030z" />
    <glyph glyph-name="o" unicode="o" horiz-adv-x="1290" 
d="M645 1071q236 0 389.5 -157t153.5 -400t-153 -399t-390 -156q-238 0 -390.5 156t-152.5 399t152.5 400t390.5 157zM645 63q187 0 308.5 128t121.5 323q0 197 -121.5 324t-308.5 127t-308.5 -127t-121.5 -324q0 -195 121.5 -323t308.5 -128z" />
    <glyph glyph-name="p" unicode="p" horiz-adv-x="1359" 
d="M713 70q187 0 308.5 125t121.5 319q0 195 -122 321t-308 126q-187 0 -308.5 -126.5t-121.5 -320.5t121.5 -319t308.5 -125zM1255 514q0 -119 -40 -222t-110 -176.5t-169 -115t-213 -41.5q-146 0 -260.5 69t-175.5 189v-688h-115v1501h111v-221q63 122 178 192t262 70
q230 0 381 -158t151 -399z" />
    <glyph glyph-name="q" unicode="q" horiz-adv-x="1359" 
d="M647 70q187 0 308.5 125t121.5 319t-121.5 320.5t-308.5 126.5q-186 0 -308 -126t-122 -321q0 -194 121.5 -319t308.5 -125zM104 514q0 241 151.5 399t381.5 158q147 0 262 -70t178 -192v221h111v-1501h-113v688q-62 -120 -177 -189t-261 -69q-232 0 -382.5 157
t-150.5 398z" />
    <glyph glyph-name="r" unicode="r" horiz-adv-x="794" 
d="M172 1030h111v-162q42 95 116 148t172 53q72 0 150 -33v-108q-78 37 -156 37q-127 0 -202.5 -104.5t-75.5 -274.5v-586h-115v1030z" />
    <glyph glyph-name="s" unicode="s" horiz-adv-x="1077" 
d="M969 287q0 -143 -117 -235.5t-297 -92.5q-193 0 -317.5 106t-124.5 269h110q0 -118 93.5 -194.5t238.5 -76.5q131 0 217 61.5t86 154.5q0 42 -21 74.5t-51 52t-77.5 34.5t-84.5 21.5t-89 13.5q-53 8 -89 14.5t-81 18t-75 25t-61 35t-49 47.5t-29.5 63t-11.5 82
q0 134 110 222.5t275 88.5q182 0 302 -98t120 -248l-112 2q0 104 -88 171t-222 67q-117 0 -195.5 -58.5t-78.5 -148.5q0 -42 19 -72t60 -49.5t91 -31.5t127 -23q49 -8 83 -14t82 -18.5t80.5 -26.5t68.5 -36.5t58 -49.5t36 -65.5t14 -84.5z" />
    <glyph glyph-name="t" unicode="t" horiz-adv-x="759" 
d="M248 233v699h-176v96h180l12 238h96v-238h277v-96h-277v-696q0 -78 44.5 -127t117.5 -50q61 0 133 21v-98q-67 -23 -153 -23q-115 0 -184.5 74.5t-69.5 199.5z" />
    <glyph glyph-name="u" unicode="u" 
d="M1063 0h-113v172q-51 -97 -155.5 -155t-227.5 -58q-193 0 -304 129t-111 334v608h114v-608q0 -160 82 -259.5t230 -99.5q152 0 262 102t110 255v610h113v-1030z" />
    <glyph glyph-name="v" unicode="v" horiz-adv-x="1146" 
d="M651 0h-155l-422 1030h123l376 -936l377 936h123z" />
    <glyph glyph-name="w" unicode="w" horiz-adv-x="1787" 
d="M604 0h-151l-359 1030h121l315 -915l295 915h136l301 -917l313 917h119l-359 -1030h-151l-291 899z" />
    <glyph glyph-name="x" unicode="x" horiz-adv-x="1079" 
d="M233 0h-139l365 537l-344 493h137l287 -422l290 422h134l-342 -493l362 -537h-135l-309 459z" />
    <glyph glyph-name="y" unicode="y" horiz-adv-x="1157" 
d="M129 -428v102q74 -24 129 -24q50 0 88.5 20t74.5 76t53 90.5t57 128.5q4 9 6 14t5.5 12.5t6.5 14.5l-475 1024h127l405 -885l355 885h120l-419 -1038q-26 -64 -43.5 -105t-43.5 -93t-47.5 -84.5t-51 -67t-59.5 -53.5t-68 -31.5t-81 -12.5q-73 0 -139 27z" />
    <glyph glyph-name="z" unicode="z" horiz-adv-x="1124" 
d="M104 74l723 850h-702v106h874v-76l-723 -850h744v-104h-916v74z" />
    <glyph glyph-name="braceleft" unicode="{" horiz-adv-x="724" 
d="M539 -276h112l-2 -93h-147q-100 0 -164 68t-64 172v494q0 64 -36 104.5t-93 40.5h-20v131h20q57 0 93 40.5t36 104.5v474q0 106 64 173.5t164 67.5h149v-94h-112q-68 0 -111 -46.5t-43 -119.5v-463q0 -83 -45.5 -138.5t-116.5 -61.5l-20 -3l20 -2q71 -5 116.5 -60.5
t45.5 -137.5v-486q0 -72 43.5 -118.5t110.5 -46.5z" />
    <glyph glyph-name="bar" unicode="|" horiz-adv-x="489" 
d="M190 1501h109v-1972h-109v1972z" />
    <glyph glyph-name="braceright" unicode="}" horiz-adv-x="724" 
d="M223 -369h-147l-2 93h112q67 0 110.5 46.5t43.5 118.5v486q0 82 45.5 137.5t116.5 60.5l20 2l-20 3q-71 6 -116.5 61.5t-45.5 138.5v463q0 73 -43 119.5t-111 46.5h-112v94h149q100 0 164 -67.5t64 -173.5v-474q0 -64 36 -104.5t93 -40.5h20v-131h-20q-57 0 -93 -40.5
t-36 -104.5v-494q0 -104 -64 -172t-164 -68z" />
    <glyph glyph-name="asciitilde" unicode="~" horiz-adv-x="1263" 
d="M158 600l-54 76q52 61 127 98t144 37q55 0 115.5 -24.5t114 -60t106 -71t107 -60t100.5 -24.5q104 0 188 97l53 -76q-50 -57 -117 -91t-131 -34q-54 0 -114 25t-113 60.5t-104.5 71t-107 60.5t-103.5 25q-55 0 -110.5 -29.5t-100.5 -79.5z" />
    <glyph glyph-name="exclamdown" unicode="&#xa1;" horiz-adv-x="423" 
d="M150 -471v375l20 659h82l20 -659v-375h-122zM211 991q38 0 62 -24t24 -62q0 -37 -24 -61.5t-62 -24.5q-37 0 -61.5 24.5t-24.5 61.5t24.5 61.5t61.5 24.5z" />
    <glyph glyph-name="cent" unicode="&#xa2;" horiz-adv-x="1234" 
d="M702 -37v-176h-112v174q-214 19 -350 172.5t-136 380.5q0 228 135.5 382t350.5 173v168h112v-170q160 -19 278.5 -120t147.5 -247l-110 -16q-31 124 -138 204.5t-239 80.5q-183 0 -303.5 -128.5t-120.5 -326.5q0 -196 120 -324.5t302 -128.5q136 0 242 76t137 195
l112 -17q-34 -141 -152.5 -238t-275.5 -114z" />
    <glyph glyph-name="sterling" unicode="&#xa3;" horiz-adv-x="1198" 
d="M1090 1059l-111 -19q-9 152 -86.5 250.5t-196.5 98.5q-113 0 -182.5 -88t-69.5 -224v-303h533v-106h-537q-4 -261 -59 -390t-154 -174h865v-104h-988v145q41 6 72.5 23t60.5 54.5t48 94t30.5 145.5t12.5 206h-203v106h205v303q0 182 100 298t264 116q167 0 274 -120.5
t122 -311.5z" />
    <glyph glyph-name="currency" unicode="&#xa4;" horiz-adv-x="1531" 
d="M766 80q187 0 308.5 122.5t121.5 311.5q0 190 -121 313t-309 123q-185 0 -306.5 -123t-121.5 -313t120 -312t308 -122zM1124 924l211 204l70 -75l-207 -203q111 -143 111 -336t-111 -336l209 -203l-72 -75l-211 204q-144 -122 -358 -122q-212 0 -356 122l-211 -204
l-74 73l209 205q-111 143 -111 336t111 336l-207 205l72 73l211 -202q146 121 356 121q213 0 358 -123z" />
    <glyph glyph-name="yen" unicode="&#xa5;" horiz-adv-x="1355" 
d="M109 584h475l-512 854l139 2l469 -799l465 799h139l-510 -856h473v-105h-508v-219h508v-104h-508v-156h-121v156h-509v104h509v219h-509v105z" />
    <glyph glyph-name="section" unicode="&#xa7;" 
d="M981 571q0 28 -7.5 51.5t-17.5 41t-30.5 32.5t-36 25t-44.5 18.5t-46 13.5t-50.5 9.5t-47.5 6.5t-47 5q-13 1 -19 2q-42 4 -64 8q-145 -6 -231 -62.5t-86 -141.5q0 -35 11 -63t27 -47t45 -34.5t53 -24.5t65.5 -16.5t67 -11t71.5 -8.5q15 -3 65 -8q151 4 236.5 58.5
t85.5 145.5zM201 1100q0 149 116 246.5t293 97.5q167 0 286 -103.5t134 -263.5l-115 -12q-8 117 -93.5 192.5t-211.5 75.5q-130 0 -212.5 -63t-82.5 -162q0 -32 7.5 -59t24.5 -48t34 -36.5t48.5 -28.5t54 -21.5t63.5 -16.5t65 -12.5t70 -11.5q45 -7 68 -11t65.5 -13
t65 -16.5t57 -20.5t53.5 -27t42 -34.5t35 -44t20 -54.5t8 -67q0 -100 -68.5 -171t-187.5 -91q96 -28 153.5 -97.5t57.5 -177.5q0 -161 -122.5 -263.5t-312.5 -102.5q-177 0 -299.5 103t-136.5 261l119 14q8 -119 97.5 -193.5t224.5 -74.5q138 0 224.5 67.5t86.5 178.5
q0 54 -22.5 93.5t-50.5 61.5t-87 39.5t-95 23.5t-113 16q-2 0 -3.5 0.5t-3.5 0.5q-41 6 -68.5 10.5t-66 12t-64.5 15.5t-58 20.5t-53.5 27t-43 35t-34 44.5t-20.5 55t-8 67q0 99 68.5 170.5t187.5 93.5q-89 29 -142.5 99t-53.5 176z" />
    <glyph glyph-name="dieresis" unicode="&#xa8;" horiz-adv-x="851" 
d="M190 1217q-38 0 -62 23t-24 60q0 38 24 61t62 23t62 -23t24 -61q0 -37 -24 -60t-62 -23zM662 1217q-38 0 -62.5 23t-24.5 60q0 38 24 61t63 23q38 0 62 -23t24 -61q0 -37 -24 -60t-62 -23z" />
    <glyph glyph-name="copyright" unicode="&#xa9;" horiz-adv-x="1867" 
d="M934 1229q-206 0 -370 -93t-255.5 -256t-91.5 -364q0 -206 91.5 -370t255.5 -255.5t370 -91.5t370 91.5t255.5 255.5t91.5 370q0 201 -91.5 364t-255.5 256t-370 93zM942 1067q168 0 303.5 -94t175.5 -238l-86 -22q-41 119 -150 191.5t-245 72.5q-192 0 -317 -130.5
t-125 -332.5q0 -203 124.5 -333t319.5 -130q137 0 250.5 78t153.5 199l77 -25q-43 -149 -179.5 -245.5t-303.5 -96.5q-235 0 -387 156t-152 397t152.5 397t388.5 156zM934 -289q-233 0 -417.5 103t-288 286.5t-103.5 415.5q0 135 38.5 258.5t111 221.5t171 170.5t224 111.5
t264.5 39q174 0 324.5 -60t257 -165t167 -254t60.5 -322q0 -232 -103.5 -415.5t-288 -286.5t-417.5 -103z" />
    <glyph glyph-name="guillemotleft" unicode="&#xab;" horiz-adv-x="1243" 
d="M649 1030l-422 -516l422 -514h-139l-418 514l420 516h137zM1118 1030l-422 -516l422 -514h-139l-420 514l420 516h139z" />
    <glyph glyph-name="logicalnot" unicode="&#xac;" horiz-adv-x="1300" 
d="M1081 143v465h-977v103h1072v-568h-95z" />
    <glyph glyph-name="registered" unicode="&#xae;" horiz-adv-x="1867" 
d="M217 518q0 -206 91.5 -369.5t255.5 -255.5t370 -92t370 92t255.5 255.5t91.5 369.5q0 151 -53.5 283.5t-147.5 227.5t-228 149.5t-288 54.5t-288 -54.5t-228 -149.5t-147.5 -227.5t-53.5 -283.5zM1026 950h-319v-438h323q101 0 166.5 62t65.5 159q0 99 -65.5 158
t-170.5 59zM934 -285q-174 0 -324.5 60t-257 166t-167 255t-60.5 322q0 170 60.5 319t167 255t257 167.5t324.5 61.5q233 0 417.5 -102.5t288 -286t103.5 -414.5q0 -173 -60.5 -322t-167 -255t-257 -166t-324.5 -60zM1100 438l246 -413h-109l-240 405h-290v-405h-97v1007
h430q138 0 227 -85t89 -216q0 -114 -71 -195t-185 -98z" />
    <glyph glyph-name="macron" unicode="&#xaf;" horiz-adv-x="851" 
d="M748 1360v-88h-644v88h644z" />
    <glyph glyph-name="degree" unicode="&#xb0;" horiz-adv-x="1030" 
d="M516 711q-186 0 -299 109t-113 288q0 180 113 289.5t299 109.5q185 0 297.5 -109.5t112.5 -289.5q0 -179 -113 -288t-297 -109zM516 1417q-143 0 -230 -85t-87 -224q0 -138 87.5 -222.5t229.5 -84.5q141 0 228 84.5t87 222.5q0 139 -87 224t-228 85z" />
    <glyph glyph-name="plusminus" unicode="&#xb1;" horiz-adv-x="1146" 
d="M104 106h938v-106h-938v106zM631 381h-115v281h-412v108h412v260h115v-260h411v-108h-411v-281z" />
    <glyph glyph-name="acute" unicode="&#xb4;" horiz-adv-x="581" 
d="M477 1499l-250 -332h-123l244 334z" />
    <glyph glyph-name="paragraph" unicode="&#xb6;" horiz-adv-x="1392" 
d="M1223 1343h-187v-1806h-104v1806h-270v-1806h-105v1143q-205 0 -330 104.5t-123 274.5q0 170 125.5 275.5t327.5 105.5h666v-97z" />
    <glyph glyph-name="periodcentered" unicode="&#xb7;" horiz-adv-x="378" 
d="M190 506q-38 0 -62 23.5t-24 60.5q0 38 24 62t62 24q37 0 61.5 -24t24.5 -62q0 -37 -24.5 -60.5t-61.5 -23.5z" />
    <glyph glyph-name="cedilla" unicode="&#xb8;" horiz-adv-x="645" 
d="M295 -195h-80l27 207h82l-17 -141q107 0 171.5 -61t64.5 -158q0 -91 -61 -148t-158 -57q-84 0 -145 47.5t-75 122.5l74 18q14 -51 53 -81.5t91 -30.5q60 0 97.5 36.5t37.5 94.5q0 69 -44 110t-118 41z" />
    <glyph glyph-name="guillemotright" unicode="&#xbb;" horiz-adv-x="1239" 
d="M680 514l-418 -514h-139l422 514l-422 516h139zM1149 514l-420 -514h-139l422 514l-422 516h139z" />
    <glyph glyph-name="questiondown" unicode="&#xbf;" horiz-adv-x="1200" 
d="M565 653h113q0 -83 -13 -143.5t-43.5 -108t-69.5 -82.5t-101 -75q-35 -24 -52 -36t-46.5 -35.5t-44 -43t-31.5 -47t-24 -60t-7 -69.5q0 -142 98.5 -237t247.5 -95q153 0 250.5 103.5t118.5 271.5l114 -23q-25 -205 -156.5 -333.5t-330.5 -128.5q-198 0 -330.5 126.5
t-132.5 315.5q0 58 14.5 108t34.5 84t59 70.5t69 58t83 56.5q103 66 141.5 131.5t38.5 191.5zM623 1026q38 0 62 -24t24 -62q0 -37 -24 -61.5t-62 -24.5q-37 0 -61.5 24.5t-24.5 61.5t24.5 61.5t61.5 24.5z" />
    <glyph glyph-name="Agrave" unicode="&#xc0;" horiz-adv-x="1380" 
d="M690 1329l-356 -919h713zM299 309l-119 -309h-129l553 1440h170l553 -1440h-127l-121 309h-780zM625 1583l-224 291h136l219 -291h-131z" />
    <glyph glyph-name="Aacute" unicode="&#xc1;" horiz-adv-x="1380" 
d="M690 1329l-356 -919h713zM299 309l-119 -309h-129l553 1440h170l553 -1440h-127l-121 309h-780zM616 1583l220 291h135l-223 -291h-132z" />
    <glyph glyph-name="Acircumflex" unicode="&#xc2;" horiz-adv-x="1380" 
d="M690 1329l-356 -919h713zM299 309l-119 -309h-129l553 1440h170l553 -1440h-127l-121 309h-780zM690 1806l-196 -223h-125l258 291h129l258 -291h-123z" />
    <glyph glyph-name="Atilde" unicode="&#xc3;" horiz-adv-x="1380" 
d="M690 1329l-356 -919h713zM299 309l-119 -309h-129l553 1440h170l553 -1440h-127l-121 309h-780zM432 1653l-70 49q25 53 82 87t125 34q46 0 86.5 -17t65.5 -37.5t60 -37.5t71 -17q45 0 81 23t54 61l74 -45q-25 -56 -83.5 -90.5t-131.5 -34.5q-48 0 -89.5 17t-66 37.5
t-57.5 37.5t-66 17q-41 0 -76.5 -23t-58.5 -61z" />
    <glyph glyph-name="Adieresis" unicode="&#xc4;" horiz-adv-x="1380" 
d="M690 1329l-356 -919h713zM299 309l-119 -309h-129l553 1440h170l553 -1440h-127l-121 309h-780zM477 1604q-38 0 -62 23.5t-24 60.5t24 60.5t62 23.5q37 0 61.5 -23.5t24.5 -60.5t-24.5 -60.5t-61.5 -23.5zM907 1604q-37 0 -61.5 23.5t-24.5 60.5t24.5 60.5t61.5 23.5
t61.5 -23.5t24.5 -60.5t-24.5 -60.5t-61.5 -23.5z" />
    <glyph glyph-name="Aring" unicode="&#xc5;" horiz-adv-x="1380" 
d="M690 1329l-356 -919h713zM688 1817q-43 0 -70.5 -27t-27.5 -70t27.5 -70.5t70.5 -27.5t71.5 27.5t28.5 70.5t-28 70t-72 27zM299 309l-119 -309h-129l553 1440h170l553 -1440h-127l-121 309h-780zM688 1542q-80 0 -132 50t-52 128q0 76 52 126t132 50q79 0 130.5 -49.5
t51.5 -126.5q0 -78 -52 -128t-130 -50z" />
    <glyph glyph-name="AE" unicode="&#xc6;" horiz-adv-x="1861" 
d="M401 416h490v930zM1004 111h743v-111h-856v309h-543l-162 -309h-135l754 1440h921v-111h-722v-547h641v-104h-641v-567z" />
    <glyph glyph-name="Ccedilla" unicode="&#xc7;" horiz-adv-x="1681" 
d="M895 -195h-78l19 146q-206 10 -368 110.5t-252.5 272.5t-90.5 385q0 166 56.5 309.5t156 245t239.5 159.5t302 58q245 0 435 -149.5t240 -374.5l-118 -17q-42 183 -199.5 306.5t-357.5 123.5q-182 0 -326.5 -84.5t-225.5 -235.5t-81 -341q0 -142 47.5 -264.5t131 -209.5
t201 -136.5t253.5 -49.5q202 0 360 118.5t201 297.5l114 -24q-46 -206 -224.5 -348t-411.5 -154l-11 -78q108 0 172 -60.5t64 -158.5q0 -91 -61 -148t-158 -57q-84 0 -144 47t-75 123l75 18q13 -51 52 -81.5t90 -30.5q61 0 98 36t37 95q0 69 -43.5 110t-118.5 41z" />
    <glyph glyph-name="Egrave" unicode="&#xc8;" horiz-adv-x="1300" 
d="M309 694v-583h877v-111h-996v1440h975v-111h-856v-528h774v-107h-774zM397 1874h135l220 -291h-134z" />
    <glyph glyph-name="Eacute" unicode="&#xc9;" horiz-adv-x="1300" 
d="M309 694v-583h877v-111h-996v1440h975v-111h-856v-528h774v-107h-774zM829 1874h136l-224 -291h-131z" />
    <glyph glyph-name="Ecircumflex" unicode="&#xca;" horiz-adv-x="1300" 
d="M309 694v-583h877v-111h-996v1440h975v-111h-856v-528h774v-107h-774zM487 1583h-125l259 291h129l258 -291h-123l-199 223z" />
    <glyph glyph-name="Edieresis" unicode="&#xcb;" horiz-adv-x="1300" 
d="M309 694v-583h877v-111h-996v1440h975v-111h-856v-528h774v-107h-774zM471 1604q-37 0 -61.5 23.5t-24.5 60.5t24.5 60.5t61.5 23.5t61.5 -23.5t24.5 -60.5t-24.5 -60.5t-61.5 -23.5zM901 1604q-37 0 -61.5 23.5t-24.5 60.5t24.5 60.5t61.5 23.5t61.5 -23.5t24.5 -60.5
t-24.5 -60.5t-61.5 -23.5z" />
    <glyph glyph-name="Igrave" unicode="&#xcc;" horiz-adv-x="509" 
d="M190 1440h121v-1440h-121v1440zM-39 1874h135l219 -291h-131z" />
    <glyph glyph-name="Iacute" unicode="&#xcd;" horiz-adv-x="505" 
d="M197 1440h120v-1440h-120v1440zM401 1874h136l-224 -291h-131z" />
    <glyph glyph-name="Icircumflex" unicode="&#xce;" horiz-adv-x="509" 
d="M197 1440h120v-1440h-120v1440zM57 1583h-125l258 291h129l259 -291h-123l-199 223z" />
    <glyph glyph-name="Idieresis" unicode="&#xcf;" horiz-adv-x="503" 
d="M190 1440h121v-1440h-121v1440zM37 1604q-38 0 -62 23.5t-24 60.5t24 60.5t62 23.5q37 0 61.5 -23.5t24.5 -60.5t-24.5 -60.5t-61.5 -23.5zM467 1604q-37 0 -61.5 23.5t-24.5 60.5t24.5 60.5t61.5 23.5t61.5 -23.5t24.5 -60.5t-24.5 -60.5t-61.5 -23.5z" />
    <glyph glyph-name="Ntilde" unicode="&#xd1;" horiz-adv-x="1478" 
d="M350 1440l817 -1290v1290h121v-1440h-160l-817 1288v-1288h-121v1440h160zM475 1653l-69 49q24 53 80.5 87t125.5 34q45 0 85.5 -17t65 -37.5t60 -37.5t72.5 -17q44 0 80 23t55 61l72 -45q-25 -56 -83.5 -90.5t-131.5 -34.5q-48 0 -89.5 17t-65.5 37.5t-57 37.5t-67 17
q-42 0 -77 -23t-56 -61z" />
    <glyph glyph-name="Ograve" unicode="&#xd2;" horiz-adv-x="1785" 
d="M893 -51q-166 0 -309 57.5t-244 158.5t-158 244.5t-57 309.5t57.5 309.5t158 245t243.5 159.5t309 58q165 0 308 -58t244 -159.5t158.5 -245t57.5 -309.5t-57.5 -309.5t-158.5 -244.5t-244 -158.5t-308 -57.5zM893 1380q-186 0 -334 -84.5t-230.5 -235.5t-82.5 -341
q0 -188 82.5 -339t230.5 -236t334 -85q139 0 259.5 49.5t205.5 136.5t133.5 209.5t48.5 264.5q0 190 -82.5 341t-230.5 235.5t-334 84.5zM604 1874h135l219 -291h-133z" />
    <glyph glyph-name="Oacute" unicode="&#xd3;" horiz-adv-x="1785" 
d="M893 -51q-166 0 -309 57.5t-244 158.5t-158 244.5t-57 309.5t57.5 309.5t158 245t243.5 159.5t309 58q165 0 308 -58t244 -159.5t158.5 -245t57.5 -309.5t-57.5 -309.5t-158.5 -244.5t-244 -158.5t-308 -57.5zM893 1380q-186 0 -334 -84.5t-230.5 -235.5t-82.5 -341
q0 -188 82.5 -339t230.5 -236t334 -85q139 0 259.5 49.5t205.5 136.5t133.5 209.5t48.5 264.5q0 190 -82.5 341t-230.5 235.5t-334 84.5zM1036 1874h135l-223 -291h-131z" />
    <glyph glyph-name="Ocircumflex" unicode="&#xd4;" horiz-adv-x="1785" 
d="M893 1380q-186 0 -334 -84.5t-230.5 -235.5t-82.5 -341q0 -188 82.5 -339t230.5 -236t334 -85q139 0 259.5 49.5t205.5 136.5t133.5 209.5t48.5 264.5q0 190 -82.5 341t-230.5 235.5t-334 84.5zM893 -51q-166 0 -309 57.5t-244 158.5t-158 244.5t-57 309.5t57.5 309.5
t158 245t243.5 159.5t309 58q165 0 308 -58t244 -159.5t158.5 -245t57.5 -309.5t-57.5 -309.5t-158.5 -244.5t-244 -158.5t-308 -57.5zM893 1806l-199 -223h-125l258 291h129l258 -291h-122z" />
    <glyph glyph-name="Otilde" unicode="&#xd5;" horiz-adv-x="1785" 
d="M893 1380q-186 0 -334 -84.5t-230.5 -235.5t-82.5 -341q0 -188 82.5 -339t230.5 -236t334 -85q139 0 259.5 49.5t205.5 136.5t133.5 209.5t48.5 264.5q0 190 -82.5 341t-230.5 235.5t-334 84.5zM893 -51q-166 0 -309 57.5t-244 158.5t-158 244.5t-57 309.5t57.5 309.5
t158 245t243.5 159.5t309 58q165 0 308 -58t244 -159.5t158.5 -245t57.5 -309.5t-57.5 -309.5t-158.5 -244.5t-244 -158.5t-308 -57.5zM623 1653l-70 49q24 53 80.5 87t126.5 34q45 0 85 -17t65 -37.5t60 -37.5t72 -17q45 0 81 23t55 61l71 -45q-25 -56 -83.5 -90.5
t-131.5 -34.5q-48 0 -89 17t-65.5 37.5t-57 37.5t-66.5 17q-42 0 -77 -23t-56 -61z" />
    <glyph glyph-name="Odieresis" unicode="&#xd6;" horiz-adv-x="1785" 
d="M893 -51q-166 0 -309 57.5t-244 158.5t-158 244.5t-57 309.5t57.5 309.5t158 245t243.5 159.5t309 58q165 0 308 -58t244 -159.5t158.5 -245t57.5 -309.5t-57.5 -309.5t-158.5 -244.5t-244 -158.5t-308 -57.5zM893 1380q-186 0 -334 -84.5t-230.5 -235.5t-82.5 -341
q0 -188 82.5 -339t230.5 -236t334 -85q139 0 259.5 49.5t205.5 136.5t133.5 209.5t48.5 264.5q0 190 -82.5 341t-230.5 235.5t-334 84.5zM678 1604q-37 0 -61.5 23.5t-24.5 60.5t24.5 60.5t61.5 23.5t61.5 -23.5t24.5 -60.5t-24.5 -60.5t-61.5 -23.5zM1108 1604
q-37 0 -61.5 23.5t-24.5 60.5t24.5 60.5t61.5 23.5t61.5 -23.5t24.5 -60.5t-24.5 -60.5t-61.5 -23.5z" />
    <glyph glyph-name="multiply" unicode="&#xd7;" horiz-adv-x="780" 
d="M176 307l-72 70l218 233l-218 234l72 69l213 -229l215 229l72 -69l-217 -234l217 -233l-72 -70l-215 230z" />
    <glyph glyph-name="Oslash" unicode="&#xd8;" horiz-adv-x="1744" 
d="M872 1380q-180 0 -323 -85t-223 -236t-80 -340q0 -188 81 -338.5t222 -233.5l594 1174q-128 59 -271 59zM872 59q179 0 322 84t224 235t81 341q0 176 -70 318.5t-194 230.5l-590 -1168q106 -41 227 -41zM594 -2l-141 -285h-121l166 330q-174 95 -273.5 273t-99.5 403
q0 220 95.5 396.5t266.5 276t385 99.5q173 0 322 -70l170 340h121l-197 -389q155 -101 243.5 -272t88.5 -381q0 -220 -96 -396t-267 -275t-385 -99q-142 0 -278 49z" />
    <glyph glyph-name="Ugrave" unicode="&#xd9;" horiz-adv-x="1480" 
d="M1186 580v860h121v-860q0 -184 -71.5 -328t-200.5 -223.5t-294 -79.5q-252 0 -409.5 175.5t-157.5 455.5v860h121v-860q0 -227 123 -374t323 -147q201 0 323 143.5t122 377.5zM463 1874h135l219 -291h-131z" />
    <glyph glyph-name="Uacute" unicode="&#xda;" horiz-adv-x="1480" 
d="M1186 580v860h121v-860q0 -184 -71.5 -328t-200.5 -223.5t-294 -79.5q-252 0 -409.5 175.5t-157.5 455.5v860h121v-860q0 -227 123 -374t323 -147q201 0 323 143.5t122 377.5zM872 1874h136l-224 -291h-131z" />
    <glyph glyph-name="Ucircumflex" unicode="&#xdb;" horiz-adv-x="1480" 
d="M1186 580v860h121v-860q0 -184 -71.5 -328t-200.5 -223.5t-294 -79.5q-252 0 -409.5 175.5t-157.5 455.5v860h121v-860q0 -227 123 -374t323 -147q201 0 323 143.5t122 377.5zM739 1806l-198 -223h-123l258 291h129l258 -291h-123z" />
    <glyph glyph-name="Udieresis" unicode="&#xdc;" horiz-adv-x="1480" 
d="M1186 580v860h121v-860q0 -184 -71.5 -328t-200.5 -223.5t-294 -79.5q-252 0 -409.5 175.5t-157.5 455.5v860h121v-860q0 -227 123 -374t323 -147q201 0 323 143.5t122 377.5zM524 1604q-37 0 -61.5 23.5t-24.5 60.5t24.5 60.5t61.5 23.5q38 0 62 -23.5t24 -60.5
t-24 -60.5t-62 -23.5zM956 1604q-38 0 -62 23.5t-24 60.5t24 60.5t62 23.5q37 0 61.5 -23.5t24.5 -60.5t-24.5 -60.5t-61.5 -23.5z" />
    <glyph glyph-name="Yacute" unicode="&#xdd;" horiz-adv-x="1239" 
d="M559 0v563l-508 877h135l435 -758l430 758h137l-508 -877v-563h-121zM752 1874h135l-223 -291h-132z" />
    <glyph glyph-name="germandbls" unicode="&#xdf;" horiz-adv-x="1351" 
d="M291 975v-975h-121v983q0 214 134 352t343 138q188 0 312 -110.5t124 -272.5q0 -129 -76 -214t-202 -106q182 -24 292 -134.5t109 -279.5q0 -178 -119 -292.5t-301 -114.5q-172 0 -325 100l39 105q131 -97 280 -97q136 0 220.5 86t84.5 222q0 160 -118 255t-320 95h-76
v106h80q137 0 224.5 72t87.5 190t-90.5 198.5t-227.5 80.5q-156 0 -255 -108t-99 -279z" />
    <glyph glyph-name="agrave" unicode="&#xe0;" horiz-adv-x="1363" 
d="M647 63q184 0 307 128.5t123 322.5t-123 322.5t-307 128.5q-187 0 -308.5 -127t-121.5 -324q0 -195 121.5 -323t308.5 -128zM1077 807v223h113v-1030h-113v221q-61 -122 -177 -192t-263 -70q-232 0 -382.5 157t-150.5 398q0 243 150.5 400t382.5 157q148 0 263.5 -70.5
t176.5 -193.5zM580 1153l-250 332h131l244 -332h-125z" />
    <glyph glyph-name="aacute" unicode="&#xe1;" horiz-adv-x="1363" 
d="M647 63q184 0 307 128.5t123 322.5t-123 322.5t-307 128.5q-187 0 -308.5 -127t-121.5 -324q0 -195 121.5 -323t308.5 -128zM1077 807v223h113v-1030h-113v221q-61 -122 -177 -192t-263 -70q-232 0 -382.5 157t-150.5 398q0 243 150.5 400t382.5 157q148 0 263.5 -70.5
t176.5 -193.5zM567 1153l242 332h131l-250 -332h-123z" />
    <glyph glyph-name="acircumflex" unicode="&#xe2;" horiz-adv-x="1363" 
d="M647 63q184 0 307 128.5t123 322.5t-123 322.5t-307 128.5q-187 0 -308.5 -127t-121.5 -324q0 -195 121.5 -323t308.5 -128zM1077 807v223h113v-1030h-113v221q-61 -122 -177 -192t-263 -70q-232 0 -382.5 157t-150.5 398q0 243 150.5 400t382.5 157q148 0 263.5 -70.5
t176.5 -193.5zM637 1415l-199 -262h-114l249 332h127l252 -332h-116z" />
    <glyph glyph-name="atilde" unicode="&#xe3;" horiz-adv-x="1363" 
d="M647 63q184 0 307 128.5t123 322.5t-123 322.5t-307 128.5q-187 0 -308.5 -127t-121.5 -324q0 -195 121.5 -323t308.5 -128zM1077 807v223h113v-1030h-113v221q-61 -122 -177 -192t-263 -70q-232 0 -382.5 157t-150.5 398q0 243 150.5 400t382.5 157q148 0 263.5 -70.5
t176.5 -193.5zM401 1219l-69 38q26 54 81 87.5t117 33.5q45 0 88 -19t71.5 -41.5t65 -41.5t70.5 -19q43 0 79.5 22t51.5 56l74 -37q-25 -56 -83 -91.5t-128 -35.5q-47 0 -91 19t-71 41.5t-62.5 41.5t-68.5 19q-39 0 -72.5 -20t-52.5 -53z" />
    <glyph glyph-name="adieresis" unicode="&#xe4;" horiz-adv-x="1363" 
d="M647 63q184 0 307 128.5t123 322.5t-123 322.5t-307 128.5q-187 0 -308.5 -127t-121.5 -324q0 -195 121.5 -323t308.5 -128zM1077 807v223h113v-1030h-113v221q-61 -122 -177 -192t-263 -70q-232 0 -382.5 157t-150.5 398q0 243 150.5 400t382.5 157q148 0 263.5 -70.5
t176.5 -193.5zM401 1194q-38 0 -62 24t-24 62q0 37 24 60.5t62 23.5t62 -23.5t24 -60.5q0 -38 -24 -62t-62 -24zM872 1194q-38 0 -62 24t-24 62q0 37 24 60.5t62 23.5t62 -23.5t24 -60.5q0 -38 -24 -62t-62 -24z" />
    <glyph glyph-name="aring" unicode="&#xe5;" horiz-adv-x="1363" 
d="M647 63q184 0 307 128.5t123 322.5t-123 322.5t-307 128.5q-187 0 -308.5 -127t-121.5 -324q0 -195 121.5 -323t308.5 -128zM637 1524q-69 0 -113.5 -44t-44.5 -112t44.5 -112t113.5 -44q66 0 110 44.5t44 111.5t-44 111.5t-110 44.5zM1077 807v223h113v-1030h-113v221
q-61 -122 -177 -192t-263 -70q-232 0 -382.5 157t-150.5 398q0 243 150.5 400t382.5 157q148 0 263.5 -70.5t176.5 -193.5zM637 1133q-106 0 -174 66t-68 169t68 169.5t174 66.5q104 0 170.5 -66.5t66.5 -169.5t-66.5 -169t-170.5 -66z" />
    <glyph glyph-name="ae" unicode="&#xe6;" horiz-adv-x="2234" 
d="M647 971q-188 0 -309 -129t-121 -328q0 -197 121.5 -326t308.5 -129q186 0 308 127.5t122 327.5q0 199 -122 328t-308 129zM1180 553h837q-3 178 -123.5 295t-302.5 117q-173 0 -288 -117.5t-123 -294.5zM1071 815v215h96v-215q59 118 171 186t255 68q235 0 387 -152
t152 -385q0 -27 -4 -77h-944q23 -176 137 -284t281 -108q134 0 243 72.5t144 186.5l104 -21q-34 -149 -172 -245.5t-315 -96.5q-147 0 -264.5 71.5t-174.5 194.5v-225h-96v213q-65 -119 -180 -186.5t-258 -67.5q-230 0 -379.5 156.5t-149.5 398.5t149.5 398.5t379.5 156.5
q143 0 258 -67.5t180 -186.5z" />
    <glyph glyph-name="ccedilla" unicode="&#xe7;" horiz-adv-x="1234" 
d="M668 -195h-80l18 154q-220 12 -361 167.5t-141 387.5q0 243 151.5 400t383.5 157q181 0 319 -104.5t170 -266.5l-110 -16q-31 124 -138 204.5t-239 80.5q-183 0 -303.5 -128.5t-120.5 -326.5q0 -196 120 -324.5t302 -128.5q136 0 242 76t137 195l112 -17
q-34 -144 -156 -242t-284 -112l-12 -90q108 0 171.5 -60.5t63.5 -158.5q0 -91 -60.5 -148t-158.5 -57q-83 0 -143.5 47.5t-75.5 122.5l76 18q14 -51 52 -81.5t89 -30.5q61 0 99 36t38 95q0 69 -43.5 110t-117.5 41z" />
    <glyph glyph-name="egrave" unicode="&#xe8;" horiz-adv-x="1296" 
d="M221 580h854q-17 171 -135 278t-289 107q-174 0 -293.5 -107t-136.5 -278zM104 520q0 239 156 395t395 156q234 0 385.5 -155.5t151.5 -395.5v-43h-973q12 -182 133 -298t301 -116q132 0 245 74.5t153 188.5l110 -19q-50 -151 -192 -249.5t-312 -98.5q-241 0 -397 158
t-156 403zM600 1153l-250 332h131l242 -332h-123z" />
    <glyph glyph-name="eacute" unicode="&#xe9;" horiz-adv-x="1296" 
d="M221 580h854q-17 171 -135 278t-289 107q-174 0 -293.5 -107t-136.5 -278zM104 520q0 239 156 395t395 156q234 0 385.5 -155.5t151.5 -395.5v-43h-973q12 -182 133 -298t301 -116q132 0 245 74.5t153 188.5l110 -19q-50 -151 -192 -249.5t-312 -98.5q-241 0 -397 158
t-156 403zM588 1153l241 332h132l-250 -332h-123z" />
    <glyph glyph-name="ecircumflex" unicode="&#xea;" horiz-adv-x="1296" 
d="M221 580h854q-17 171 -135 278t-289 107q-174 0 -293.5 -107t-136.5 -278zM104 520q0 239 156 395t395 156q234 0 385.5 -155.5t151.5 -395.5v-43h-973q12 -182 133 -298t301 -116q132 0 245 74.5t153 188.5l110 -19q-50 -151 -192 -249.5t-312 -98.5q-241 0 -397 158
t-156 403zM657 1415l-198 -262h-117l252 332h127l252 -332h-117z" />
    <glyph glyph-name="edieresis" unicode="&#xeb;" horiz-adv-x="1296" 
d="M221 580h854q-17 171 -135 278t-289 107q-174 0 -293.5 -107t-136.5 -278zM104 520q0 239 156 395t395 156q234 0 385.5 -155.5t151.5 -395.5v-43h-973q12 -182 133 -298t301 -116q132 0 245 74.5t153 188.5l110 -19q-50 -151 -192 -249.5t-312 -98.5q-241 0 -397 158
t-156 403zM422 1194q-38 0 -62 24t-24 62q0 37 24 60.5t62 23.5q37 0 61.5 -23.5t24.5 -60.5q0 -38 -24.5 -62t-61.5 -24zM893 1194q-38 0 -62 24t-24 62q0 37 24 60.5t62 23.5t62 -23.5t24 -60.5q0 -38 -24 -62t-62 -24z" />
    <glyph glyph-name="igrave" unicode="&#xec;" horiz-adv-x="442" 
d="M164 1030h112v-1030h-112v1030zM-88 1485h131l244 -332h-123z" />
    <glyph glyph-name="iacute" unicode="&#xed;" horiz-adv-x="448" 
d="M170 1030h113v-1030h-113v1030zM399 1485h131l-249 -332h-125z" />
    <glyph glyph-name="icircumflex" unicode="&#xee;" horiz-adv-x="438" 
d="M162 1030h112v-1030h-112v1030zM18 1153h-114l250 332h129l252 -332h-119l-197 262z" />
    <glyph glyph-name="idieresis" unicode="&#xef;" horiz-adv-x="446" 
d="M166 1030h113v-1030h-113v1030zM-14 1194q-37 0 -61.5 24t-24.5 62q0 37 24.5 60.5t61.5 23.5q38 0 62 -23.5t24 -60.5q0 -38 -24 -62t-62 -24zM459 1194q-38 0 -62 24t-24 62q0 37 24 60.5t62 23.5t62 -23.5t24 -60.5q0 -38 -24 -62t-62 -24z" />
    <glyph glyph-name="ntilde" unicode="&#xf1;" 
d="M172 0v1030h115v-172q51 97 155 155t226 58q193 0 304 -129t111 -336v-606h-112v606q0 161 -82 260t-230 99q-152 0 -262 -102t-110 -255v-608h-115zM340 1219l-70 38q26 54 81 87.5t118 33.5q45 0 88 -19t71.5 -41.5t65 -41.5t70.5 -19q42 0 79 22t52 56l72 -37
q-23 -56 -81 -91.5t-128 -35.5q-47 0 -91 19t-71 41.5t-62.5 41.5t-68.5 19q-39 0 -72.5 -20t-52.5 -53z" />
    <glyph glyph-name="ograve" unicode="&#xf2;" horiz-adv-x="1294" 
d="M647 1071q236 0 389.5 -157t153.5 -400t-153 -399t-390 -156q-238 0 -390.5 156t-152.5 399t152.5 400t390.5 157zM647 63q187 0 308.5 128t121.5 323q0 197 -121.5 324t-308.5 127t-308.5 -127t-121.5 -324q0 -195 121.5 -323t308.5 -128zM340 1485h131l244 -332h-125z
" />
    <glyph glyph-name="oacute" unicode="&#xf3;" horiz-adv-x="1294" 
d="M647 1071q236 0 389.5 -157t153.5 -400t-153 -399t-390 -156q-238 0 -390.5 156t-152.5 399t152.5 400t390.5 157zM647 63q187 0 308.5 128t121.5 323q0 197 -121.5 324t-308.5 127t-308.5 -127t-121.5 -324q0 -195 121.5 -323t308.5 -128zM819 1485h131l-250 -332h-122z
" />
    <glyph glyph-name="ocircumflex" unicode="&#xf4;" horiz-adv-x="1294" 
d="M647 63q187 0 308.5 128t121.5 323q0 197 -121.5 324t-308.5 127t-308.5 -127t-121.5 -324q0 -195 121.5 -323t308.5 -128zM647 1071q236 0 389.5 -157t153.5 -400t-153 -399t-390 -156q-238 0 -390.5 156t-152.5 399t152.5 400t390.5 157zM647 1415l-198 -262h-115
l250 332h127l252 -332h-117z" />
    <glyph glyph-name="otilde" unicode="&#xf5;" horiz-adv-x="1294" 
d="M647 63q187 0 308.5 128t121.5 323q0 197 -121.5 324t-308.5 127t-308.5 -127t-121.5 -324q0 -195 121.5 -323t308.5 -128zM647 1071q236 0 389.5 -157t153.5 -400t-153 -399t-390 -156q-238 0 -390.5 156t-152.5 399t152.5 400t390.5 157zM391 1219l-69 38
q26 54 81 87.5t117 33.5q45 0 88 -19t71.5 -41.5t65 -41.5t70.5 -19q43 0 79.5 22t51.5 56l74 -37q-25 -56 -83 -91.5t-128 -35.5q-47 0 -90.5 19t-71 41.5t-63 41.5t-68.5 19q-39 0 -72.5 -20t-52.5 -53z" />
    <glyph glyph-name="odieresis" unicode="&#xf6;" horiz-adv-x="1294" 
d="M647 1071q236 0 389.5 -157t153.5 -400t-153 -399t-390 -156q-238 0 -390.5 156t-152.5 399t152.5 400t390.5 157zM647 63q187 0 308.5 128t121.5 323q0 197 -121.5 324t-308.5 127t-308.5 -127t-121.5 -324q0 -195 121.5 -323t308.5 -128zM412 1194q-38 0 -62 24t-24 62
q0 37 24 60.5t62 23.5t62 -23.5t24 -60.5q0 -38 -24 -62t-62 -24zM883 1194q-38 0 -62 24t-24 62q0 37 24 60.5t62 23.5t62 -23.5t24 -60.5q0 -38 -24 -62t-62 -24z" />
    <glyph glyph-name="divide" unicode="&#xf7;" horiz-adv-x="1130" 
d="M565 41q-35 0 -58.5 22.5t-23.5 57.5t23 56.5t59 21.5q35 0 57.5 -21.5t22.5 -56.5t-22.5 -57.5t-57.5 -22.5zM565 848q-35 0 -58.5 22.5t-23.5 57.5q0 34 23.5 56t58.5 22t57.5 -22t22.5 -56q0 -35 -22.5 -57.5t-57.5 -22.5zM104 594h922v-105h-922v105z" />
    <glyph glyph-name="oslash" unicode="&#xf8;" horiz-adv-x="1298" 
d="M649 975q-192 0 -316 -130t-124 -331q0 -130 56 -233.5t153 -163.5l416 819q-79 39 -185 39zM649 53q192 0 316.5 130.5t124.5 330.5q0 116 -45 212t-125 159l-410 -811q75 -21 139 -21zM467 -12l-76 -152h-115l97 191q-126 70 -197.5 197.5t-71.5 289.5q0 243 153.5 400
t391.5 157q125 0 228 -47l104 205h113l-127 -252q107 -73 168 -193.5t61 -269.5q0 -243 -154.5 -399t-392.5 -156q-93 0 -182 29z" />
    <glyph glyph-name="ugrave" unicode="&#xf9;" 
d="M1063 0h-113v172q-51 -97 -155.5 -155t-227.5 -58q-193 0 -304 129t-111 334v608h114v-608q0 -160 82 -259.5t230 -99.5q152 0 262 102t110 255v610h113v-1030zM322 1485h129l243 -334h-123z" />
    <glyph glyph-name="uacute" unicode="&#xfa;" 
d="M1063 0h-113v172q-51 -97 -155.5 -155t-227.5 -58q-193 0 -304 129t-111 334v608h114v-608q0 -160 82 -259.5t230 -99.5q152 0 262 102t110 255v610h113v-1030zM768 1485h131l-250 -334h-123z" />
    <glyph glyph-name="ucircumflex" unicode="&#xfb;" 
d="M1063 0h-113v172q-51 -97 -155.5 -155t-227.5 -58q-193 0 -304 129t-111 334v608h114v-608q0 -160 82 -259.5t230 -99.5q152 0 262 102t110 255v610h113v-1030zM410 1151h-117l252 334h127l252 -334h-117l-199 262z" />
    <glyph glyph-name="udieresis" unicode="&#xfc;" 
d="M1063 0h-113v172q-51 -97 -155.5 -155t-227.5 -58q-193 0 -304 129t-111 334v608h114v-608q0 -160 82 -259.5t230 -99.5q152 0 262 102t110 255v610h113v-1030zM371 1194q-37 0 -60.5 23.5t-23.5 60.5q0 38 23.5 61t60.5 23q38 0 62 -23t24 -61q0 -37 -24 -60.5
t-62 -23.5zM844 1194q-38 0 -62 23.5t-24 60.5q0 38 24 61t62 23t62 -23t24 -61q0 -37 -24 -60.5t-62 -23.5z" />
    <glyph glyph-name="yacute" unicode="&#xfd;" horiz-adv-x="1157" 
d="M129 -428v102q74 -24 129 -24q50 0 88.5 20t74.5 76t53 90.5t57 128.5q4 9 6 14t5.5 12.5t6.5 14.5l-475 1024h127l405 -885l355 885h120l-419 -1038q-26 -64 -43.5 -105t-43.5 -93t-47.5 -84.5t-51 -67t-59.5 -53.5t-68 -31.5t-81 -12.5q-73 0 -139 27zM498 1153
l243 332h131l-251 -332h-123z" />
    <glyph glyph-name="ydieresis" unicode="&#xff;" horiz-adv-x="1157" 
d="M129 -428v102q74 -24 129 -24q50 0 88.5 20t74.5 76t53 90.5t57 128.5q4 9 6 14t5.5 12.5t6.5 14.5l-475 1024h127l405 -885l355 885h120l-419 -1038q-26 -64 -43.5 -105t-43.5 -93t-47.5 -84.5t-51 -67t-59.5 -53.5t-68 -31.5t-81 -12.5q-73 0 -139 27zM344 1194
q-38 0 -62 24t-24 62q0 37 24 60.5t62 23.5t62 -23.5t24 -60.5q0 -38 -24 -62t-62 -24zM815 1194q-38 0 -62 24t-24 62q0 37 24 60.5t62 23.5t62 -23.5t24 -60.5q0 -38 -24 -62t-62 -24z" />
    <glyph glyph-name="Amacron" unicode="&#x100;" horiz-adv-x="1380" 
d="M690 1329l-356 -919h713zM299 309l-119 -309h-129l553 1440h170l553 -1440h-127l-121 309h-780zM371 1731h643v-86h-643v86z" />
    <glyph glyph-name="amacron" unicode="&#x101;" horiz-adv-x="1363" 
d="M647 63q184 0 307 128.5t123 322.5t-123 322.5t-307 128.5q-187 0 -308.5 -127t-121.5 -324q0 -195 121.5 -323t308.5 -128zM1077 807v223h113v-1030h-113v221q-61 -122 -177 -192t-263 -70q-232 0 -382.5 157t-150.5 398q0 243 150.5 400t382.5 157q148 0 263.5 -70.5
t176.5 -193.5zM315 1300h643v-86h-643v86z" />
    <glyph glyph-name="Abreve" unicode="&#x102;" horiz-adv-x="1380" 
d="M690 1329l-356 -919h713zM299 309l-119 -309h-129l553 1440h170l553 -1440h-127l-121 309h-780zM856 1862h94q0 -124 -69.5 -201.5t-188.5 -77.5q-120 0 -190 77.5t-70 201.5h96q0 -83 46 -136t118 -53t118 53t46 136z" />
    <glyph glyph-name="abreve" unicode="&#x103;" horiz-adv-x="1363" 
d="M647 63q184 0 307 128.5t123 322.5t-123 322.5t-307 128.5q-187 0 -308.5 -127t-121.5 -324q0 -195 121.5 -323t308.5 -128zM1077 807v223h113v-1030h-113v221q-61 -122 -177 -192t-263 -70q-232 0 -382.5 157t-150.5 398q0 243 150.5 400t382.5 157q148 0 263.5 -70.5
t176.5 -193.5zM799 1462h96q0 -133 -69 -221t-189 -88q-122 0 -191 88t-69 221h96q0 -95 46 -157t118 -62q70 0 116 62t46 157z" />
    <glyph glyph-name="Aogonek" unicode="&#x104;" horiz-adv-x="1476" 
d="M690 1329l-356 -919h713zM1192 23l-113 286h-780l-119 -309h-129l553 1440h170l553 -1440h-41q-104 -28 -157.5 -88.5t-53.5 -136.5q-1 -112 97 -182.5t253 -73.5v-90q-191 0 -313.5 93.5t-122.5 239.5q0 87 55 157t148 104z" />
    <glyph glyph-name="aogonek" unicode="&#x105;" horiz-adv-x="1476" 
d="M647 63q184 0 307 128.5t123 322.5t-123 322.5t-307 128.5q-187 0 -308.5 -127t-121.5 -324q0 -195 121.5 -323t308.5 -128zM1077 23v198q-61 -122 -177 -192t-263 -70q-232 0 -382.5 157t-150.5 398q0 243 150.5 400t382.5 157q148 0 263.5 -70.5t176.5 -193.5v223h113
v-1030h-23q-104 -30 -158.5 -90t-54.5 -135q-1 -113 97.5 -183.5t253.5 -72.5v-92q-190 0 -313.5 94t-123.5 239q0 89 56.5 160t152.5 103z" />
    <glyph glyph-name="Cacute" unicode="&#x106;" horiz-adv-x="1681" 
d="M879 59q202 0 360 118.5t201 297.5l114 -24q-50 -216 -240 -359t-435 -143q-216 0 -388.5 99t-269 275t-96.5 396q0 166 56.5 309.5t156 245t239.5 159.5t302 58q245 0 435 -149.5t240 -374.5l-118 -17q-42 183 -199.5 306.5t-357.5 123.5q-182 0 -326.5 -84.5
t-225.5 -235.5t-81 -341q0 -142 47.5 -264.5t131 -209.5t201 -136.5t253.5 -49.5zM1004 1874h135l-224 -291h-131z" />
    <glyph glyph-name="cacute" unicode="&#x107;" horiz-adv-x="1234" 
d="M639 1071q181 0 319 -104.5t170 -266.5l-110 -16q-31 124 -138 204.5t-239 80.5q-183 0 -303.5 -128.5t-120.5 -326.5q0 -196 120 -324.5t302 -128.5q136 0 242 76t137 195l112 -17q-37 -155 -175 -255.5t-316 -100.5q-232 0 -383.5 157t-151.5 398q0 243 151.5 400
t383.5 157zM813 1485h131l-250 -332h-125z" />
    <glyph glyph-name="Ccircumflex" unicode="&#x108;" horiz-adv-x="1681" 
d="M879 59q202 0 360 118.5t201 297.5l114 -24q-50 -216 -240 -359t-435 -143q-216 0 -388.5 99t-269 275t-96.5 396q0 166 56.5 309.5t156 245t239.5 159.5t302 58q245 0 435 -149.5t240 -374.5l-118 -17q-42 183 -199.5 306.5t-357.5 123.5q-182 0 -326.5 -84.5
t-225.5 -235.5t-81 -341q0 -142 47.5 -264.5t131 -209.5t201 -136.5t253.5 -49.5zM662 1583h-125l258 291h129l258 -291h-123l-199 223z" />
    <glyph glyph-name="ccircumflex" unicode="&#x109;" horiz-adv-x="1234" 
d="M639 1071q181 0 319 -104.5t170 -266.5l-110 -16q-31 124 -138 204.5t-239 80.5q-183 0 -303.5 -128.5t-120.5 -326.5q0 -196 120 -324.5t302 -128.5q136 0 242 76t137 195l112 -17q-37 -155 -175 -255.5t-316 -100.5q-232 0 -383.5 157t-151.5 398q0 243 151.5 400
t383.5 157zM442 1153h-116l249 332h130l251 -332h-116l-199 262z" />
    <glyph glyph-name="Cdotaccent" unicode="&#x10a;" horiz-adv-x="1681" 
d="M879 59q202 0 360 118.5t201 297.5l114 -24q-50 -216 -240 -359t-435 -143q-216 0 -388.5 99t-269 275t-96.5 396q0 166 56.5 309.5t156 245t239.5 159.5t302 58q245 0 435 -149.5t240 -374.5l-118 -17q-42 183 -199.5 306.5t-357.5 123.5q-182 0 -326.5 -84.5
t-225.5 -235.5t-81 -341q0 -142 47.5 -264.5t131 -209.5t201 -136.5t253.5 -49.5zM860 1614q-38 0 -62 22.5t-24 59.5q1 37 25 59.5t61 22.5q38 0 62 -22.5t24 -59.5t-24 -59.5t-62 -22.5z" />
    <glyph glyph-name="cdotaccent" unicode="&#x10b;" horiz-adv-x="1234" 
d="M639 1071q181 0 319 -104.5t170 -266.5l-110 -16q-31 124 -138 204.5t-239 80.5q-183 0 -303.5 -128.5t-120.5 -326.5q0 -196 120 -324.5t302 -128.5q136 0 242 76t137 195l112 -17q-37 -155 -175 -255.5t-316 -100.5q-232 0 -383.5 157t-151.5 398q0 243 151.5 400
t383.5 157zM641 1214q-38 0 -62 24t-24 62q0 37 24 60.5t62 23.5q37 0 61.5 -23.5t24.5 -60.5q0 -38 -24.5 -62t-61.5 -24z" />
    <glyph glyph-name="Ccaron" unicode="&#x10c;" horiz-adv-x="1681" 
d="M879 59q202 0 360 118.5t201 297.5l114 -24q-50 -216 -240 -359t-435 -143q-216 0 -388.5 99t-269 275t-96.5 396q0 166 56.5 309.5t156 245t239.5 159.5t302 58q245 0 435 -149.5t240 -374.5l-118 -17q-42 183 -199.5 306.5t-357.5 123.5q-182 0 -326.5 -84.5
t-225.5 -235.5t-81 -341q0 -142 47.5 -264.5t131 -209.5t201 -136.5t253.5 -49.5zM1059 1917h117l-252 -334h-127l-252 332l117 2l198 -262z" />
    <glyph glyph-name="ccaron" unicode="&#x10d;" horiz-adv-x="1234" 
d="M639 1071q181 0 319 -104.5t170 -266.5l-110 -16q-31 124 -138 204.5t-239 80.5q-183 0 -303.5 -128.5t-120.5 -326.5q0 -196 120 -324.5t302 -128.5q136 0 242 76t137 195l112 -17q-37 -155 -175 -255.5t-316 -100.5q-232 0 -383.5 157t-151.5 398q0 243 151.5 400
t383.5 157zM838 1485h116l-249 -332h-130l-249 332h114l199 -262z" />
    <glyph glyph-name="Dcaron" unicode="&#x10e;" horiz-adv-x="1554" 
d="M1309 719q0 277 -197.5 443.5t-521.5 166.5h-279v-1218h279q213 0 376 74.5t253 213t90 320.5zM590 0h-400v1440h400q249 0 440 -89.5t295.5 -253.5t104.5 -378t-104.5 -377.5t-295 -252.5t-440.5 -89zM709 1640l196 263h119l-252 -332h-129l-250 332h115z" />
    <glyph glyph-name="dcaron" unicode="&#x10f;" horiz-adv-x="1544" 
d="M647 961q-187 0 -308.5 -126.5t-121.5 -320.5q0 -193 122 -318.5t308 -125.5q187 0 308.5 125t121.5 319t-121.5 320.5t-308.5 126.5zM104 514q0 159 68.5 286.5t190.5 199t274 71.5q146 0 261 -69t177 -189v688h113v-1501h-111v219q-63 -121 -178 -190.5t-262 -69.5
q-231 0 -382 157t-151 398zM1403 1313q-36 0 -58 21t-22 57q0 35 21 56t55 21q38 0 63 -30.5t25 -77.5q0 -65 -29.5 -127t-77.5 -107l-45 37q30 31 49 73t19 77z" />
    <glyph glyph-name="Dcroat" unicode="&#x110;" horiz-adv-x="1652" 
d="M289 885v555h399q249 0 440 -89.5t295.5 -253.5t104.5 -378t-104.5 -377.5t-295 -252.5t-440.5 -89h-399v778h-238v107h238zM1407 719q0 277 -197.5 443.5t-521.5 166.5h-278v-444h460v-107h-460v-667h278q213 0 376 74.5t253 213t90 320.5z" />
    <glyph glyph-name="dcroat" unicode="&#x111;" horiz-adv-x="1464" 
d="M647 961q-187 0 -308.5 -126.5t-121.5 -320.5q0 -193 122 -318.5t308 -125.5q187 0 308.5 125t121.5 319t-121.5 320.5t-308.5 126.5zM1075 813v434h-469v92h469v162h113v-162h201v-92h-201v-1247h-111v219q-63 -121 -178 -190.5t-262 -69.5q-231 0 -382 157t-151 398
q0 159 68.5 286.5t190.5 199t274 71.5q146 0 261 -69t177 -189z" />
    <glyph glyph-name="Emacron" unicode="&#x112;" horiz-adv-x="1300" 
d="M309 694v-583h877v-111h-996v1440h975v-111h-856v-528h774v-107h-774zM1008 1731v-86h-643v86h643z" />
    <glyph glyph-name="emacron" unicode="&#x113;" horiz-adv-x="1296" 
d="M221 580h854q-17 171 -135 278t-289 107q-174 0 -293.5 -107t-136.5 -278zM104 520q0 239 156 395t395 156q234 0 385.5 -155.5t151.5 -395.5v-43h-973q12 -182 133 -298t301 -116q132 0 245 74.5t153 188.5l110 -19q-50 -151 -192 -249.5t-312 -98.5q-241 0 -397 158
t-156 403zM336 1300h643v-86h-643v86z" />
    <glyph glyph-name="Ebreve" unicode="&#x114;" horiz-adv-x="1300" 
d="M309 694v-583h877v-111h-996v1440h975v-111h-856v-528h774v-107h-774zM850 1862h94q0 -124 -69.5 -201.5t-188.5 -77.5t-188.5 77.5t-69.5 201.5h94q0 -83 46 -136t118 -53t118 53t46 136z" />
    <glyph glyph-name="ebreve" unicode="&#x115;" horiz-adv-x="1296" 
d="M221 580h854q-17 171 -135 278t-289 107q-174 0 -293.5 -107t-136.5 -278zM104 520q0 239 156 395t395 156q234 0 385.5 -155.5t151.5 -395.5v-43h-973q12 -182 133 -298t301 -116q132 0 245 74.5t153 188.5l110 -19q-50 -151 -192 -249.5t-312 -98.5q-241 0 -397 158
t-156 403zM819 1462h96q0 -133 -69 -221t-189 -88q-122 0 -191 88t-69 221h97q0 -96 45.5 -157.5t117.5 -61.5q70 0 116 62t46 157z" />
    <glyph glyph-name="Edotaccent" unicode="&#x116;" horiz-adv-x="1300" 
d="M309 694v-583h877v-111h-996v1440h975v-111h-856v-528h774v-107h-774zM686 1614q-38 0 -62 22.5t-24 59.5q1 37 25 59.5t61 22.5q38 0 62 -22.5t24 -59.5t-24 -59.5t-62 -22.5z" />
    <glyph glyph-name="edotaccent" unicode="&#x117;" horiz-adv-x="1296" 
d="M221 580h854q-17 171 -135 278t-289 107q-174 0 -293.5 -107t-136.5 -278zM104 520q0 239 156 395t395 156q234 0 385.5 -155.5t151.5 -395.5v-43h-973q12 -182 133 -298t301 -116q132 0 245 74.5t153 188.5l110 -19q-50 -151 -192 -249.5t-312 -98.5q-241 0 -397 158
t-156 403zM657 1214q-37 0 -61.5 24t-24.5 62q0 37 24.5 60.5t61.5 23.5q38 0 62 -23.5t24 -60.5q0 -38 -24 -62t-62 -24z" />
    <glyph glyph-name="Eogonek" unicode="&#x118;" horiz-adv-x="1300" 
d="M905 0h-715v1440h975v-111h-856v-528h774v-107h-774v-583h877v-111h-139q-103 -30 -157 -90t-54 -135q0 -112 97.5 -182.5t252.5 -73.5v-90q-191 0 -313.5 93.5t-122.5 239.5q1 75 42 137.5t113 100.5z" />
    <glyph glyph-name="eogonek" unicode="&#x119;" horiz-adv-x="1296" 
d="M221 580h854q-17 171 -135 278t-289 107q-174 0 -293.5 -107t-136.5 -278zM651 -41q-238 2 -392.5 160t-154.5 401q0 239 156 395t395 156q234 0 385.5 -155.5t151.5 -395.5v-43h-973q12 -182 133 -298t301 -116q132 0 245 74.5t153 188.5l110 -19q-40 -121 -141 -210.5
t-232 -121.5q-73 -33 -110 -86t-37 -116q-1 -112 97 -182.5t253 -73.5v-90q-191 0 -313.5 93.5t-122.5 239.5q0 119 96 199z" />
    <glyph glyph-name="Ecaron" unicode="&#x11a;" horiz-adv-x="1300" 
d="M309 694v-583h877v-111h-996v1440h975v-111h-856v-528h774v-107h-774zM885 1915h116l-251 -332h-129l-250 332h116l199 -262z" />
    <glyph glyph-name="ecaron" unicode="&#x11b;" horiz-adv-x="1296" 
d="M221 580h854q-17 171 -135 278t-289 107q-174 0 -293.5 -107t-136.5 -278zM104 520q0 239 156 395t395 156q234 0 385.5 -155.5t151.5 -395.5v-43h-973q12 -182 133 -298t301 -116q132 0 245 74.5t153 188.5l110 -19q-50 -151 -192 -249.5t-312 -98.5q-241 0 -397 158
t-156 403zM657 1223l199 262h117l-252 -332h-129l-250 332h117z" />
    <glyph glyph-name="Gcircumflex" unicode="&#x11c;" horiz-adv-x="1763" 
d="M893 59q132 0 247.5 47t198 129.5t130 198.5t47.5 250h-625v104h745q11 -180 -39 -336t-147.5 -266.5t-242 -173.5t-314.5 -63q-220 0 -395.5 99t-274 275t-98.5 396t98.5 396.5t274 276t395.5 99.5q248 0 440 -145t238 -367l-113 -21q-46 183 -206 302.5t-359 119.5
q-186 0 -334 -84.5t-230.5 -235.5t-82.5 -341q0 -187 82.5 -338t230.5 -236.5t334 -85.5zM694 1583h-125l258 291h129l258 -291h-122l-201 223z" />
    <glyph glyph-name="gcircumflex" unicode="&#x11d;" horiz-adv-x="1359" 
d="M647 70q187 0 308.5 126t121.5 318q0 196 -122 323.5t-308 127.5q-189 0 -309.5 -127t-120.5 -324q0 -193 122.5 -318.5t307.5 -125.5zM662 -408q182 0 296.5 114.5t114.5 301.5v209q-65 -119 -178 -185.5t-256 -66.5q-233 0 -384 155.5t-151 393.5q0 242 151 398.5
t384 156.5q144 0 257 -67t179 -185v213h113v-1022q0 -234 -146 -377t-376 -143q-204 0 -354.5 114t-176.5 289l111 15q22 -136 140 -225t276 -89zM647 1415l-201 -262h-114l250 332h129l252 -332h-119z" />
    <glyph glyph-name="Gbreve" unicode="&#x11e;" horiz-adv-x="1763" 
d="M893 59q132 0 247.5 47t198 129.5t130 198.5t47.5 250h-625v104h745q11 -180 -39 -336t-147.5 -266.5t-242 -173.5t-314.5 -63q-220 0 -395.5 99t-274 275t-98.5 396t98.5 396.5t274 276t395.5 99.5q248 0 440 -145t238 -367l-113 -21q-46 183 -206 302.5t-359 119.5
q-186 0 -334 -84.5t-230.5 -235.5t-82.5 -341q0 -187 82.5 -338t230.5 -236.5t334 -85.5zM1057 1862h94q0 -124 -69.5 -201.5t-188.5 -77.5q-120 0 -190 77.5t-70 201.5h96q0 -83 46 -136t118 -53t118 53t46 136z" />
    <glyph glyph-name="gbreve" unicode="&#x11f;" horiz-adv-x="1359" 
d="M647 70q187 0 308.5 126t121.5 318q0 196 -122 323.5t-308 127.5q-189 0 -309.5 -127t-120.5 -324q0 -193 122.5 -318.5t307.5 -125.5zM662 -408q182 0 296.5 114.5t114.5 301.5v209q-65 -119 -178 -185.5t-256 -66.5q-233 0 -384 155.5t-151 393.5q0 242 151 398.5
t384 156.5q144 0 257 -67t179 -185v213h113v-1022q0 -234 -146 -377t-376 -143q-204 0 -354.5 114t-176.5 289l111 15q22 -136 140 -225t276 -89zM809 1462h94q0 -133 -69 -221t-189 -88t-189 88t-69 221h94q0 -95 46 -157t118 -62q71 0 117.5 62t46.5 157z" />
    <glyph glyph-name="Gdotaccent" unicode="&#x120;" horiz-adv-x="1763" 
d="M893 59q132 0 247.5 47t198 129.5t130 198.5t47.5 250h-625v104h745q11 -180 -39 -336t-147.5 -266.5t-242 -173.5t-314.5 -63q-220 0 -395.5 99t-274 275t-98.5 396t98.5 396.5t274 276t395.5 99.5q248 0 440 -145t238 -367l-113 -21q-46 183 -206 302.5t-359 119.5
q-186 0 -334 -84.5t-230.5 -235.5t-82.5 -341q0 -187 82.5 -338t230.5 -236.5t334 -85.5zM893 1614q-38 0 -62 22.5t-24 59.5t24 59.5t62 22.5t62 -22.5t24 -59.5t-24 -59.5t-62 -22.5z" />
    <glyph glyph-name="gdotaccent" unicode="&#x121;" horiz-adv-x="1359" 
d="M647 70q187 0 308.5 126t121.5 318q0 196 -122 323.5t-308 127.5q-189 0 -309.5 -127t-120.5 -324q0 -193 122.5 -318.5t307.5 -125.5zM662 -408q182 0 296.5 114.5t114.5 301.5v209q-65 -119 -178 -185.5t-256 -66.5q-233 0 -384 155.5t-151 393.5q0 242 151 398.5
t384 156.5q144 0 257 -67t179 -185v213h113v-1022q0 -234 -146 -377t-376 -143q-204 0 -354.5 114t-176.5 289l111 15q22 -136 140 -225t276 -89zM647 1214q-38 0 -62 24t-24 62q0 37 24 60.5t62 23.5q37 0 61.5 -23.5t24.5 -60.5q0 -38 -24.5 -62t-61.5 -24z" />
    <glyph glyph-name="Gcommaaccent" unicode="&#x122;" horiz-adv-x="1763" 
d="M893 59q132 0 247.5 47t198 129.5t130 198.5t47.5 250h-625v104h745q11 -180 -39 -336t-147.5 -266.5t-242 -173.5t-314.5 -63q-220 0 -395.5 99t-274 275t-98.5 396t98.5 396.5t274 276t395.5 99.5q248 0 440 -145t238 -367l-113 -21q-46 183 -206 302.5t-359 119.5
q-186 0 -334 -84.5t-230.5 -235.5t-82.5 -341q0 -187 82.5 -338t230.5 -236.5t334 -85.5zM899 -322q-35 0 -58.5 22.5t-23.5 57.5q0 34 21 56t55 22q40 0 64 -30t24 -80q0 -64 -28.5 -126t-75.5 -106l-46 35q30 33 49 74.5t19 74.5z" />
    <glyph glyph-name="gcommaaccent" unicode="&#x123;" horiz-adv-x="1359" 
d="M647 70q187 0 308.5 126t121.5 318q0 196 -122 323.5t-308 127.5q-189 0 -309.5 -127t-120.5 -324q0 -193 122.5 -318.5t307.5 -125.5zM662 -408q182 0 296.5 114.5t114.5 301.5v209q-65 -119 -178 -185.5t-256 -66.5q-233 0 -384 155.5t-151 393.5q0 242 151 398.5
t384 156.5q144 0 257 -67t179 -185v213h113v-1022q0 -234 -146 -377t-376 -143q-204 0 -354.5 114t-176.5 289l111 15q22 -136 140 -225t276 -89zM651 1309q37 0 58.5 -21.5t21.5 -58.5q0 -34 -21 -56t-53 -22q-39 0 -63.5 31.5t-24.5 79.5q-1 65 28 125.5t77 105.5l45 -35
q-30 -33 -49 -74.5t-19 -74.5z" />
    <glyph glyph-name="Itilde" unicode="&#x128;" horiz-adv-x="520" 
d="M190 0v1440h121v-1440h-121zM-20 1653l-70 49q25 53 82 87t125 34q46 0 86.5 -17t65 -37.5t59.5 -37.5t71 -17q45 0 82 23t56 61l71 -45q-25 -56 -83.5 -90.5t-131.5 -34.5q-48 0 -89.5 17t-66 37.5t-57 37.5t-65.5 17q-41 0 -76.5 -23t-58.5 -61z" />
    <glyph glyph-name="itilde" unicode="&#x129;" horiz-adv-x="483" 
d="M162 0v1030h112v-1030h-112zM-37 1219l-69 38q25 54 80 87.5t118 33.5q45 0 88 -19t71.5 -41.5t65 -41.5t70.5 -19q42 0 78 22t51 56l74 -37q-25 -56 -82 -91.5t-127 -35.5q-47 0 -91 19t-71.5 41.5t-63 41.5t-69.5 19q-38 0 -72 -20.5t-51 -52.5z" />
    <glyph glyph-name="Imacron" unicode="&#x12a;" horiz-adv-x="495" 
d="M186 1440h121v-1440h-121v1440zM569 1731v-86h-643v86h643z" />
    <glyph glyph-name="imacron" unicode="&#x12b;" horiz-adv-x="436" 
d="M162 1030h112v-1030h-112v1030zM539 1300v-86h-643v86h643z" />
    <glyph glyph-name="Iogonek" unicode="&#x12e;" horiz-adv-x="501" 
d="M188 14v1426h121v-1440h-8q-105 -30 -160 -90t-55 -135q0 -113 98.5 -183.5t253.5 -72.5v-92q-191 0 -313.5 94t-122.5 239q0 84 49.5 151.5t136.5 102.5z" />
    <glyph glyph-name="iogonek" unicode="&#x12f;" horiz-adv-x="460" 
d="M180 18v1012h113v-1030h-6q-106 -28 -161.5 -89t-55.5 -138q0 -112 97.5 -182.5t252.5 -73.5v-90q-191 0 -313.5 93.5t-122.5 239.5q0 85 53 153.5t143 104.5zM236 1237q-37 0 -61.5 24t-24.5 62q0 37 24.5 60.5t61.5 23.5q38 0 62 -23.5t24 -60.5q0 -38 -24 -62t-62 -24
z" />
    <glyph glyph-name="Idotaccent" unicode="&#x130;" horiz-adv-x="501" 
d="M190 1440h121v-1440h-121v1440zM250 1614q-38 0 -62 22.5t-24 59.5q1 37 25 59.5t61 22.5q38 0 62 -22.5t24 -59.5t-24 -59.5t-62 -22.5z" />
    <glyph glyph-name="dotlessi" unicode="&#x131;" horiz-adv-x="434" 
d="M162 1030h112v-1030h-112v1030z" />
    <glyph glyph-name="IJ" unicode="&#x132;" horiz-adv-x="1368" 
d="M190 1440h121v-1440h-121v1440zM1069 432v1008h121v-1008q0 -220 -115.5 -346.5t-300.5 -126.5q-122 0 -250 41v109q125 -39 234 -39q141 0 226 94t85 268z" />
    <glyph glyph-name="ij" unicode="&#x133;" horiz-adv-x="837" 
d="M190 1030h113v-1030h-113v1030zM616 -186v1216h115v-1225q0 -116 -68.5 -189t-177.5 -73q-78 0 -157 27l2 104q67 -24 133 -24q69 0 111 46t42 118zM248 1237q-38 0 -62 24t-24 62q0 37 24 60.5t62 23.5q37 0 61.5 -23.5t24.5 -60.5q0 -38 -24.5 -62t-61.5 -24zM674 1237
q-37 0 -61.5 24t-24.5 62q0 37 24 60.5t62 23.5q37 0 61.5 -23.5t24.5 -60.5q0 -38 -24.5 -62t-61.5 -24z" />
    <glyph glyph-name="Kcommaaccent" unicode="&#x136;" horiz-adv-x="1193" 
d="M311 0h-121v1440h121v-627l647 627h164l-708 -680l725 -760h-160l-668 707v-707zM631 -330q-36 0 -58 21t-22 57q0 35 21 56.5t55 21.5q38 0 63 -31t25 -78q0 -65 -29.5 -126.5t-77.5 -106.5l-45 37q30 31 49 72.5t19 76.5z" />
    <glyph glyph-name="kcommaaccent" unicode="&#x137;" horiz-adv-x="1034" 
d="M172 0v1501h115v-905l493 434h158l-553 -485l571 -545h-155l-514 492v-492h-115zM555 -313q-35 0 -57.5 22.5t-22.5 57.5t21 56t55 21q38 0 63 -30.5t25 -77.5q0 -66 -28.5 -128t-75.5 -106l-48 37q29 31 48.5 72.5t19.5 75.5z" />
    <glyph glyph-name="Lacute" unicode="&#x139;" horiz-adv-x="1159" 
d="M1087 0h-897v1440h121v-1329h776v-111zM410 1874h135l-223 -291h-132z" />
    <glyph glyph-name="lacute" unicode="&#x13a;" horiz-adv-x="677" 
d="M172 1501h115v-1501h-115v1501zM381 1880h135l-223 -293h-131z" />
    <glyph glyph-name="Lcommaaccent" unicode="&#x13b;" horiz-adv-x="1159" 
d="M1087 111v-111h-897v1440h121v-1329h776zM649 -330q-36 0 -58 21t-22 57q0 35 21 56.5t55 21.5q38 0 63 -31t25 -78q0 -65 -29 -126.5t-77 -106.5l-45 37q29 31 48 72.5t19 76.5z" />
    <glyph glyph-name="lcommaaccent" unicode="&#x13c;" horiz-adv-x="471" 
d="M172 1501h115v-1501h-115v1501zM236 -319q-36 0 -59 20.5t-23 56.5q0 35 20.5 56.5t54.5 21.5q38 0 63 -30.5t25 -77.5q0 -66 -28.5 -128t-75.5 -106l-45 37q30 31 49 73t19 77z" />
    <glyph glyph-name="Lcaron" unicode="&#x13d;" horiz-adv-x="1159" 
d="M1087 0h-897v1440h121v-1329h776v-111zM629 1319q-35 0 -57.5 22.5t-22.5 57.5q0 34 20.5 56t53.5 22q40 0 64 -30.5t24 -80.5q0 -64 -29 -125.5t-76 -105.5l-45 34q30 33 49 75t19 75z" />
    <glyph glyph-name="lcaron" unicode="&#x13e;" horiz-adv-x="653" 
d="M172 1501h115v-1501h-115v1501zM512 1311q-35 0 -57.5 22.5t-22.5 57.5q0 34 21 55.5t55 21.5q39 0 63.5 -30.5t24.5 -79.5q0 -66 -28.5 -127t-75.5 -105l-48 35q30 33 49 75t19 75z" />
    <glyph glyph-name="Lslash" unicode="&#x141;" horiz-adv-x="1019" 
d="M51 520l225 148v772h121v-692l738 479v-119l-738 -479v-518h777v-111h-898v549l-225 -146v117z" />
    <glyph glyph-name="lslash" unicode="&#x142;" horiz-adv-x="827" 
d="M801 997l-332 -215v-782h-113v711l-329 -215v118l329 213v674h113v-600l332 215v-119z" />
    <glyph glyph-name="Nacute" unicode="&#x143;" horiz-adv-x="1478" 
d="M350 1440l817 -1290v1290h121v-1440h-160l-817 1288v-1288h-121v1440h160zM889 1874h135l-223 -291h-131z" />
    <glyph glyph-name="nacute" unicode="&#x144;" 
d="M172 1030h115v-172q51 97 155 155t226 58q193 0 304 -129t111 -336v-606h-112v606q0 161 -82 260t-230 99q-152 0 -262 -102t-110 -255v-608h-115v1030zM809 1485h131l-250 -332h-123z" />
    <glyph glyph-name="Ncommaaccent" unicode="&#x145;" horiz-adv-x="1478" 
d="M350 1440l817 -1290v1290h121v-1440h-160l-817 1288v-1288h-121v1440h160zM745 -332q-36 0 -58.5 21t-22.5 57q0 35 20.5 56.5t54.5 21.5q38 0 63 -31t25 -78q0 -66 -28.5 -127.5t-75.5 -105.5l-47 37q31 32 50 73t19 76z" />
    <glyph glyph-name="ncommaaccent" unicode="&#x146;" 
d="M172 1030h115v-172q51 97 155 155t226 58q193 0 304 -129t111 -336v-606h-112v606q0 161 -82 260t-230 99q-152 0 -262 -102t-110 -255v-608h-115v1030zM639 -334q-35 0 -57.5 22.5t-22.5 57.5t21 56.5t55 21.5q38 0 63 -31t25 -78q0 -65 -29 -127t-76 -106l-47 37
q30 30 49 71.5t19 75.5z" />
    <glyph glyph-name="Ncaron" unicode="&#x147;" horiz-adv-x="1478" 
d="M350 1440l817 -1290v1290h121v-1440h-160l-817 1288v-1288h-121v1440h160zM944 1915h117l-252 -332h-129l-250 332h117l198 -262z" />
    <glyph glyph-name="ncaron" unicode="&#x148;" 
d="M172 1030h115v-172q51 97 155 155t226 58q193 0 304 -129t111 -336v-606h-112v606q0 161 -82 260t-230 99q-152 0 -262 -102t-110 -255v-608h-115v1030zM846 1485h117l-250 -332h-129l-250 332h115l198 -262z" />
    <glyph glyph-name="Omacron" unicode="&#x14c;" horiz-adv-x="1785" 
d="M893 -51q-166 0 -309 57.5t-244 158.5t-158 244.5t-57 309.5t57.5 309.5t158 245t243.5 159.5t309 58q165 0 308 -58t244 -159.5t158.5 -245t57.5 -309.5t-57.5 -309.5t-158.5 -244.5t-244 -158.5t-308 -57.5zM893 1380q-186 0 -334 -84.5t-230.5 -235.5t-82.5 -341
q0 -188 82.5 -339t230.5 -236t334 -85q139 0 259.5 49.5t205.5 136.5t133.5 209.5t48.5 264.5q0 190 -82.5 341t-230.5 235.5t-334 84.5zM1214 1731v-86h-643v86h643z" />
    <glyph glyph-name="omacron" unicode="&#x14d;" horiz-adv-x="1294" 
d="M647 63q187 0 308.5 128t121.5 323q0 197 -121.5 324t-308.5 127t-308.5 -127t-121.5 -324q0 -195 121.5 -323t308.5 -128zM647 1071q236 0 389.5 -157t153.5 -400t-153 -399t-390 -156q-238 0 -390.5 156t-152.5 399t152.5 400t390.5 157zM326 1300h643v-86h-643v86z
" />
    <glyph glyph-name="Obreve" unicode="&#x14e;" horiz-adv-x="1785" 
d="M893 1380q-186 0 -334 -84.5t-230.5 -235.5t-82.5 -341q0 -188 82.5 -339t230.5 -236t334 -85q139 0 259.5 49.5t205.5 136.5t133.5 209.5t48.5 264.5q0 190 -82.5 341t-230.5 235.5t-334 84.5zM893 -51q-166 0 -309 57.5t-244 158.5t-158 244.5t-57 309.5t57.5 309.5
t158 245t243.5 159.5t309 58q165 0 308 -58t244 -159.5t158.5 -245t57.5 -309.5t-57.5 -309.5t-158.5 -244.5t-244 -158.5t-308 -57.5zM1057 1862h94q0 -124 -69.5 -201.5t-188.5 -77.5t-188.5 77.5t-69.5 201.5h94q0 -83 46 -136t118 -53t118 53t46 136z" />
    <glyph glyph-name="obreve" unicode="&#x14f;" horiz-adv-x="1294" 
d="M647 63q187 0 308.5 128t121.5 323q0 197 -121.5 324t-308.5 127t-308.5 -127t-121.5 -324q0 -195 121.5 -323t308.5 -128zM647 1071q236 0 389.5 -157t153.5 -400t-153 -399t-390 -156q-238 0 -390.5 156t-152.5 399t152.5 400t390.5 157zM809 1462h96q0 -133 -69 -221
t-189 -88q-122 0 -191 88t-69 221h96q0 -95 46 -157t118 -62q70 0 116 62t46 157z" />
    <glyph glyph-name="Ohungarumlaut" unicode="&#x150;" horiz-adv-x="1785" 
d="M893 -51q-166 0 -309 57.5t-244 158.5t-158 244.5t-57 309.5t57.5 309.5t158 245t243.5 159.5t309 58q165 0 308 -58t244 -159.5t158.5 -245t57.5 -309.5t-57.5 -309.5t-158.5 -244.5t-244 -158.5t-308 -57.5zM893 1380q-186 0 -334 -84.5t-230.5 -235.5t-82.5 -341
q0 -188 82.5 -339t230.5 -236t334 -85q139 0 259.5 49.5t205.5 136.5t133.5 209.5t48.5 264.5q0 190 -82.5 341t-230.5 235.5t-334 84.5zM879 1874h125l-230 -291h-112zM1190 1874h123l-236 -291h-110z" />
    <glyph glyph-name="ohungarumlaut" unicode="&#x151;" horiz-adv-x="1290" 
d="M645 1071q236 0 389.5 -157t153.5 -400t-153 -399t-390 -156q-238 0 -390.5 156t-152.5 399t152.5 400t390.5 157zM645 63q187 0 308.5 128t121.5 323q0 197 -121.5 324t-308.5 127t-308.5 -127t-121.5 -324q0 -195 121.5 -323t308.5 -128zM674 1522h129l-275 -369h-114z
M985 1522l125 -2l-276 -367h-115z" />
    <glyph glyph-name="OE" unicode="&#x152;" horiz-adv-x="2172" 
d="M1128 111v1216q-105 43 -241 43q-184 0 -330 -82.5t-228.5 -231t-82.5 -337.5q0 -187 81.5 -335.5t226 -231t325.5 -82.5q149 0 249 41zM125 719q0 165 57 307t156.5 242t240.5 156.5t304 56.5q136 0 254 -41h903v-111h-791v-547h709v-104h-709v-567h811v-111h-923
q-118 -43 -254 -43q-163 0 -304 56.5t-240.5 156.5t-156.5 242t-57 307z" />
    <glyph glyph-name="oe" unicode="&#x153;" horiz-adv-x="2271" 
d="M647 63q187 0 308.5 128t121.5 323q0 197 -121.5 324t-308.5 127t-308.5 -127t-121.5 -324q0 -195 121.5 -323t308.5 -128zM1194 580h854q-17 171 -134 278t-288 107q-176 0 -294.5 -107t-137.5 -278zM1135 258q-64 -138 -193.5 -218.5t-294.5 -80.5q-238 0 -390.5 156
t-152.5 399t152.5 400t390.5 157q164 0 292.5 -79.5t195.5 -217.5q65 137 195.5 217t297.5 80q235 0 387 -156t152 -395q0 -29 -2 -43h-971q12 -182 132.5 -298t299.5 -116q133 0 245 74.5t152 188.5l111 -19q-47 -151 -190.5 -249.5t-313.5 -98.5q-167 0 -297.5 80.5
t-197.5 218.5z" />
    <glyph glyph-name="Racute" unicode="&#x154;" horiz-adv-x="1449" 
d="M801 1329h-490v-661h490q175 0 285 90.5t110 236.5q0 152 -109.5 243t-285.5 91zM311 557v-557h-121v1440h617q226 0 368 -124t142 -321q0 -159 -102.5 -274t-268.5 -146l371 -575h-143l-353 559zM655 1583l219 291h136l-224 -291h-131z" />
    <glyph glyph-name="racute" unicode="&#x155;" horiz-adv-x="825" 
d="M172 1030h111v-162q42 95 116 148t172 53q72 0 150 -33v-108q-78 37 -156 37q-127 0 -202.5 -104.5t-75.5 -274.5v-586h-115v1030zM621 1485h131l-252 -332h-123z" />
    <glyph glyph-name="Rcommaaccent" unicode="&#x156;" horiz-adv-x="1449" 
d="M801 1329h-490v-661h490q175 0 285 90.5t110 236.5q0 152 -109.5 243t-285.5 91zM311 557v-557h-121v1440h617q226 0 368 -124t142 -321q0 -159 -102.5 -274t-268.5 -146l371 -575h-143l-353 559zM737 -332q-37 0 -58.5 21.5t-21.5 58.5q0 34 21 56t53 22
q39 0 63.5 -31.5t24.5 -79.5q0 -65 -28.5 -126t-75.5 -105l-45 35q29 32 48 73.5t19 75.5z" />
    <glyph glyph-name="rcommaaccent" unicode="&#x157;" horiz-adv-x="776" 
d="M172 1030h111v-162q42 95 116 148t172 53q72 0 150 -33v-108q-78 37 -156 37q-127 0 -202.5 -104.5t-75.5 -274.5v-586h-115v1030zM236 -319q-36 0 -59 20.5t-23 56.5q0 35 20.5 57.5t54.5 22.5q38 0 63 -31.5t25 -78.5q0 -66 -28.5 -128t-75.5 -106l-47 37
q31 32 50.5 74t19.5 76z" />
    <glyph glyph-name="Rcaron" unicode="&#x158;" horiz-adv-x="1449" 
d="M801 1329h-490v-661h490q175 0 285 90.5t110 236.5q0 152 -109.5 243t-285.5 91zM311 557v-557h-121v1440h617q226 0 368 -124t142 -321q0 -159 -102.5 -274t-268.5 -146l371 -575h-143l-353 559zM731 1653l199 262h117l-252 -332h-129l-250 332h116z" />
    <glyph glyph-name="rcaron" unicode="&#x159;" horiz-adv-x="794" 
d="M172 1030h111v-162q42 95 116 148t172 53q72 0 150 -33v-108q-78 37 -156 37q-127 0 -202.5 -104.5t-75.5 -274.5v-586h-115v1030zM645 1485h117l-252 -332h-127l-252 332h117l198 -262z" />
    <glyph glyph-name="Sacute" unicode="&#x15a;" horiz-adv-x="1425" 
d="M1284 410q0 -204 -154 -332.5t-403 -128.5q-168 0 -302.5 65.5t-210 182.5t-75.5 264h121q0 -177 132 -289.5t339 -112.5q194 0 313 93.5t119 244.5q0 35 -8.5 64.5t-20.5 52t-36.5 42t-45 32.5t-57 25.5t-62 19.5t-72 15t-73.5 11.5t-79 10.5q-62 8 -101.5 14.5
t-96 17.5t-93.5 25t-81 34t-72 47t-53 62t-36.5 81t-11.5 102q0 191 148.5 314.5t385.5 123.5q243 0 403.5 -136t160.5 -343l-117 -2q0 161 -127 265.5t-322 104.5q-184 -1 -297.5 -89.5t-113.5 -227.5q0 -35 8.5 -65t21 -53t36 -42.5t45 -33t57.5 -26t62.5 -20t71.5 -15
t74.5 -12t79.5 -10.5q74 -10 115.5 -17t107 -22t104 -31.5t85 -44.5t71.5 -63t42.5 -85.5t17.5 -112.5zM848 1874h135l-221 -291h-133z" />
    <glyph glyph-name="sacute" unicode="&#x15b;" horiz-adv-x="1077" 
d="M969 287q0 -143 -117 -235.5t-297 -92.5q-193 0 -317.5 106t-124.5 269h110q0 -118 93.5 -194.5t238.5 -76.5q131 0 217 61.5t86 154.5q0 42 -21 74.5t-51 52t-77.5 34.5t-84.5 21.5t-89 13.5q-53 8 -89 14.5t-81 18t-75 25t-61 35t-49 47.5t-29.5 63t-11.5 82
q0 134 110 222.5t275 88.5q182 0 302 -98t120 -248l-112 2q0 104 -88 171t-222 67q-117 0 -195.5 -58.5t-78.5 -148.5q0 -42 19 -72t60 -49.5t91 -31.5t127 -23q49 -8 83 -14t82 -18.5t80.5 -26.5t68.5 -36.5t58 -49.5t36 -65.5t14 -84.5zM694 1485h131l-250 -332h-124z" />
    <glyph glyph-name="Scircumflex" unicode="&#x15c;" horiz-adv-x="1425" 
d="M1284 410q0 -204 -154 -332.5t-403 -128.5q-168 0 -302.5 65.5t-210 182.5t-75.5 264h121q0 -177 132 -289.5t339 -112.5q194 0 313 93.5t119 244.5q0 35 -8.5 64.5t-20.5 52t-36.5 42t-45 32.5t-57 25.5t-62 19.5t-72 15t-73.5 11.5t-79 10.5q-62 8 -101.5 14.5
t-96 17.5t-93.5 25t-81 34t-72 47t-53 62t-36.5 81t-11.5 102q0 191 148.5 314.5t385.5 123.5q243 0 403.5 -136t160.5 -343l-117 -2q0 161 -127 265.5t-322 104.5q-184 -1 -297.5 -89.5t-113.5 -227.5q0 -35 8.5 -65t21 -53t36 -42.5t45 -33t57.5 -26t62.5 -20t71.5 -15
t74.5 -12t79.5 -10.5q74 -10 115.5 -17t107 -22t104 -31.5t85 -44.5t71.5 -63t42.5 -85.5t17.5 -112.5zM506 1583h-125l258 291h131l256 -291h-121l-200 223z" />
    <glyph glyph-name="scircumflex" unicode="&#x15d;" horiz-adv-x="1077" 
d="M969 287q0 -143 -117 -235.5t-297 -92.5q-193 0 -317.5 106t-124.5 269h110q0 -118 93.5 -194.5t238.5 -76.5q131 0 217 61.5t86 154.5q0 42 -21 74.5t-51 52t-77.5 34.5t-84.5 21.5t-89 13.5q-53 8 -89 14.5t-81 18t-75 25t-61 35t-49 47.5t-29.5 63t-11.5 82
q0 134 110 222.5t275 88.5q182 0 302 -98t120 -248l-112 2q0 104 -88 171t-222 67q-117 0 -195.5 -58.5t-78.5 -148.5q0 -42 19 -72t60 -49.5t91 -31.5t127 -23q49 -8 83 -14t82 -18.5t80.5 -26.5t68.5 -36.5t58 -49.5t36 -65.5t14 -84.5zM324 1153h-117l252 332h127
l252 -332h-117l-199 262z" />
    <glyph glyph-name="Scedilla" unicode="&#x15e;" horiz-adv-x="1425" 
d="M715 -195h-78l16 148q-228 22 -371 162.5t-143 345.5h121q0 -177 132 -289.5t339 -112.5q194 0 313 93.5t119 244.5q0 35 -8.5 64.5t-20.5 52t-36.5 42t-45 32.5t-57 25.5t-62 19.5t-72 15t-73.5 11.5t-79 10.5q-62 8 -101.5 14.5t-96 17.5t-93.5 25t-81 34t-72 47
t-53 62t-36.5 81t-11.5 102q0 191 148.5 314.5t385.5 123.5q243 0 403.5 -136t160.5 -343l-117 -2q0 161 -127 265.5t-322 104.5q-184 -1 -297.5 -89.5t-113.5 -227.5q0 -35 8.5 -65t21 -53t36 -42.5t45 -33t57.5 -26t62.5 -20t71.5 -15t74.5 -12t79.5 -10.5
q74 -10 115.5 -17t107 -22t104 -31.5t85 -44.5t71.5 -63t42.5 -85.5t17.5 -112.5q0 -202 -152 -331t-397 -130l-8 -78q107 0 171.5 -61t64.5 -158q0 -91 -61.5 -148t-158.5 -57q-84 0 -144 47t-75 123l74 18q14 -51 52.5 -81.5t90.5 -30.5q60 0 98 36.5t38 94.5
q0 69 -44 110t-118 41z" />
    <glyph glyph-name="scedilla" unicode="&#x15f;" horiz-adv-x="1077" 
d="M557 -195h-78l19 156q-171 17 -278 120t-107 253h110q0 -118 93.5 -194.5t238.5 -76.5q131 0 217 61.5t86 154.5q0 42 -21 74.5t-51 52t-77.5 34.5t-84.5 21.5t-89 13.5q-53 8 -89 14.5t-81 18t-75 25t-61 35t-49 47.5t-29.5 63t-11.5 82q0 134 110 222.5t275 88.5
q182 0 302 -98t120 -248l-112 2q0 104 -88 171t-222 67q-117 0 -195.5 -58.5t-78.5 -148.5q0 -42 19 -72t60 -49.5t91 -31.5t127 -23q49 -8 83 -14t82 -18.5t80.5 -26.5t68.5 -36.5t58 -49.5t36 -65.5t14 -84.5q0 -138 -109 -229t-280 -99l-11 -88q107 0 171.5 -61
t64.5 -158q0 -91 -61 -148t-158 -57q-84 0 -144 47t-75 123l73 18q13 -51 53 -81.5t91 -30.5q60 0 97.5 36.5t37.5 94.5q0 69 -44 110t-118 41z" />
    <glyph glyph-name="Scaron" unicode="&#x160;" horiz-adv-x="1425" 
d="M1284 410q0 -204 -154 -332.5t-403 -128.5q-168 0 -302.5 65.5t-210 182.5t-75.5 264h121q0 -177 132 -289.5t339 -112.5q194 0 313 93.5t119 244.5q0 35 -8.5 64.5t-20.5 52t-36.5 42t-45 32.5t-57 25.5t-62 19.5t-72 15t-73.5 11.5t-79 10.5q-62 8 -101.5 14.5
t-96 17.5t-93.5 25t-81 34t-72 47t-53 62t-36.5 81t-11.5 102q0 191 148.5 314.5t385.5 123.5q243 0 403.5 -136t160.5 -343l-117 -2q0 161 -127 265.5t-322 104.5q-184 -1 -297.5 -89.5t-113.5 -227.5q0 -35 8.5 -65t21 -53t36 -42.5t45 -33t57.5 -26t62.5 -20t71.5 -15
t74.5 -12t79.5 -10.5q74 -10 115.5 -17t107 -22t104 -31.5t85 -44.5t71.5 -63t42.5 -85.5t17.5 -112.5zM903 1915h117l-252 -332h-127l-250 332h115l199 -262z" />
    <glyph glyph-name="scaron" unicode="&#x161;" horiz-adv-x="1077" 
d="M969 287q0 -143 -117 -235.5t-297 -92.5q-193 0 -317.5 106t-124.5 269h110q0 -118 93.5 -194.5t238.5 -76.5q131 0 217 61.5t86 154.5q0 42 -21 74.5t-51 52t-77.5 34.5t-84.5 21.5t-89 13.5q-53 8 -89 14.5t-81 18t-75 25t-61 35t-49 47.5t-29.5 63t-11.5 82
q0 134 110 222.5t275 88.5q182 0 302 -98t120 -248l-112 2q0 104 -88 171t-222 67q-117 0 -195.5 -58.5t-78.5 -148.5q0 -42 19 -72t60 -49.5t91 -31.5t127 -23q49 -8 83 -14t82 -18.5t80.5 -26.5t68.5 -36.5t58 -49.5t36 -65.5t14 -84.5zM719 1485h119l-252 -332h-129
l-250 332h115l200 -262z" />
    <glyph glyph-name="Tcommaaccent" unicode="&#x162;" horiz-adv-x="1198" 
d="M539 0v1329h-496v111h1112v-111h-496v-1329h-120zM602 -334q-37 0 -59.5 22.5t-22.5 57.5t21 56.5t55 21.5q38 0 63 -31t25 -78q0 -66 -28.5 -127.5t-75.5 -105.5l-48 37q31 31 50.5 72t19.5 75z" />
    <glyph glyph-name="tcommaaccent" unicode="&#x163;" horiz-adv-x="759" 
d="M248 233v699h-176v96h180l12 238h96v-238h277v-96h-277v-696q0 -78 44.5 -127t117.5 -50q61 0 133 21v-98q-67 -23 -153 -23q-115 0 -184.5 74.5t-69.5 199.5zM473 -334q-35 0 -57.5 22.5t-22.5 57.5t21 56.5t55 21.5q38 0 63 -31t25 -78q0 -65 -29 -126.5t-77 -106.5
l-45 37q29 31 48 72t19 75z" />
    <glyph glyph-name="Tcaron" unicode="&#x164;" horiz-adv-x="1198" 
d="M539 0v1329h-496v111h1112v-111h-496v-1329h-120zM797 1880h118l-251 -334h-129l-250 334h114l201 -262z" />
    <glyph glyph-name="tcaron" unicode="&#x165;" horiz-adv-x="751" 
d="M248 233v699h-176v96h180l12 238h96v-238h277v-96h-277v-696q0 -78 44.5 -127t117.5 -50q61 0 133 21v-98q-67 -23 -153 -23q-115 0 -184.5 74.5t-69.5 199.5zM561 1313q-37 0 -59.5 21.5t-22.5 58.5q0 34 21 55.5t55 21.5q38 0 63 -31.5t25 -78.5q0 -66 -28.5 -127
t-75.5 -105l-45 35q29 32 48 74t19 76z" />
    <glyph glyph-name="Utilde" unicode="&#x168;" horiz-adv-x="1480" 
d="M1186 580v860h121v-860q0 -184 -71.5 -328t-200.5 -223.5t-294 -79.5q-252 0 -409.5 175.5t-157.5 455.5v860h121v-860q0 -227 123 -374t323 -147q201 0 323 143.5t122 377.5zM469 1653l-70 49q25 53 82 87t125 34q46 0 86.5 -17t65.5 -37.5t60 -37.5t71 -17q45 0 81 23
t54 61l74 -45q-25 -56 -83.5 -90.5t-131.5 -34.5q-48 0 -89.5 17t-66 37.5t-57.5 37.5t-66 17q-41 0 -76.5 -23t-58.5 -61z" />
    <glyph glyph-name="utilde" unicode="&#x169;" 
d="M1063 1030v-1030h-113v172q-51 -97 -155.5 -155t-227.5 -58q-193 0 -304 129t-111 334v608h114v-608q0 -160 82 -259.5t230 -99.5q152 0 262 102t110 255v610h113zM352 1217l-69 40q27 53 81.5 87t116.5 34q45 0 88 -19t71.5 -41.5t65 -41.5t70.5 -19q42 0 77.5 22
t53.5 56l72 -37q-23 -56 -81 -91.5t-128 -35.5q-47 0 -91 19t-71.5 41.5t-63 41.5t-69.5 19q-38 0 -72 -20.5t-51 -54.5z" />
    <glyph glyph-name="Umacron" unicode="&#x16a;" horiz-adv-x="1480" 
d="M1186 580v860h121v-860q0 -184 -71.5 -328t-200.5 -223.5t-294 -79.5q-252 0 -409.5 175.5t-157.5 455.5v860h121v-860q0 -227 123 -374t323 -147q201 0 323 143.5t122 377.5zM1063 1731v-86h-643v86h643z" />
    <glyph glyph-name="umacron" unicode="&#x16b;" 
d="M1063 0h-113v172q-51 -97 -155.5 -155t-227.5 -58q-193 0 -304 129t-111 334v608h114v-608q0 -160 82 -259.5t230 -99.5q152 0 262 102t110 255v610h113v-1030zM930 1300v-88h-643v88h643z" />
    <glyph glyph-name="Ubreve" unicode="&#x16c;" horiz-adv-x="1480" 
d="M1186 580v860h121v-860q0 -184 -71.5 -328t-200.5 -223.5t-294 -79.5q-252 0 -409.5 175.5t-157.5 455.5v860h121v-860q0 -227 123 -374t323 -147q201 0 323 143.5t122 377.5zM905 1862h92q2 -123 -68 -201t-188 -78q-120 0 -190 77.5t-70 201.5h94q0 -83 47 -136
t119 -53q71 0 117.5 53t46.5 136z" />
    <glyph glyph-name="ubreve" unicode="&#x16d;" 
d="M1063 0h-113v172q-51 -97 -155.5 -155t-227.5 -58q-193 0 -304 129t-111 334v608h114v-608q0 -160 82 -259.5t230 -99.5q152 0 262 102t110 255v610h113v-1030zM770 1460h96q0 -131 -70 -220t-190 -89t-189 88.5t-69 220.5h96q0 -95 45.5 -156t116.5 -61q72 0 118 61
t46 156z" />
    <glyph glyph-name="Uring" unicode="&#x16e;" horiz-adv-x="1480" 
d="M739 1954q-67 0 -111 -44t-44 -112t44 -112t111 -44t111.5 44t44.5 112t-44.5 112t-111.5 44zM1186 580v860h121v-860q0 -184 -71.5 -328t-200.5 -223.5t-294 -79.5q-252 0 -409.5 175.5t-157.5 455.5v860h121v-860q0 -227 123 -374t323 -147q201 0 323 143.5t122 377.5z
M741 1563q-106 0 -174.5 66t-68.5 169t68.5 169.5t174.5 66.5q104 0 171 -66.5t67 -169.5t-67 -169t-171 -66z" />
    <glyph glyph-name="uring" unicode="&#x16f;" 
d="M606 1522q-68 0 -111.5 -43.5t-43.5 -112.5q0 -68 44 -112t111 -44q68 0 112 44t44 112q0 69 -44 112.5t-112 43.5zM1063 1030v-1030h-113v172q-51 -97 -155.5 -155t-227.5 -58q-193 0 -304 129t-111 334v608h114v-608q0 -160 82 -259.5t230 -99.5q152 0 262 102t110 255
v610h113zM608 1130q-106 0 -173.5 66.5t-67.5 169.5t67.5 169.5t173.5 66.5q104 0 171 -66.5t67 -169.5t-67 -169.5t-171 -66.5z" />
    <glyph glyph-name="Uhungarumlaut" unicode="&#x170;" horiz-adv-x="1480" 
d="M1186 580v860h121v-860q0 -184 -71.5 -328t-200.5 -223.5t-294 -79.5q-252 0 -409.5 175.5t-157.5 455.5v860h121v-860q0 -227 123 -374t323 -147q201 0 323 143.5t122 377.5zM727 1874h123l-229 -291h-111zM1036 1874h123l-233 -291h-111z" />
    <glyph glyph-name="uhungarumlaut" unicode="&#x171;" horiz-adv-x="1210" 
d="M1063 0h-113v172q-51 -97 -155.5 -155t-227.5 -58q-193 0 -304 129t-111 334v608h114v-608q0 -160 82 -259.5t230 -99.5q152 0 262 102t110 255v610h113v-1030zM627 1520h129l-275 -369h-112zM940 1520h125l-279 -369h-112z" />
    <glyph glyph-name="Uogonek" unicode="&#x172;" horiz-adv-x="1480" 
d="M750 -51q-257 0 -416.5 175.5t-159.5 455.5v860h121v-860q0 -227 123 -374t323 -147q201 0 323 143.5t122 377.5v860h121v-860q0 -238 -117 -404.5t-313 -210.5q-125 -70 -125 -192q0 -112 97.5 -182.5t252.5 -73.5v-90q-191 0 -313.5 93.5t-122.5 239.5q0 111 84 189z
" />
    <glyph glyph-name="uogonek" unicode="&#x173;" horiz-adv-x="1363" 
d="M950 20v152q-51 -97 -155.5 -155t-227.5 -58q-193 0 -304 129t-111 334v608h114v-608q0 -160 82 -259.5t230 -99.5q152 0 262 102t110 255v610h113v-1030h-19q-100 -30 -151 -89t-51 -134q0 -112 97.5 -182.5t252.5 -73.5v-90q-191 0 -313.5 93.5t-122.5 239.5
q0 85 52.5 153.5t141.5 102.5z" />
    <glyph glyph-name="Wcircumflex" unicode="&#x174;" horiz-adv-x="2109" 
d="M1143 1440l366 -1344l396 1344h123l-426 -1440h-185l-362 1307l-361 -1307h-188l-426 1440h125l395 -1344l371 1344h172zM854 1583h-125l258 291h129l258 -291h-123l-200 223z" />
    <glyph glyph-name="wcircumflex" unicode="&#x175;" horiz-adv-x="1787" 
d="M604 0h-151l-359 1030h121l315 -915l295 915h136l301 -917l313 917h119l-359 -1030h-151l-291 899zM696 1153h-116l251 332h127l252 -332h-116l-199 262z" />
    <glyph glyph-name="Ycircumflex" unicode="&#x176;" horiz-adv-x="1239" 
d="M559 0v563l-508 877h135l435 -758l430 758h137l-508 -877v-563h-121zM420 1583h-123l258 291h129l256 -291h-121l-201 223z" />
    <glyph glyph-name="ycircumflex" unicode="&#x177;" horiz-adv-x="1157" 
d="M129 -428v102q74 -24 129 -24q50 0 88.5 20t74.5 76t53 90.5t57 128.5q4 9 6 14t5.5 12.5t6.5 14.5l-475 1024h127l405 -885l355 885h120l-419 -1038q-26 -64 -43.5 -105t-43.5 -93t-47.5 -84.5t-51 -67t-59.5 -53.5t-68 -31.5t-81 -12.5q-73 0 -139 27zM381 1153h-115
l250 332h127l252 -332h-117l-198 262z" />
    <glyph glyph-name="Ydieresis" unicode="&#x178;" horiz-adv-x="1239" 
d="M559 0v563l-508 877h135l435 -758l430 758h137l-508 -877v-563h-121zM403 1604q-37 0 -61.5 23.5t-24.5 60.5t24.5 60.5t61.5 23.5q38 0 62 -23.5t24 -60.5t-24 -60.5t-62 -23.5zM836 1604q-38 0 -62 23.5t-24 60.5t24 60.5t62 23.5q37 0 61.5 -23.5t24.5 -60.5
t-24.5 -60.5t-61.5 -23.5z" />
    <glyph glyph-name="Zacute" unicode="&#x179;" horiz-adv-x="1284" 
d="M80 80l936 1253h-916v107h1084v-80l-934 -1256h954v-104h-1124v80zM786 1874h136l-224 -291h-131z" />
    <glyph glyph-name="zacute" unicode="&#x17a;" horiz-adv-x="1124" 
d="M104 74l723 850h-702v106h874v-76l-723 -850h744v-104h-916v74zM735 1485h131l-250 -332h-124z" />
    <glyph glyph-name="Zdotaccent" unicode="&#x17b;" horiz-adv-x="1284" 
d="M80 80l936 1253h-916v107h1084v-80l-934 -1256h954v-104h-1124v80zM643 1614q-38 0 -62 22.5t-24 59.5t24 59.5t62 22.5q37 0 61.5 -23t24.5 -59t-24.5 -59t-61.5 -23z" />
    <glyph glyph-name="zdotaccent" unicode="&#x17c;" horiz-adv-x="1124" 
d="M104 74l723 850h-702v106h874v-76l-723 -850h744v-104h-916v74zM563 1214q-37 0 -61.5 24t-24.5 62q0 37 24.5 60.5t61.5 23.5q38 0 62 -23.5t24 -60.5q0 -38 -24 -62t-62 -24z" />
    <glyph glyph-name="Zcaron" unicode="&#x17d;" horiz-adv-x="1284" 
d="M80 80l936 1253h-916v107h1084v-80l-934 -1256h954v-104h-1124v80zM840 1915h118l-251 -332h-129l-250 332h114l201 -262z" />
    <glyph glyph-name="zcaron" unicode="&#x17e;" horiz-adv-x="1124" 
d="M104 74l723 850h-702v106h874v-76l-723 -850h744v-104h-916v74zM760 1485h119l-252 -332h-129l-250 332h117l198 -262z" />
    <glyph glyph-name="Aacutering" unicode="&#x1fa;" horiz-adv-x="1380" 
d="M690 1329l-356 -919h713zM688 1741q-42 0 -70 -27t-30 -69q0 -44 28 -72.5t72 -28.5q42 0 70 28.5t28 72.5q0 41 -27.5 68.5t-70.5 27.5zM299 309l-119 -309h-129l553 1440h170l553 -1440h-127l-121 309h-780zM688 1464q-79 0 -131.5 50.5t-52.5 127.5t51.5 128t130.5 51
t130.5 -51t53.5 -128q0 -78 -52 -128t-130 -50zM625 1841l157 197h136l-162 -197h-131z" />
    <glyph glyph-name="aacutering" unicode="&#x1fb;" horiz-adv-x="1363" 
d="M647 63q184 0 307 128.5t123 322.5t-123 322.5t-307 128.5q-187 0 -308.5 -127t-121.5 -324q0 -195 121.5 -323t308.5 -128zM670 1430q-42 0 -70.5 -27.5t-30.5 -69.5q0 -43 29 -71.5t72 -28.5t70.5 28.5t27.5 71.5q0 41 -28 69t-70 28zM1077 807v223h113v-1030h-113v221
q-61 -122 -177 -192t-263 -70q-232 0 -382.5 157t-150.5 398q0 243 150.5 400t382.5 157q148 0 263.5 -70.5t176.5 -193.5zM670 1153q-80 0 -132.5 51t-52.5 127q0 78 52.5 128t132.5 50q78 0 130 -51t52 -127t-52 -127t-130 -51zM651 1583l219 291h136l-224 -291h-131z" />
    <glyph glyph-name="AEacute" unicode="&#x1fc;" horiz-adv-x="1861" 
d="M401 416h490v930zM1004 111h743v-111h-856v309h-543l-162 -309h-135l754 1440h921v-111h-722v-547h641v-104h-641v-567zM1028 1563l219 290h135l-223 -290h-131z" />
    <glyph glyph-name="aeacute" unicode="&#x1fd;" horiz-adv-x="2234" 
d="M647 971q-188 0 -309 -129t-121 -328q0 -197 121.5 -326t308.5 -129q186 0 308 127.5t122 327.5q0 199 -122 328t-308 129zM1180 553h837q-3 178 -123.5 295t-302.5 117q-173 0 -288 -117.5t-123 -294.5zM1071 815v215h96v-215q59 118 171 186t255 68q235 0 387 -152
t152 -385q0 -27 -4 -77h-944q23 -176 137 -284t281 -108q134 0 243 72.5t144 186.5l104 -21q-34 -149 -172 -245.5t-315 -96.5q-147 0 -264.5 71.5t-174.5 194.5v-225h-96v213q-65 -119 -180 -186.5t-258 -67.5q-230 0 -379.5 156.5t-149.5 398.5t149.5 398.5t379.5 156.5
q143 0 258 -67.5t180 -186.5zM1042 1167l244 334l131 -2l-252 -332h-123z" />
    <glyph glyph-name="Oslashacute" unicode="&#x1fe;" horiz-adv-x="1744" 
d="M872 1380q-180 0 -323 -85t-223 -236t-80 -340q0 -188 81 -338.5t222 -233.5l594 1174q-128 59 -271 59zM872 59q179 0 322 84t224 235t81 341q0 176 -70 318.5t-194 230.5l-590 -1168q106 -41 227 -41zM594 -2l-141 -285h-121l166 330q-174 95 -273.5 273t-99.5 403
q0 220 95.5 396.5t266.5 276t385 99.5q173 0 322 -70l170 340h121l-197 -389q155 -101 243.5 -272t88.5 -381q0 -220 -96 -396t-267 -275t-385 -99q-142 0 -278 49zM838 1563l219 290h135l-221 -290h-133z" />
    <glyph glyph-name="oslashacute" unicode="&#x1ff;" horiz-adv-x="1298" 
d="M649 975q-192 0 -316 -130t-124 -331q0 -130 56 -233.5t153 -163.5l416 819q-79 39 -185 39zM649 53q192 0 316.5 130.5t124.5 330.5q0 116 -45 212t-125 159l-410 -811q75 -21 139 -21zM467 -12l-76 -152h-115l97 191q-126 70 -197.5 197.5t-71.5 289.5q0 243 153.5 400
t391.5 157q125 0 228 -47l104 205h113l-127 -252q107 -73 168 -193.5t61 -269.5q0 -243 -154.5 -399t-392.5 -156q-93 0 -182 29zM825 1485h131l-251 -332h-123z" />
    <glyph glyph-name="Scommaaccent" unicode="&#x218;" horiz-adv-x="1425" 
d="M1284 410q0 -204 -154 -332.5t-403 -128.5q-168 0 -302.5 65.5t-210 182.5t-75.5 264h121q0 -177 132 -289.5t339 -112.5q194 0 313 93.5t119 244.5q0 35 -8.5 64.5t-20.5 52t-36.5 42t-45 32.5t-57 25.5t-62 19.5t-72 15t-73.5 11.5t-79 10.5q-62 8 -101.5 14.5
t-96 17.5t-93.5 25t-81 34t-72 47t-53 62t-36.5 81t-11.5 102q0 191 148.5 314.5t385.5 123.5q243 0 403.5 -136t160.5 -343l-117 -2q0 161 -127 265.5t-322 104.5q-184 -1 -297.5 -89.5t-113.5 -227.5q0 -35 8.5 -65t21 -53t36 -42.5t45 -33t57.5 -26t62.5 -20t71.5 -15
t74.5 -12t79.5 -10.5q74 -10 115.5 -17t107 -22t104 -31.5t85 -44.5t71.5 -63t42.5 -85.5t17.5 -112.5zM707 -332q-36 0 -58 21t-22 57q0 35 20.5 56.5t54.5 21.5q38 0 63.5 -31t25.5 -78q0 -65 -29 -126.5t-76 -106.5l-47 37q30 31 49 72.5t19 76.5z" />
    <glyph glyph-name="scommaaccent" unicode="&#x219;" horiz-adv-x="1077" 
d="M969 287q0 -143 -117 -235.5t-297 -92.5q-193 0 -317.5 106t-124.5 269h110q0 -118 93.5 -194.5t238.5 -76.5q131 0 217 61.5t86 154.5q0 42 -21 74.5t-51 52t-77.5 34.5t-84.5 21.5t-89 13.5q-53 8 -89 14.5t-81 18t-75 25t-61 35t-49 47.5t-29.5 63t-11.5 82
q0 134 110 222.5t275 88.5q182 0 302 -98t120 -248l-112 2q0 104 -88 171t-222 67q-117 0 -195.5 -58.5t-78.5 -148.5q0 -42 19 -72t60 -49.5t91 -31.5t127 -23q49 -8 83 -14t82 -18.5t80.5 -26.5t68.5 -36.5t58 -49.5t36 -65.5t14 -84.5zM526 -334q-35 0 -57.5 22.5
t-22.5 57.5t20 56.5t54 21.5q39 0 63.5 -30.5t24.5 -78.5q0 -66 -28.5 -127.5t-75.5 -105.5l-45 37q29 31 48 72t19 75z" />
    <glyph glyph-name="circumflex" unicode="&#x2c6;" horiz-adv-x="837" 
d="M104 1167l250 334h129l252 -334h-119l-196 263l-201 -263h-115z" />
    <glyph glyph-name="caron" unicode="&#x2c7;" horiz-adv-x="837" 
d="M616 1501h119l-252 -334h-129l-250 332l115 2l201 -262z" />
    <glyph glyph-name="breve" unicode="&#x2d8;" horiz-adv-x="724" 
d="M526 1501h97q0 -133 -70.5 -222t-190.5 -89t-189 89t-69 222h95q0 -96 46 -157.5t117 -61.5q72 0 118 61t46 158z" />
    <glyph glyph-name="dotaccent" unicode="&#x2d9;" horiz-adv-x="378" 
d="M190 1147q-38 0 -62 24.5t-24 61.5t24 60.5t62 23.5q37 0 61.5 -23.5t24.5 -60.5t-24.5 -61.5t-61.5 -24.5z" />
    <glyph glyph-name="ring" unicode="&#x2da;" horiz-adv-x="688" 
d="M346 1106q-106 0 -174 66t-68 169t68 169.5t174 66.5q104 0 171 -66.5t67 -169.5t-67 -169t-171 -66zM346 1497q-69 0 -113.5 -44t-44.5 -112t44.5 -111.5t113.5 -43.5q66 0 110 44t44 111t-44 111.5t-110 44.5z" />
    <glyph glyph-name="ogonek" unicode="&#x2db;" horiz-adv-x="643" 
d="M352 33l54 -33q-106 -28 -162 -89.5t-56 -137.5q0 -112 99 -182.5t254 -73.5v-90q-191 0 -314 93.5t-123 239.5q0 98 67.5 172.5t180.5 100.5z" />
    <glyph glyph-name="tilde" unicode="&#x2dc;" horiz-adv-x="905" 
d="M174 1223l-70 39q25 53 80.5 86.5t118.5 33.5q44 0 87 -19t71.5 -41t65.5 -41t71 -19q42 0 78 21.5t51 55.5l74 -36q-25 -56 -82 -91.5t-127 -35.5q-47 0 -91 19t-71.5 41t-63 41t-69.5 19q-39 0 -72 -20t-51 -53z" />
    <glyph glyph-name="hungarumlaut" unicode="&#x2dd;" horiz-adv-x="905" 
d="M362 1536h130l-275 -369h-113zM676 1536h125l-279 -369h-112z" />
    <glyph glyph-name="Wgrave" unicode="&#x1e80;" horiz-adv-x="2109" 
d="M1143 1440l366 -1344l396 1344h123l-426 -1440h-185l-362 1307l-361 -1307h-188l-426 1440h125l395 -1344l371 1344h172zM764 1874h133l221 -291h-133z" />
    <glyph glyph-name="wgrave" unicode="&#x1e81;" horiz-adv-x="1787" 
d="M604 0h-151l-359 1030h121l315 -915l295 915h136l301 -917l313 917h119l-359 -1030h-151l-291 899zM588 1485h131l242 -332h-123z" />
    <glyph glyph-name="Wacute" unicode="&#x1e82;" horiz-adv-x="2109" 
d="M1143 1440l366 -1344l396 1344h123l-426 -1440h-185l-362 1307l-361 -1307h-188l-426 1440h125l395 -1344l371 1344h172zM1196 1874h135l-223 -291h-131z" />
    <glyph glyph-name="wacute" unicode="&#x1e83;" horiz-adv-x="1787" 
d="M604 0h-151l-359 1030h121l315 -915l295 915h136l301 -917l313 917h119l-359 -1030h-151l-291 899zM1067 1485h131l-250 -332h-123z" />
    <glyph glyph-name="Wdieresis" unicode="&#x1e84;" horiz-adv-x="2109" 
d="M1143 1440l366 -1344l396 1344h123l-426 -1440h-185l-362 1307l-361 -1307h-188l-426 1440h125l395 -1344l371 1344h172zM1032 1604q-37 0 -61.5 23.5t-24.5 60.5t24.5 60.5t61.5 23.5q12 0 21 -3q9 3 18 3q38 0 62 -23.5t24 -60.5t-24 -60.5t-62 -23.5q-12 0 -18 2
q-6 -2 -21 -2z" />
    <glyph glyph-name="wdieresis" unicode="&#x1e85;" horiz-adv-x="1787" 
d="M604 0h-151l-359 1030h121l315 -915l295 915h136l301 -917l313 917h119l-359 -1030h-151l-291 899zM659 1194q-38 0 -62 24t-24 62q0 37 24 60.5t62 23.5q37 0 61.5 -23.5t24.5 -60.5q0 -38 -24.5 -62t-61.5 -24zM1130 1194q-38 0 -62 24t-24 62q0 37 24 60.5t62 23.5
t62.5 -23.5t24.5 -60.5q0 -38 -24.5 -62t-62.5 -24z" />
    <glyph glyph-name="Germandbls" unicode="&#x1e9e;" horiz-adv-x="1351" 
d="M291 975v-975h-121v983q0 214 134 352t343 138q188 0 312 -110.5t124 -272.5q0 -129 -76 -214t-202 -106q182 -24 292 -134.5t109 -279.5q0 -178 -119 -292.5t-301 -114.5q-172 0 -325 100l39 105q131 -97 280 -97q136 0 220.5 86t84.5 222q0 160 -118 255t-320 95h-76
v106h80q137 0 224.5 72t87.5 190t-90.5 198.5t-227.5 80.5q-156 0 -255 -108t-99 -279z" />
    <glyph glyph-name="Ygrave" unicode="&#x1ef2;" horiz-adv-x="1239" 
d="M559 0v563l-508 877h135l435 -758l430 758h137l-508 -877v-563h-121zM342 1874h135l219 -291h-131z" />
    <glyph glyph-name="ygrave" unicode="&#x1ef3;" horiz-adv-x="1107" 
d="M104 -428v102q74 -24 129 -24q50 0 88.5 20t74.5 76t53 90.5t57 128.5q4 9 6 14t5.5 12.5t6.5 14.5l-473 1024h125l406 -885l354 885h121l-420 -1038q-26 -64 -43.5 -105t-43 -93t-47 -84.5t-51 -67t-59 -53.5t-67.5 -31.5t-80 -12.5q-76 0 -142 27zM260 1485h131
l242 -332h-123z" />
    <glyph glyph-name="endash" unicode="&#x2013;" horiz-adv-x="1351" 
d="M1260 696v-106h-1168v106h1168z" />
    <glyph glyph-name="emdash" unicode="&#x2014;" horiz-adv-x="1679" 
d="M51 696h1577v-106h-1577v106z" />
    <glyph glyph-name="quoteleft" unicode="&#x2018;" horiz-adv-x="393" 
d="M199 1272q38 0 62 -23.5t24 -60.5q0 -38 -23.5 -62t-60.5 -24q-43 0 -70 33t-27 84q0 86 37.5 164.5t94.5 117.5l53 -45q-40 -28 -65 -79t-25 -105z" />
    <glyph glyph-name="quoteright" unicode="&#x2019;" horiz-adv-x="393" 
d="M195 1309q-38 0 -62 24t-24 62q0 37 23.5 60.5t60.5 23.5q43 0 69.5 -32.5t26.5 -84.5q0 -87 -36.5 -165.5t-94.5 -115.5l-54 43q40 28 65.5 79.5t25.5 105.5z" />
    <glyph glyph-name="quotesinglbase" unicode="&#x201a;" horiz-adv-x="393" 
d="M195 -23q-38 0 -62 23.5t-24 60.5t23.5 60.5t60.5 23.5q43 0 69.5 -31.5t26.5 -82.5q0 -87 -36.5 -167t-94.5 -116l-54 45q40 26 65.5 78t25.5 106z" />
    <glyph glyph-name="quotedblleft" unicode="&#x201c;" horiz-adv-x="686" 
d="M289 1188q0 -38 -23.5 -62t-60.5 -24q-43 0 -69.5 33t-26.5 84q0 86 37 165t94 117l55 -45q-40 -28 -66 -79.5t-26 -104.5q38 0 62 -23.5t24 -60.5zM573 1188q0 -38 -23.5 -62t-60.5 -24q-43 0 -69.5 33t-26.5 84q0 86 37 165t94 117l54 -45q-40 -28 -65.5 -79
t-25.5 -105q38 0 62 -23.5t24 -60.5z" />
    <glyph glyph-name="quotedblright" unicode="&#x201d;" horiz-adv-x="679" 
d="M113 1395q0 38 24.5 62t61.5 24q43 0 69.5 -33t26.5 -84q0 -86 -37 -165.5t-96 -117.5l-53 45q40 28 66 79.5t26 105.5q-38 0 -63 23.5t-25 60.5zM395 1395q0 38 24.5 62t61.5 24q43 0 70 -33t27 -84q0 -86 -37.5 -165.5t-96.5 -117.5l-53 45q40 28 66 79.5t26 105.5
q-38 0 -63 23.5t-25 60.5z" />
    <glyph glyph-name="quotedblbase" unicode="&#x201e;" horiz-adv-x="679" 
d="M109 63q0 37 24.5 60.5t61.5 23.5q43 0 69.5 -32t26.5 -84q0 -86 -37 -165t-94 -116l-56 43q40 28 66.5 79.5t26.5 104.5q-38 0 -63 24t-25 62zM393 63q0 37 23.5 60.5t60.5 23.5q43 0 69.5 -32t26.5 -84q0 -86 -37 -165t-94 -116l-53 43q40 28 65 79t25 105
q-38 0 -62 24t-24 62z" />
    <glyph glyph-name="bullet" unicode="&#x2022;" horiz-adv-x="401" 
d="M201 541q-43 0 -70 26.5t-27 67.5t27 67.5t70 26.5q41 0 68.5 -26.5t27.5 -67.5t-27.5 -67.5t-68.5 -26.5z" />
    <glyph glyph-name="ellipsis" unicode="&#x2026;" horiz-adv-x="991" 
d="M190 -23q-38 0 -62 24t-24 62q0 36 24 60t62 24q37 0 61.5 -23.5t24.5 -60.5q0 -38 -24.5 -62t-61.5 -24zM496 -23q-37 0 -61.5 24t-24.5 62q0 35 24.5 59.5t61.5 24.5q38 0 62 -23.5t24 -60.5q0 -38 -24 -62t-62 -24zM803 -23q-38 0 -62 24t-24 62q0 36 24 60t62 24
q37 0 61.5 -23.5t24.5 -60.5q0 -38 -24.5 -62t-61.5 -24z" />
    <glyph glyph-name="perthousand" unicode="&#x2030;" horiz-adv-x="3049" 
d="M1153 391q0 181 116 296.5t298 115.5q181 0 296 -115t115 -297t-115 -296.5t-298 -114.5q-180 0 -296 115t-116 296zM1864 391q0 131 -83 214t-214 83q-132 0 -216.5 -83.5t-84.5 -213.5t84.5 -213.5t216.5 -83.5q131 0 214 83t83 214zM2118 389q0 181 115.5 296.5
t297.5 115.5t298 -115.5t116 -296.5t-115.5 -296.5t-298.5 -115.5q-181 0 -297 116t-116 296zM2830 391q0 129 -83.5 212t-215.5 83t-215.5 -83t-83.5 -212q0 -131 83.5 -214t215.5 -83t215.5 83t83.5 214zM104 1110q0 180 116.5 296t297.5 116t297.5 -116t116.5 -296
q0 -181 -116 -296.5t-298 -115.5t-298 115.5t-116 296.5zM815 1110q0 130 -83 212.5t-214 82.5q-132 0 -216.5 -82.5t-84.5 -212.5t84.5 -213.5t216.5 -83.5q130 0 213.5 83.5t83.5 213.5zM1485 1501h135l-1022 -1501h-133z" />
    <glyph glyph-name="guilsinglleft" unicode="&#x2039;" horiz-adv-x="737" 
d="M633 1030l-422 -516l422 -514h-139l-420 514l420 516h139z" />
    <glyph glyph-name="guilsinglright" unicode="&#x203a;" horiz-adv-x="737" 
d="M662 514l-418 -514h-140l422 514l-422 516h138z" />
    <glyph glyph-name="lira" unicode="&#x20a4;" horiz-adv-x="1200" 
d="M702 1386q-115 0 -186.5 -87.5t-71.5 -223.5v-284h533v-89h-533q0 -51 -4 -133h537v-90h-549q-35 -305 -201 -385h865v-94h-988v141q82 10 136.5 87t74.5 255h-192l-2 86h205q4 82 4 133h-209l2 89h207v284q0 181 102.5 297.5t265.5 116.5q164 0 273.5 -119.5
t126.5 -308.5l-111 -19q-14 154 -90.5 249t-194.5 95z" />
    <glyph glyph-name="Euro" unicode="&#x20ac;" horiz-adv-x="1837" 
d="M1034 59q204 0 361.5 118.5t199.5 297.5l117 -24q-50 -216 -240.5 -359t-437.5 -143q-279 0 -480 163t-255 429h-195v92h181q-4 58 -4 86q0 51 6 104h-183v90h199q59 260 257 419t474 159q245 0 436.5 -149.5t241.5 -374.5l-119 -17q-42 184 -199.5 307t-359.5 123
q-224 0 -388 -127.5t-220 -339.5h707v-90h-725q-7 -61 -7 -104q0 -39 7 -86h722v-92h-708q53 -217 218.5 -349.5t393.5 -132.5z" />
    <glyph glyph-name="trademark" unicode="&#x2122;" horiz-adv-x="2199" 
d="M348 307v1036h-317v97h737v-97h-317v-1036h-103zM1931 1303l-403 -996h-86l-402 996v-996h-100v1133h154l391 -985l389 985h156v-1133h-99v996z" />
    <glyph glyph-name="minus" unicode="&#x2212;" horiz-adv-x="1048" 
d="M104 696h840v-106h-840v106z" />
    <glyph glyph-name="approxequal" unicode="&#x2248;" horiz-adv-x="980" 
 />
    <glyph glyph-name="notequal" unicode="&#x2260;" horiz-adv-x="1171" 
d="M104 442h363l147 396h-510v106h551l136 359h106l-135 -359h305v-106h-344l-148 -396h492v-106h-532l-156 -418h-109l156 418h-322v106z" />
    <glyph glyph-name="lessequal" unicode="&#x2264;" horiz-adv-x="894" 
d="M778 104v-104h-708v104h708zM70 707l708 350v-113l-608 -299l608 -301v-111l-708 351v123z" />
    <glyph glyph-name="greaterequal" unicode="&#x2265;" horiz-adv-x="894" 
d="M117 104h708v-104h-708v104zM117 344l608 301l-608 299l-2 113l710 -350v-123l-708 -351v111z" />
    <glyph glyph-name="commaaccent" unicode="&#xf6c3;" horiz-adv-x="370" 
d="M184 -37q-35 0 -57.5 22.5t-22.5 57.5q0 34 21 56t53 22q40 0 64 -30.5t24 -80.5q1 -64 -27.5 -125t-76.5 -106l-45 35q29 32 48 73.5t19 75.5z" />
    <glyph glyph-name="acute.case" horiz-adv-x="561" 
d="M459 1501l-223 -293h-132l220 293h135z" />
    <glyph glyph-name="breve.case" horiz-adv-x="724" 
d="M526 1501h95q0 -125 -69.5 -202.5t-189.5 -77.5t-189 77.5t-69 202.5h95q0 -83 45.5 -136.5t117.5 -53.5t118 53.5t46 136.5z" />
    <glyph glyph-name="caron.case" horiz-adv-x="851" 
d="M627 1501h123l-258 -293h-130l-258 293h125l197 -223z" />
    <glyph glyph-name="circumflex.case" horiz-adv-x="851" 
d="M104 1208l258 293h130l258 -293h-123l-201 224l-197 -224h-125z" />
    <glyph glyph-name="dieresis.case" horiz-adv-x="811" 
d="M190 1174q-38 0 -62 23t-24 60t24 61.5t62 24.5q37 0 61.5 -24.5t24.5 -61.5q0 -36 -24.5 -59.5t-61.5 -23.5zM621 1174q-37 0 -61.5 23.5t-24.5 59.5q0 37 24.5 61.5t61.5 24.5t61.5 -24.5t24.5 -61.5q0 -36 -24.5 -59.5t-61.5 -23.5z" />
    <glyph glyph-name="dotaccent.case" horiz-adv-x="378" 
d="M190 1178q-38 0 -62 23.5t-24 60.5q0 35 24 58t62 23t62 -23t24 -58q0 -37 -24 -60.5t-62 -23.5z" />
    <glyph glyph-name="grave.case" horiz-adv-x="561" 
d="M104 1511h136l219 -290h-133z" />
    <glyph glyph-name="hungarumlaut.case" horiz-adv-x="858" 
d="M322 1501l122 -2l-229 -291h-111zM631 1501l123 -2l-234 -291h-110z" />
    <glyph glyph-name="ijacute" horiz-adv-x="905" 
d="M176 1030h113v-1030h-113v1030zM629 -190v1220h112v-1220q0 -116 -68 -188.5t-177 -72.5q-77 0 -156 27v94q68 -22 133 -22q69 0 112.5 45.5t43.5 116.5zM403 1501l132 -2l-250 -332h-123zM850 1501l131 -2l-250 -332h-123z" />
    <glyph glyph-name="ring.case" horiz-adv-x="573" 
d="M289 1108q-80 0 -132.5 50t-52.5 128q0 76 51.5 126t131.5 50t132 -50t52 -126q0 -78 -52 -128t-130 -50zM289 1382q-43 0 -71.5 -26.5t-29.5 -69.5q0 -43 28.5 -70.5t72.5 -27.5q43 0 70.5 27.5t27.5 70.5t-27.5 69.5t-70.5 26.5z" />
    <glyph glyph-name="tilde.case" horiz-adv-x="905" 
d="M174 1239l-70 47q23 54 80 87.5t127 33.5q45 0 85.5 -17t65 -37.5t60 -37.5t72.5 -17q45 0 80.5 23.5t54.5 62.5l72 -45q-25 -56 -84 -91.5t-131 -35.5q-48 0 -89.5 17t-65.5 37.5t-57 37.5t-67 17q-41 0 -76.5 -22.5t-56.5 -59.5z" />
    </font>
</defs>
</svg>
