<svg width="25" height="24" viewBox="0 0 25 24" fill="none" xmlns="http://www.w3.org/2000/svg">
<g clip-path="url(#clip0_167_48898)">
<path d="M9.99144 23.1295C8.67369 23.1295 7.60156 22.0573 7.60156 20.7396C7.60156 19.4218 8.67369 18.3501 9.99144 18.3501C11.3092 18.3501 12.3813 19.4218 12.3813 20.7396C12.3813 22.0573 11.3092 23.1295 9.99144 23.1295ZM9.99144 19.8501C9.50094 19.8501 9.10156 20.2491 9.10156 20.7396C9.10156 21.2305 9.50056 21.6295 9.99144 21.6295C10.4823 21.6295 10.8813 21.2305 10.8813 20.7396C10.8813 20.2491 10.4823 19.8501 9.99144 19.8501Z" fill="#686868"/>
<path d="M18.2997 23.1295C16.9819 23.1295 15.9102 22.0573 15.9102 20.7396C15.9102 19.4218 16.9819 18.3501 18.2997 18.3501C19.6174 18.3501 20.6895 19.4218 20.6895 20.7396C20.6895 22.0573 19.617 23.1295 18.2997 23.1295ZM18.2997 19.8501C17.8092 19.8501 17.4102 20.2491 17.4102 20.7396C17.4102 21.2305 17.8092 21.6295 18.2997 21.6295C18.7905 21.6295 19.1895 21.2305 19.1895 20.7396C19.1895 20.2491 18.7902 19.8501 18.2997 19.8501Z" fill="#686868"/>
<path d="M20.0489 16.4975H8.2668C7.12042 16.4975 6.1413 15.7171 5.88555 14.5996L3.44017 3.92074C3.40792 3.77974 3.31042 3.65899 3.17917 3.59824L1.1508 2.65812C0.681296 2.44062 0.476921 1.88337 0.694421 1.41349C0.911921 0.943991 1.46955 0.739616 1.93905 0.957116L3.96742 1.89724C4.62105 2.19987 5.10742 2.79987 5.26792 3.50224L7.71329 14.1819C7.77255 14.4414 8.00017 14.6229 8.2668 14.6229H20.0489C20.3144 14.6229 20.5417 14.4425 20.6024 14.1837L22.5037 6.00387C22.558 5.77137 22.459 5.60224 22.3957 5.52237C22.3319 5.44212 22.1894 5.30787 21.9509 5.30787H8.07592C7.55805 5.30787 7.13842 4.88824 7.13842 4.37037C7.13842 3.85249 7.55805 3.43287 8.07592 3.43287H21.9509C22.7005 3.43287 23.3973 3.76924 23.8638 4.35612C24.3303 4.94299 24.4998 5.69824 24.3303 6.42837L22.4287 14.6086C22.1695 15.7205 21.1912 16.4975 20.0489 16.4975Z" fill="#686868"/>
</g>
<defs>
<clipPath id="clip0_167_48898">
<rect width="24" height="24" fill="white" transform="translate(0.5)"/>
</clipPath>
</defs>
</svg>
