<svg width="25" height="24" viewBox="0 0 25 24" fill="none" xmlns="http://www.w3.org/2000/svg">
<path d="M11.4395 1.9314C6.4808 1.9314 2.44147 5.97072 2.44147 10.9295C2.44147 15.8882 6.4808 19.9354 11.4395 19.9354C13.5575 19.9354 15.5055 19.1931 17.045 17.9607L20.793 21.7068C20.9822 21.8881 21.2348 21.9881 21.4968 21.9855C21.7588 21.9828 22.0093 21.8776 22.1947 21.6925C22.3801 21.5073 22.4856 21.257 22.4887 20.995C22.4917 20.733 22.392 20.4802 22.211 20.2908L18.463 16.5428C19.6964 15.0009 20.4395 13.0499 20.4395 10.9295C20.4395 5.97072 16.3982 1.9314 11.4395 1.9314ZM11.4395 3.93143C15.3174 3.93143 18.4376 7.05163 18.4376 10.9295C18.4376 14.8073 15.3174 17.9353 11.4395 17.9353C7.56168 17.9353 4.44147 14.8073 4.44147 10.9295C4.44147 7.05163 7.56168 3.93143 11.4395 3.93143Z" fill="#FF5B00"/>
</svg>
