<svg width="25" height="22" viewBox="0 0 25 22" fill="none" xmlns="http://www.w3.org/2000/svg">
<path d="M22.135 3.24984C22.0057 1.58035 20.6069 0.26123 18.9048 0.26123H3.74103C1.95392 0.26123 0.5 1.71515 0.5 3.50226V18.4978C0.5 20.2849 1.95392 21.7388 3.74103 21.7388H21.259C23.0461 21.7388 24.5 20.2849 24.5 18.4978V6.36956C24.5 4.88606 23.4977 3.63309 22.135 3.24984ZM3.74103 1.77529H18.9049C19.7288 1.77529 20.4193 2.35541 20.5907 3.12857H3.74103C3.1065 3.12857 2.51445 3.31258 2.01406 3.62902V3.50226C2.01406 2.55001 2.78878 1.77529 3.74103 1.77529ZM21.259 20.2248H3.74103C2.78878 20.2248 2.01406 19.45 2.01406 18.4978V6.36956C2.01406 5.41731 2.78878 4.64258 3.74103 4.64258H21.259C22.2113 4.64258 22.986 5.41731 22.986 6.36956V9.01149H18.1587C16.2458 9.01149 14.6895 10.5678 14.6895 12.4807C14.6895 14.3936 16.2458 15.95 18.1587 15.95H22.9859V18.4978C22.9859 19.45 22.2112 20.2248 21.259 20.2248ZM22.9859 14.4359H18.1587C17.0806 14.4359 16.2036 13.5588 16.2036 12.4807C16.2036 11.4026 17.0806 10.5256 18.1587 10.5256H22.9859V14.4359Z" fill="#686868"/>
</svg>
