<svg width="50" height="51" viewBox="0 0 50 51" fill="none" xmlns="http://www.w3.org/2000/svg">
<g id="quote 1">
<g id="Group">
<path id="Vector" d="M10.3125 30.5634C9.28125 33.1571 7.65628 35.7196 5.48439 38.1884C4.79689 38.9697 4.70314 40.0946 5.26562 40.9696C5.70317 41.6571 6.42186 42.0321 7.20311 42.0321C7.42188 42.0321 7.64066 42.0166 7.85942 41.9384C12.4531 40.5946 23.1875 35.829 23.4844 20.5477C23.5937 14.6572 19.2813 9.59468 13.6719 9.01656C10.5625 8.70404 7.4688 9.71961 5.17188 11.7821C2.87505 13.8603 1.5625 16.8291 1.5625 19.9228C1.5625 25.079 5.2188 29.5947 10.3125 30.5634Z" fill="#FF5B00"/>
<path id="Vector_2" d="M38.6094 9.01656C35.5156 8.70404 32.4219 9.71961 30.125 11.7821C27.8281 13.8603 26.5156 16.8291 26.5156 19.9228C26.5156 25.079 30.1719 29.5947 35.2656 30.5634C34.2343 33.1571 32.6094 35.7196 30.4375 38.1884C29.75 38.9697 29.6562 40.0946 30.2188 40.9696C30.6563 41.6571 31.375 42.0321 32.1563 42.0321C32.375 42.0321 32.5937 42.0165 32.8125 41.9383C37.4062 40.5946 48.1406 35.829 48.4375 20.5477V20.329C48.4375 14.5321 44.1719 9.59468 38.6094 9.01656Z" fill="#FF5B00"/>
</g>
</g>
</svg>
