<svg width="84" height="107" viewBox="0 0 84 107" fill="none" xmlns="http://www.w3.org/2000/svg">
<g id="Group" opacity="0.5">
<path id="Vector" d="M16.8488 46.8916C26.9009 46.8916 26.9031 31.6851 16.8488 31.6851C6.79447 31.6851 6.7989 46.8916 16.8488 46.8916ZM23.5752 39.2883C23.5752 48.1935 10.1223 48.1824 10.1223 39.2883C10.1223 30.3942 23.5752 30.3942 23.5752 39.2883Z" fill="white"/>
<path id="Vector_2" d="M24.97 29.4886C23.3604 28.0272 21.5647 30.5691 22.9707 31.9086C24.5626 33.04 26.7103 30.7905 24.97 29.4886Z" fill="white"/>
<path id="Vector_3" d="M25.0751 34.2955C25.8633 35.7967 28.9011 34.7494 27.7475 32.6504C26.822 30.9013 24.123 32.3825 25.0751 34.2955Z" fill="white"/>
<path id="Vector_4" d="M29.349 36.5491C28.6737 34.2818 25.7643 35.597 26.2869 37.2354C26.6301 39.0266 29.7874 38.7787 29.349 36.5491Z" fill="white"/>
<path id="Vector_5" d="M26.4201 40.4128C26.3781 42.3944 29.4335 42.8882 29.542 40.756C29.8298 38.5397 26.6748 38.5596 26.4201 40.4128Z" fill="white"/>
<path id="Vector_6" d="M27.5448 42.7001C25.8156 42.1975 24.5159 44.3053 26.2629 45.5031C28.0142 46.7143 29.8121 43.3333 27.5448 42.7001Z" fill="white"/>
<path id="Vector_7" d="M23.7347 48.2C25.072 50.0289 27.7113 47.2679 25.8979 45.997C24.2506 44.8545 22.5989 46.6878 23.7347 48.2Z" fill="white"/>
<path id="Vector_8" d="M21.1975 47.954C19.424 49.1541 20.9318 51.7955 22.6168 50.7571C24.7379 49.5924 22.6655 47.1459 21.1975 47.954Z" fill="white"/>
<path id="Vector_9" d="M11.312 55.5621C10.1009 58.7991 15.8265 59.8663 15.9262 56.4677C16.0147 53.4432 12.3194 52.8476 11.312 55.5621Z" fill="white"/>
<path id="Vector_10" d="M6.36427 52.8917C4.09259 55.6372 9.24927 58.3317 10.4095 55.2829C11.5475 52.2562 8.0935 50.7595 6.36427 52.8917Z" fill="white"/>
<path id="Vector_11" d="M2.16117 52.1919C3.93468 54.6053 7.63227 51.769 5.77463 49.0435C4.18711 47.1083 -0.216787 49.2914 2.16117 52.1919Z" fill="white"/>
<path id="Vector_12" d="M0.353247 48.1665C2.04262 48.5452 4.03755 46.796 3.18511 44.9383C2.82421 43.7228 1.49352 43.3044 0.353248 43.5944L0.353247 48.1688L0.353247 48.1665Z" fill="white"/>
<path id="Vector_13" d="M0.353648 42.5695C1.40535 42.2684 2.30207 41.3761 2.18029 40.1982C1.91903 38.9849 1.1773 38.3206 0.353648 38.0859L0.353648 42.5695Z" fill="white"/>
<path id="Vector_14" d="M0.353005 37.0428C1.27851 37.0405 2.22834 36.5534 2.71323 35.3844C3.1937 33.8788 1.7789 32.433 0.353005 32.3245L0.353005 37.0428Z" fill="white"/>
<path id="Vector_15" d="M0.80161 28.2395C0.458422 28.7776 0.32778 29.2913 0.349921 29.7584L0.349921 29.7761C0.467269 31.8065 3.52718 32.9003 4.72945 30.974C6.41218 29.0034 3.08436 25.3944 0.80161 28.2395Z" fill="white"/>
<path id="Vector_16" d="M8.14842 27.5135C10.5773 25.3902 7.64359 21.7214 5.30769 23.6588C2.50241 25.9437 6.14243 29.1963 8.14842 27.5135Z" fill="white"/>
<path id="Vector_17" d="M12.4774 25.3502C15.2407 24.3096 14.1933 19.6578 11.0515 20.7825C7.84547 21.6239 9.57916 26.03 12.4774 25.3502Z" fill="white"/>
<path id="Vector_18" d="M14.9854 22.399C15.3419 25.16 19.0815 25.6028 19.6882 22.4941C20.3214 19.246 14.4894 18.8896 14.9854 22.399Z" fill="white"/>
<path id="Vector_19" d="M20.6156 22.6427C19.9891 25.8178 23.6489 26.73 25.004 24.3498C26.8151 21.2545 21.26 19.4544 20.6156 22.6427Z" fill="white"/>
<path id="Vector_20" d="M25.8397 24.7969C24.3451 27.3653 27.2257 29.741 29.4642 27.7838C32.0237 25.5342 27.56 21.8344 25.8397 24.7969Z" fill="white"/>
<path id="Vector_21" d="M29.4204 31.6694C30.6315 33.972 35.2546 32.3557 33.4966 29.163C32.0685 26.4839 27.9768 28.7711 29.4204 31.6694Z" fill="white"/>
<path id="Vector_22" d="M31.2711 36.1575C31.807 38.9185 36.6072 38.4846 35.9429 35.1147C34.9156 31.6739 30.4497 33.6445 31.2711 36.1575Z" fill="white"/>
<path id="Vector_23" d="M31.4761 41.0059C31.3786 44.037 36.0681 44.7788 36.2342 41.5285C36.6682 38.0302 31.8303 38.2759 31.4761 41.0059Z" fill="white"/>
<path id="Vector_24" d="M30.1954 45.6667C28.9577 47.9185 32.7771 50.9717 34.524 47.717C35.9588 45.0822 31.8383 42.857 30.1954 45.6667Z" fill="white"/>
<path id="Vector_25" d="M27.4474 49.6767C25.4259 51.5676 28.3552 55.4312 30.8837 53.0178C33.1864 50.2723 29.0947 47.6243 27.4474 49.6767Z" fill="white"/>
<path id="Vector_26" d="M23.5082 52.5153C20.7538 54.3574 23.1362 58.3472 25.6714 56.7885C28.9217 55.0061 25.7024 51.282 23.5082 52.5153Z" fill="white"/>
<path id="Vector_27" d="M16.8671 56.5625C16.7829 59.7508 22.5972 59.2748 21.5189 55.8474C20.7174 53.2568 16.9556 53.2391 16.8671 56.5625Z" fill="white"/>
<path id="Vector_28" d="M5.39596 -25.6387C3.1907 -23.7633 1.56553 -22.2311 0.352196 -20.9713L0.352195 -19.1291C1.51018 -20.3602 3.22389 -21.9721 5.65721 -24.1596C23.4764 -16.977 11.3829 -19.6539 8.47356 -8.20916C5.73913 -12.2211 2.41575 -13.4832 0.352195 -14.3998L0.352195 -13.0713C4.14276 -11.32 8.01744 -8.51689 8.01744 -4.85474C8.01744 2.58026 11.9918 0.195645 7.20044 12.7895C3.75085 10.861 1.67402 9.39531 0.352194 8.15762L0.352194 9.76286C7.1451 15.4133 8.01747 12.1298 4.72729 18.3005C1.99507 18.2075 0.8393 18.2739 0.352194 17.8599L0.352194 19.2459C1.40833 19.3743 2.34931 19.4607 3.09989 19.5116C1.68065 20.5013 0.841513 21.2984 0.352194 21.77L0.352194 23.4483C4.37745 19.195 10.0943 16.4317 16.8496 16.4317C32.5543 16.4317 43.6913 32.0457 38.3597 46.9556C38.1626 47.1194 35.7382 53.3787 34.2791 53.9012C33.8628 56.3279 19.9449 67.3321 5.58634 59.1553C5.49999 59.0026 2.04821 56.8571 0.354405 55.1921L0.354405 56.8482C3.50067 59.7974 4.32875 58.883 0.354405 59.3458L0.354404 60.692C0.843731 60.3001 2.00167 60.3798 4.74275 60.2868C8.00193 66.4132 7.05433 63.2626 0.354404 68.8288L0.354404 70.5602C2.57738 68.6185 5.03947 67.0132 7.21152 65.7999C12.8154 80.5437 7.06757 75.1723 8.11706 84.9387C6.45868 88.0695 3.57595 90.1884 0.354403 91.6696L0.354403 93.0092C2.38697 92.0483 5.75241 90.8039 8.48242 86.7897C11.3851 98.2456 23.5052 95.5466 5.67494 102.742C3.20619 100.524 1.49246 98.8987 0.354403 97.6588L0.354403 99.5386C1.56996 100.801 3.19951 102.337 5.41363 104.219C28.1725 95.7547 5.61293 95.8322 28.3054 104.21C46.6715 88.5987 25.6175 96.1975 49.82 96.3813C61.7917 75.4291 44.5216 89.7722 67.358 81.6685C71.4718 57.7273 60.0602 77.3842 78.8116 61.8411C74.4454 37.9198 70.5707 60.2115 82.7793 39.2903C70.5485 18.3315 74.4188 40.6941 78.8028 16.7395C60.1665 1.29166 71.4187 20.8689 67.3558 -3.09009C44.6566 -11.1849 61.7518 3.24893 49.8177 -17.8051C25.6086 -17.6213 46.6604 -10.0203 28.2988 -25.6365C5.686 -17.225 28.1017 -17.1918 5.40034 -25.6365L5.39596 -25.6387ZM9.44331 -6.53971C10.0544 -11.1251 13.2317 -14.8227 16.8496 -17.7077C28.0242 -8.79588 22.6594 -5.32415 22.6594 0.886447C22.6594 3.92421 18.8268 8.79307 16.8474 11.0869C7.24917 -0.0301814 13.2361 1.24734 9.44331 -6.53971ZM35.0452 6.44612C32.4569 9.12963 29.2375 11.2574 26.4987 12.7873C25.385 9.8514 24.2868 6.14496 24.0277 2.42303C27.0921 -4.76177 22.4623 -9.60624 36.3449 -14.2714C44.0234 -1.70849 37.3722 -1.22801 35.0474 6.44612L35.0452 6.44612ZM40.6269 -0.572618C43.9924 -3.64581 48.9631 -4.48721 53.4843 -4.37651C54.401 0.158 54.4607 5.04017 51.9765 8.94808C43.1245 12.9003 50.1654 15.2273 34.9765 17.6828C34.7706 2.98988 38.528 7.82995 40.6247 -0.574835L40.6269 -0.572618ZM14.6775 15.2893C17.5005 12.5748 16.1012 12.4796 19.0194 15.2893C17.3854 15.1432 16.3071 15.1432 14.6775 15.2893ZM22.9516 4.66596C24.4417 14.9837 27.8869 12.6722 21.0564 15.4244C15.6296 10.5489 18.0806 13.7416 22.9516 4.66596ZM10.7408 4.67926C15.665 13.8501 18.1205 10.4935 12.6383 15.4244C5.86755 12.6966 9.25735 14.8775 10.7408 4.67926ZM7.87797 14.645C8.96289 15.2074 9.93046 15.6635 10.701 16.0044C5.54208 17.3683 6.07126 18.9824 7.87797 14.645ZM25.8212 14.645C26.2928 15.7742 26.74 16.7462 27.112 17.5034C22.3029 15.2295 21.6542 16.8038 25.8212 14.645ZM34.4429 8.82629C32.3085 19.0356 36.3028 18.0459 28.9696 18.2983C25.54 11.8508 26.7577 15.6989 34.4429 8.82629ZM33.7101 19.195C33.7654 20.4127 33.854 21.4666 33.9425 22.3014C30.2273 18.5617 29.0648 19.7972 33.7101 19.195ZM35.4149 23.7074C34.3986 16.4606 34.1861 20.519 43.7909 16.6798C38.2291 25.6469 42.4292 25.9901 35.4149 23.7074ZM39.5598 26.1716C39.1944 27.3363 38.9154 28.3681 38.7139 29.1829C36.4644 24.3362 34.9965 25.1487 39.5598 26.1716ZM49.8975 27.2566C41.6299 33.7661 45.4426 35.5418 39.6217 30.994C41.1362 23.8513 39.5907 27.5799 49.8975 27.2566ZM40.0911 32.9668C43.2706 35.285 43.1245 33.8879 40.8572 37.2644C40.7332 35.7876 40.4698 34.3551 40.0911 32.9668ZM43.7998 35.4289C54.7663 42.0535 54.7596 36.516 43.802 43.1407C40.5893 38.9848 40.3723 39.8638 43.7998 35.4289ZM42.6817 43.8381C41.6477 44.5001 40.7687 45.1112 40.0889 45.6072C41.4971 40.4416 39.8432 40.1228 42.6817 43.8381ZM49.8997 51.3107C39.48 50.9808 41.1583 54.7603 39.6372 47.5689C45.3696 43.0831 41.8248 44.9518 49.8997 51.3107ZM39.573 52.3935C38.373 52.6614 37.3368 52.9359 36.5264 53.1706C39.5996 48.8287 38.1693 47.8966 39.573 52.3935ZM30.6036 59.0579C34.9743 56.0091 33.9337 54.7205 33.7211 59.3679C32.5078 59.2107 31.445 59.1133 30.6036 59.0579ZM35.4282 54.8577C42.3717 52.5971 38.3685 53.1241 43.8042 61.8876C34.0931 57.9996 34.4009 62.1422 35.4282 54.8577ZM19.0437 63.2803C16.2119 65.9992 17.6179 66.0988 14.6886 63.2803C16.285 63.4242 17.3809 63.4308 19.0437 63.2803ZM21.0763 63.1518C27.8626 65.8863 24.4329 63.7186 22.9605 73.9102C18.023 64.7039 15.6008 68.0716 21.0763 63.1518ZM26.5097 65.7822C29.2486 67.3122 32.4701 69.4443 35.0607 72.1301C37.3611 79.7046 44.03 80.2825 36.3559 92.8409C22.4203 88.1581 27.174 83.5217 24.0344 76.1553C24.2912 72.429 25.3916 68.7203 26.5075 65.7822L26.5097 65.7822ZM36.2142 71.4747C35.1824 67.8856 34.9477 64.0264 34.992 60.8846C38.0918 61.3872 41.8491 62.2883 45.2035 63.929C49.8775 70.1529 56.3937 68.6008 53.4954 82.9438C38.8114 83.3092 41.6787 77.3178 36.2164 71.4747L36.2142 71.4747ZM33.6636 61.6839C33.6636 73.3235 37.9589 70.5868 26.9968 64.5489C27.8471 62.4743 28.6375 60.9133 28.9829 60.2668C34.4252 60.455 33.6636 60.6233 33.6636 61.6839ZM25.83 63.9245C24.7406 63.3599 23.7731 62.9061 23.0026 62.5651C28.1836 61.1946 27.6411 59.576 25.83 63.9245ZM6.59599 61.0683C11.4206 63.3489 12.0737 61.768 7.89122 63.9334C7.41739 62.7976 6.96796 61.8256 6.59599 61.0683ZM12.6582 63.1562C18.1027 68.0517 15.5942 64.8788 10.7497 73.8991C9.25071 63.5437 5.82766 65.9084 12.6582 63.1562ZM10.9932 76.3922C12.5121 72.9781 14.8125 69.8672 16.8673 67.4893C26.9725 79.1842 20.0158 76.3413 24.2602 85.0937C23.6491 89.6902 20.4917 93.3812 16.8584 96.2817C5.40033 87.1462 11.4227 84.3608 10.9932 76.3922ZM28.0463 102.727C9.92156 95.427 22.2586 98.529 25.2322 86.772C31.879 96.554 42.3584 89.8629 28.0463 102.727ZM49.0716 95.075C29.5785 94.3997 42.1968 93.0756 40.9701 81.0441C50.5617 87.9654 58.1052 78.1082 49.0716 95.075ZM66.2111 80.6965C47.6147 86.7388 59.0927 81.2102 53.7987 70.2769C65.1594 73.494 68.9057 61.5732 66.2111 80.6965ZM46.056 62.9105C43.8596 59.8927 42.3185 56.3479 41.289 53.3809C55.6851 50.6332 51.62 55.1655 60.2374 55.781C63.904 58.5996 65.5269 63.1696 66.2199 67.7793C52.5455 73.1442 53.1876 66.535 46.056 62.9127L46.056 62.9105ZM77.4012 61.3185C62.0352 73.3279 70.8364 64.1947 62.1725 55.7766C73.9317 54.9043 73.4025 42.4255 77.4012 61.3185ZM72.9885 49.1786C62.0131 58.8653 60.2595 52.4555 52.3618 51.499C49.2709 49.4133 46.6139 46.6124 44.6301 44.1791C57.7377 36.3544 54.3633 42.483 63.2574 39.9479C67.7499 41.3738 70.6415 44.8743 72.9885 49.1786ZM81.2781 39.2815C70.9426 55.863 76.1392 44.2477 65.0752 39.2815C76.1525 34.2909 70.9293 22.7044 81.2781 39.2815ZM72.9796 29.3821C65.9609 42.2661 62.1924 36.806 54.4032 38.6194C50.7831 37.7183 47.3247 35.9935 44.6279 34.386C46.6095 31.9549 49.2664 29.1519 52.3573 27.0662C60.0846 26.134 61.9865 19.6865 72.9796 29.3821ZM77.3924 17.2422C73.3427 36.3367 74.2439 23.683 62.1703 22.7863C70.8718 14.3151 62.002 5.21729 77.3924 17.2422ZM66.2111 10.7835C65.5181 15.38 63.9018 19.9545 60.2374 22.7841C50.5639 23.4727 56.3915 28.0691 41.2757 25.1819C46.3482 10.6131 47.4863 17.8665 52.8356 9.96211C57.1155 8.2041 61.8692 9.08088 66.2133 10.7835L66.2111 10.7835ZM66.2044 -2.13358C68.9189 17.1912 65.4472 4.99805 53.7987 8.28601C58.9377 -2.35946 47.9136 -8.08513 66.2044 -2.13358ZM49.0649 -16.5143C58.2247 0.735925 50.823 -9.58631 40.9613 -2.48343C42.1569 -14.2271 29.7844 -15.8456 49.0649 -16.5143ZM28.0353 -24.1663C42.3341 -11.3022 31.8768 -17.9866 25.2255 -8.21575C22.3184 -19.6694 10.205 -16.9726 28.0353 -24.1663Z" fill="white"/>
<path id="Vector_29" d="M84.0001 33.8679C81.2413 18.2031 83.4908 19.0046 76.6713 28.7356L84.0001 33.8679Z" fill="white"/>
<path id="Vector_30" d="M78.0937 11.2284C70.1495 -2.53899 72.5363 -2.57219 69.4543 8.91022L78.0937 11.2284Z" fill="white"/>
<path id="Vector_31" d="M16.8609 100.032L10.5285 106.351C26.4547 106.347 25.2457 108.406 16.8609 100.032Z" fill="white"/>
<path id="Vector_32" d="M33.8503 104.465C48.7889 99.0271 48.4103 101.383 37.6342 96.3613L33.8503 104.465Z" fill="white"/>
<path id="Vector_33" d="M64.8027 86.5882C53.5927 85.6096 56.1012 83.4995 55.1204 94.7251L64.8027 86.5882Z" fill="white"/>
<path id="Vector_34" d="M71.7715 78.2963C79.7268 64.4979 80.9047 66.5792 69.4577 69.6502L71.7715 78.2963Z" fill="white"/>
<path id="Vector_35" d="M81.8021 57.158C84.5564 41.4843 86.3942 43.012 76.6653 49.8248L81.8021 57.158Z" fill="white"/>
</g>
</svg>
